%TF.GenerationSoftware,KiCad,Pcbnew,8.0.8*%
%TF.CreationDate,2025-03-31T21:39:46-04:00*%
%TF.ProjectId,vindriktrning-esp32-s3,76696e64-7269-46b7-9472-6e696e672d65,rev?*%
%TF.SameCoordinates,Original*%
%TF.FileFunction,Copper,L4,Bot*%
%TF.FilePolarity,Positive*%
%FSLAX46Y46*%
G04 Gerber Fmt 4.6, Leading zero omitted, Abs format (unit mm)*
G04 Created by KiCad (PCBNEW 8.0.8) date 2025-03-31 21:39:46*
%MOMM*%
%LPD*%
G01*
G04 APERTURE LIST*
%TA.AperFunction,ComponentPad*%
%ADD10C,1.500000*%
%TD*%
%TA.AperFunction,ComponentPad*%
%ADD11C,1.200000*%
%TD*%
%TA.AperFunction,ComponentPad*%
%ADD12C,0.650000*%
%TD*%
%TA.AperFunction,SMDPad,CuDef*%
%ADD13R,0.800000X0.650000*%
%TD*%
%TA.AperFunction,SMDPad,CuDef*%
%ADD14R,1.300000X1.400000*%
%TD*%
%TA.AperFunction,ViaPad*%
%ADD15C,0.600000*%
%TD*%
%TA.AperFunction,ViaPad*%
%ADD16C,0.400000*%
%TD*%
%TA.AperFunction,Conductor*%
%ADD17C,0.200000*%
%TD*%
G04 APERTURE END LIST*
D10*
%TO.P,IC1,1,VDD*%
%TO.N,+3V3*%
X85725000Y-92800000D03*
%TO.P,IC1,2,GND*%
%TO.N,GND*%
X88265000Y-92800000D03*
%TO.P,IC1,3,TX/_SCL*%
%TO.N,SCL*%
X90805000Y-92800000D03*
%TO.P,IC1,4,RX/_SDA*%
%TO.N,SDA*%
X93345000Y-92800000D03*
%TO.P,IC1,5,RDY*%
%TO.N,unconnected-(IC1-RDY-Pad5)*%
X95885000Y-92800000D03*
%TO.P,IC1,6,PWM*%
%TO.N,unconnected-(IC1-PWM-Pad6)*%
X98425000Y-92800000D03*
%TO.P,IC1,7,SEL*%
%TO.N,unconnected-(IC1-SEL-Pad7)*%
X100965000Y-92800000D03*
%TD*%
D11*
%TO.P,USB1,17,EH*%
%TO.N,unconnected-(USB1-EH-Pad17)*%
X104775000Y-152175000D03*
X104775000Y-147875000D03*
X99975000Y-152175000D03*
X99975000Y-147875000D03*
D12*
%TO.P,USB1,*%
%TO.N,*%
X106125000Y-150025000D03*
X98625000Y-150025000D03*
%TD*%
D13*
%TO.P,LED1,4,DI*%
%TO.N,Net-(LED1-DI)*%
X101550000Y-119275000D03*
%TO.P,LED1,3,GND*%
%TO.N,GND*%
X103050000Y-119275000D03*
%TO.P,LED1,2,VDD*%
%TO.N,+5V*%
X101550000Y-118375000D03*
%TO.P,LED1,1,DO*%
%TO.N,Net-(LED1-DO)*%
X103050000Y-118375000D03*
%TD*%
D14*
%TO.P,U1,1,E*%
%TO.N,GND*%
X103170000Y-83490000D03*
%TO.P,U1,2,C*%
%TO.N,LIGHT*%
X101070000Y-83490000D03*
%TD*%
D13*
%TO.P,LED2,1,DO*%
%TO.N,Net-(LED2-DO)*%
X103050000Y-108450000D03*
%TO.P,LED2,2,VDD*%
%TO.N,+5V*%
X101550000Y-108450000D03*
%TO.P,LED2,3,GND*%
%TO.N,GND*%
X103050000Y-109350000D03*
%TO.P,LED2,4,DI*%
%TO.N,Net-(LED1-DO)*%
X101550000Y-109350000D03*
%TD*%
%TO.P,LED4,1,DO*%
%TO.N,unconnected-(LED4-DO-Pad1)*%
X103050000Y-87275000D03*
%TO.P,LED4,2,VDD*%
%TO.N,+5V*%
X101550000Y-87275000D03*
%TO.P,LED4,3,GND*%
%TO.N,GND*%
X103050000Y-88175000D03*
%TO.P,LED4,4,DI*%
%TO.N,Net-(LED3-DO)*%
X101550000Y-88175000D03*
%TD*%
%TO.P,LED3,1,DO*%
%TO.N,Net-(LED3-DO)*%
X103050000Y-98450000D03*
%TO.P,LED3,2,VDD*%
%TO.N,+5V*%
X101550000Y-98450000D03*
%TO.P,LED3,3,GND*%
%TO.N,GND*%
X103050000Y-99350000D03*
%TO.P,LED3,4,DI*%
%TO.N,Net-(LED2-DO)*%
X101550000Y-99350000D03*
%TD*%
D15*
%TO.N,IO3*%
X98300000Y-120425000D03*
X96050000Y-118400000D03*
%TO.N,GND*%
X102825000Y-120350000D03*
X92225000Y-103850000D03*
X99425000Y-115750000D03*
X102325000Y-105850000D03*
X109025000Y-107550000D03*
X97925000Y-142550000D03*
X97325000Y-119750000D03*
X104375000Y-115775000D03*
X107575000Y-140575000D03*
X92625000Y-118750000D03*
X90825000Y-119050000D03*
X104525000Y-108550000D03*
X91025000Y-103850000D03*
%TO.N,+3V3*%
X93525000Y-124150000D03*
X98825000Y-124150000D03*
X105925000Y-108650000D03*
X105925000Y-106350000D03*
X104025000Y-129450000D03*
X95425000Y-82950000D03*
X90625000Y-84250000D03*
X109225000Y-131050000D03*
%TO.N,SDA*%
X98325000Y-99750000D03*
X100025000Y-103750000D03*
%TO.N,SCL*%
X99125000Y-106750000D03*
X96425000Y-100350000D03*
%TO.N,+5V*%
X100225000Y-89750000D03*
X112125000Y-114750000D03*
X110225000Y-127350000D03*
X100625000Y-135650000D03*
X102525000Y-81250000D03*
%TO.N,Net-(LED1-DI)*%
X107225000Y-121450000D03*
X104625000Y-119450000D03*
%TO.N,TX2*%
X96125000Y-87150000D03*
X99625000Y-109850000D03*
%TO.N,RX2*%
X99225000Y-108250000D03*
X96425000Y-81950000D03*
%TO.N,LED_DATA*%
X99325000Y-118850000D03*
X103725000Y-125350000D03*
%TO.N,LIGHT*%
X97925000Y-118950000D03*
X110525000Y-81750000D03*
D16*
%TO.N,CC2*%
X104525000Y-145850000D03*
X103125000Y-149950000D03*
D15*
%TO.N,D+*%
X98800000Y-134750000D03*
X102525000Y-111450000D03*
%TO.N,D-*%
X105991325Y-113630312D03*
D16*
X101625000Y-149950000D03*
X102625000Y-147950000D03*
D15*
X99650000Y-134750000D03*
%TO.N,5VIN*%
X102325000Y-144150000D03*
X100225000Y-146250000D03*
%TD*%
D17*
%TO.N,IO3*%
X97151471Y-120425000D02*
X98300000Y-120425000D01*
X96050000Y-118400000D02*
X96050000Y-119323529D01*
X96050000Y-119323529D02*
X97151471Y-120425000D01*
%TO.N,GND*%
X102825000Y-119500000D02*
X103050000Y-119275000D01*
X102825000Y-120350000D02*
X102825000Y-119500000D01*
%TO.N,+3V3*%
X105925000Y-106350000D02*
X105925000Y-108650000D01*
X93525000Y-124150000D02*
X98825000Y-124150000D01*
X90625000Y-84250000D02*
X91925000Y-82950000D01*
X109225000Y-131050000D02*
X105625000Y-131050000D01*
X105625000Y-131050000D02*
X104025000Y-129450000D01*
X91925000Y-82950000D02*
X95425000Y-82950000D01*
%TO.N,SDA*%
X98325000Y-99750000D02*
X98525000Y-99950000D01*
X98525000Y-99950000D02*
X98525000Y-102250000D01*
X98525000Y-102250000D02*
X100025000Y-103750000D01*
%TO.N,SCL*%
X96425000Y-104050000D02*
X99125000Y-106750000D01*
X96425000Y-100350000D02*
X96425000Y-104050000D01*
%TO.N,+5V*%
X102025000Y-90150000D02*
X100625000Y-90150000D01*
X99825000Y-89350000D02*
X99825000Y-87750000D01*
X99925000Y-98850000D02*
X100325000Y-98450000D01*
X101550000Y-108450000D02*
X101550000Y-102975000D01*
X109525000Y-125350000D02*
X110225000Y-126050000D01*
X100225000Y-110650000D02*
X100225000Y-109050000D01*
X112125000Y-114750000D02*
X109525000Y-117350000D01*
X101550000Y-98450000D02*
X102150000Y-98450000D01*
X102925000Y-91050000D02*
X102025000Y-90150000D01*
X102150000Y-98450000D02*
X102350000Y-98650000D01*
X110225000Y-126050000D02*
X110225000Y-127350000D01*
X99825000Y-87750000D02*
X100300000Y-87275000D01*
X100325000Y-98450000D02*
X101550000Y-98450000D01*
X102015000Y-94560000D02*
X102925000Y-93650000D01*
X100625000Y-90150000D02*
X100225000Y-89750000D01*
X100625000Y-135650000D02*
X102025000Y-134250000D01*
X109525000Y-117350000D02*
X109525000Y-125350000D01*
X100225000Y-109050000D02*
X100825000Y-108450000D01*
X103125000Y-127350000D02*
X105825000Y-127350000D01*
X100300000Y-87275000D02*
X101550000Y-87275000D01*
X101550000Y-98450000D02*
X102015000Y-97985000D01*
X99925000Y-101350000D02*
X99925000Y-98850000D01*
X101550000Y-118375000D02*
X101550000Y-111975000D01*
X102350000Y-98650000D02*
X102350000Y-99875000D01*
X102925000Y-93650000D02*
X102925000Y-91050000D01*
X102525000Y-81250000D02*
X102220000Y-81555000D01*
X107425000Y-101550000D02*
X112125000Y-106250000D01*
X102015000Y-97985000D02*
X102015000Y-94560000D01*
X102025000Y-134250000D02*
X102025000Y-128450000D01*
X105825000Y-127350000D02*
X110225000Y-127350000D01*
X102220000Y-86605000D02*
X101550000Y-87275000D01*
X100825000Y-108450000D02*
X101550000Y-108450000D01*
X102220000Y-81555000D02*
X102220000Y-86605000D01*
X112125000Y-106250000D02*
X112125000Y-114750000D01*
X104025000Y-101550000D02*
X107425000Y-101550000D01*
X101550000Y-102975000D02*
X99925000Y-101350000D01*
X100225000Y-89750000D02*
X99825000Y-89350000D01*
X102350000Y-99875000D02*
X104025000Y-101550000D01*
X101550000Y-111975000D02*
X100225000Y-110650000D01*
X102025000Y-128450000D02*
X103125000Y-127350000D01*
%TO.N,Net-(LED1-DI)*%
X101550000Y-119275000D02*
X101550000Y-120475000D01*
X101550000Y-120475000D02*
X102025000Y-120950000D01*
X102025000Y-120950000D02*
X103125000Y-120950000D01*
X103125000Y-120950000D02*
X104625000Y-119450000D01*
%TO.N,Net-(LED1-DO)*%
X102125000Y-111950000D02*
X101550000Y-111375000D01*
X102125000Y-117450000D02*
X102125000Y-111950000D01*
X101550000Y-111375000D02*
X101550000Y-109350000D01*
X103050000Y-118375000D02*
X102125000Y-117450000D01*
%TO.N,Net-(LED2-DO)*%
X101550000Y-100625000D02*
X101550000Y-99350000D01*
X103050000Y-108450000D02*
X103050000Y-102125000D01*
X103050000Y-102125000D02*
X101550000Y-100625000D01*
%TO.N,Net-(LED3-DO)*%
X103625000Y-90550000D02*
X101550000Y-88475000D01*
X103050000Y-98450000D02*
X103625000Y-97875000D01*
X101550000Y-88475000D02*
X101550000Y-88175000D01*
X103625000Y-97875000D02*
X103625000Y-90550000D01*
%TO.N,TX2*%
X99475000Y-90500000D02*
X99475000Y-97751471D01*
X99475000Y-97751471D02*
X97725000Y-99501471D01*
X97725000Y-103850000D02*
X100525000Y-106650000D01*
X97725000Y-99501471D02*
X97725000Y-103850000D01*
X99625000Y-109084314D02*
X99625000Y-109850000D01*
X100525000Y-108184314D02*
X99625000Y-109084314D01*
X96125000Y-87150000D02*
X99475000Y-90500000D01*
X100525000Y-106650000D02*
X100525000Y-108184314D01*
%TO.N,RX2*%
X96425000Y-85950000D02*
X95325000Y-87050000D01*
X99725000Y-106450000D02*
X99725000Y-107750000D01*
X97225000Y-92655075D02*
X97225000Y-103950000D01*
X96425000Y-81950000D02*
X96425000Y-85950000D01*
X95325000Y-90755075D02*
X97225000Y-92655075D01*
X99725000Y-107750000D02*
X99225000Y-108250000D01*
X97225000Y-103950000D02*
X99725000Y-106450000D01*
X95325000Y-87050000D02*
X95325000Y-90755075D01*
%TO.N,LED_DATA*%
X97625000Y-136350000D02*
X97625000Y-126750000D01*
X100625000Y-123750000D02*
X100625000Y-122850000D01*
X100425521Y-134823008D02*
X98898529Y-136350000D01*
X100425521Y-128649479D02*
X100425521Y-134823008D01*
X98898529Y-136350000D02*
X97625000Y-136350000D01*
X97625000Y-126750000D02*
X100625000Y-123750000D01*
X103725000Y-125350000D02*
X100425521Y-128649479D01*
X100625000Y-122850000D02*
X100625000Y-120150000D01*
X100625000Y-120150000D02*
X99325000Y-118850000D01*
%TO.N,LIGHT*%
X94835000Y-115860000D02*
X94835000Y-86740000D01*
X105725000Y-80650000D02*
X104625000Y-79550000D01*
X95825000Y-81701471D02*
X96876471Y-80650000D01*
X104625000Y-79550000D02*
X101425000Y-79550000D01*
X95825000Y-82198529D02*
X95825000Y-81701471D01*
X101425000Y-79550000D02*
X101070000Y-79905000D01*
X94835000Y-86740000D02*
X96025000Y-85550000D01*
X96876471Y-80650000D02*
X101070000Y-80650000D01*
X109425000Y-80650000D02*
X105725000Y-80650000D01*
X101070000Y-80650000D02*
X101070000Y-83490000D01*
X101070000Y-79905000D02*
X101070000Y-80650000D01*
X96025000Y-85550000D02*
X96025000Y-82398529D01*
X96025000Y-82398529D02*
X95825000Y-82198529D01*
X97925000Y-118950000D02*
X94835000Y-115860000D01*
X110525000Y-81750000D02*
X109425000Y-80650000D01*
%TO.N,CC2*%
X103125000Y-147250000D02*
X104525000Y-145850000D01*
X103125000Y-149950000D02*
X103125000Y-147250000D01*
%TO.N,D+*%
X105390283Y-114231354D02*
X104306354Y-114231354D01*
X99424479Y-126232321D02*
X105800000Y-119856800D01*
X105800000Y-119856800D02*
X105800000Y-114358228D01*
X98999999Y-134550001D02*
X98999999Y-131056802D01*
X103125000Y-113050000D02*
X102525000Y-112450000D01*
X105800000Y-114358228D02*
X105673126Y-114231354D01*
X98800000Y-134750000D02*
X98999999Y-134550001D01*
X99424479Y-130632322D02*
X99424479Y-126232321D01*
X105673126Y-114231354D02*
X105390283Y-114231354D01*
X98999999Y-131056802D02*
X99424479Y-130632322D01*
X104306354Y-114231354D02*
X103125000Y-113050000D01*
X102525000Y-112450000D02*
X102525000Y-111450000D01*
%TO.N,D-*%
X105991325Y-113913155D02*
X105991325Y-113630312D01*
X99450001Y-131243198D02*
X99742678Y-130950521D01*
X99450001Y-134550001D02*
X99450001Y-131243198D01*
X100025521Y-126267679D02*
X106250000Y-120043200D01*
X99650000Y-134750000D02*
X99450001Y-134550001D01*
X99742678Y-130950521D02*
X100025521Y-130950521D01*
X101625000Y-149950000D02*
X101625000Y-148950000D01*
X106250000Y-120043200D02*
X106250000Y-114171830D01*
X101625000Y-148950000D02*
X102625000Y-147950000D01*
X106250000Y-114171830D02*
X105991325Y-113913155D01*
X100025521Y-130950521D02*
X100025521Y-126267679D01*
%TO.N,5VIN*%
X100225000Y-146250000D02*
X102325000Y-144150000D01*
%TD*%
%TA.AperFunction,Conductor*%
%TO.N,GND*%
G36*
X115416860Y-77751097D02*
G01*
X115426023Y-77751999D01*
X115496093Y-77758900D01*
X115519924Y-77763639D01*
X115590267Y-77784977D01*
X115612713Y-77794275D01*
X115677544Y-77828927D01*
X115697735Y-77842418D01*
X115759212Y-77892870D01*
X115768219Y-77901034D01*
X121163022Y-83295835D01*
X121163026Y-83295839D01*
X121173892Y-83306706D01*
X121182062Y-83315721D01*
X121232569Y-83377267D01*
X121246074Y-83397480D01*
X121280717Y-83462298D01*
X121290018Y-83484754D01*
X121311348Y-83555075D01*
X121316090Y-83578916D01*
X121323902Y-83658244D01*
X121324499Y-83670396D01*
X121324499Y-83740086D01*
X121324500Y-83740099D01*
X121324500Y-119243054D01*
X121323720Y-119256944D01*
X121313536Y-119347288D01*
X121307356Y-119374357D01*
X121279642Y-119453550D01*
X121267594Y-119478566D01*
X121222947Y-119549617D01*
X121205633Y-119571326D01*
X121146305Y-119630650D01*
X121124599Y-119647960D01*
X121053548Y-119692604D01*
X121028529Y-119704652D01*
X120949331Y-119732363D01*
X120922262Y-119738541D01*
X120858445Y-119745731D01*
X120831921Y-119748720D01*
X120818040Y-119749500D01*
X113343489Y-119749500D01*
X113342331Y-119749495D01*
X113339898Y-119749472D01*
X113339899Y-119749472D01*
X113231900Y-119748463D01*
X113231894Y-119748463D01*
X113017830Y-119777299D01*
X113017825Y-119777300D01*
X112810092Y-119836493D01*
X112612969Y-119924827D01*
X112612962Y-119924831D01*
X112430525Y-120040481D01*
X112430524Y-120040481D01*
X112266532Y-120181062D01*
X112266529Y-120181065D01*
X112124362Y-120343673D01*
X112124359Y-120343677D01*
X112006937Y-120524978D01*
X112006932Y-120524986D01*
X111916685Y-120721229D01*
X111916682Y-120721238D01*
X111855465Y-120928385D01*
X111855464Y-120928387D01*
X111824543Y-121142165D01*
X111824543Y-121142168D01*
X111824529Y-121176108D01*
X111824500Y-121176562D01*
X111824500Y-147825500D01*
X111804815Y-147892539D01*
X111752011Y-147938294D01*
X111700500Y-147949500D01*
X108959108Y-147949500D01*
X108831812Y-147983608D01*
X108717686Y-148049500D01*
X108717683Y-148049502D01*
X108624502Y-148142683D01*
X108624500Y-148142686D01*
X108558608Y-148256812D01*
X108524500Y-148384108D01*
X108524500Y-151125500D01*
X108504815Y-151192539D01*
X108452011Y-151238294D01*
X108400500Y-151249500D01*
X105406036Y-151249500D01*
X105340759Y-151230927D01*
X105267637Y-151185652D01*
X105077456Y-151111976D01*
X104876976Y-151074500D01*
X104673024Y-151074500D01*
X104472544Y-151111976D01*
X104472541Y-151111976D01*
X104472541Y-151111977D01*
X104282365Y-151185651D01*
X104282364Y-151185651D01*
X104271240Y-151192539D01*
X104209240Y-151230927D01*
X104143964Y-151249500D01*
X100606036Y-151249500D01*
X100540759Y-151230927D01*
X100467637Y-151185652D01*
X100277456Y-151111976D01*
X100076976Y-151074500D01*
X99873024Y-151074500D01*
X99672544Y-151111976D01*
X99672541Y-151111976D01*
X99672541Y-151111977D01*
X99482365Y-151185651D01*
X99482364Y-151185651D01*
X99471240Y-151192539D01*
X99409240Y-151230927D01*
X99343964Y-151249500D01*
X96249500Y-151249500D01*
X96182461Y-151229815D01*
X96136706Y-151177011D01*
X96125500Y-151125500D01*
X96125500Y-150024999D01*
X97794953Y-150024999D01*
X97798821Y-150061800D01*
X97799500Y-150074761D01*
X97799500Y-150106309D01*
X97806868Y-150143351D01*
X97808571Y-150154576D01*
X97813091Y-150197572D01*
X97813091Y-150197574D01*
X97813092Y-150197576D01*
X97813185Y-150197862D01*
X97822601Y-150226844D01*
X97826285Y-150240963D01*
X97831224Y-150265791D01*
X97848057Y-150306432D01*
X97851425Y-150315562D01*
X97866711Y-150362605D01*
X97866712Y-150362608D01*
X97866714Y-150362611D01*
X97878975Y-150383849D01*
X97878982Y-150383860D01*
X97886154Y-150398404D01*
X97893450Y-150416018D01*
X97893451Y-150416020D01*
X97893452Y-150416021D01*
X97921344Y-150457764D01*
X97925627Y-150464651D01*
X97953476Y-150512886D01*
X97953480Y-150512891D01*
X97965715Y-150526480D01*
X97976666Y-150540560D01*
X97983793Y-150551227D01*
X97983794Y-150551228D01*
X98023697Y-150591130D01*
X98028168Y-150595841D01*
X98069588Y-150641844D01*
X98079325Y-150648918D01*
X98094123Y-150661557D01*
X98098770Y-150666204D01*
X98098773Y-150666206D01*
X98098775Y-150666208D01*
X98150878Y-150701021D01*
X98154843Y-150703784D01*
X98209976Y-150743842D01*
X98215248Y-150746189D01*
X98215259Y-150746194D01*
X98233714Y-150756371D01*
X98233763Y-150756403D01*
X98233979Y-150756548D01*
X98297630Y-150782912D01*
X98300514Y-150784151D01*
X98368501Y-150814422D01*
X98372813Y-150815823D01*
X98378225Y-150817520D01*
X98378381Y-150817007D01*
X98384208Y-150818774D01*
X98384211Y-150818776D01*
X98457931Y-150833439D01*
X98459390Y-150833740D01*
X98538236Y-150850500D01*
X98711763Y-150850500D01*
X98711764Y-150850500D01*
X98790626Y-150833736D01*
X98792051Y-150833443D01*
X98865789Y-150818776D01*
X98865794Y-150818773D01*
X98865798Y-150818773D01*
X98871627Y-150817005D01*
X98871782Y-150817516D01*
X98877255Y-150815800D01*
X98881495Y-150814423D01*
X98881495Y-150814422D01*
X98881499Y-150814422D01*
X98949494Y-150784147D01*
X98952358Y-150782917D01*
X99016021Y-150756548D01*
X99016274Y-150756378D01*
X99034742Y-150746193D01*
X99040024Y-150743842D01*
X99095163Y-150703779D01*
X99099127Y-150701018D01*
X99133653Y-150677948D01*
X99151225Y-150666208D01*
X99155870Y-150661562D01*
X99170667Y-150648923D01*
X99180410Y-150641845D01*
X99221852Y-150595817D01*
X99226283Y-150591148D01*
X99266208Y-150551225D01*
X99273340Y-150540549D01*
X99284285Y-150526477D01*
X99296522Y-150512889D01*
X99324373Y-150464647D01*
X99328633Y-150457796D01*
X99356548Y-150416021D01*
X99363846Y-150398402D01*
X99371017Y-150383859D01*
X99383286Y-150362611D01*
X99398577Y-150315548D01*
X99401932Y-150306453D01*
X99418776Y-150265789D01*
X99423715Y-150240957D01*
X99427401Y-150226835D01*
X99428938Y-150222103D01*
X99436908Y-150197576D01*
X99441427Y-150154576D01*
X99443125Y-150143373D01*
X99450500Y-150106305D01*
X99450500Y-150074761D01*
X99451179Y-150061800D01*
X99455047Y-150025000D01*
X99451179Y-149988198D01*
X99450500Y-149975237D01*
X99450500Y-149950000D01*
X100919355Y-149950000D01*
X100939859Y-150118869D01*
X100939860Y-150118874D01*
X101000182Y-150277931D01*
X101026165Y-150315573D01*
X101096817Y-150417929D01*
X101149566Y-150464660D01*
X101224150Y-150530736D01*
X101374773Y-150609789D01*
X101374775Y-150609790D01*
X101539944Y-150650500D01*
X101710056Y-150650500D01*
X101875225Y-150609790D01*
X101954692Y-150568081D01*
X102025849Y-150530736D01*
X102025850Y-150530734D01*
X102025852Y-150530734D01*
X102153183Y-150417929D01*
X102249818Y-150277930D01*
X102259058Y-150253564D01*
X102301236Y-150197862D01*
X102366833Y-150173805D01*
X102435023Y-150189032D01*
X102484157Y-150238707D01*
X102490942Y-150253565D01*
X102500182Y-150277931D01*
X102526165Y-150315573D01*
X102596817Y-150417929D01*
X102649566Y-150464660D01*
X102724150Y-150530736D01*
X102874773Y-150609789D01*
X102874775Y-150609790D01*
X103039944Y-150650500D01*
X103210056Y-150650500D01*
X103375225Y-150609790D01*
X103454692Y-150568081D01*
X103525849Y-150530736D01*
X103525850Y-150530734D01*
X103525852Y-150530734D01*
X103653183Y-150417929D01*
X103749818Y-150277930D01*
X103810140Y-150118872D01*
X103821538Y-150024999D01*
X105294953Y-150024999D01*
X105298821Y-150061800D01*
X105299500Y-150074761D01*
X105299500Y-150106309D01*
X105306868Y-150143351D01*
X105308571Y-150154576D01*
X105313091Y-150197572D01*
X105313091Y-150197574D01*
X105313092Y-150197576D01*
X105313185Y-150197862D01*
X105322601Y-150226844D01*
X105326285Y-150240963D01*
X105331224Y-150265791D01*
X105348057Y-150306432D01*
X105351425Y-150315562D01*
X105366711Y-150362605D01*
X105366712Y-150362608D01*
X105366714Y-150362611D01*
X105378975Y-150383849D01*
X105378982Y-150383860D01*
X105386154Y-150398404D01*
X105393450Y-150416018D01*
X105393451Y-150416020D01*
X105393452Y-150416021D01*
X105421344Y-150457764D01*
X105425627Y-150464651D01*
X105453476Y-150512886D01*
X105453480Y-150512891D01*
X105465715Y-150526480D01*
X105476666Y-150540560D01*
X105483793Y-150551227D01*
X105483794Y-150551228D01*
X105523697Y-150591130D01*
X105528168Y-150595841D01*
X105569588Y-150641844D01*
X105579325Y-150648918D01*
X105594123Y-150661557D01*
X105598770Y-150666204D01*
X105598773Y-150666206D01*
X105598775Y-150666208D01*
X105650878Y-150701021D01*
X105654843Y-150703784D01*
X105709976Y-150743842D01*
X105715248Y-150746189D01*
X105715259Y-150746194D01*
X105733714Y-150756371D01*
X105733763Y-150756403D01*
X105733979Y-150756548D01*
X105797630Y-150782912D01*
X105800514Y-150784151D01*
X105868501Y-150814422D01*
X105872813Y-150815823D01*
X105878225Y-150817520D01*
X105878381Y-150817007D01*
X105884208Y-150818774D01*
X105884211Y-150818776D01*
X105957931Y-150833439D01*
X105959390Y-150833740D01*
X106038236Y-150850500D01*
X106211763Y-150850500D01*
X106211764Y-150850500D01*
X106290626Y-150833736D01*
X106292051Y-150833443D01*
X106365789Y-150818776D01*
X106365794Y-150818773D01*
X106365798Y-150818773D01*
X106371627Y-150817005D01*
X106371782Y-150817516D01*
X106377255Y-150815800D01*
X106381495Y-150814423D01*
X106381495Y-150814422D01*
X106381499Y-150814422D01*
X106449494Y-150784147D01*
X106452358Y-150782917D01*
X106516021Y-150756548D01*
X106516274Y-150756378D01*
X106534742Y-150746193D01*
X106540024Y-150743842D01*
X106595163Y-150703779D01*
X106599127Y-150701018D01*
X106633653Y-150677948D01*
X106651225Y-150666208D01*
X106655870Y-150661562D01*
X106670667Y-150648923D01*
X106680410Y-150641845D01*
X106721852Y-150595817D01*
X106726283Y-150591148D01*
X106766208Y-150551225D01*
X106773340Y-150540549D01*
X106784285Y-150526477D01*
X106796522Y-150512889D01*
X106824373Y-150464647D01*
X106828633Y-150457796D01*
X106856548Y-150416021D01*
X106863846Y-150398402D01*
X106871017Y-150383859D01*
X106883286Y-150362611D01*
X106898577Y-150315548D01*
X106901932Y-150306453D01*
X106918776Y-150265789D01*
X106923715Y-150240957D01*
X106927401Y-150226835D01*
X106928938Y-150222103D01*
X106936908Y-150197576D01*
X106941427Y-150154576D01*
X106943125Y-150143373D01*
X106950500Y-150106305D01*
X106950500Y-150074761D01*
X106951179Y-150061800D01*
X106955047Y-150025000D01*
X106951179Y-149988198D01*
X106950500Y-149975237D01*
X106950500Y-149943690D01*
X106943130Y-149906647D01*
X106941425Y-149895409D01*
X106936908Y-149852428D01*
X106936908Y-149852424D01*
X106927396Y-149823151D01*
X106923715Y-149809041D01*
X106918776Y-149784211D01*
X106901933Y-149743549D01*
X106898579Y-149734457D01*
X106883286Y-149687389D01*
X106871018Y-149666140D01*
X106863844Y-149651592D01*
X106856550Y-149633983D01*
X106856549Y-149633982D01*
X106856548Y-149633979D01*
X106828641Y-149592213D01*
X106824367Y-149585340D01*
X106796522Y-149537111D01*
X106784284Y-149523519D01*
X106773337Y-149509445D01*
X106766208Y-149498775D01*
X106726297Y-149458864D01*
X106721831Y-149454158D01*
X106680410Y-149408155D01*
X106670666Y-149401075D01*
X106655875Y-149388441D01*
X106651227Y-149383793D01*
X106599135Y-149348987D01*
X106595140Y-149346203D01*
X106595133Y-149346198D01*
X106540024Y-149306158D01*
X106540023Y-149306157D01*
X106540021Y-149306156D01*
X106534740Y-149303805D01*
X106516282Y-149293626D01*
X106516025Y-149293454D01*
X106516018Y-149293450D01*
X106452426Y-149267110D01*
X106449444Y-149265829D01*
X106381500Y-149235578D01*
X106378170Y-149234496D01*
X106371766Y-149232502D01*
X106371618Y-149232992D01*
X106365788Y-149231223D01*
X106292155Y-149216576D01*
X106290567Y-149216249D01*
X106211768Y-149199500D01*
X106211764Y-149199500D01*
X106038236Y-149199500D01*
X105959372Y-149216262D01*
X105957786Y-149216588D01*
X105884203Y-149231225D01*
X105878380Y-149232992D01*
X105878237Y-149232523D01*
X105871296Y-149234669D01*
X105868504Y-149235576D01*
X105800571Y-149265821D01*
X105797595Y-149267099D01*
X105733982Y-149293450D01*
X105733975Y-149293454D01*
X105733696Y-149293641D01*
X105715269Y-149303801D01*
X105709983Y-149306154D01*
X105709973Y-149306160D01*
X105654864Y-149346198D01*
X105650875Y-149348978D01*
X105598778Y-149383789D01*
X105598768Y-149383797D01*
X105594122Y-149388444D01*
X105579336Y-149401072D01*
X105569595Y-149408149D01*
X105528167Y-149454159D01*
X105523701Y-149458864D01*
X105483795Y-149498771D01*
X105483790Y-149498776D01*
X105476659Y-149509449D01*
X105465715Y-149523519D01*
X105453479Y-149537108D01*
X105425632Y-149585340D01*
X105421349Y-149592226D01*
X105393454Y-149633974D01*
X105393453Y-149633976D01*
X105386153Y-149651598D01*
X105378986Y-149666130D01*
X105366713Y-149687389D01*
X105351428Y-149734433D01*
X105348059Y-149743564D01*
X105331223Y-149784211D01*
X105331222Y-149784213D01*
X105326283Y-149809041D01*
X105322600Y-149823156D01*
X105313092Y-149852422D01*
X105308571Y-149895424D01*
X105306869Y-149906648D01*
X105299500Y-149943696D01*
X105299500Y-149975237D01*
X105298821Y-149988198D01*
X105294953Y-150024999D01*
X103821538Y-150024999D01*
X103830645Y-149950000D01*
X103810140Y-149781128D01*
X103749818Y-149622070D01*
X103747448Y-149618637D01*
X103746489Y-149615727D01*
X103746331Y-149615426D01*
X103746381Y-149615399D01*
X103725567Y-149552283D01*
X103725500Y-149548199D01*
X103725500Y-148681352D01*
X103745185Y-148614313D01*
X103797989Y-148568558D01*
X103867147Y-148558614D01*
X103930703Y-148587639D01*
X103948451Y-148606622D01*
X103958236Y-148619579D01*
X103958238Y-148619581D01*
X104108958Y-148756980D01*
X104108960Y-148756982D01*
X104208141Y-148818392D01*
X104282363Y-148864348D01*
X104472544Y-148938024D01*
X104673024Y-148975500D01*
X104673026Y-148975500D01*
X104876974Y-148975500D01*
X104876976Y-148975500D01*
X105077456Y-148938024D01*
X105267637Y-148864348D01*
X105441041Y-148756981D01*
X105591764Y-148619579D01*
X105714673Y-148456821D01*
X105805582Y-148274250D01*
X105861397Y-148078083D01*
X105880215Y-147875000D01*
X105873973Y-147807642D01*
X105861397Y-147671917D01*
X105847214Y-147622069D01*
X105805582Y-147475750D01*
X105714673Y-147293179D01*
X105628112Y-147178554D01*
X105591762Y-147130418D01*
X105441041Y-146993019D01*
X105441039Y-146993017D01*
X105267642Y-146885655D01*
X105267639Y-146885653D01*
X105267637Y-146885652D01*
X105267636Y-146885651D01*
X105267635Y-146885651D01*
X105172546Y-146848814D01*
X105077456Y-146811976D01*
X104876976Y-146774500D01*
X104749096Y-146774500D01*
X104682057Y-146754815D01*
X104636302Y-146702011D01*
X104626358Y-146632853D01*
X104655383Y-146569297D01*
X104661410Y-146562824D01*
X104670117Y-146554116D01*
X104728124Y-146521398D01*
X104775225Y-146509790D01*
X104925852Y-146430734D01*
X105053183Y-146317929D01*
X105149818Y-146177930D01*
X105210140Y-146018872D01*
X105230645Y-145850000D01*
X105229882Y-145843713D01*
X108474500Y-145843713D01*
X108474500Y-146056286D01*
X108505181Y-146250003D01*
X108507754Y-146266243D01*
X108532477Y-146342333D01*
X108573444Y-146468414D01*
X108669951Y-146657820D01*
X108794890Y-146829786D01*
X108945213Y-146980109D01*
X109117179Y-147105048D01*
X109117181Y-147105049D01*
X109117184Y-147105051D01*
X109306588Y-147201557D01*
X109508757Y-147267246D01*
X109718713Y-147300500D01*
X109718714Y-147300500D01*
X109931286Y-147300500D01*
X109931287Y-147300500D01*
X110141243Y-147267246D01*
X110343412Y-147201557D01*
X110532816Y-147105051D01*
X110584841Y-147067253D01*
X110704786Y-146980109D01*
X110704788Y-146980106D01*
X110704792Y-146980104D01*
X110855104Y-146829792D01*
X110855106Y-146829788D01*
X110855109Y-146829786D01*
X110980048Y-146657820D01*
X110980047Y-146657820D01*
X110980051Y-146657816D01*
X111076557Y-146468412D01*
X111142246Y-146266243D01*
X111175500Y-146056287D01*
X111175500Y-145843713D01*
X111142246Y-145633757D01*
X111076557Y-145431588D01*
X110980051Y-145242184D01*
X110980049Y-145242181D01*
X110980048Y-145242179D01*
X110855109Y-145070213D01*
X110704786Y-144919890D01*
X110532820Y-144794951D01*
X110343414Y-144698444D01*
X110343413Y-144698443D01*
X110343412Y-144698443D01*
X110141243Y-144632754D01*
X110141241Y-144632753D01*
X110141240Y-144632753D01*
X109979957Y-144607208D01*
X109931287Y-144599500D01*
X109718713Y-144599500D01*
X109670042Y-144607208D01*
X109508760Y-144632753D01*
X109306585Y-144698444D01*
X109117179Y-144794951D01*
X108945213Y-144919890D01*
X108794890Y-145070213D01*
X108669951Y-145242179D01*
X108573444Y-145431585D01*
X108507753Y-145633760D01*
X108474500Y-145843713D01*
X105229882Y-145843713D01*
X105210140Y-145681128D01*
X105149818Y-145522070D01*
X105053183Y-145382071D01*
X104925852Y-145269266D01*
X104925849Y-145269263D01*
X104775226Y-145190210D01*
X104610056Y-145149500D01*
X104439944Y-145149500D01*
X104274773Y-145190210D01*
X104124150Y-145269263D01*
X103996816Y-145382072D01*
X103900182Y-145522068D01*
X103900182Y-145522069D01*
X103846380Y-145663934D01*
X103818119Y-145707644D01*
X102756286Y-146769478D01*
X102644481Y-146881282D01*
X102644479Y-146881285D01*
X102594361Y-146968094D01*
X102594359Y-146968096D01*
X102565425Y-147018209D01*
X102565424Y-147018210D01*
X102524497Y-147170952D01*
X102524341Y-147172137D01*
X102523932Y-147173060D01*
X102522396Y-147178794D01*
X102521501Y-147178554D01*
X102496065Y-147236029D01*
X102437735Y-147274492D01*
X102431081Y-147276330D01*
X102374777Y-147290208D01*
X102374774Y-147290209D01*
X102224150Y-147369263D01*
X102096816Y-147482072D01*
X102000182Y-147622068D01*
X102000182Y-147622069D01*
X101946381Y-147763932D01*
X101918120Y-147807642D01*
X101256286Y-148469478D01*
X101144481Y-148581282D01*
X101144479Y-148581285D01*
X101094361Y-148668094D01*
X101094359Y-148668096D01*
X101065425Y-148718209D01*
X101065424Y-148718210D01*
X101055035Y-148756982D01*
X101024499Y-148870943D01*
X101024499Y-148870945D01*
X101024499Y-149039046D01*
X101024500Y-149039059D01*
X101024500Y-149548199D01*
X101004815Y-149615238D01*
X101002551Y-149618638D01*
X101000182Y-149622069D01*
X100939860Y-149781125D01*
X100939859Y-149781130D01*
X100919355Y-149950000D01*
X99450500Y-149950000D01*
X99450500Y-149943690D01*
X99443130Y-149906647D01*
X99441425Y-149895409D01*
X99436908Y-149852428D01*
X99436908Y-149852424D01*
X99427396Y-149823151D01*
X99423715Y-149809041D01*
X99418776Y-149784211D01*
X99401933Y-149743549D01*
X99398579Y-149734457D01*
X99383286Y-149687389D01*
X99371018Y-149666140D01*
X99363844Y-149651592D01*
X99356550Y-149633983D01*
X99356549Y-149633982D01*
X99356548Y-149633979D01*
X99328641Y-149592213D01*
X99324367Y-149585340D01*
X99296522Y-149537111D01*
X99284284Y-149523519D01*
X99273337Y-149509445D01*
X99266208Y-149498775D01*
X99226297Y-149458864D01*
X99221831Y-149454158D01*
X99180410Y-149408155D01*
X99170666Y-149401075D01*
X99155875Y-149388441D01*
X99151227Y-149383793D01*
X99099135Y-149348987D01*
X99095140Y-149346203D01*
X99095133Y-149346198D01*
X99040024Y-149306158D01*
X99040023Y-149306157D01*
X99040021Y-149306156D01*
X99034740Y-149303805D01*
X99016282Y-149293626D01*
X99016025Y-149293454D01*
X99016018Y-149293450D01*
X98952426Y-149267110D01*
X98949444Y-149265829D01*
X98881500Y-149235578D01*
X98878170Y-149234496D01*
X98871766Y-149232502D01*
X98871618Y-149232992D01*
X98865788Y-149231223D01*
X98792155Y-149216576D01*
X98790567Y-149216249D01*
X98711768Y-149199500D01*
X98711764Y-149199500D01*
X98538236Y-149199500D01*
X98459372Y-149216262D01*
X98457786Y-149216588D01*
X98384203Y-149231225D01*
X98378380Y-149232992D01*
X98378237Y-149232523D01*
X98371296Y-149234669D01*
X98368504Y-149235576D01*
X98300571Y-149265821D01*
X98297595Y-149267099D01*
X98233982Y-149293450D01*
X98233975Y-149293454D01*
X98233696Y-149293641D01*
X98215269Y-149303801D01*
X98209983Y-149306154D01*
X98209973Y-149306160D01*
X98154864Y-149346198D01*
X98150875Y-149348978D01*
X98098778Y-149383789D01*
X98098768Y-149383797D01*
X98094122Y-149388444D01*
X98079336Y-149401072D01*
X98069595Y-149408149D01*
X98028167Y-149454159D01*
X98023701Y-149458864D01*
X97983795Y-149498771D01*
X97983790Y-149498776D01*
X97976659Y-149509449D01*
X97965715Y-149523519D01*
X97953479Y-149537108D01*
X97925632Y-149585340D01*
X97921349Y-149592226D01*
X97893454Y-149633974D01*
X97893453Y-149633976D01*
X97886153Y-149651598D01*
X97878986Y-149666130D01*
X97866713Y-149687389D01*
X97851428Y-149734433D01*
X97848059Y-149743564D01*
X97831223Y-149784211D01*
X97831222Y-149784213D01*
X97826283Y-149809041D01*
X97822600Y-149823156D01*
X97813092Y-149852422D01*
X97808571Y-149895424D01*
X97806869Y-149906648D01*
X97799500Y-149943696D01*
X97799500Y-149975237D01*
X97798821Y-149988198D01*
X97794953Y-150024999D01*
X96125500Y-150024999D01*
X96125500Y-148384110D01*
X96125500Y-148384108D01*
X96091392Y-148256814D01*
X96025500Y-148142686D01*
X95932314Y-148049500D01*
X95875250Y-148016554D01*
X95818187Y-147983608D01*
X95754539Y-147966554D01*
X95690892Y-147949500D01*
X95690891Y-147949500D01*
X92949500Y-147949500D01*
X92882461Y-147929815D01*
X92836706Y-147877011D01*
X92836268Y-147874999D01*
X98869785Y-147874999D01*
X98869785Y-147875000D01*
X98888602Y-148078082D01*
X98944417Y-148274247D01*
X98944422Y-148274260D01*
X99035327Y-148456821D01*
X99158237Y-148619581D01*
X99308958Y-148756980D01*
X99308960Y-148756982D01*
X99408141Y-148818392D01*
X99482363Y-148864348D01*
X99672544Y-148938024D01*
X99873024Y-148975500D01*
X99873026Y-148975500D01*
X100076974Y-148975500D01*
X100076976Y-148975500D01*
X100277456Y-148938024D01*
X100467637Y-148864348D01*
X100641041Y-148756981D01*
X100791764Y-148619579D01*
X100914673Y-148456821D01*
X101005582Y-148274250D01*
X101061397Y-148078083D01*
X101080215Y-147875000D01*
X101073973Y-147807642D01*
X101061397Y-147671917D01*
X101047214Y-147622069D01*
X101005582Y-147475750D01*
X100914673Y-147293179D01*
X100791764Y-147130421D01*
X100722472Y-147067253D01*
X100686191Y-147007542D01*
X100687952Y-146937694D01*
X100723269Y-146885671D01*
X100722338Y-146884740D01*
X100777292Y-146829786D01*
X100854816Y-146752262D01*
X100950789Y-146599522D01*
X101010368Y-146429255D01*
X101020161Y-146342329D01*
X101047226Y-146277918D01*
X101055690Y-146268543D01*
X102343535Y-144980698D01*
X102404856Y-144947215D01*
X102417311Y-144945163D01*
X102504255Y-144935368D01*
X102674522Y-144875789D01*
X102827262Y-144779816D01*
X102954816Y-144652262D01*
X103050789Y-144499522D01*
X103110368Y-144329255D01*
X103130565Y-144150000D01*
X103127419Y-144122082D01*
X103110369Y-143970750D01*
X103110368Y-143970745D01*
X103050788Y-143800476D01*
X102954815Y-143647737D01*
X102827262Y-143520184D01*
X102674523Y-143424211D01*
X102504254Y-143364631D01*
X102504249Y-143364630D01*
X102325004Y-143344435D01*
X102324996Y-143344435D01*
X102145750Y-143364630D01*
X102145745Y-143364631D01*
X101975476Y-143424211D01*
X101822737Y-143520184D01*
X101695184Y-143647737D01*
X101599210Y-143800478D01*
X101539630Y-143970750D01*
X101529837Y-144057668D01*
X101502770Y-144122082D01*
X101494298Y-144131465D01*
X100206465Y-145419298D01*
X100145142Y-145452783D01*
X100132668Y-145454837D01*
X100045750Y-145464630D01*
X99875478Y-145524210D01*
X99722737Y-145620184D01*
X99595184Y-145747737D01*
X99499211Y-145900476D01*
X99439631Y-146070745D01*
X99439630Y-146070750D01*
X99419435Y-146249996D01*
X99419435Y-146250003D01*
X99439630Y-146429249D01*
X99439631Y-146429254D01*
X99499211Y-146599523D01*
X99560520Y-146697096D01*
X99579520Y-146764333D01*
X99559152Y-146831168D01*
X99505884Y-146876382D01*
X99500322Y-146878694D01*
X99482368Y-146885649D01*
X99482359Y-146885653D01*
X99308960Y-146993017D01*
X99308958Y-146993019D01*
X99158237Y-147130418D01*
X99035327Y-147293178D01*
X98944422Y-147475739D01*
X98944417Y-147475752D01*
X98888602Y-147671917D01*
X98869785Y-147874999D01*
X92836268Y-147874999D01*
X92825500Y-147825500D01*
X92825500Y-145843713D01*
X93474500Y-145843713D01*
X93474500Y-146056286D01*
X93505181Y-146250003D01*
X93507754Y-146266243D01*
X93532477Y-146342333D01*
X93573444Y-146468414D01*
X93669951Y-146657820D01*
X93794890Y-146829786D01*
X93945213Y-146980109D01*
X94117179Y-147105048D01*
X94117181Y-147105049D01*
X94117184Y-147105051D01*
X94306588Y-147201557D01*
X94508757Y-147267246D01*
X94718713Y-147300500D01*
X94718714Y-147300500D01*
X94931286Y-147300500D01*
X94931287Y-147300500D01*
X95141243Y-147267246D01*
X95343412Y-147201557D01*
X95532816Y-147105051D01*
X95584841Y-147067253D01*
X95704786Y-146980109D01*
X95704788Y-146980106D01*
X95704792Y-146980104D01*
X95855104Y-146829792D01*
X95855106Y-146829788D01*
X95855109Y-146829786D01*
X95980048Y-146657820D01*
X95980047Y-146657820D01*
X95980051Y-146657816D01*
X96076557Y-146468412D01*
X96142246Y-146266243D01*
X96175500Y-146056287D01*
X96175500Y-145843713D01*
X96142246Y-145633757D01*
X96076557Y-145431588D01*
X95980051Y-145242184D01*
X95980049Y-145242181D01*
X95980048Y-145242179D01*
X95855109Y-145070213D01*
X95704786Y-144919890D01*
X95532820Y-144794951D01*
X95343414Y-144698444D01*
X95343413Y-144698443D01*
X95343412Y-144698443D01*
X95141243Y-144632754D01*
X95141241Y-144632753D01*
X95141240Y-144632753D01*
X94979957Y-144607208D01*
X94931287Y-144599500D01*
X94718713Y-144599500D01*
X94670042Y-144607208D01*
X94508760Y-144632753D01*
X94306585Y-144698444D01*
X94117179Y-144794951D01*
X93945213Y-144919890D01*
X93794890Y-145070213D01*
X93669951Y-145242179D01*
X93573444Y-145431585D01*
X93507753Y-145633760D01*
X93474500Y-145843713D01*
X92825500Y-145843713D01*
X92825500Y-124880012D01*
X92845185Y-124812973D01*
X92897989Y-124767218D01*
X92967147Y-124757274D01*
X93015532Y-124778194D01*
X93016842Y-124776111D01*
X93130833Y-124847737D01*
X93175478Y-124875789D01*
X93187547Y-124880012D01*
X93345745Y-124935368D01*
X93345750Y-124935369D01*
X93524996Y-124955565D01*
X93525000Y-124955565D01*
X93525004Y-124955565D01*
X93704249Y-124935369D01*
X93704252Y-124935368D01*
X93704255Y-124935368D01*
X93874522Y-124875789D01*
X94027262Y-124779816D01*
X94027267Y-124779810D01*
X94030097Y-124777555D01*
X94032275Y-124776665D01*
X94033158Y-124776111D01*
X94033255Y-124776265D01*
X94094783Y-124751145D01*
X94107412Y-124750500D01*
X98242588Y-124750500D01*
X98309627Y-124770185D01*
X98319903Y-124777555D01*
X98322742Y-124779819D01*
X98450981Y-124860398D01*
X98497272Y-124912732D01*
X98507920Y-124981786D01*
X98479545Y-125045634D01*
X98472690Y-125053072D01*
X97256286Y-126269478D01*
X97144481Y-126381282D01*
X97144479Y-126381284D01*
X97129289Y-126407594D01*
X97122869Y-126418716D01*
X97065423Y-126518215D01*
X97024499Y-126670943D01*
X97024499Y-126670945D01*
X97024499Y-126839046D01*
X97024500Y-126839059D01*
X97024500Y-136270943D01*
X97024500Y-136429057D01*
X97026192Y-136435369D01*
X97065423Y-136581783D01*
X97065426Y-136581790D01*
X97144475Y-136718709D01*
X97144478Y-136718713D01*
X97144480Y-136718716D01*
X97256284Y-136830520D01*
X97256286Y-136830521D01*
X97256290Y-136830524D01*
X97393209Y-136909573D01*
X97393216Y-136909577D01*
X97545943Y-136950500D01*
X98811860Y-136950500D01*
X98811876Y-136950501D01*
X98819472Y-136950501D01*
X98977583Y-136950501D01*
X98977586Y-136950501D01*
X99130314Y-136909577D01*
X99180433Y-136880639D01*
X99267245Y-136830520D01*
X99379049Y-136718716D01*
X99379049Y-136718714D01*
X99389257Y-136708507D01*
X99389259Y-136708504D01*
X99882663Y-136215099D01*
X99943984Y-136181616D01*
X100013676Y-136186600D01*
X100058023Y-136215101D01*
X100122738Y-136279816D01*
X100275478Y-136375789D01*
X100427706Y-136429056D01*
X100445745Y-136435368D01*
X100445750Y-136435369D01*
X100624996Y-136455565D01*
X100625000Y-136455565D01*
X100625004Y-136455565D01*
X100804249Y-136435369D01*
X100804252Y-136435368D01*
X100804255Y-136435368D01*
X100974522Y-136375789D01*
X101127262Y-136279816D01*
X101254816Y-136152262D01*
X101350789Y-135999522D01*
X101410368Y-135829255D01*
X101420161Y-135742329D01*
X101447226Y-135677918D01*
X101455690Y-135668543D01*
X102383506Y-134740728D01*
X102383511Y-134740724D01*
X102393714Y-134730520D01*
X102393716Y-134730520D01*
X102505520Y-134618716D01*
X102509408Y-134611980D01*
X102563544Y-134518216D01*
X102563545Y-134518214D01*
X102584574Y-134481790D01*
X102584575Y-134481789D01*
X102584575Y-134481787D01*
X102584577Y-134481785D01*
X102625501Y-134329057D01*
X102625501Y-134170943D01*
X102625501Y-134163348D01*
X102625500Y-134163330D01*
X102625500Y-129449996D01*
X103219435Y-129449996D01*
X103219435Y-129450003D01*
X103239630Y-129629249D01*
X103239631Y-129629254D01*
X103299211Y-129799523D01*
X103395184Y-129952262D01*
X103522738Y-130079816D01*
X103675478Y-130175789D01*
X103845745Y-130235368D01*
X103932669Y-130245161D01*
X103997080Y-130272226D01*
X104006464Y-130280699D01*
X105256284Y-131530520D01*
X105256286Y-131530521D01*
X105256290Y-131530524D01*
X105393209Y-131609573D01*
X105393216Y-131609577D01*
X105545943Y-131650501D01*
X105545945Y-131650501D01*
X105711654Y-131650501D01*
X105711670Y-131650500D01*
X108642588Y-131650500D01*
X108709627Y-131670185D01*
X108719903Y-131677555D01*
X108722736Y-131679814D01*
X108722738Y-131679816D01*
X108875478Y-131775789D01*
X109045745Y-131835368D01*
X109045750Y-131835369D01*
X109224996Y-131855565D01*
X109225000Y-131855565D01*
X109225004Y-131855565D01*
X109404249Y-131835369D01*
X109404252Y-131835368D01*
X109404255Y-131835368D01*
X109574522Y-131775789D01*
X109727262Y-131679816D01*
X109854816Y-131552262D01*
X109950789Y-131399522D01*
X110010368Y-131229255D01*
X110030565Y-131050000D01*
X110010368Y-130870745D01*
X109950789Y-130700478D01*
X109943004Y-130688089D01*
X109854815Y-130547737D01*
X109727262Y-130420184D01*
X109574523Y-130324211D01*
X109404254Y-130264631D01*
X109404249Y-130264630D01*
X109225004Y-130244435D01*
X109224996Y-130244435D01*
X109045750Y-130264630D01*
X109045745Y-130264631D01*
X108875476Y-130324211D01*
X108722736Y-130420185D01*
X108719903Y-130422445D01*
X108717724Y-130423334D01*
X108716842Y-130423889D01*
X108716744Y-130423734D01*
X108655217Y-130448855D01*
X108642588Y-130449500D01*
X105925098Y-130449500D01*
X105858059Y-130429815D01*
X105837417Y-130413181D01*
X104855700Y-129431465D01*
X104822215Y-129370142D01*
X104820163Y-129357686D01*
X104810368Y-129270745D01*
X104750789Y-129100478D01*
X104654816Y-128947738D01*
X104527262Y-128820184D01*
X104479624Y-128790251D01*
X104374523Y-128724211D01*
X104204254Y-128664631D01*
X104204249Y-128664630D01*
X104025004Y-128644435D01*
X104024996Y-128644435D01*
X103845750Y-128664630D01*
X103845745Y-128664631D01*
X103675476Y-128724211D01*
X103522737Y-128820184D01*
X103395184Y-128947737D01*
X103299211Y-129100476D01*
X103239631Y-129270745D01*
X103239630Y-129270750D01*
X103219435Y-129449996D01*
X102625500Y-129449996D01*
X102625500Y-128750097D01*
X102645185Y-128683058D01*
X102661819Y-128662416D01*
X103337416Y-127986819D01*
X103398739Y-127953334D01*
X103425097Y-127950500D01*
X105745943Y-127950500D01*
X109642588Y-127950500D01*
X109709627Y-127970185D01*
X109719903Y-127977555D01*
X109722736Y-127979814D01*
X109722738Y-127979816D01*
X109875478Y-128075789D01*
X110045745Y-128135368D01*
X110045750Y-128135369D01*
X110224996Y-128155565D01*
X110225000Y-128155565D01*
X110225004Y-128155565D01*
X110404249Y-128135369D01*
X110404252Y-128135368D01*
X110404255Y-128135368D01*
X110574522Y-128075789D01*
X110727262Y-127979816D01*
X110854816Y-127852262D01*
X110950789Y-127699522D01*
X111010368Y-127529255D01*
X111022504Y-127421547D01*
X111030565Y-127350003D01*
X111030565Y-127349996D01*
X111010369Y-127170750D01*
X111010368Y-127170745D01*
X110950788Y-127000476D01*
X110854813Y-126847734D01*
X110852550Y-126844896D01*
X110851659Y-126842715D01*
X110851111Y-126841842D01*
X110851264Y-126841745D01*
X110826144Y-126780209D01*
X110825500Y-126767587D01*
X110825500Y-125970945D01*
X110825500Y-125970943D01*
X110784577Y-125818216D01*
X110727132Y-125718717D01*
X110705524Y-125681290D01*
X110705521Y-125681286D01*
X110705520Y-125681284D01*
X110593716Y-125569480D01*
X110593715Y-125569479D01*
X110589385Y-125565149D01*
X110589374Y-125565139D01*
X110161819Y-125137584D01*
X110128334Y-125076261D01*
X110125500Y-125049903D01*
X110125500Y-117650096D01*
X110145185Y-117583057D01*
X110161814Y-117562420D01*
X112143535Y-115580698D01*
X112204856Y-115547215D01*
X112217311Y-115545163D01*
X112304255Y-115535368D01*
X112474522Y-115475789D01*
X112627262Y-115379816D01*
X112754816Y-115252262D01*
X112850789Y-115099522D01*
X112910368Y-114929255D01*
X112919125Y-114851539D01*
X112930565Y-114750000D01*
X112930565Y-114749996D01*
X112910369Y-114570750D01*
X112910368Y-114570745D01*
X112850788Y-114400476D01*
X112763080Y-114260890D01*
X112754816Y-114247738D01*
X112754814Y-114247736D01*
X112754813Y-114247734D01*
X112752550Y-114244896D01*
X112751659Y-114242715D01*
X112751111Y-114241842D01*
X112751264Y-114241745D01*
X112726144Y-114180209D01*
X112725500Y-114167587D01*
X112725500Y-106339060D01*
X112725501Y-106339047D01*
X112725501Y-106170944D01*
X112725108Y-106169478D01*
X112684577Y-106018216D01*
X112631281Y-105925903D01*
X112605524Y-105881290D01*
X112605518Y-105881282D01*
X107912590Y-101188355D01*
X107912588Y-101188352D01*
X107793717Y-101069481D01*
X107793716Y-101069480D01*
X107706904Y-101019360D01*
X107706904Y-101019359D01*
X107706900Y-101019358D01*
X107656785Y-100990423D01*
X107504057Y-100949499D01*
X107345943Y-100949499D01*
X107338347Y-100949499D01*
X107338331Y-100949500D01*
X104325098Y-100949500D01*
X104258059Y-100929815D01*
X104237417Y-100913181D01*
X103646802Y-100322566D01*
X103613317Y-100261243D01*
X103618301Y-100191551D01*
X103660173Y-100135618D01*
X103691157Y-100118700D01*
X103692091Y-100118351D01*
X103692093Y-100118350D01*
X103807187Y-100032190D01*
X103807190Y-100032187D01*
X103893350Y-99917093D01*
X103893354Y-99917086D01*
X103943596Y-99782379D01*
X103943598Y-99782372D01*
X103949999Y-99722844D01*
X103950000Y-99722827D01*
X103950000Y-99600000D01*
X103174000Y-99600000D01*
X103106961Y-99580315D01*
X103061206Y-99527511D01*
X103050000Y-99476000D01*
X103050000Y-99399499D01*
X103069685Y-99332460D01*
X103122489Y-99286705D01*
X103174000Y-99275499D01*
X103497871Y-99275499D01*
X103497872Y-99275499D01*
X103557483Y-99269091D01*
X103692331Y-99218796D01*
X103807546Y-99132546D01*
X103807545Y-99132546D01*
X103814645Y-99127232D01*
X103816319Y-99129468D01*
X103865096Y-99102834D01*
X103891454Y-99100000D01*
X103950000Y-99100000D01*
X103950000Y-98977172D01*
X103949999Y-98977160D01*
X103943380Y-98915604D01*
X103943380Y-98889090D01*
X103944090Y-98882485D01*
X103944091Y-98882483D01*
X103950500Y-98822873D01*
X103950499Y-98450098D01*
X103970183Y-98383060D01*
X103986818Y-98362417D01*
X104022552Y-98326683D01*
X104105520Y-98243716D01*
X104184577Y-98106785D01*
X104225501Y-97954057D01*
X104225501Y-97795942D01*
X104225501Y-97788347D01*
X104225500Y-97788329D01*
X104225500Y-92198098D01*
X110823815Y-92198098D01*
X110824003Y-92215935D01*
X110823980Y-92216016D01*
X110823984Y-92216016D01*
X110824494Y-92266708D01*
X110824500Y-92267955D01*
X110824500Y-92328449D01*
X110825217Y-92338602D01*
X110825556Y-92372227D01*
X110857921Y-92582975D01*
X110919757Y-92787043D01*
X111009815Y-92980311D01*
X111009820Y-92980320D01*
X111126291Y-93158908D01*
X111126297Y-93158915D01*
X111266851Y-93319253D01*
X111428662Y-93458112D01*
X111428663Y-93458113D01*
X111428666Y-93458115D01*
X111608483Y-93572706D01*
X111802694Y-93660726D01*
X112007398Y-93720407D01*
X112218482Y-93750551D01*
X112325095Y-93750500D01*
X112390988Y-93750500D01*
X115259108Y-93750500D01*
X115325000Y-93750500D01*
X115432315Y-93750500D01*
X115644759Y-93719956D01*
X115850695Y-93659490D01*
X116045930Y-93570332D01*
X116226490Y-93454298D01*
X116388699Y-93313750D01*
X116529255Y-93151547D01*
X116645298Y-92970993D01*
X116734465Y-92775763D01*
X116794941Y-92569830D01*
X116825495Y-92357387D01*
X116825495Y-92326795D01*
X116825500Y-92326754D01*
X116825500Y-92250025D01*
X116825500Y-92249598D01*
X116825503Y-92184180D01*
X116825501Y-92184175D01*
X116825502Y-92176605D01*
X116825500Y-92176555D01*
X116825500Y-87142685D01*
X116825500Y-87142682D01*
X116795242Y-86932230D01*
X116794955Y-86930234D01*
X116794952Y-86930224D01*
X116774685Y-86861199D01*
X116734484Y-86724289D01*
X116734483Y-86724287D01*
X116734482Y-86724283D01*
X116645327Y-86529060D01*
X116645314Y-86529037D01*
X116529284Y-86348491D01*
X116529274Y-86348477D01*
X116388725Y-86186277D01*
X116226510Y-86045717D01*
X116226504Y-86045713D01*
X116045958Y-85929683D01*
X116045935Y-85929670D01*
X115850710Y-85840515D01*
X115850698Y-85840510D01*
X115644773Y-85780047D01*
X115644757Y-85780043D01*
X115432314Y-85749500D01*
X115390889Y-85749500D01*
X112388805Y-85749500D01*
X112378009Y-85748846D01*
X112360531Y-85749021D01*
X112360439Y-85748995D01*
X112308201Y-85749494D01*
X112307017Y-85749500D01*
X112246784Y-85749500D01*
X112237228Y-85750170D01*
X112203556Y-85750492D01*
X112203544Y-85750493D01*
X111992725Y-85782762D01*
X111992715Y-85782764D01*
X111788557Y-85844527D01*
X111788547Y-85844531D01*
X111595190Y-85934537D01*
X111595186Y-85934539D01*
X111416499Y-86050982D01*
X111416492Y-86050987D01*
X111256059Y-86191537D01*
X111256056Y-86191540D01*
X111117108Y-86353365D01*
X111117106Y-86353367D01*
X111117106Y-86353368D01*
X111117101Y-86353374D01*
X111002445Y-86533205D01*
X111002437Y-86533219D01*
X110914362Y-86727457D01*
X110914355Y-86727476D01*
X110854629Y-86932230D01*
X110854628Y-86932233D01*
X110836705Y-87057666D01*
X110825000Y-87139581D01*
X110824457Y-87143378D01*
X110824456Y-87143382D01*
X110824500Y-87250022D01*
X110824500Y-87250080D01*
X110824495Y-87324514D01*
X110824500Y-87324585D01*
X110824500Y-92186738D01*
X110823815Y-92198098D01*
X104225500Y-92198098D01*
X104225500Y-90470945D01*
X104225500Y-90470943D01*
X104201083Y-90379816D01*
X104184577Y-90318215D01*
X104146499Y-90252262D01*
X104146499Y-90252261D01*
X104105524Y-90181290D01*
X104105521Y-90181286D01*
X104105520Y-90181284D01*
X103993716Y-90069480D01*
X103993715Y-90069479D01*
X103989385Y-90065149D01*
X103989374Y-90065139D01*
X103135916Y-89211681D01*
X103102431Y-89150358D01*
X103107415Y-89080666D01*
X103149287Y-89024733D01*
X103214751Y-89000316D01*
X103223597Y-89000000D01*
X103497828Y-89000000D01*
X103497844Y-88999999D01*
X103557372Y-88993598D01*
X103557379Y-88993596D01*
X103692086Y-88943354D01*
X103692093Y-88943350D01*
X103807187Y-88857190D01*
X103807190Y-88857187D01*
X103893350Y-88742093D01*
X103893354Y-88742086D01*
X103943596Y-88607379D01*
X103943598Y-88607372D01*
X103949999Y-88547844D01*
X103950000Y-88547827D01*
X103950000Y-88425000D01*
X103174000Y-88425000D01*
X103106961Y-88405315D01*
X103061206Y-88352511D01*
X103050000Y-88301000D01*
X103050000Y-88224499D01*
X103069685Y-88157460D01*
X103122489Y-88111705D01*
X103173998Y-88100499D01*
X103497872Y-88100499D01*
X103557483Y-88094091D01*
X103692331Y-88043796D01*
X103807546Y-87957546D01*
X103807545Y-87957546D01*
X103814645Y-87952232D01*
X103816319Y-87954468D01*
X103865096Y-87927834D01*
X103891454Y-87925000D01*
X103950000Y-87925000D01*
X103950000Y-87802172D01*
X103949999Y-87802160D01*
X103943380Y-87740604D01*
X103943380Y-87714090D01*
X103944090Y-87707485D01*
X103944091Y-87707483D01*
X103950500Y-87647873D01*
X103950499Y-86902128D01*
X103944091Y-86842517D01*
X103939071Y-86829059D01*
X103893797Y-86707671D01*
X103893793Y-86707664D01*
X103807547Y-86592455D01*
X103807544Y-86592452D01*
X103692335Y-86506206D01*
X103692328Y-86506202D01*
X103557482Y-86455908D01*
X103557483Y-86455908D01*
X103497883Y-86449501D01*
X103497881Y-86449500D01*
X103497873Y-86449500D01*
X103497865Y-86449500D01*
X102944500Y-86449500D01*
X102877461Y-86429815D01*
X102831706Y-86377011D01*
X102820500Y-86325500D01*
X102820500Y-84814000D01*
X102840185Y-84746961D01*
X102892989Y-84701206D01*
X102913188Y-84696811D01*
X102920000Y-84690000D01*
X103420000Y-84690000D01*
X103867828Y-84690000D01*
X103867844Y-84689999D01*
X103927372Y-84683598D01*
X103927379Y-84683596D01*
X104062086Y-84633354D01*
X104062093Y-84633350D01*
X104177187Y-84547190D01*
X104177190Y-84547187D01*
X104263350Y-84432093D01*
X104263354Y-84432086D01*
X104313596Y-84297379D01*
X104313598Y-84297372D01*
X104319999Y-84237844D01*
X104320000Y-84237827D01*
X104320000Y-83740000D01*
X103420000Y-83740000D01*
X103420000Y-84690000D01*
X102920000Y-84690000D01*
X102920000Y-83240000D01*
X103420000Y-83240000D01*
X104320000Y-83240000D01*
X104320000Y-82742172D01*
X104319999Y-82742155D01*
X104313598Y-82682627D01*
X104313596Y-82682620D01*
X104263354Y-82547913D01*
X104263350Y-82547906D01*
X104177190Y-82432812D01*
X104177187Y-82432809D01*
X104062093Y-82346649D01*
X104062086Y-82346645D01*
X103927379Y-82296403D01*
X103927372Y-82296401D01*
X103867844Y-82290000D01*
X103420000Y-82290000D01*
X103420000Y-83240000D01*
X102920000Y-83240000D01*
X102920000Y-82290000D01*
X102909815Y-82279815D01*
X102877461Y-82270315D01*
X102831706Y-82217511D01*
X102820500Y-82166000D01*
X102820500Y-82078266D01*
X102840185Y-82011227D01*
X102878528Y-81973272D01*
X102948580Y-81929255D01*
X103027262Y-81879816D01*
X103154816Y-81752262D01*
X103250789Y-81599522D01*
X103310368Y-81429255D01*
X103312896Y-81406817D01*
X103330565Y-81250003D01*
X103330565Y-81249996D01*
X103310369Y-81070750D01*
X103310368Y-81070745D01*
X103252388Y-80905048D01*
X103250789Y-80900478D01*
X103248553Y-80896920D01*
X103184772Y-80795413D01*
X103154816Y-80747738D01*
X103027262Y-80620184D01*
X102874523Y-80524211D01*
X102704254Y-80464631D01*
X102704249Y-80464630D01*
X102525004Y-80444435D01*
X102524996Y-80444435D01*
X102345750Y-80464630D01*
X102345745Y-80464631D01*
X102175476Y-80524211D01*
X102022737Y-80620184D01*
X101895182Y-80747739D01*
X101891444Y-80752427D01*
X101834254Y-80792566D01*
X101764443Y-80795413D01*
X101704174Y-80760065D01*
X101672583Y-80697745D01*
X101670500Y-80675111D01*
X101670500Y-80274500D01*
X101690185Y-80207461D01*
X101742989Y-80161706D01*
X101794500Y-80150500D01*
X104324903Y-80150500D01*
X104391942Y-80170185D01*
X104412584Y-80186819D01*
X105240139Y-81014374D01*
X105240149Y-81014385D01*
X105244479Y-81018715D01*
X105244480Y-81018716D01*
X105356284Y-81130520D01*
X105434941Y-81175932D01*
X105493215Y-81209577D01*
X105645943Y-81250501D01*
X105645946Y-81250501D01*
X105811653Y-81250501D01*
X105811669Y-81250500D01*
X109124903Y-81250500D01*
X109191942Y-81270185D01*
X109212584Y-81286819D01*
X109694298Y-81768533D01*
X109727783Y-81829856D01*
X109729837Y-81842330D01*
X109739630Y-81929249D01*
X109799210Y-82099521D01*
X109863051Y-82201123D01*
X109895184Y-82252262D01*
X110022738Y-82379816D01*
X110039619Y-82390423D01*
X110138036Y-82452263D01*
X110175478Y-82475789D01*
X110337297Y-82532412D01*
X110345745Y-82535368D01*
X110345750Y-82535369D01*
X110524996Y-82555565D01*
X110525000Y-82555565D01*
X110525004Y-82555565D01*
X110704249Y-82535369D01*
X110704252Y-82535368D01*
X110704255Y-82535368D01*
X110874522Y-82475789D01*
X111027262Y-82379816D01*
X111154816Y-82252262D01*
X111250789Y-82099522D01*
X111310368Y-81929255D01*
X111310369Y-81929249D01*
X111330565Y-81750003D01*
X111330565Y-81749996D01*
X111310369Y-81570750D01*
X111310368Y-81570745D01*
X111275005Y-81469684D01*
X111250789Y-81400478D01*
X111247297Y-81394921D01*
X111208236Y-81332755D01*
X111154816Y-81247738D01*
X111027262Y-81120184D01*
X110969731Y-81084035D01*
X110874521Y-81024210D01*
X110704249Y-80964630D01*
X110617330Y-80954837D01*
X110552916Y-80927770D01*
X110543533Y-80919298D01*
X109912590Y-80288355D01*
X109912588Y-80288352D01*
X109793717Y-80169481D01*
X109793716Y-80169480D01*
X109689960Y-80109577D01*
X109689959Y-80109576D01*
X109656783Y-80090422D01*
X109600881Y-80075443D01*
X109504057Y-80049499D01*
X109345943Y-80049499D01*
X109338347Y-80049499D01*
X109338331Y-80049500D01*
X106025097Y-80049500D01*
X105958058Y-80029815D01*
X105937416Y-80013181D01*
X105112590Y-79188355D01*
X105112588Y-79188352D01*
X104993717Y-79069481D01*
X104993716Y-79069480D01*
X104906904Y-79019360D01*
X104906904Y-79019359D01*
X104906900Y-79019358D01*
X104856785Y-78990423D01*
X104704057Y-78949499D01*
X104545943Y-78949499D01*
X104538347Y-78949499D01*
X104538331Y-78949500D01*
X101511669Y-78949500D01*
X101511653Y-78949499D01*
X101504057Y-78949499D01*
X101345943Y-78949499D01*
X101238587Y-78978265D01*
X101193210Y-78990424D01*
X101193209Y-78990425D01*
X101143096Y-79019359D01*
X101143095Y-79019360D01*
X101103571Y-79042179D01*
X101056285Y-79069479D01*
X101056282Y-79069481D01*
X100589481Y-79536282D01*
X100589479Y-79536285D01*
X100539361Y-79623094D01*
X100539359Y-79623096D01*
X100510425Y-79673209D01*
X100510424Y-79673210D01*
X100510423Y-79673215D01*
X100469499Y-79825943D01*
X100469499Y-79825945D01*
X100469499Y-79925500D01*
X100449814Y-79992539D01*
X100397010Y-80038294D01*
X100345499Y-80049500D01*
X96990083Y-80049500D01*
X96923044Y-80029815D01*
X96877289Y-79977011D01*
X96867345Y-79907853D01*
X96867610Y-79906102D01*
X96875500Y-79856286D01*
X96875500Y-79643713D01*
X96842246Y-79433760D01*
X96842246Y-79433757D01*
X96776557Y-79231588D01*
X96680051Y-79042184D01*
X96680049Y-79042181D01*
X96680048Y-79042179D01*
X96555109Y-78870213D01*
X96404786Y-78719890D01*
X96232820Y-78594951D01*
X96043414Y-78498444D01*
X96043413Y-78498443D01*
X96043412Y-78498443D01*
X95841243Y-78432754D01*
X95841241Y-78432753D01*
X95841240Y-78432753D01*
X95679957Y-78407208D01*
X95631287Y-78399500D01*
X95418713Y-78399500D01*
X95370042Y-78407208D01*
X95208760Y-78432753D01*
X95006585Y-78498444D01*
X94817179Y-78594951D01*
X94645213Y-78719890D01*
X94494890Y-78870213D01*
X94369951Y-79042179D01*
X94273444Y-79231585D01*
X94207753Y-79433760D01*
X94174500Y-79643713D01*
X94174500Y-79856286D01*
X94197222Y-79999751D01*
X94207754Y-80066243D01*
X94241298Y-80169481D01*
X94273444Y-80268414D01*
X94369951Y-80457820D01*
X94494890Y-80629786D01*
X94645213Y-80780109D01*
X94817179Y-80905048D01*
X94817181Y-80905049D01*
X94817184Y-80905051D01*
X95006588Y-81001557D01*
X95208757Y-81067246D01*
X95208760Y-81067246D01*
X95208761Y-81067247D01*
X95253407Y-81074317D01*
X95314762Y-81084035D01*
X95377896Y-81113964D01*
X95414828Y-81173275D01*
X95413830Y-81243137D01*
X95383046Y-81294188D01*
X95344481Y-81332753D01*
X95344480Y-81332755D01*
X95301720Y-81406818D01*
X95265423Y-81469686D01*
X95224499Y-81622414D01*
X95224499Y-81622416D01*
X95224499Y-81790517D01*
X95224500Y-81790530D01*
X95224500Y-82084082D01*
X95204815Y-82151121D01*
X95152011Y-82196876D01*
X95141456Y-82201123D01*
X95075479Y-82224209D01*
X94922736Y-82320185D01*
X94919903Y-82322445D01*
X94917724Y-82323334D01*
X94916842Y-82323889D01*
X94916744Y-82323734D01*
X94855217Y-82348855D01*
X94842588Y-82349500D01*
X92011670Y-82349500D01*
X92011654Y-82349499D01*
X92004058Y-82349499D01*
X91845943Y-82349499D01*
X91769579Y-82369961D01*
X91693214Y-82390423D01*
X91693209Y-82390426D01*
X91556290Y-82469475D01*
X91556282Y-82469481D01*
X90606465Y-83419298D01*
X90545142Y-83452783D01*
X90532668Y-83454837D01*
X90445750Y-83464630D01*
X90275478Y-83524210D01*
X90122737Y-83620184D01*
X89995184Y-83747737D01*
X89899211Y-83900476D01*
X89839631Y-84070745D01*
X89839630Y-84070750D01*
X89819435Y-84249996D01*
X89819435Y-84250003D01*
X89839630Y-84429249D01*
X89839631Y-84429254D01*
X89899211Y-84599523D01*
X89991853Y-84746961D01*
X89995184Y-84752262D01*
X90122738Y-84879816D01*
X90275478Y-84975789D01*
X90445745Y-85035368D01*
X90445750Y-85035369D01*
X90624996Y-85055565D01*
X90625000Y-85055565D01*
X90625004Y-85055565D01*
X90804249Y-85035369D01*
X90804252Y-85035368D01*
X90804255Y-85035368D01*
X90974522Y-84975789D01*
X91127262Y-84879816D01*
X91254816Y-84752262D01*
X91350789Y-84599522D01*
X91410368Y-84429255D01*
X91420161Y-84342329D01*
X91447226Y-84277918D01*
X91455689Y-84268544D01*
X92137417Y-83586819D01*
X92198740Y-83553334D01*
X92225098Y-83550500D01*
X94842588Y-83550500D01*
X94909627Y-83570185D01*
X94919903Y-83577555D01*
X94922736Y-83579814D01*
X94922738Y-83579816D01*
X95075478Y-83675789D01*
X95245745Y-83735368D01*
X95314384Y-83743101D01*
X95378796Y-83770166D01*
X95418352Y-83827760D01*
X95424500Y-83866321D01*
X95424500Y-85249902D01*
X95404815Y-85316941D01*
X95388181Y-85337583D01*
X94354481Y-86371282D01*
X94354475Y-86371290D01*
X94315666Y-86438511D01*
X94315666Y-86438512D01*
X94275423Y-86508215D01*
X94234499Y-86660943D01*
X94234499Y-86660945D01*
X94234499Y-86829046D01*
X94234500Y-86829059D01*
X94234500Y-91658053D01*
X94214815Y-91725092D01*
X94162011Y-91770847D01*
X94092853Y-91780791D01*
X94039377Y-91759628D01*
X93972643Y-91712900D01*
X93972639Y-91712898D01*
X93972637Y-91712897D01*
X93774330Y-91620425D01*
X93774326Y-91620424D01*
X93774322Y-91620422D01*
X93562977Y-91563793D01*
X93345002Y-91544723D01*
X93344998Y-91544723D01*
X93199682Y-91557436D01*
X93127023Y-91563793D01*
X93127020Y-91563793D01*
X92915677Y-91620422D01*
X92915668Y-91620426D01*
X92717361Y-91712898D01*
X92717357Y-91712900D01*
X92538121Y-91838402D01*
X92383402Y-91993121D01*
X92257900Y-92172357D01*
X92257898Y-92172361D01*
X92187382Y-92323583D01*
X92141209Y-92376022D01*
X92074016Y-92395174D01*
X92007135Y-92374958D01*
X91962618Y-92323583D01*
X91928317Y-92250025D01*
X91892102Y-92172362D01*
X91892099Y-92172358D01*
X91892099Y-92172357D01*
X91766599Y-91993124D01*
X91694500Y-91921025D01*
X91611877Y-91838402D01*
X91450054Y-91725092D01*
X91432638Y-91712897D01*
X91333484Y-91666661D01*
X91234330Y-91620425D01*
X91234326Y-91620424D01*
X91234322Y-91620422D01*
X91022977Y-91563793D01*
X90805002Y-91544723D01*
X90804998Y-91544723D01*
X90659682Y-91557436D01*
X90587023Y-91563793D01*
X90587020Y-91563793D01*
X90375677Y-91620422D01*
X90375668Y-91620426D01*
X90177361Y-91712898D01*
X90177357Y-91712900D01*
X89998121Y-91838402D01*
X89843402Y-91993121D01*
X89717900Y-92172357D01*
X89717900Y-92172358D01*
X89717898Y-92172361D01*
X89717898Y-92172362D01*
X89712393Y-92184168D01*
X89647105Y-92324176D01*
X89600932Y-92376615D01*
X89533738Y-92395766D01*
X89466857Y-92375550D01*
X89422341Y-92324174D01*
X89351669Y-92172617D01*
X89308123Y-92110428D01*
X88747962Y-92670589D01*
X88730925Y-92607007D01*
X88665099Y-92492993D01*
X88572007Y-92399901D01*
X88457993Y-92334075D01*
X88394409Y-92317037D01*
X88954571Y-91756874D01*
X88892387Y-91713333D01*
X88694159Y-91620898D01*
X88694150Y-91620894D01*
X88482894Y-91564289D01*
X88482884Y-91564287D01*
X88265001Y-91545225D01*
X88264999Y-91545225D01*
X88047115Y-91564287D01*
X88047105Y-91564289D01*
X87835849Y-91620894D01*
X87835840Y-91620898D01*
X87637614Y-91713332D01*
X87637612Y-91713333D01*
X87575428Y-91756875D01*
X87575427Y-91756875D01*
X88135590Y-92317037D01*
X88072007Y-92334075D01*
X87957993Y-92399901D01*
X87864901Y-92492993D01*
X87799075Y-92607007D01*
X87782037Y-92670590D01*
X87221875Y-92110427D01*
X87221875Y-92110428D01*
X87178333Y-92172612D01*
X87178332Y-92172614D01*
X87107658Y-92324175D01*
X87061485Y-92376614D01*
X86994292Y-92395766D01*
X86927411Y-92375550D01*
X86882894Y-92324175D01*
X86848317Y-92250025D01*
X86812102Y-92172362D01*
X86812099Y-92172358D01*
X86812099Y-92172357D01*
X86686599Y-91993124D01*
X86614500Y-91921025D01*
X86531877Y-91838402D01*
X86370054Y-91725092D01*
X86352638Y-91712897D01*
X86253484Y-91666661D01*
X86154330Y-91620425D01*
X86154326Y-91620424D01*
X86154322Y-91620422D01*
X85942977Y-91563793D01*
X85725002Y-91544723D01*
X85724998Y-91544723D01*
X85579682Y-91557436D01*
X85507023Y-91563793D01*
X85507020Y-91563793D01*
X85295677Y-91620422D01*
X85295668Y-91620426D01*
X85097361Y-91712898D01*
X85097357Y-91712900D01*
X84918121Y-91838402D01*
X84763402Y-91993121D01*
X84637900Y-92172357D01*
X84637898Y-92172361D01*
X84545426Y-92370668D01*
X84545422Y-92370677D01*
X84488793Y-92582020D01*
X84488793Y-92582023D01*
X84486607Y-92607007D01*
X84469723Y-92799997D01*
X84469723Y-92800002D01*
X84488793Y-93017975D01*
X84488793Y-93017979D01*
X84545422Y-93229322D01*
X84545424Y-93229326D01*
X84545425Y-93229330D01*
X84562490Y-93265925D01*
X84637897Y-93427638D01*
X84637898Y-93427639D01*
X84763402Y-93606877D01*
X84918123Y-93761598D01*
X85097361Y-93887102D01*
X85295670Y-93979575D01*
X85507023Y-94036207D01*
X85689926Y-94052208D01*
X85724998Y-94055277D01*
X85725000Y-94055277D01*
X85725002Y-94055277D01*
X85753254Y-94052805D01*
X85942977Y-94036207D01*
X86154330Y-93979575D01*
X86352639Y-93887102D01*
X86531877Y-93761598D01*
X86686598Y-93606877D01*
X86812102Y-93427639D01*
X86882895Y-93275822D01*
X86929066Y-93223385D01*
X86996260Y-93204233D01*
X87063141Y-93224449D01*
X87107658Y-93275824D01*
X87178333Y-93427387D01*
X87221874Y-93489571D01*
X87782037Y-92929408D01*
X87799075Y-92992993D01*
X87864901Y-93107007D01*
X87957993Y-93200099D01*
X88072007Y-93265925D01*
X88135590Y-93282962D01*
X87575427Y-93843124D01*
X87637612Y-93886666D01*
X87835840Y-93979101D01*
X87835849Y-93979105D01*
X88047105Y-94035710D01*
X88047115Y-94035712D01*
X88264999Y-94054775D01*
X88265001Y-94054775D01*
X88482884Y-94035712D01*
X88482894Y-94035710D01*
X88694150Y-93979105D01*
X88694164Y-93979100D01*
X88892383Y-93886669D01*
X88892385Y-93886668D01*
X88954571Y-93843124D01*
X88394410Y-93282962D01*
X88457993Y-93265925D01*
X88572007Y-93200099D01*
X88665099Y-93107007D01*
X88730925Y-92992993D01*
X88747962Y-92929409D01*
X89308124Y-93489570D01*
X89351666Y-93427388D01*
X89422340Y-93275825D01*
X89468512Y-93223386D01*
X89535706Y-93204233D01*
X89602587Y-93224448D01*
X89647105Y-93275824D01*
X89717897Y-93427638D01*
X89717898Y-93427639D01*
X89843402Y-93606877D01*
X89998123Y-93761598D01*
X90177361Y-93887102D01*
X90375670Y-93979575D01*
X90587023Y-94036207D01*
X90769926Y-94052208D01*
X90804998Y-94055277D01*
X90805000Y-94055277D01*
X90805002Y-94055277D01*
X90833254Y-94052805D01*
X91022977Y-94036207D01*
X91234330Y-93979575D01*
X91432639Y-93887102D01*
X91611877Y-93761598D01*
X91766598Y-93606877D01*
X91892102Y-93427639D01*
X91962618Y-93276414D01*
X92008790Y-93223977D01*
X92075984Y-93204825D01*
X92142865Y-93225041D01*
X92187381Y-93276414D01*
X92257898Y-93427639D01*
X92383402Y-93606877D01*
X92538123Y-93761598D01*
X92717361Y-93887102D01*
X92915670Y-93979575D01*
X93127023Y-94036207D01*
X93309926Y-94052208D01*
X93344998Y-94055277D01*
X93345000Y-94055277D01*
X93345002Y-94055277D01*
X93373254Y-94052805D01*
X93562977Y-94036207D01*
X93774330Y-93979575D01*
X93972639Y-93887102D01*
X94039376Y-93840371D01*
X94105582Y-93818044D01*
X94173349Y-93835054D01*
X94221162Y-93886001D01*
X94234500Y-93941946D01*
X94234500Y-115773330D01*
X94234499Y-115773348D01*
X94234499Y-115939054D01*
X94234498Y-115939054D01*
X94275423Y-116091785D01*
X94304358Y-116141900D01*
X94304359Y-116141904D01*
X94304360Y-116141904D01*
X94354479Y-116228714D01*
X94354481Y-116228717D01*
X94473349Y-116347585D01*
X94473355Y-116347590D01*
X95651633Y-117525868D01*
X95685118Y-117587191D01*
X95680134Y-117656883D01*
X95638262Y-117712816D01*
X95629924Y-117718543D01*
X95547737Y-117770184D01*
X95420184Y-117897737D01*
X95324211Y-118050476D01*
X95264631Y-118220745D01*
X95264630Y-118220750D01*
X95244435Y-118399996D01*
X95244435Y-118400003D01*
X95264630Y-118579249D01*
X95264631Y-118579254D01*
X95324211Y-118749523D01*
X95361609Y-118809041D01*
X95420102Y-118902132D01*
X95420185Y-118902263D01*
X95422445Y-118905097D01*
X95423334Y-118907275D01*
X95423889Y-118908158D01*
X95423734Y-118908255D01*
X95448855Y-118969783D01*
X95449500Y-118982412D01*
X95449500Y-119236859D01*
X95449499Y-119236877D01*
X95449499Y-119402583D01*
X95449498Y-119402583D01*
X95490423Y-119555315D01*
X95490424Y-119555316D01*
X95516511Y-119600500D01*
X95569480Y-119692245D01*
X95569482Y-119692247D01*
X95688349Y-119811114D01*
X95688355Y-119811119D01*
X96666610Y-120789374D01*
X96666620Y-120789385D01*
X96670950Y-120793715D01*
X96670951Y-120793716D01*
X96782755Y-120905520D01*
X96782757Y-120905521D01*
X96782761Y-120905524D01*
X96869357Y-120955520D01*
X96869358Y-120955520D01*
X96919686Y-120984577D01*
X97072413Y-121025500D01*
X97072414Y-121025500D01*
X97717588Y-121025500D01*
X97784627Y-121045185D01*
X97794903Y-121052555D01*
X97797736Y-121054814D01*
X97797738Y-121054816D01*
X97870409Y-121100478D01*
X97937580Y-121142685D01*
X97950478Y-121150789D01*
X98106502Y-121205384D01*
X98120745Y-121210368D01*
X98120750Y-121210369D01*
X98299996Y-121230565D01*
X98300000Y-121230565D01*
X98300004Y-121230565D01*
X98479249Y-121210369D01*
X98479252Y-121210368D01*
X98479255Y-121210368D01*
X98649522Y-121150789D01*
X98802262Y-121054816D01*
X98929816Y-120927262D01*
X99025789Y-120774522D01*
X99085368Y-120604255D01*
X99085369Y-120604249D01*
X99105565Y-120425003D01*
X99105565Y-120424996D01*
X99085369Y-120245750D01*
X99085368Y-120245745D01*
X99060579Y-120174903D01*
X99025789Y-120075478D01*
X99007086Y-120045713D01*
X98965967Y-119980272D01*
X98929816Y-119922738D01*
X98802262Y-119795184D01*
X98729556Y-119749500D01*
X98649519Y-119699209D01*
X98582698Y-119675827D01*
X98525922Y-119635106D01*
X98500175Y-119570153D01*
X98513631Y-119501591D01*
X98535971Y-119471106D01*
X98554816Y-119452262D01*
X98564841Y-119436306D01*
X98617174Y-119390014D01*
X98686227Y-119379364D01*
X98750076Y-119407738D01*
X98757517Y-119414595D01*
X98822738Y-119479816D01*
X98975478Y-119575789D01*
X99145745Y-119635368D01*
X99232669Y-119645161D01*
X99297080Y-119672226D01*
X99306465Y-119680700D01*
X99988181Y-120362416D01*
X100021666Y-120423739D01*
X100024500Y-120450097D01*
X100024500Y-123449901D01*
X100004815Y-123516940D01*
X99988181Y-123537582D01*
X99728072Y-123797690D01*
X99666749Y-123831175D01*
X99597057Y-123826191D01*
X99541124Y-123784319D01*
X99535398Y-123775981D01*
X99454820Y-123647743D01*
X99454815Y-123647737D01*
X99327262Y-123520184D01*
X99174523Y-123424211D01*
X99004254Y-123364631D01*
X99004249Y-123364630D01*
X98825004Y-123344435D01*
X98824996Y-123344435D01*
X98645750Y-123364630D01*
X98645745Y-123364631D01*
X98475476Y-123424211D01*
X98322736Y-123520185D01*
X98319903Y-123522445D01*
X98317724Y-123523334D01*
X98316842Y-123523889D01*
X98316744Y-123523734D01*
X98255217Y-123548855D01*
X98242588Y-123549500D01*
X94107412Y-123549500D01*
X94040373Y-123529815D01*
X94030097Y-123522445D01*
X94027263Y-123520185D01*
X94027262Y-123520184D01*
X93967591Y-123482690D01*
X93874523Y-123424211D01*
X93704254Y-123364631D01*
X93704249Y-123364630D01*
X93525004Y-123344435D01*
X93524996Y-123344435D01*
X93345750Y-123364630D01*
X93345745Y-123364631D01*
X93175476Y-123424211D01*
X93016842Y-123523889D01*
X93015402Y-123521598D01*
X92962096Y-123543346D01*
X92893404Y-123530573D01*
X92842522Y-123482690D01*
X92825500Y-123419987D01*
X92825500Y-121142685D01*
X92825500Y-121142682D01*
X92798590Y-120955520D01*
X92794955Y-120930234D01*
X92794952Y-120930224D01*
X92794413Y-120928386D01*
X92734484Y-120724289D01*
X92734483Y-120724287D01*
X92734482Y-120724283D01*
X92645327Y-120529060D01*
X92645314Y-120529037D01*
X92529284Y-120348491D01*
X92529274Y-120348477D01*
X92388725Y-120186277D01*
X92348644Y-120151547D01*
X92254697Y-120070141D01*
X92226510Y-120045717D01*
X92226504Y-120045713D01*
X92045958Y-119929683D01*
X92045935Y-119929670D01*
X91850710Y-119840515D01*
X91850698Y-119840510D01*
X91644773Y-119780047D01*
X91644757Y-119780043D01*
X91432314Y-119749500D01*
X91390889Y-119749500D01*
X83831967Y-119749500D01*
X83818166Y-119748729D01*
X83798954Y-119746577D01*
X83728387Y-119738673D01*
X83701490Y-119732574D01*
X83622719Y-119705203D01*
X83597836Y-119693310D01*
X83562449Y-119671257D01*
X83527061Y-119649203D01*
X83505426Y-119632107D01*
X83446148Y-119573446D01*
X83428829Y-119551994D01*
X83383981Y-119481674D01*
X83371832Y-119456920D01*
X83343640Y-119378438D01*
X83337263Y-119351615D01*
X83326421Y-119263165D01*
X83325500Y-119248079D01*
X83325500Y-119034000D01*
X83345185Y-118966961D01*
X83397989Y-118921206D01*
X83449500Y-118910000D01*
X89980000Y-118910000D01*
X90079993Y-103799820D01*
X90079993Y-103799819D01*
X83449500Y-103799819D01*
X83382461Y-103780134D01*
X83336706Y-103727330D01*
X83325500Y-103675819D01*
X83325500Y-81670488D01*
X83326111Y-81658193D01*
X83331862Y-81600478D01*
X83334095Y-81578073D01*
X83338933Y-81554015D01*
X83360740Y-81482933D01*
X83370227Y-81460298D01*
X83405609Y-81394914D01*
X83419366Y-81374595D01*
X83471032Y-81312548D01*
X83479337Y-81303525D01*
X83521792Y-81261757D01*
X83521794Y-81261753D01*
X83523930Y-81259652D01*
X83529791Y-81253021D01*
X83881587Y-80901227D01*
X83890603Y-80893057D01*
X83952196Y-80842519D01*
X83972399Y-80829021D01*
X84037280Y-80794346D01*
X84059724Y-80785051D01*
X84130114Y-80763702D01*
X84153946Y-80758962D01*
X84233663Y-80751111D01*
X84245815Y-80750515D01*
X84313201Y-80750515D01*
X84313430Y-80750500D01*
X91432312Y-80750500D01*
X91432315Y-80750500D01*
X91644759Y-80719956D01*
X91850695Y-80659490D01*
X92045930Y-80570332D01*
X92226490Y-80454298D01*
X92388699Y-80313750D01*
X92529255Y-80151547D01*
X92645298Y-79970993D01*
X92734465Y-79775763D01*
X92794941Y-79569830D01*
X92825495Y-79357387D01*
X92825495Y-79326795D01*
X92825500Y-79326754D01*
X92825500Y-79250025D01*
X92825501Y-79231585D01*
X92825503Y-79184180D01*
X92825501Y-79184175D01*
X92825502Y-79176605D01*
X92825500Y-79176555D01*
X92825500Y-77874500D01*
X92845185Y-77807461D01*
X92897989Y-77761706D01*
X92949500Y-77750500D01*
X115344906Y-77750500D01*
X115404708Y-77750500D01*
X115416860Y-77751097D01*
G37*
%TD.AperFunction*%
%TA.AperFunction,Conductor*%
G36*
X103806582Y-102113158D02*
G01*
X103945943Y-102150501D01*
X103945945Y-102150501D01*
X104111654Y-102150501D01*
X104111670Y-102150500D01*
X107124903Y-102150500D01*
X107191942Y-102170185D01*
X107212584Y-102186819D01*
X111488181Y-106462416D01*
X111521666Y-106523739D01*
X111524500Y-106550097D01*
X111524500Y-114167587D01*
X111504815Y-114234626D01*
X111497450Y-114244896D01*
X111495186Y-114247734D01*
X111399210Y-114400478D01*
X111339630Y-114570750D01*
X111329837Y-114657668D01*
X111302770Y-114722082D01*
X111294298Y-114731465D01*
X109156286Y-116869478D01*
X109044481Y-116981282D01*
X109044479Y-116981285D01*
X108994361Y-117068094D01*
X108994359Y-117068096D01*
X108965425Y-117118209D01*
X108965424Y-117118210D01*
X108965423Y-117118215D01*
X108924499Y-117270943D01*
X108924499Y-117270945D01*
X108924499Y-117439046D01*
X108924500Y-117439059D01*
X108924500Y-125263330D01*
X108924499Y-125263348D01*
X108924499Y-125429054D01*
X108924498Y-125429054D01*
X108960963Y-125565139D01*
X108965423Y-125581785D01*
X108994312Y-125631821D01*
X109022872Y-125681290D01*
X109044479Y-125718714D01*
X109044481Y-125718717D01*
X109163349Y-125837585D01*
X109163355Y-125837590D01*
X109588181Y-126262416D01*
X109621666Y-126323739D01*
X109624500Y-126350097D01*
X109624500Y-126625500D01*
X109604815Y-126692539D01*
X109552011Y-126738294D01*
X109500500Y-126749500D01*
X103474097Y-126749500D01*
X103407058Y-126729815D01*
X103361303Y-126677011D01*
X103351359Y-126607853D01*
X103380384Y-126544297D01*
X103386416Y-126537819D01*
X103625499Y-126298735D01*
X103743535Y-126180698D01*
X103804856Y-126147215D01*
X103817311Y-126145163D01*
X103904255Y-126135368D01*
X104074522Y-126075789D01*
X104227262Y-125979816D01*
X104354816Y-125852262D01*
X104450789Y-125699522D01*
X104510368Y-125529255D01*
X104510369Y-125529249D01*
X104530565Y-125350003D01*
X104530565Y-125349996D01*
X104510369Y-125170750D01*
X104510368Y-125170745D01*
X104486056Y-125101265D01*
X104450789Y-125000478D01*
X104354816Y-124847738D01*
X104227262Y-124720184D01*
X104074523Y-124624211D01*
X103904254Y-124564631D01*
X103904249Y-124564630D01*
X103725004Y-124544435D01*
X103724996Y-124544435D01*
X103545750Y-124564630D01*
X103545745Y-124564631D01*
X103375476Y-124624211D01*
X103222737Y-124720184D01*
X103095184Y-124847737D01*
X102999210Y-125000478D01*
X102939630Y-125170750D01*
X102929837Y-125257668D01*
X102902770Y-125322082D01*
X102894298Y-125331465D01*
X100837702Y-127388062D01*
X100776379Y-127421547D01*
X100706687Y-127416563D01*
X100650754Y-127374691D01*
X100626337Y-127309227D01*
X100626021Y-127300381D01*
X100626021Y-126567776D01*
X100645706Y-126500737D01*
X100662340Y-126480095D01*
X103659745Y-123482690D01*
X105692440Y-121449996D01*
X106419435Y-121449996D01*
X106419435Y-121450003D01*
X106439630Y-121629249D01*
X106439631Y-121629254D01*
X106499211Y-121799523D01*
X106595184Y-121952262D01*
X106722738Y-122079816D01*
X106875478Y-122175789D01*
X107045745Y-122235368D01*
X107045750Y-122235369D01*
X107224996Y-122255565D01*
X107225000Y-122255565D01*
X107225004Y-122255565D01*
X107404249Y-122235369D01*
X107404252Y-122235368D01*
X107404255Y-122235368D01*
X107574522Y-122175789D01*
X107727262Y-122079816D01*
X107854816Y-121952262D01*
X107950789Y-121799522D01*
X108010368Y-121629255D01*
X108017024Y-121570185D01*
X108030565Y-121450003D01*
X108030565Y-121449996D01*
X108010369Y-121270750D01*
X108010368Y-121270745D01*
X107989608Y-121211416D01*
X107950789Y-121100478D01*
X107854816Y-120947738D01*
X107727262Y-120820184D01*
X107692566Y-120798383D01*
X107574523Y-120724211D01*
X107404254Y-120664631D01*
X107404249Y-120664630D01*
X107225004Y-120644435D01*
X107224996Y-120644435D01*
X107045750Y-120664630D01*
X107045745Y-120664631D01*
X106875476Y-120724211D01*
X106722737Y-120820184D01*
X106595184Y-120947737D01*
X106499211Y-121100476D01*
X106439631Y-121270745D01*
X106439630Y-121270750D01*
X106419435Y-121449996D01*
X105692440Y-121449996D01*
X106730520Y-120411916D01*
X106809577Y-120274984D01*
X106850501Y-120122257D01*
X106850501Y-119964142D01*
X106850501Y-119956547D01*
X106850500Y-119956529D01*
X106850500Y-114260890D01*
X106850501Y-114260877D01*
X106850501Y-114092774D01*
X106809576Y-113940043D01*
X106809574Y-113940040D01*
X106789000Y-113904405D01*
X106772526Y-113836505D01*
X106775498Y-113814797D01*
X106776690Y-113809574D01*
X106776693Y-113809567D01*
X106776693Y-113809558D01*
X106776695Y-113809554D01*
X106796890Y-113630315D01*
X106796890Y-113630308D01*
X106776694Y-113451062D01*
X106776693Y-113451057D01*
X106717113Y-113280788D01*
X106621140Y-113128049D01*
X106493587Y-113000496D01*
X106340848Y-112904523D01*
X106170579Y-112844943D01*
X106170574Y-112844942D01*
X105991329Y-112824747D01*
X105991321Y-112824747D01*
X105812075Y-112844942D01*
X105812070Y-112844943D01*
X105641801Y-112904523D01*
X105489062Y-113000496D01*
X105361509Y-113128049D01*
X105265536Y-113280788D01*
X105205956Y-113451057D01*
X105205955Y-113451061D01*
X105198105Y-113520738D01*
X105171038Y-113585152D01*
X105113443Y-113624707D01*
X105074885Y-113630854D01*
X104606451Y-113630854D01*
X104539412Y-113611169D01*
X104518770Y-113594535D01*
X103161819Y-112237584D01*
X103128334Y-112176261D01*
X103125500Y-112149903D01*
X103125500Y-112032412D01*
X103145185Y-111965373D01*
X103152555Y-111955097D01*
X103154810Y-111952267D01*
X103154816Y-111952262D01*
X103250789Y-111799522D01*
X103310368Y-111629255D01*
X103330565Y-111450000D01*
X103310368Y-111270745D01*
X103250789Y-111100478D01*
X103154816Y-110947738D01*
X103027262Y-110820184D01*
X102874523Y-110724211D01*
X102704254Y-110664631D01*
X102704249Y-110664630D01*
X102525004Y-110644435D01*
X102524996Y-110644435D01*
X102345750Y-110664630D01*
X102345735Y-110664634D01*
X102315452Y-110675230D01*
X102245673Y-110678791D01*
X102185047Y-110644060D01*
X102152821Y-110582066D01*
X102150500Y-110558188D01*
X102150500Y-110212180D01*
X102170185Y-110145141D01*
X102200186Y-110112916D01*
X102205415Y-110109000D01*
X102226104Y-110093512D01*
X102291565Y-110069094D01*
X102359839Y-110083944D01*
X102374728Y-110093512D01*
X102407910Y-110118352D01*
X102407913Y-110118354D01*
X102542620Y-110168596D01*
X102542627Y-110168598D01*
X102602155Y-110174999D01*
X102602172Y-110175000D01*
X102800000Y-110175000D01*
X103300000Y-110175000D01*
X103497828Y-110175000D01*
X103497844Y-110174999D01*
X103557372Y-110168598D01*
X103557379Y-110168596D01*
X103692086Y-110118354D01*
X103692093Y-110118350D01*
X103807187Y-110032190D01*
X103807190Y-110032187D01*
X103893350Y-109917093D01*
X103893354Y-109917086D01*
X103943596Y-109782379D01*
X103943598Y-109782372D01*
X103949999Y-109722844D01*
X103950000Y-109722827D01*
X103950000Y-109600000D01*
X103300000Y-109600000D01*
X103300000Y-110175000D01*
X102800000Y-110175000D01*
X102800000Y-109474000D01*
X102819685Y-109406961D01*
X102872489Y-109361206D01*
X102924000Y-109350000D01*
X103050000Y-109350000D01*
X103086319Y-109313681D01*
X103088657Y-109316019D01*
X103122489Y-109286705D01*
X103173998Y-109275499D01*
X103497872Y-109275499D01*
X103557483Y-109269091D01*
X103692331Y-109218796D01*
X103807546Y-109132546D01*
X103807545Y-109132546D01*
X103814645Y-109127232D01*
X103816319Y-109129468D01*
X103865096Y-109102834D01*
X103891454Y-109100000D01*
X103950000Y-109100000D01*
X103950000Y-108977172D01*
X103949999Y-108977160D01*
X103943380Y-108915604D01*
X103943380Y-108889090D01*
X103944090Y-108882485D01*
X103944091Y-108882483D01*
X103950500Y-108822873D01*
X103950499Y-108077128D01*
X103944091Y-108017517D01*
X103900438Y-107900478D01*
X103893797Y-107882671D01*
X103893793Y-107882664D01*
X103807547Y-107767455D01*
X103700188Y-107687085D01*
X103658318Y-107631151D01*
X103650500Y-107587819D01*
X103650500Y-106349996D01*
X105119435Y-106349996D01*
X105119435Y-106350003D01*
X105139630Y-106529249D01*
X105139631Y-106529254D01*
X105199211Y-106699523D01*
X105295185Y-106852263D01*
X105297445Y-106855097D01*
X105298334Y-106857275D01*
X105298889Y-106858158D01*
X105298734Y-106858255D01*
X105323855Y-106919783D01*
X105324500Y-106932412D01*
X105324500Y-108067587D01*
X105304815Y-108134626D01*
X105297450Y-108144896D01*
X105295186Y-108147734D01*
X105199211Y-108300476D01*
X105139631Y-108470745D01*
X105139630Y-108470750D01*
X105119435Y-108649996D01*
X105119435Y-108650003D01*
X105139630Y-108829249D01*
X105139631Y-108829254D01*
X105199211Y-108999523D01*
X105282796Y-109132546D01*
X105295184Y-109152262D01*
X105422738Y-109279816D01*
X105575478Y-109375789D01*
X105745745Y-109435368D01*
X105745750Y-109435369D01*
X105924996Y-109455565D01*
X105925000Y-109455565D01*
X105925004Y-109455565D01*
X106104249Y-109435369D01*
X106104252Y-109435368D01*
X106104255Y-109435368D01*
X106274522Y-109375789D01*
X106427262Y-109279816D01*
X106554816Y-109152262D01*
X106650789Y-108999522D01*
X106710368Y-108829255D01*
X106710369Y-108829249D01*
X106730565Y-108650003D01*
X106730565Y-108649996D01*
X106710369Y-108470750D01*
X106710368Y-108470745D01*
X106650788Y-108300476D01*
X106554813Y-108147734D01*
X106552550Y-108144896D01*
X106551659Y-108142715D01*
X106551111Y-108141842D01*
X106551264Y-108141745D01*
X106526144Y-108080209D01*
X106525500Y-108067587D01*
X106525500Y-106932412D01*
X106545185Y-106865373D01*
X106552555Y-106855097D01*
X106554810Y-106852267D01*
X106554816Y-106852262D01*
X106650789Y-106699522D01*
X106710368Y-106529255D01*
X106710369Y-106529249D01*
X106730565Y-106350003D01*
X106730565Y-106349996D01*
X106710369Y-106170750D01*
X106710368Y-106170745D01*
X106664162Y-106038697D01*
X106650789Y-106000478D01*
X106554816Y-105847738D01*
X106427262Y-105720184D01*
X106274523Y-105624211D01*
X106104254Y-105564631D01*
X106104249Y-105564630D01*
X105925004Y-105544435D01*
X105924996Y-105544435D01*
X105745750Y-105564630D01*
X105745745Y-105564631D01*
X105575476Y-105624211D01*
X105422737Y-105720184D01*
X105295184Y-105847737D01*
X105199211Y-106000476D01*
X105139631Y-106170745D01*
X105139630Y-106170750D01*
X105119435Y-106349996D01*
X103650500Y-106349996D01*
X103650500Y-102232936D01*
X103670185Y-102165897D01*
X103722989Y-102120142D01*
X103792147Y-102110198D01*
X103806582Y-102113158D01*
G37*
%TD.AperFunction*%
%TA.AperFunction,Conductor*%
G36*
X102359839Y-120008944D02*
G01*
X102374728Y-120018512D01*
X102407910Y-120043352D01*
X102407913Y-120043354D01*
X102542620Y-120093596D01*
X102542627Y-120093598D01*
X102602155Y-120099999D01*
X102602172Y-120100000D01*
X102826403Y-120100000D01*
X102893442Y-120119685D01*
X102939197Y-120172489D01*
X102949141Y-120241647D01*
X102920116Y-120305203D01*
X102914084Y-120311681D01*
X102912584Y-120313181D01*
X102851261Y-120346666D01*
X102824903Y-120349500D01*
X102325097Y-120349500D01*
X102258058Y-120329815D01*
X102237416Y-120313181D01*
X102186819Y-120262584D01*
X102153334Y-120201261D01*
X102150500Y-120174903D01*
X102150500Y-120137180D01*
X102170185Y-120070141D01*
X102200186Y-120037916D01*
X102205415Y-120034000D01*
X102226104Y-120018512D01*
X102291565Y-119994094D01*
X102359839Y-120008944D01*
G37*
%TD.AperFunction*%
%TA.AperFunction,Conductor*%
G36*
X95640703Y-100581979D02*
G01*
X95676542Y-100634738D01*
X95699210Y-100699521D01*
X95795185Y-100852263D01*
X95797445Y-100855097D01*
X95798334Y-100857275D01*
X95798889Y-100858158D01*
X95798734Y-100858255D01*
X95823855Y-100919783D01*
X95824500Y-100932412D01*
X95824500Y-103963330D01*
X95824499Y-103963348D01*
X95824499Y-104129054D01*
X95824498Y-104129054D01*
X95865423Y-104281786D01*
X95865424Y-104281787D01*
X95893560Y-104330520D01*
X95944480Y-104418716D01*
X95944482Y-104418718D01*
X96063349Y-104537585D01*
X96063355Y-104537590D01*
X98294298Y-106768534D01*
X98327783Y-106829857D01*
X98329837Y-106842331D01*
X98339630Y-106929249D01*
X98399210Y-107099521D01*
X98399211Y-107099522D01*
X98495184Y-107252262D01*
X98622738Y-107379816D01*
X98700107Y-107428430D01*
X98746398Y-107480765D01*
X98757046Y-107549818D01*
X98728671Y-107613667D01*
X98721817Y-107621105D01*
X98595183Y-107747739D01*
X98499211Y-107900476D01*
X98439631Y-108070745D01*
X98439630Y-108070750D01*
X98419435Y-108249996D01*
X98419435Y-108250003D01*
X98439630Y-108429249D01*
X98439631Y-108429254D01*
X98499211Y-108599523D01*
X98530926Y-108649996D01*
X98595184Y-108752262D01*
X98722738Y-108879816D01*
X98875478Y-108975789D01*
X98941453Y-108998874D01*
X98998229Y-109039595D01*
X99023977Y-109104548D01*
X99024499Y-109115916D01*
X99024499Y-109173360D01*
X99024500Y-109173373D01*
X99024500Y-109267587D01*
X99004815Y-109334626D01*
X98997450Y-109344896D01*
X98995186Y-109347734D01*
X98899211Y-109500476D01*
X98839631Y-109670745D01*
X98839630Y-109670750D01*
X98819435Y-109849996D01*
X98819435Y-109850003D01*
X98839630Y-110029249D01*
X98839631Y-110029254D01*
X98899211Y-110199523D01*
X98995184Y-110352262D01*
X99122738Y-110479816D01*
X99275478Y-110575789D01*
X99293417Y-110582066D01*
X99445745Y-110635368D01*
X99445750Y-110635369D01*
X99520166Y-110643753D01*
X99584580Y-110670819D01*
X99624136Y-110728413D01*
X99626059Y-110734879D01*
X99665424Y-110881787D01*
X99682126Y-110910715D01*
X99682127Y-110910717D01*
X99744477Y-111018712D01*
X99744481Y-111018717D01*
X99863349Y-111137585D01*
X99863355Y-111137590D01*
X100913181Y-112187416D01*
X100946666Y-112248739D01*
X100949500Y-112275097D01*
X100949500Y-117512819D01*
X100929815Y-117579858D01*
X100899812Y-117612085D01*
X100792452Y-117692455D01*
X100706206Y-117807664D01*
X100706202Y-117807671D01*
X100672610Y-117897738D01*
X100655909Y-117942517D01*
X100649500Y-118002127D01*
X100649500Y-118002134D01*
X100649500Y-118002135D01*
X100649500Y-118747870D01*
X100649501Y-118747879D01*
X100656367Y-118811751D01*
X100656367Y-118838257D01*
X100655909Y-118842516D01*
X100655909Y-118842517D01*
X100649500Y-118902127D01*
X100649500Y-118902132D01*
X100649500Y-119025902D01*
X100629815Y-119092941D01*
X100577011Y-119138696D01*
X100507853Y-119148640D01*
X100444297Y-119119615D01*
X100437819Y-119113583D01*
X100155700Y-118831465D01*
X100122215Y-118770142D01*
X100120163Y-118757686D01*
X100110368Y-118670745D01*
X100050789Y-118500478D01*
X99954816Y-118347738D01*
X99827262Y-118220184D01*
X99738852Y-118164632D01*
X99674523Y-118124211D01*
X99504254Y-118064631D01*
X99504249Y-118064630D01*
X99325004Y-118044435D01*
X99324996Y-118044435D01*
X99145750Y-118064630D01*
X99145745Y-118064631D01*
X98975476Y-118124211D01*
X98822737Y-118220184D01*
X98695184Y-118347737D01*
X98695183Y-118347739D01*
X98685155Y-118363698D01*
X98632819Y-118409988D01*
X98563765Y-118420634D01*
X98499918Y-118392257D01*
X98492482Y-118385404D01*
X98427262Y-118320184D01*
X98274521Y-118224210D01*
X98104249Y-118164630D01*
X98017330Y-118154837D01*
X97952916Y-118127770D01*
X97943533Y-118119298D01*
X95471819Y-115647584D01*
X95438334Y-115586261D01*
X95435500Y-115559903D01*
X95435500Y-100675692D01*
X95455185Y-100608653D01*
X95507989Y-100562898D01*
X95577147Y-100552954D01*
X95640703Y-100581979D01*
G37*
%TD.AperFunction*%
%TA.AperFunction,Conductor*%
G36*
X102930703Y-113705384D02*
G01*
X102937181Y-113711416D01*
X103821493Y-114595728D01*
X103821503Y-114595739D01*
X103825833Y-114600069D01*
X103825834Y-114600070D01*
X103937638Y-114711874D01*
X104003675Y-114750000D01*
X104074569Y-114790931D01*
X104227297Y-114831855D01*
X104227300Y-114831855D01*
X104393007Y-114831855D01*
X104393023Y-114831854D01*
X105075500Y-114831854D01*
X105142539Y-114851539D01*
X105188294Y-114904343D01*
X105199500Y-114955854D01*
X105199500Y-118641212D01*
X105179815Y-118708251D01*
X105127011Y-118754006D01*
X105057853Y-118763950D01*
X105009529Y-118746206D01*
X104974525Y-118724212D01*
X104804254Y-118664631D01*
X104804249Y-118664630D01*
X104625004Y-118644435D01*
X104624996Y-118644435D01*
X104445750Y-118664630D01*
X104445745Y-118664631D01*
X104275476Y-118724211D01*
X104140471Y-118809041D01*
X104073234Y-118828041D01*
X104006399Y-118807673D01*
X103961185Y-118754405D01*
X103950499Y-118704051D01*
X103950499Y-118002128D01*
X103944091Y-117942517D01*
X103893796Y-117807669D01*
X103893795Y-117807668D01*
X103893793Y-117807664D01*
X103807547Y-117692455D01*
X103807544Y-117692452D01*
X103692335Y-117606206D01*
X103692328Y-117606202D01*
X103557482Y-117555908D01*
X103557483Y-117555908D01*
X103497883Y-117549501D01*
X103497881Y-117549500D01*
X103497873Y-117549500D01*
X103497865Y-117549500D01*
X103125098Y-117549500D01*
X103058059Y-117529815D01*
X103037417Y-117513181D01*
X102761819Y-117237583D01*
X102728334Y-117176260D01*
X102725500Y-117149902D01*
X102725500Y-113799097D01*
X102745185Y-113732058D01*
X102797989Y-113686303D01*
X102867147Y-113676359D01*
X102930703Y-113705384D01*
G37*
%TD.AperFunction*%
%TA.AperFunction,Conductor*%
G36*
X100730703Y-99954785D02*
G01*
X100748764Y-99974183D01*
X100792454Y-100032546D01*
X100899811Y-100112914D01*
X100941682Y-100168847D01*
X100949500Y-100212180D01*
X100949500Y-100538330D01*
X100949499Y-100538348D01*
X100949499Y-100704054D01*
X100949498Y-100704054D01*
X100990423Y-100856785D01*
X101009186Y-100889283D01*
X101009185Y-100889283D01*
X101009186Y-100889284D01*
X101069475Y-100993709D01*
X101069481Y-100993717D01*
X101188349Y-101112585D01*
X101188355Y-101112590D01*
X102413181Y-102337416D01*
X102446666Y-102398739D01*
X102449500Y-102425097D01*
X102449500Y-107587819D01*
X102429815Y-107654858D01*
X102399810Y-107687086D01*
X102374310Y-107706175D01*
X102308846Y-107730592D01*
X102240573Y-107715740D01*
X102225690Y-107706175D01*
X102200190Y-107687086D01*
X102158318Y-107631153D01*
X102150500Y-107587819D01*
X102150500Y-103064059D01*
X102150501Y-103064046D01*
X102150501Y-102895945D01*
X102150501Y-102895943D01*
X102109577Y-102743215D01*
X102088112Y-102706039D01*
X102075721Y-102684575D01*
X102075720Y-102684574D01*
X102030521Y-102606286D01*
X102030520Y-102606284D01*
X101918716Y-102494480D01*
X101918715Y-102494479D01*
X101914385Y-102490149D01*
X101914374Y-102490139D01*
X100561819Y-101137584D01*
X100528334Y-101076261D01*
X100525500Y-101049903D01*
X100525500Y-100048498D01*
X100545185Y-99981459D01*
X100597989Y-99935704D01*
X100667147Y-99925760D01*
X100730703Y-99954785D01*
G37*
%TD.AperFunction*%
%TD*%
M02*
