%TF.GenerationSoftware,KiCad,Pcbnew,8.0.8*%
%TF.CreationDate,2025-03-31T21:39:45-04:00*%
%TF.ProjectId,vindriktrning-esp32-s3,76696e64-7269-46b7-9472-6e696e672d65,rev?*%
%TF.SameCoordinates,Original*%
%TF.FileFunction,Paste,Top*%
%TF.FilePolarity,Positive*%
%FSLAX46Y46*%
G04 Gerber Fmt 4.6, Leading zero omitted, Abs format (unit mm)*
G04 Created by KiCad (PCBNEW 8.0.8) date 2025-03-31 21:39:45*
%MOMM*%
%LPD*%
G01*
G04 APERTURE LIST*
G04 Aperture macros list*
%AMRoundRect*
0 Rectangle with rounded corners*
0 $1 Rounding radius*
0 $2 $3 $4 $5 $6 $7 $8 $9 X,Y pos of 4 corners*
0 Add a 4 corners polygon primitive as box body*
4,1,4,$2,$3,$4,$5,$6,$7,$8,$9,$2,$3,0*
0 Add four circle primitives for the rounded corners*
1,1,$1+$1,$2,$3*
1,1,$1+$1,$4,$5*
1,1,$1+$1,$6,$7*
1,1,$1+$1,$8,$9*
0 Add four rect primitives between the rounded corners*
20,1,$1+$1,$2,$3,$4,$5,0*
20,1,$1+$1,$4,$5,$6,$7,0*
20,1,$1+$1,$6,$7,$8,$9,0*
20,1,$1+$1,$8,$9,$2,$3,0*%
G04 Aperture macros list end*
%ADD10R,1.360000X1.230000*%
%ADD11RoundRect,0.250000X-0.250000X-0.475000X0.250000X-0.475000X0.250000X0.475000X-0.250000X0.475000X0*%
%ADD12R,3.250000X1.000000*%
%ADD13R,2.300000X1.500000*%
%ADD14RoundRect,0.200000X-0.275000X0.200000X-0.275000X-0.200000X0.275000X-0.200000X0.275000X0.200000X0*%
%ADD15R,0.530000X1.050000*%
%ADD16RoundRect,0.200000X0.275000X-0.200000X0.275000X0.200000X-0.275000X0.200000X-0.275000X-0.200000X0*%
%ADD17RoundRect,0.200000X0.200000X0.275000X-0.200000X0.275000X-0.200000X-0.275000X0.200000X-0.275000X0*%
%ADD18R,1.250000X0.700000*%
%ADD19RoundRect,0.200000X-0.200000X-0.275000X0.200000X-0.275000X0.200000X0.275000X-0.200000X0.275000X0*%
%ADD20R,0.420000X0.600000*%
%ADD21R,0.950000X1.200000*%
%ADD22RoundRect,0.250000X-0.475000X0.250000X-0.475000X-0.250000X0.475000X-0.250000X0.475000X0.250000X0*%
%ADD23R,0.520000X1.600000*%
%ADD24R,2.200000X3.100000*%
%ADD25R,0.350000X0.900000*%
%ADD26R,0.300000X0.900000*%
%ADD27R,0.830000X0.630000*%
%ADD28R,1.200000X3.500000*%
%ADD29R,0.400000X0.800000*%
%ADD30R,0.800000X0.400000*%
%ADD31R,1.450000X1.450000*%
%ADD32R,0.700000X0.700000*%
G04 APERTURE END LIST*
D10*
%TO.C,SW1*%
X94825000Y-141180000D03*
X94825000Y-136820000D03*
%TD*%
D11*
%TO.C,C4*%
X94950000Y-124150000D03*
X96850000Y-124150000D03*
%TD*%
%TO.C,C3*%
X94950000Y-121450000D03*
X96850000Y-121450000D03*
%TD*%
D12*
%TO.C,J1*%
X105510000Y-81925000D03*
X105510000Y-83425000D03*
X105510000Y-84925000D03*
X105510000Y-86425000D03*
D13*
X107750000Y-79675000D03*
X107750000Y-88675000D03*
%TD*%
D14*
%TO.C,R2*%
X112425000Y-80000000D03*
X112425000Y-81650000D03*
%TD*%
D15*
%TO.C,U4*%
X101400000Y-135350000D03*
X102350000Y-135350000D03*
X103300000Y-135350000D03*
X103300000Y-133050000D03*
X101400000Y-133050000D03*
%TD*%
D16*
%TO.C,R5*%
X104600000Y-144575000D03*
X104600000Y-142925000D03*
%TD*%
%TO.C,R1*%
X99800000Y-144575000D03*
X99800000Y-142925000D03*
%TD*%
D17*
%TO.C,R11*%
X97100000Y-133100000D03*
X95450000Y-133100000D03*
%TD*%
%TO.C,R15*%
X109025000Y-127275000D03*
X107375000Y-127275000D03*
%TD*%
D14*
%TO.C,R12*%
X90450000Y-99650000D03*
X90450000Y-101300000D03*
%TD*%
D18*
%TO.C,Q3*%
X105300000Y-122725000D03*
X105300000Y-124625000D03*
X107300000Y-123675000D03*
%TD*%
D17*
%TO.C,R10*%
X105925000Y-111675000D03*
X104275000Y-111675000D03*
%TD*%
D11*
%TO.C,C5*%
X95325000Y-130625000D03*
X97225000Y-130625000D03*
%TD*%
D19*
%TO.C,R9*%
X99275000Y-80800000D03*
X100925000Y-80800000D03*
%TD*%
D20*
%TO.C,Q2*%
X96875000Y-84950000D03*
X97525000Y-84950000D03*
X98175000Y-84950000D03*
X98175000Y-83050000D03*
X97525000Y-83050000D03*
X96875000Y-83050000D03*
%TD*%
D19*
%TO.C,R8*%
X97875000Y-86975000D03*
X99525000Y-86975000D03*
%TD*%
%TO.C,R3*%
X106025000Y-103275000D03*
X107675000Y-103275000D03*
%TD*%
D21*
%TO.C,U2*%
X102325000Y-138275000D03*
X102325000Y-141675000D03*
%TD*%
D17*
%TO.C,R7*%
X105925000Y-109750000D03*
X104275000Y-109750000D03*
%TD*%
D14*
%TO.C,R13*%
X93450000Y-99650000D03*
X93450000Y-101300000D03*
%TD*%
%TO.C,R16*%
X109600000Y-132275000D03*
X109600000Y-133925000D03*
%TD*%
%TO.C,R4*%
X107650000Y-105075000D03*
X107650000Y-106725000D03*
%TD*%
D19*
%TO.C,R14*%
X103025000Y-127300000D03*
X104675000Y-127300000D03*
%TD*%
D22*
%TO.C,C2*%
X93575000Y-84550000D03*
X93575000Y-86450000D03*
%TD*%
D16*
%TO.C,R6*%
X105350000Y-137775000D03*
X105350000Y-136125000D03*
%TD*%
D23*
%TO.C,FAN1*%
X117000000Y-102200000D03*
X115740000Y-102200000D03*
D24*
X113200000Y-99300000D03*
X119550000Y-99300000D03*
%TD*%
D25*
%TO.C,USB1*%
X99625000Y-150925000D03*
D26*
X101125000Y-150925000D03*
X101625000Y-150925000D03*
X102125000Y-150925000D03*
X102625000Y-150925000D03*
X103125000Y-150925000D03*
X103625000Y-150925000D03*
D25*
X105125000Y-150925000D03*
X105125000Y-149125000D03*
D26*
X103625000Y-149125000D03*
X103125000Y-149125000D03*
X102625000Y-149125000D03*
X102125000Y-149125000D03*
X101625000Y-149125000D03*
X101125000Y-149125000D03*
D25*
X99625000Y-149125000D03*
%TD*%
D18*
%TO.C,Q1*%
X109900000Y-103275000D03*
X109900000Y-105175000D03*
X111900000Y-104225000D03*
%TD*%
D27*
%TO.C,U3*%
X117490000Y-105775000D03*
X115210000Y-105775000D03*
%TD*%
D10*
%TO.C,SW2*%
X109825000Y-141180000D03*
X109825000Y-136820000D03*
%TD*%
D28*
%TO.C,C1*%
X88400000Y-82725000D03*
X88400000Y-88065000D03*
%TD*%
D29*
%TO.C,U6*%
X91965000Y-117350000D03*
X92775000Y-117350000D03*
X93575000Y-117350000D03*
X94365000Y-117350000D03*
X95175000Y-117350000D03*
X95965000Y-117350000D03*
X96765000Y-117350000D03*
X97575000Y-117350000D03*
X98365000Y-117350000D03*
X99175000Y-117350000D03*
X99975000Y-117350000D03*
D30*
X100845000Y-116250000D03*
X100845000Y-115450000D03*
X100845000Y-114650000D03*
X100845000Y-113850000D03*
X100845000Y-113050000D03*
X100845000Y-112250000D03*
X100845000Y-111450000D03*
X100845000Y-110650000D03*
X100845000Y-109850000D03*
X100845000Y-109050000D03*
X100845000Y-108250000D03*
X100845000Y-107450000D03*
X100845000Y-106650000D03*
D29*
X99975000Y-105550000D03*
X99175000Y-105550000D03*
X98365000Y-105550000D03*
X97575000Y-105550000D03*
X96765000Y-105550000D03*
X95975000Y-105550000D03*
X95175000Y-105550000D03*
X94365000Y-105550000D03*
X93575000Y-105550000D03*
X92775000Y-105550000D03*
X91965000Y-105550000D03*
D30*
X91045000Y-106650000D03*
X91045000Y-107450000D03*
X91045000Y-108250000D03*
X91045000Y-109050000D03*
X91045000Y-109850000D03*
X91045000Y-110650000D03*
X91045000Y-111450000D03*
X91045000Y-112250000D03*
X91045000Y-113050000D03*
X91045000Y-113850000D03*
X91045000Y-114650000D03*
X91045000Y-115450000D03*
X91045000Y-116250000D03*
D31*
X94095000Y-113230000D03*
X95895000Y-113230000D03*
X97695000Y-113230000D03*
X94095000Y-111430000D03*
X95895000Y-111430000D03*
X97695000Y-111430000D03*
X94095000Y-109630000D03*
X95895000Y-109630000D03*
X97695000Y-109630000D03*
D32*
X90995000Y-105500000D03*
X100895000Y-105500000D03*
X100895000Y-117400000D03*
X90995000Y-117400000D03*
%TD*%
M02*
