%TF.GenerationSoftware,KiCad,Pcbnew,8.0.8*%
%TF.CreationDate,2025-03-31T21:39:46-04:00*%
%TF.ProjectId,vindriktrning-esp32-s3,76696e64-7269-46b7-9472-6e696e672d65,rev?*%
%TF.SameCoordinates,Original*%
%TF.FileFunction,Legend,Bot*%
%TF.FilePolarity,Positive*%
%FSLAX46Y46*%
G04 Gerber Fmt 4.6, Leading zero omitted, Abs format (unit mm)*
G04 Created by KiCad (PCBNEW 8.0.8) date 2025-03-31 21:39:46*
%MOMM*%
%LPD*%
G01*
G04 APERTURE LIST*
%ADD10C,0.250000*%
%ADD11C,1.500000*%
%ADD12C,2.200000*%
%ADD13C,1.200000*%
%ADD14C,0.650000*%
%ADD15R,0.800000X0.650000*%
%ADD16R,1.300000X1.400000*%
G04 APERTURE END LIST*
D10*
%TO.C,LED1*%
X103930000Y-118825000D02*
G75*
G02*
X103670000Y-118825000I-130000J0D01*
G01*
X103670000Y-118825000D02*
G75*
G02*
X103930000Y-118825000I130000J0D01*
G01*
X103060000Y-117805000D02*
X101540000Y-117805000D01*
X101540000Y-119845000D02*
X103060000Y-119845000D01*
%TO.C,U1*%
X99900000Y-82850000D02*
X100300000Y-82450000D01*
X99900000Y-84120000D02*
X99900000Y-82850000D01*
X100280000Y-84500000D02*
X99900000Y-84120000D01*
X100300000Y-82450000D02*
X101780000Y-82450000D01*
X101800000Y-84500000D02*
X100280000Y-84500000D01*
X101950000Y-83490000D02*
X102220000Y-83490000D01*
X102320000Y-82990000D02*
X102320000Y-83990000D01*
X102560000Y-84500000D02*
X104110000Y-84500000D01*
X104110000Y-82470000D02*
X102560000Y-82470000D01*
X104110000Y-84500000D02*
X104110000Y-82470000D01*
%TO.C,LED2*%
X101540000Y-109920000D02*
X103060000Y-109920000D01*
X103060000Y-107880000D02*
X101540000Y-107880000D01*
X103930000Y-108900000D02*
G75*
G02*
X103670000Y-108900000I-130000J0D01*
G01*
X103670000Y-108900000D02*
G75*
G02*
X103930000Y-108900000I130000J0D01*
G01*
%TO.C,LED4*%
X101540000Y-88745000D02*
X103060000Y-88745000D01*
X103060000Y-86705000D02*
X101540000Y-86705000D01*
X103930000Y-87725000D02*
G75*
G02*
X103670000Y-87725000I-130000J0D01*
G01*
X103670000Y-87725000D02*
G75*
G02*
X103930000Y-87725000I130000J0D01*
G01*
%TO.C,LED3*%
X101540000Y-99920000D02*
X103060000Y-99920000D01*
X103060000Y-97880000D02*
X101540000Y-97880000D01*
X103930000Y-98900000D02*
G75*
G02*
X103670000Y-98900000I-130000J0D01*
G01*
X103670000Y-98900000D02*
G75*
G02*
X103930000Y-98900000I130000J0D01*
G01*
%TD*%
%LPC*%
D11*
%TO.C,IC1*%
X85725000Y-92800000D03*
X88265000Y-92800000D03*
X90805000Y-92800000D03*
X93345000Y-92800000D03*
X95885000Y-92800000D03*
X98425000Y-92800000D03*
X100965000Y-92800000D03*
%TD*%
D12*
%TO.C,H3*%
X94825000Y-145950000D03*
%TD*%
%TO.C,H1*%
X95525000Y-79750000D03*
%TD*%
D13*
%TO.C,USB1*%
X104775000Y-152175000D03*
X104775000Y-147875000D03*
X99975000Y-152175000D03*
X99975000Y-147875000D03*
D14*
X106125000Y-150025000D03*
X98625000Y-150025000D03*
%TD*%
D12*
%TO.C,H2*%
X109825000Y-145950000D03*
%TD*%
D15*
%TO.C,LED1*%
X101550000Y-119275000D03*
X103050000Y-119275000D03*
X101550000Y-118375000D03*
X103050000Y-118375000D03*
%TD*%
D16*
%TO.C,U1*%
X103170000Y-83490000D03*
X101070000Y-83490000D03*
%TD*%
D15*
%TO.C,LED2*%
X103050000Y-108450000D03*
X101550000Y-108450000D03*
X103050000Y-109350000D03*
X101550000Y-109350000D03*
%TD*%
%TO.C,LED4*%
X103050000Y-87275000D03*
X101550000Y-87275000D03*
X103050000Y-88175000D03*
X101550000Y-88175000D03*
%TD*%
%TO.C,LED3*%
X103050000Y-98450000D03*
X101550000Y-98450000D03*
X103050000Y-99350000D03*
X101550000Y-99350000D03*
%TD*%
%LPD*%
M02*
