%TF.GenerationSoftware,KiCad,Pcbnew,8.0.8*%
%TF.CreationDate,2025-03-31T21:39:45-04:00*%
%TF.ProjectId,vindriktrning-esp32-s3,76696e64-7269-46b7-9472-6e696e672d65,rev?*%
%TF.SameCoordinates,Original*%
%TF.FileFunction,Legend,Top*%
%TF.FilePolarity,Positive*%
%FSLAX46Y46*%
G04 Gerber Fmt 4.6, Leading zero omitted, Abs format (unit mm)*
G04 Created by KiCad (PCBNEW 8.0.8) date 2025-03-31 21:39:45*
%MOMM*%
%LPD*%
G01*
G04 APERTURE LIST*
G04 Aperture macros list*
%AMRoundRect*
0 Rectangle with rounded corners*
0 $1 Rounding radius*
0 $2 $3 $4 $5 $6 $7 $8 $9 X,Y pos of 4 corners*
0 Add a 4 corners polygon primitive as box body*
4,1,4,$2,$3,$4,$5,$6,$7,$8,$9,$2,$3,0*
0 Add four circle primitives for the rounded corners*
1,1,$1+$1,$2,$3*
1,1,$1+$1,$4,$5*
1,1,$1+$1,$6,$7*
1,1,$1+$1,$8,$9*
0 Add four rect primitives between the rounded corners*
20,1,$1+$1,$2,$3,$4,$5,0*
20,1,$1+$1,$4,$5,$6,$7,0*
20,1,$1+$1,$6,$7,$8,$9,0*
20,1,$1+$1,$8,$9,$2,$3,0*%
G04 Aperture macros list end*
%ADD10C,0.150000*%
%ADD11C,0.120000*%
%ADD12C,0.250000*%
%ADD13C,0.100000*%
%ADD14C,0.600000*%
%ADD15C,0.300000*%
%ADD16C,0.200000*%
%ADD17C,0.400000*%
%ADD18C,1.000000*%
%ADD19R,1.360000X1.230000*%
%ADD20C,1.500000*%
%ADD21RoundRect,0.250000X-0.250000X-0.475000X0.250000X-0.475000X0.250000X0.475000X-0.250000X0.475000X0*%
%ADD22R,3.250000X1.000000*%
%ADD23R,2.300000X1.500000*%
%ADD24RoundRect,0.200000X-0.275000X0.200000X-0.275000X-0.200000X0.275000X-0.200000X0.275000X0.200000X0*%
%ADD25R,0.530000X1.050000*%
%ADD26RoundRect,0.200000X0.275000X-0.200000X0.275000X0.200000X-0.275000X0.200000X-0.275000X-0.200000X0*%
%ADD27RoundRect,0.200000X0.200000X0.275000X-0.200000X0.275000X-0.200000X-0.275000X0.200000X-0.275000X0*%
%ADD28C,2.200000*%
%ADD29R,1.250000X0.700000*%
%ADD30RoundRect,0.200000X-0.200000X-0.275000X0.200000X-0.275000X0.200000X0.275000X-0.200000X0.275000X0*%
%ADD31R,0.420000X0.600000*%
%ADD32R,0.950000X1.200000*%
%ADD33RoundRect,0.250000X-0.475000X0.250000X-0.475000X-0.250000X0.475000X-0.250000X0.475000X0.250000X0*%
%ADD34R,0.520000X1.600000*%
%ADD35R,2.200000X3.100000*%
%ADD36R,0.350000X0.900000*%
%ADD37R,0.300000X0.900000*%
%ADD38C,1.200000*%
%ADD39C,0.650000*%
%ADD40R,0.830000X0.630000*%
%ADD41R,1.200000X3.500000*%
%ADD42R,0.400000X0.800000*%
%ADD43R,0.800000X0.400000*%
%ADD44R,1.450000X1.450000*%
%ADD45R,0.700000X0.700000*%
G04 APERTURE END LIST*
D10*
X84716541Y-96419819D02*
X85335588Y-96419819D01*
X85335588Y-96419819D02*
X85002255Y-96800771D01*
X85002255Y-96800771D02*
X85145112Y-96800771D01*
X85145112Y-96800771D02*
X85240350Y-96848390D01*
X85240350Y-96848390D02*
X85287969Y-96896009D01*
X85287969Y-96896009D02*
X85335588Y-96991247D01*
X85335588Y-96991247D02*
X85335588Y-97229342D01*
X85335588Y-97229342D02*
X85287969Y-97324580D01*
X85287969Y-97324580D02*
X85240350Y-97372200D01*
X85240350Y-97372200D02*
X85145112Y-97419819D01*
X85145112Y-97419819D02*
X84859398Y-97419819D01*
X84859398Y-97419819D02*
X84764160Y-97372200D01*
X84764160Y-97372200D02*
X84716541Y-97324580D01*
X85621303Y-96419819D02*
X85954636Y-97419819D01*
X85954636Y-97419819D02*
X86287969Y-96419819D01*
X93614160Y-97372200D02*
X93757017Y-97419819D01*
X93757017Y-97419819D02*
X93995112Y-97419819D01*
X93995112Y-97419819D02*
X94090350Y-97372200D01*
X94090350Y-97372200D02*
X94137969Y-97324580D01*
X94137969Y-97324580D02*
X94185588Y-97229342D01*
X94185588Y-97229342D02*
X94185588Y-97134104D01*
X94185588Y-97134104D02*
X94137969Y-97038866D01*
X94137969Y-97038866D02*
X94090350Y-96991247D01*
X94090350Y-96991247D02*
X93995112Y-96943628D01*
X93995112Y-96943628D02*
X93804636Y-96896009D01*
X93804636Y-96896009D02*
X93709398Y-96848390D01*
X93709398Y-96848390D02*
X93661779Y-96800771D01*
X93661779Y-96800771D02*
X93614160Y-96705533D01*
X93614160Y-96705533D02*
X93614160Y-96610295D01*
X93614160Y-96610295D02*
X93661779Y-96515057D01*
X93661779Y-96515057D02*
X93709398Y-96467438D01*
X93709398Y-96467438D02*
X93804636Y-96419819D01*
X93804636Y-96419819D02*
X94042731Y-96419819D01*
X94042731Y-96419819D02*
X94185588Y-96467438D01*
X94614160Y-97419819D02*
X94614160Y-96419819D01*
X94614160Y-96419819D02*
X94852255Y-96419819D01*
X94852255Y-96419819D02*
X94995112Y-96467438D01*
X94995112Y-96467438D02*
X95090350Y-96562676D01*
X95090350Y-96562676D02*
X95137969Y-96657914D01*
X95137969Y-96657914D02*
X95185588Y-96848390D01*
X95185588Y-96848390D02*
X95185588Y-96991247D01*
X95185588Y-96991247D02*
X95137969Y-97181723D01*
X95137969Y-97181723D02*
X95090350Y-97276961D01*
X95090350Y-97276961D02*
X94995112Y-97372200D01*
X94995112Y-97372200D02*
X94852255Y-97419819D01*
X94852255Y-97419819D02*
X94614160Y-97419819D01*
X95566541Y-97134104D02*
X96042731Y-97134104D01*
X95471303Y-97419819D02*
X95804636Y-96419819D01*
X95804636Y-96419819D02*
X96137969Y-97419819D01*
X90029238Y-97372200D02*
X90172095Y-97419819D01*
X90172095Y-97419819D02*
X90410190Y-97419819D01*
X90410190Y-97419819D02*
X90505428Y-97372200D01*
X90505428Y-97372200D02*
X90553047Y-97324580D01*
X90553047Y-97324580D02*
X90600666Y-97229342D01*
X90600666Y-97229342D02*
X90600666Y-97134104D01*
X90600666Y-97134104D02*
X90553047Y-97038866D01*
X90553047Y-97038866D02*
X90505428Y-96991247D01*
X90505428Y-96991247D02*
X90410190Y-96943628D01*
X90410190Y-96943628D02*
X90219714Y-96896009D01*
X90219714Y-96896009D02*
X90124476Y-96848390D01*
X90124476Y-96848390D02*
X90076857Y-96800771D01*
X90076857Y-96800771D02*
X90029238Y-96705533D01*
X90029238Y-96705533D02*
X90029238Y-96610295D01*
X90029238Y-96610295D02*
X90076857Y-96515057D01*
X90076857Y-96515057D02*
X90124476Y-96467438D01*
X90124476Y-96467438D02*
X90219714Y-96419819D01*
X90219714Y-96419819D02*
X90457809Y-96419819D01*
X90457809Y-96419819D02*
X90600666Y-96467438D01*
X91600666Y-97324580D02*
X91553047Y-97372200D01*
X91553047Y-97372200D02*
X91410190Y-97419819D01*
X91410190Y-97419819D02*
X91314952Y-97419819D01*
X91314952Y-97419819D02*
X91172095Y-97372200D01*
X91172095Y-97372200D02*
X91076857Y-97276961D01*
X91076857Y-97276961D02*
X91029238Y-97181723D01*
X91029238Y-97181723D02*
X90981619Y-96991247D01*
X90981619Y-96991247D02*
X90981619Y-96848390D01*
X90981619Y-96848390D02*
X91029238Y-96657914D01*
X91029238Y-96657914D02*
X91076857Y-96562676D01*
X91076857Y-96562676D02*
X91172095Y-96467438D01*
X91172095Y-96467438D02*
X91314952Y-96419819D01*
X91314952Y-96419819D02*
X91410190Y-96419819D01*
X91410190Y-96419819D02*
X91553047Y-96467438D01*
X91553047Y-96467438D02*
X91600666Y-96515057D01*
X92505428Y-97419819D02*
X92029238Y-97419819D01*
X92029238Y-97419819D02*
X92029238Y-96419819D01*
X87634794Y-96419819D02*
X87730032Y-96419819D01*
X87730032Y-96419819D02*
X87825270Y-96467438D01*
X87825270Y-96467438D02*
X87872889Y-96515057D01*
X87872889Y-96515057D02*
X87920508Y-96610295D01*
X87920508Y-96610295D02*
X87968127Y-96800771D01*
X87968127Y-96800771D02*
X87968127Y-97038866D01*
X87968127Y-97038866D02*
X87920508Y-97229342D01*
X87920508Y-97229342D02*
X87872889Y-97324580D01*
X87872889Y-97324580D02*
X87825270Y-97372200D01*
X87825270Y-97372200D02*
X87730032Y-97419819D01*
X87730032Y-97419819D02*
X87634794Y-97419819D01*
X87634794Y-97419819D02*
X87539556Y-97372200D01*
X87539556Y-97372200D02*
X87491937Y-97324580D01*
X87491937Y-97324580D02*
X87444318Y-97229342D01*
X87444318Y-97229342D02*
X87396699Y-97038866D01*
X87396699Y-97038866D02*
X87396699Y-96800771D01*
X87396699Y-96800771D02*
X87444318Y-96610295D01*
X87444318Y-96610295D02*
X87491937Y-96515057D01*
X87491937Y-96515057D02*
X87539556Y-96467438D01*
X87539556Y-96467438D02*
X87634794Y-96419819D01*
X88253842Y-96419819D02*
X88587175Y-97419819D01*
X88587175Y-97419819D02*
X88920508Y-96419819D01*
X101743922Y-81469819D02*
X102315350Y-81469819D01*
X102029636Y-82469819D02*
X102029636Y-81469819D01*
X102553446Y-81469819D02*
X103220112Y-82469819D01*
X103220112Y-81469819D02*
X102553446Y-82469819D01*
X102077255Y-85969819D02*
X102172493Y-85969819D01*
X102172493Y-85969819D02*
X102267731Y-86017438D01*
X102267731Y-86017438D02*
X102315350Y-86065057D01*
X102315350Y-86065057D02*
X102362969Y-86160295D01*
X102362969Y-86160295D02*
X102410588Y-86350771D01*
X102410588Y-86350771D02*
X102410588Y-86588866D01*
X102410588Y-86588866D02*
X102362969Y-86779342D01*
X102362969Y-86779342D02*
X102315350Y-86874580D01*
X102315350Y-86874580D02*
X102267731Y-86922200D01*
X102267731Y-86922200D02*
X102172493Y-86969819D01*
X102172493Y-86969819D02*
X102077255Y-86969819D01*
X102077255Y-86969819D02*
X101982017Y-86922200D01*
X101982017Y-86922200D02*
X101934398Y-86874580D01*
X101934398Y-86874580D02*
X101886779Y-86779342D01*
X101886779Y-86779342D02*
X101839160Y-86588866D01*
X101839160Y-86588866D02*
X101839160Y-86350771D01*
X101839160Y-86350771D02*
X101886779Y-86160295D01*
X101886779Y-86160295D02*
X101934398Y-86065057D01*
X101934398Y-86065057D02*
X101982017Y-86017438D01*
X101982017Y-86017438D02*
X102077255Y-85969819D01*
X102696303Y-85969819D02*
X103029636Y-86969819D01*
X103029636Y-86969819D02*
X103362969Y-85969819D01*
X102458207Y-83969819D02*
X102124874Y-83493628D01*
X101886779Y-83969819D02*
X101886779Y-82969819D01*
X101886779Y-82969819D02*
X102267731Y-82969819D01*
X102267731Y-82969819D02*
X102362969Y-83017438D01*
X102362969Y-83017438D02*
X102410588Y-83065057D01*
X102410588Y-83065057D02*
X102458207Y-83160295D01*
X102458207Y-83160295D02*
X102458207Y-83303152D01*
X102458207Y-83303152D02*
X102410588Y-83398390D01*
X102410588Y-83398390D02*
X102362969Y-83446009D01*
X102362969Y-83446009D02*
X102267731Y-83493628D01*
X102267731Y-83493628D02*
X101886779Y-83493628D01*
X102791541Y-82969819D02*
X103458207Y-83969819D01*
X103458207Y-82969819D02*
X102791541Y-83969819D01*
X102362969Y-84469819D02*
X101886779Y-84469819D01*
X101886779Y-84469819D02*
X101839160Y-84946009D01*
X101839160Y-84946009D02*
X101886779Y-84898390D01*
X101886779Y-84898390D02*
X101982017Y-84850771D01*
X101982017Y-84850771D02*
X102220112Y-84850771D01*
X102220112Y-84850771D02*
X102315350Y-84898390D01*
X102315350Y-84898390D02*
X102362969Y-84946009D01*
X102362969Y-84946009D02*
X102410588Y-85041247D01*
X102410588Y-85041247D02*
X102410588Y-85279342D01*
X102410588Y-85279342D02*
X102362969Y-85374580D01*
X102362969Y-85374580D02*
X102315350Y-85422200D01*
X102315350Y-85422200D02*
X102220112Y-85469819D01*
X102220112Y-85469819D02*
X101982017Y-85469819D01*
X101982017Y-85469819D02*
X101886779Y-85422200D01*
X101886779Y-85422200D02*
X101839160Y-85374580D01*
X102696303Y-84469819D02*
X103029636Y-85469819D01*
X103029636Y-85469819D02*
X103362969Y-84469819D01*
X119612969Y-102269819D02*
X119136779Y-102269819D01*
X119136779Y-102269819D02*
X119089160Y-102746009D01*
X119089160Y-102746009D02*
X119136779Y-102698390D01*
X119136779Y-102698390D02*
X119232017Y-102650771D01*
X119232017Y-102650771D02*
X119470112Y-102650771D01*
X119470112Y-102650771D02*
X119565350Y-102698390D01*
X119565350Y-102698390D02*
X119612969Y-102746009D01*
X119612969Y-102746009D02*
X119660588Y-102841247D01*
X119660588Y-102841247D02*
X119660588Y-103079342D01*
X119660588Y-103079342D02*
X119612969Y-103174580D01*
X119612969Y-103174580D02*
X119565350Y-103222200D01*
X119565350Y-103222200D02*
X119470112Y-103269819D01*
X119470112Y-103269819D02*
X119232017Y-103269819D01*
X119232017Y-103269819D02*
X119136779Y-103222200D01*
X119136779Y-103222200D02*
X119089160Y-103174580D01*
X119946303Y-102269819D02*
X120279636Y-103269819D01*
X120279636Y-103269819D02*
X120612969Y-102269819D01*
X108470112Y-142971009D02*
X108612969Y-143018628D01*
X108612969Y-143018628D02*
X108660588Y-143066247D01*
X108660588Y-143066247D02*
X108708207Y-143161485D01*
X108708207Y-143161485D02*
X108708207Y-143304342D01*
X108708207Y-143304342D02*
X108660588Y-143399580D01*
X108660588Y-143399580D02*
X108612969Y-143447200D01*
X108612969Y-143447200D02*
X108517731Y-143494819D01*
X108517731Y-143494819D02*
X108136779Y-143494819D01*
X108136779Y-143494819D02*
X108136779Y-142494819D01*
X108136779Y-142494819D02*
X108470112Y-142494819D01*
X108470112Y-142494819D02*
X108565350Y-142542438D01*
X108565350Y-142542438D02*
X108612969Y-142590057D01*
X108612969Y-142590057D02*
X108660588Y-142685295D01*
X108660588Y-142685295D02*
X108660588Y-142780533D01*
X108660588Y-142780533D02*
X108612969Y-142875771D01*
X108612969Y-142875771D02*
X108565350Y-142923390D01*
X108565350Y-142923390D02*
X108470112Y-142971009D01*
X108470112Y-142971009D02*
X108136779Y-142971009D01*
X109327255Y-142494819D02*
X109517731Y-142494819D01*
X109517731Y-142494819D02*
X109612969Y-142542438D01*
X109612969Y-142542438D02*
X109708207Y-142637676D01*
X109708207Y-142637676D02*
X109755826Y-142828152D01*
X109755826Y-142828152D02*
X109755826Y-143161485D01*
X109755826Y-143161485D02*
X109708207Y-143351961D01*
X109708207Y-143351961D02*
X109612969Y-143447200D01*
X109612969Y-143447200D02*
X109517731Y-143494819D01*
X109517731Y-143494819D02*
X109327255Y-143494819D01*
X109327255Y-143494819D02*
X109232017Y-143447200D01*
X109232017Y-143447200D02*
X109136779Y-143351961D01*
X109136779Y-143351961D02*
X109089160Y-143161485D01*
X109089160Y-143161485D02*
X109089160Y-142828152D01*
X109089160Y-142828152D02*
X109136779Y-142637676D01*
X109136779Y-142637676D02*
X109232017Y-142542438D01*
X109232017Y-142542438D02*
X109327255Y-142494819D01*
X110374874Y-142494819D02*
X110565350Y-142494819D01*
X110565350Y-142494819D02*
X110660588Y-142542438D01*
X110660588Y-142542438D02*
X110755826Y-142637676D01*
X110755826Y-142637676D02*
X110803445Y-142828152D01*
X110803445Y-142828152D02*
X110803445Y-143161485D01*
X110803445Y-143161485D02*
X110755826Y-143351961D01*
X110755826Y-143351961D02*
X110660588Y-143447200D01*
X110660588Y-143447200D02*
X110565350Y-143494819D01*
X110565350Y-143494819D02*
X110374874Y-143494819D01*
X110374874Y-143494819D02*
X110279636Y-143447200D01*
X110279636Y-143447200D02*
X110184398Y-143351961D01*
X110184398Y-143351961D02*
X110136779Y-143161485D01*
X110136779Y-143161485D02*
X110136779Y-142828152D01*
X110136779Y-142828152D02*
X110184398Y-142637676D01*
X110184398Y-142637676D02*
X110279636Y-142542438D01*
X110279636Y-142542438D02*
X110374874Y-142494819D01*
X111089160Y-142494819D02*
X111660588Y-142494819D01*
X111374874Y-143494819D02*
X111374874Y-142494819D01*
X93958207Y-143419819D02*
X93624874Y-142943628D01*
X93386779Y-143419819D02*
X93386779Y-142419819D01*
X93386779Y-142419819D02*
X93767731Y-142419819D01*
X93767731Y-142419819D02*
X93862969Y-142467438D01*
X93862969Y-142467438D02*
X93910588Y-142515057D01*
X93910588Y-142515057D02*
X93958207Y-142610295D01*
X93958207Y-142610295D02*
X93958207Y-142753152D01*
X93958207Y-142753152D02*
X93910588Y-142848390D01*
X93910588Y-142848390D02*
X93862969Y-142896009D01*
X93862969Y-142896009D02*
X93767731Y-142943628D01*
X93767731Y-142943628D02*
X93386779Y-142943628D01*
X94386779Y-142896009D02*
X94720112Y-142896009D01*
X94862969Y-143419819D02*
X94386779Y-143419819D01*
X94386779Y-143419819D02*
X94386779Y-142419819D01*
X94386779Y-142419819D02*
X94862969Y-142419819D01*
X95243922Y-143372200D02*
X95386779Y-143419819D01*
X95386779Y-143419819D02*
X95624874Y-143419819D01*
X95624874Y-143419819D02*
X95720112Y-143372200D01*
X95720112Y-143372200D02*
X95767731Y-143324580D01*
X95767731Y-143324580D02*
X95815350Y-143229342D01*
X95815350Y-143229342D02*
X95815350Y-143134104D01*
X95815350Y-143134104D02*
X95767731Y-143038866D01*
X95767731Y-143038866D02*
X95720112Y-142991247D01*
X95720112Y-142991247D02*
X95624874Y-142943628D01*
X95624874Y-142943628D02*
X95434398Y-142896009D01*
X95434398Y-142896009D02*
X95339160Y-142848390D01*
X95339160Y-142848390D02*
X95291541Y-142800771D01*
X95291541Y-142800771D02*
X95243922Y-142705533D01*
X95243922Y-142705533D02*
X95243922Y-142610295D01*
X95243922Y-142610295D02*
X95291541Y-142515057D01*
X95291541Y-142515057D02*
X95339160Y-142467438D01*
X95339160Y-142467438D02*
X95434398Y-142419819D01*
X95434398Y-142419819D02*
X95672493Y-142419819D01*
X95672493Y-142419819D02*
X95815350Y-142467438D01*
X96243922Y-142896009D02*
X96577255Y-142896009D01*
X96720112Y-143419819D02*
X96243922Y-143419819D01*
X96243922Y-143419819D02*
X96243922Y-142419819D01*
X96243922Y-142419819D02*
X96720112Y-142419819D01*
X97005827Y-142419819D02*
X97577255Y-142419819D01*
X97291541Y-143419819D02*
X97291541Y-142419819D01*
X97458207Y-102144819D02*
X97124874Y-101668628D01*
X96886779Y-102144819D02*
X96886779Y-101144819D01*
X96886779Y-101144819D02*
X97267731Y-101144819D01*
X97267731Y-101144819D02*
X97362969Y-101192438D01*
X97362969Y-101192438D02*
X97410588Y-101240057D01*
X97410588Y-101240057D02*
X97458207Y-101335295D01*
X97458207Y-101335295D02*
X97458207Y-101478152D01*
X97458207Y-101478152D02*
X97410588Y-101573390D01*
X97410588Y-101573390D02*
X97362969Y-101621009D01*
X97362969Y-101621009D02*
X97267731Y-101668628D01*
X97267731Y-101668628D02*
X96886779Y-101668628D01*
X97791541Y-101144819D02*
X98458207Y-102144819D01*
X98458207Y-101144819D02*
X97791541Y-102144819D01*
X94593922Y-101144819D02*
X95165350Y-101144819D01*
X94879636Y-102144819D02*
X94879636Y-101144819D01*
X95403446Y-101144819D02*
X96070112Y-102144819D01*
X96070112Y-101144819D02*
X95403446Y-102144819D01*
X108114285Y-99581009D02*
X107780952Y-99581009D01*
X107780952Y-100104819D02*
X107780952Y-99104819D01*
X107780952Y-99104819D02*
X108257142Y-99104819D01*
X108590476Y-99819104D02*
X109066666Y-99819104D01*
X108495238Y-100104819D02*
X108828571Y-99104819D01*
X108828571Y-99104819D02*
X109161904Y-100104819D01*
X109495238Y-100104819D02*
X109495238Y-99104819D01*
X109495238Y-99104819D02*
X110066666Y-100104819D01*
X110066666Y-100104819D02*
X110066666Y-99104819D01*
X111066666Y-100104819D02*
X110495238Y-100104819D01*
X110780952Y-100104819D02*
X110780952Y-99104819D01*
X110780952Y-99104819D02*
X110685714Y-99247676D01*
X110685714Y-99247676D02*
X110590476Y-99342914D01*
X110590476Y-99342914D02*
X110495238Y-99390533D01*
X92759580Y-85561666D02*
X92807200Y-85609285D01*
X92807200Y-85609285D02*
X92854819Y-85752142D01*
X92854819Y-85752142D02*
X92854819Y-85847380D01*
X92854819Y-85847380D02*
X92807200Y-85990237D01*
X92807200Y-85990237D02*
X92711961Y-86085475D01*
X92711961Y-86085475D02*
X92616723Y-86133094D01*
X92616723Y-86133094D02*
X92426247Y-86180713D01*
X92426247Y-86180713D02*
X92283390Y-86180713D01*
X92283390Y-86180713D02*
X92092914Y-86133094D01*
X92092914Y-86133094D02*
X91997676Y-86085475D01*
X91997676Y-86085475D02*
X91902438Y-85990237D01*
X91902438Y-85990237D02*
X91854819Y-85847380D01*
X91854819Y-85847380D02*
X91854819Y-85752142D01*
X91854819Y-85752142D02*
X91902438Y-85609285D01*
X91902438Y-85609285D02*
X91950057Y-85561666D01*
X92854819Y-84609285D02*
X92854819Y-85180713D01*
X92854819Y-84894999D02*
X91854819Y-84894999D01*
X91854819Y-84894999D02*
X91997676Y-84990237D01*
X91997676Y-84990237D02*
X92092914Y-85085475D01*
X92092914Y-85085475D02*
X92140533Y-85180713D01*
D11*
%TO.C,J11*%
X103175000Y-108625000D02*
G75*
G02*
X101775000Y-108625000I-700000J0D01*
G01*
X101775000Y-108625000D02*
G75*
G02*
X103175000Y-108625000I700000J0D01*
G01*
%TO.C,J10*%
X103600000Y-114050000D02*
G75*
G02*
X102200000Y-114050000I-700000J0D01*
G01*
X102200000Y-114050000D02*
G75*
G02*
X103600000Y-114050000I700000J0D01*
G01*
%TO.C,J9*%
X103550000Y-116175000D02*
G75*
G02*
X102150000Y-116175000I-700000J0D01*
G01*
X102150000Y-116175000D02*
G75*
G02*
X103550000Y-116175000I700000J0D01*
G01*
%TO.C,J8*%
X103350000Y-118475000D02*
G75*
G02*
X101950000Y-118475000I-700000J0D01*
G01*
X101950000Y-118475000D02*
G75*
G02*
X103350000Y-118475000I700000J0D01*
G01*
%TO.C,J7*%
X102075000Y-120125000D02*
G75*
G02*
X100675000Y-120125000I-700000J0D01*
G01*
X100675000Y-120125000D02*
G75*
G02*
X102075000Y-120125000I700000J0D01*
G01*
%TO.C,J6*%
X99825000Y-121275000D02*
G75*
G02*
X98425000Y-121275000I-700000J0D01*
G01*
X98425000Y-121275000D02*
G75*
G02*
X99825000Y-121275000I700000J0D01*
G01*
%TO.C,J5*%
X95500000Y-119075000D02*
G75*
G02*
X94100000Y-119075000I-700000J0D01*
G01*
X94100000Y-119075000D02*
G75*
G02*
X95500000Y-119075000I700000J0D01*
G01*
D10*
%TO.C,SW1*%
X93285000Y-136970000D02*
X93285000Y-141030000D01*
X93285000Y-141030000D02*
X93945000Y-141030000D01*
X96365000Y-136970000D02*
X96365000Y-141030000D01*
X96365000Y-141030000D02*
X95705000Y-141030000D01*
D12*
X95725000Y-139000000D02*
G75*
G02*
X93925000Y-139000000I-900000J0D01*
G01*
X93925000Y-139000000D02*
G75*
G02*
X95725000Y-139000000I900000J0D01*
G01*
D11*
%TO.C,J2*%
X96425000Y-103350000D02*
G75*
G02*
X95025000Y-103350000I-700000J0D01*
G01*
X95025000Y-103350000D02*
G75*
G02*
X96425000Y-103350000I700000J0D01*
G01*
D13*
%TO.C,IC1*%
X84325000Y-88800000D02*
X119325000Y-88800000D01*
X84325000Y-94200000D02*
X84325000Y-88800000D01*
D14*
X85725000Y-95240000D02*
X85725000Y-95240000D01*
X85725000Y-95340000D02*
X85725000Y-95340000D01*
D13*
X119245000Y-97800000D02*
X84245000Y-97800000D01*
X119325000Y-88800000D02*
X119325000Y-94200000D01*
D14*
X85725000Y-95240000D02*
G75*
G02*
X85725000Y-95340000I0J-50000D01*
G01*
X85725000Y-95340000D02*
G75*
G02*
X85725000Y-95240000I0J50000D01*
G01*
D11*
%TO.C,C4*%
X95638748Y-123415000D02*
X96161252Y-123415000D01*
X95638748Y-124885000D02*
X96161252Y-124885000D01*
%TO.C,C3*%
X95638748Y-120715000D02*
X96161252Y-120715000D01*
X95638748Y-122185000D02*
X96161252Y-122185000D01*
D12*
%TO.C,J1*%
X105480000Y-79675000D02*
X105480000Y-81195000D01*
X105480000Y-82655000D02*
X105480000Y-82695000D01*
X105480000Y-84155000D02*
X105480000Y-84195000D01*
X105480000Y-85655000D02*
X105480000Y-85695000D01*
X105480000Y-87155000D02*
X105480000Y-88675000D01*
X106370000Y-79675000D02*
X105480000Y-79675000D01*
X106370000Y-88675000D02*
X105480000Y-88675000D01*
X109250000Y-79675000D02*
X109140000Y-79675000D01*
X109250000Y-79675000D02*
X109250000Y-88675000D01*
X109250000Y-88675000D02*
X109140000Y-88675000D01*
D11*
%TO.C,R2*%
X111902500Y-80587742D02*
X111902500Y-81062258D01*
X112947500Y-80587742D02*
X112947500Y-81062258D01*
D10*
%TO.C,U4*%
X100800000Y-135100000D02*
X100800000Y-133300000D01*
X102810000Y-133300000D02*
X101890000Y-133300000D01*
X103900000Y-135100000D02*
X103900000Y-133300000D01*
D15*
X100830000Y-135500000D02*
G75*
G02*
X100530000Y-135500000I-150000J0D01*
G01*
X100530000Y-135500000D02*
G75*
G02*
X100830000Y-135500000I150000J0D01*
G01*
D11*
%TO.C,R5*%
X104077500Y-143987258D02*
X104077500Y-143512742D01*
X105122500Y-143987258D02*
X105122500Y-143512742D01*
%TO.C,R1*%
X99277500Y-143987258D02*
X99277500Y-143512742D01*
X100322500Y-143987258D02*
X100322500Y-143512742D01*
%TO.C,R11*%
X96512258Y-132577500D02*
X96037742Y-132577500D01*
X96512258Y-133622500D02*
X96037742Y-133622500D01*
%TO.C,R15*%
X108437258Y-126752500D02*
X107962742Y-126752500D01*
X108437258Y-127797500D02*
X107962742Y-127797500D01*
%TO.C,R12*%
X89927500Y-100237742D02*
X89927500Y-100712258D01*
X90972500Y-100237742D02*
X90972500Y-100712258D01*
D10*
%TO.C,Q3*%
X105570000Y-122145000D02*
X107030000Y-122145000D01*
X105570000Y-124135000D02*
X105570000Y-123215000D01*
X105570000Y-125205000D02*
X107030000Y-125205000D01*
X107030000Y-122145000D02*
X107030000Y-123185000D01*
X107030000Y-125205000D02*
X107030000Y-124165000D01*
D11*
%TO.C,R10*%
X105337258Y-111152500D02*
X104862742Y-111152500D01*
X105337258Y-112197500D02*
X104862742Y-112197500D01*
%TO.C,C5*%
X96013748Y-129890000D02*
X96536252Y-129890000D01*
X96013748Y-131360000D02*
X96536252Y-131360000D01*
%TO.C,R9*%
X99862742Y-80277500D02*
X100337258Y-80277500D01*
X99862742Y-81322500D02*
X100337258Y-81322500D01*
D16*
%TO.C,Q2*%
X96425000Y-83300000D02*
X96425000Y-84700000D01*
X98625000Y-83300000D02*
X98625000Y-84700000D01*
X96435000Y-85100000D02*
G75*
G02*
X96435416Y-85089966I-120000J10000D01*
G01*
D11*
%TO.C,R8*%
X98462742Y-86452500D02*
X98937258Y-86452500D01*
X98462742Y-87497500D02*
X98937258Y-87497500D01*
%TO.C,R3*%
X106612742Y-102752500D02*
X107087258Y-102752500D01*
X106612742Y-103797500D02*
X107087258Y-103797500D01*
D12*
%TO.C,U2*%
X101475000Y-138335000D02*
X101475000Y-138335000D01*
X101475000Y-138625000D02*
X101475000Y-138335000D01*
X101475000Y-141325000D02*
X101475000Y-138625000D01*
X101615000Y-141325000D02*
X101475000Y-141325000D01*
X101915000Y-140385000D02*
X102325000Y-139795000D01*
X102325000Y-139695000D02*
X102325000Y-139365000D01*
X102325000Y-139795000D02*
X102735000Y-140385000D01*
X102325000Y-140385000D02*
X102325000Y-140695000D01*
X102735000Y-140385000D02*
X101915000Y-140385000D01*
X102835000Y-139725000D02*
X101815000Y-139725000D01*
X103175000Y-138335000D02*
X103175000Y-138335000D01*
X103175000Y-138625000D02*
X103175000Y-138335000D01*
X103175000Y-138625000D02*
X103175000Y-141325000D01*
X103175000Y-141325000D02*
X103035000Y-141325000D01*
D11*
%TO.C,R7*%
X105337258Y-109227500D02*
X104862742Y-109227500D01*
X105337258Y-110272500D02*
X104862742Y-110272500D01*
%TO.C,R13*%
X92927500Y-100237742D02*
X92927500Y-100712258D01*
X93972500Y-100237742D02*
X93972500Y-100712258D01*
%TO.C,R16*%
X109077500Y-132862742D02*
X109077500Y-133337258D01*
X110122500Y-132862742D02*
X110122500Y-133337258D01*
%TO.C,R4*%
X107127500Y-105662742D02*
X107127500Y-106137258D01*
X108172500Y-105662742D02*
X108172500Y-106137258D01*
%TO.C,R14*%
X103612742Y-126777500D02*
X104087258Y-126777500D01*
X103612742Y-127822500D02*
X104087258Y-127822500D01*
%TO.C,C2*%
X92840000Y-85238748D02*
X92840000Y-85761252D01*
X94310000Y-85238748D02*
X94310000Y-85761252D01*
%TO.C,R6*%
X104827500Y-137187258D02*
X104827500Y-136712742D01*
X105872500Y-137187258D02*
X105872500Y-136712742D01*
D12*
%TO.C,FAN1*%
X112470000Y-101110000D02*
X112470000Y-101650000D01*
X112470000Y-101650000D02*
X115230000Y-101650000D01*
X118260000Y-97850000D02*
X114480000Y-97850000D01*
X120270000Y-101110000D02*
X120270000Y-101650000D01*
X120270000Y-101650000D02*
X117510000Y-101650000D01*
X118150000Y-102380000D02*
G75*
G02*
X117890000Y-102380000I-130000J0D01*
G01*
X117890000Y-102380000D02*
G75*
G02*
X118150000Y-102380000I130000J0D01*
G01*
%TO.C,USB1*%
X106875000Y-151675000D02*
X105585000Y-151675000D01*
X106875000Y-148375000D02*
X106875000Y-151675000D01*
X105585000Y-148375000D02*
X106875000Y-148375000D01*
X103965000Y-151675000D02*
X103825000Y-151675000D01*
X103965000Y-151675000D02*
X100785000Y-151675000D01*
X100785000Y-148375000D02*
X103965000Y-148375000D01*
X99165000Y-151675000D02*
X97875000Y-151675000D01*
X97875000Y-151675000D02*
X97875000Y-148375000D01*
X97875000Y-148375000D02*
X99165000Y-148375000D01*
D10*
%TO.C,Q1*%
X110170000Y-102695000D02*
X111630000Y-102695000D01*
X110170000Y-104685000D02*
X110170000Y-103765000D01*
X110170000Y-105755000D02*
X111630000Y-105755000D01*
X111630000Y-102695000D02*
X111630000Y-103735000D01*
X111630000Y-105755000D02*
X111630000Y-104715000D01*
D11*
%TO.C,J3*%
X98425000Y-103350000D02*
G75*
G02*
X97025000Y-103350000I-700000J0D01*
G01*
X97025000Y-103350000D02*
G75*
G02*
X98425000Y-103350000I700000J0D01*
G01*
D10*
%TO.C,U3*%
X115460000Y-105275000D02*
X115460000Y-105145000D01*
X115460000Y-106405000D02*
X115460000Y-106275000D01*
X115840000Y-105775000D02*
X116860000Y-105775000D01*
X116160000Y-105395000D02*
X116540000Y-105775000D01*
X116160000Y-106155000D02*
X116160000Y-105395000D01*
X116540000Y-105775000D02*
X116160000Y-106155000D01*
X116600000Y-106155000D02*
X116600000Y-105395000D01*
X117120000Y-105145000D02*
X117360000Y-105145000D01*
X117240000Y-105145000D02*
X115460000Y-105145000D01*
X117240000Y-105175000D02*
X117240000Y-105145000D01*
X117240000Y-105175000D02*
X117240000Y-105275000D01*
X117240000Y-106275000D02*
X117240000Y-106405000D01*
X117240000Y-106405000D02*
X115460000Y-106405000D01*
X117240000Y-106405000D02*
X117240000Y-106375000D01*
X117240000Y-106405000D02*
X117370000Y-106405000D01*
X117370000Y-105275000D02*
X117240000Y-105275000D01*
X117370000Y-105275000D02*
X117370000Y-105155000D01*
X117370000Y-106275000D02*
X117240000Y-106275000D01*
X117370000Y-106405000D02*
X117370000Y-106275000D01*
%TO.C,SW2*%
X108285000Y-136970000D02*
X108285000Y-141030000D01*
X108285000Y-141030000D02*
X108945000Y-141030000D01*
X111365000Y-136970000D02*
X111365000Y-141030000D01*
X111365000Y-141030000D02*
X110705000Y-141030000D01*
D12*
X110725000Y-139000000D02*
G75*
G02*
X108925000Y-139000000I-900000J0D01*
G01*
X108925000Y-139000000D02*
G75*
G02*
X110725000Y-139000000I900000J0D01*
G01*
D11*
%TO.C,J4*%
X94425000Y-103350000D02*
G75*
G02*
X93025000Y-103350000I-700000J0D01*
G01*
X93025000Y-103350000D02*
G75*
G02*
X94425000Y-103350000I700000J0D01*
G01*
D10*
%TO.C,C1*%
X85020000Y-83415000D02*
X86420000Y-82015000D01*
X85020000Y-88775000D02*
X85020000Y-83415000D01*
X86420000Y-82015000D02*
X87710000Y-82035000D01*
X87660000Y-88755000D02*
X85020000Y-88775000D01*
X89110000Y-88765000D02*
X91780000Y-88775000D01*
X90380000Y-82015000D02*
X89090000Y-82015000D01*
X91780000Y-83415000D02*
X90380000Y-82015000D01*
X91780000Y-88775000D02*
X91780000Y-83415000D01*
D12*
%TO.C,U6*%
X90105000Y-118060000D02*
X90105000Y-104850000D01*
D17*
X92085000Y-118820000D02*
G75*
G02*
X91685000Y-118820000I-200000J0D01*
G01*
X91685000Y-118820000D02*
G75*
G02*
X92085000Y-118820000I200000J0D01*
G01*
%TD*%
%LPC*%
D18*
%TO.C,J11*%
X102475000Y-108625000D03*
%TD*%
%TO.C,J10*%
X102900000Y-114050000D03*
%TD*%
%TO.C,J9*%
X102850000Y-116175000D03*
%TD*%
%TO.C,J8*%
X102650000Y-118475000D03*
%TD*%
%TO.C,J7*%
X101375000Y-120125000D03*
%TD*%
%TO.C,J6*%
X99125000Y-121275000D03*
%TD*%
%TO.C,J5*%
X94800000Y-119075000D03*
%TD*%
D19*
%TO.C,SW1*%
X94825000Y-141180000D03*
X94825000Y-136820000D03*
%TD*%
D18*
%TO.C,J2*%
X95725000Y-103350000D03*
%TD*%
D20*
%TO.C,IC1*%
X85725000Y-92800000D03*
X88265000Y-92800000D03*
X90805000Y-92800000D03*
X93345000Y-92800000D03*
X95885000Y-92800000D03*
X98425000Y-92800000D03*
X100965000Y-92800000D03*
%TD*%
D21*
%TO.C,C4*%
X94950000Y-124150000D03*
X96850000Y-124150000D03*
%TD*%
%TO.C,C3*%
X94950000Y-121450000D03*
X96850000Y-121450000D03*
%TD*%
D22*
%TO.C,J1*%
X105510000Y-81925000D03*
X105510000Y-83425000D03*
X105510000Y-84925000D03*
X105510000Y-86425000D03*
D23*
X107750000Y-79675000D03*
X107750000Y-88675000D03*
%TD*%
D24*
%TO.C,R2*%
X112425000Y-80000000D03*
X112425000Y-81650000D03*
%TD*%
D25*
%TO.C,U4*%
X101400000Y-135350000D03*
X102350000Y-135350000D03*
X103300000Y-135350000D03*
X103300000Y-133050000D03*
X101400000Y-133050000D03*
%TD*%
D26*
%TO.C,R5*%
X104600000Y-144575000D03*
X104600000Y-142925000D03*
%TD*%
%TO.C,R1*%
X99800000Y-144575000D03*
X99800000Y-142925000D03*
%TD*%
D27*
%TO.C,R11*%
X97100000Y-133100000D03*
X95450000Y-133100000D03*
%TD*%
D28*
%TO.C,H3*%
X94825000Y-145950000D03*
%TD*%
D27*
%TO.C,R15*%
X109025000Y-127275000D03*
X107375000Y-127275000D03*
%TD*%
D24*
%TO.C,R12*%
X90450000Y-99650000D03*
X90450000Y-101300000D03*
%TD*%
D29*
%TO.C,Q3*%
X105300000Y-122725000D03*
X105300000Y-124625000D03*
X107300000Y-123675000D03*
%TD*%
D27*
%TO.C,R10*%
X105925000Y-111675000D03*
X104275000Y-111675000D03*
%TD*%
D28*
%TO.C,H1*%
X95525000Y-79750000D03*
%TD*%
D21*
%TO.C,C5*%
X95325000Y-130625000D03*
X97225000Y-130625000D03*
%TD*%
D30*
%TO.C,R9*%
X99275000Y-80800000D03*
X100925000Y-80800000D03*
%TD*%
D31*
%TO.C,Q2*%
X96875000Y-84950000D03*
X97525000Y-84950000D03*
X98175000Y-84950000D03*
X98175000Y-83050000D03*
X97525000Y-83050000D03*
X96875000Y-83050000D03*
%TD*%
D30*
%TO.C,R8*%
X97875000Y-86975000D03*
X99525000Y-86975000D03*
%TD*%
%TO.C,R3*%
X106025000Y-103275000D03*
X107675000Y-103275000D03*
%TD*%
D32*
%TO.C,U2*%
X102325000Y-138275000D03*
X102325000Y-141675000D03*
%TD*%
D27*
%TO.C,R7*%
X105925000Y-109750000D03*
X104275000Y-109750000D03*
%TD*%
D24*
%TO.C,R13*%
X93450000Y-99650000D03*
X93450000Y-101300000D03*
%TD*%
%TO.C,R16*%
X109600000Y-132275000D03*
X109600000Y-133925000D03*
%TD*%
%TO.C,R4*%
X107650000Y-105075000D03*
X107650000Y-106725000D03*
%TD*%
D30*
%TO.C,R14*%
X103025000Y-127300000D03*
X104675000Y-127300000D03*
%TD*%
D33*
%TO.C,C2*%
X93575000Y-84550000D03*
X93575000Y-86450000D03*
%TD*%
D26*
%TO.C,R6*%
X105350000Y-137775000D03*
X105350000Y-136125000D03*
%TD*%
D34*
%TO.C,FAN1*%
X117000000Y-102200000D03*
X115740000Y-102200000D03*
D35*
X113200000Y-99300000D03*
X119550000Y-99300000D03*
%TD*%
D36*
%TO.C,USB1*%
X99625000Y-150925000D03*
D37*
X101125000Y-150925000D03*
X101625000Y-150925000D03*
X102125000Y-150925000D03*
X102625000Y-150925000D03*
X103125000Y-150925000D03*
X103625000Y-150925000D03*
D36*
X105125000Y-150925000D03*
X105125000Y-149125000D03*
D37*
X103625000Y-149125000D03*
X103125000Y-149125000D03*
X102625000Y-149125000D03*
X102125000Y-149125000D03*
X101625000Y-149125000D03*
X101125000Y-149125000D03*
D36*
X99625000Y-149125000D03*
D38*
X104775000Y-152175000D03*
X104775000Y-147875000D03*
X99975000Y-152175000D03*
X99975000Y-147875000D03*
D39*
X106125000Y-150025000D03*
X98625000Y-150025000D03*
%TD*%
D28*
%TO.C,H2*%
X109825000Y-145950000D03*
%TD*%
D29*
%TO.C,Q1*%
X109900000Y-103275000D03*
X109900000Y-105175000D03*
X111900000Y-104225000D03*
%TD*%
D18*
%TO.C,J3*%
X97725000Y-103350000D03*
%TD*%
D40*
%TO.C,U3*%
X117490000Y-105775000D03*
X115210000Y-105775000D03*
%TD*%
D19*
%TO.C,SW2*%
X109825000Y-141180000D03*
X109825000Y-136820000D03*
%TD*%
D18*
%TO.C,J4*%
X93725000Y-103350000D03*
%TD*%
D41*
%TO.C,C1*%
X88400000Y-82725000D03*
X88400000Y-88065000D03*
%TD*%
D42*
%TO.C,U6*%
X91965000Y-117350000D03*
X92775000Y-117350000D03*
X93575000Y-117350000D03*
X94365000Y-117350000D03*
X95175000Y-117350000D03*
X95965000Y-117350000D03*
X96765000Y-117350000D03*
X97575000Y-117350000D03*
X98365000Y-117350000D03*
X99175000Y-117350000D03*
X99975000Y-117350000D03*
D43*
X100845000Y-116250000D03*
X100845000Y-115450000D03*
X100845000Y-114650000D03*
X100845000Y-113850000D03*
X100845000Y-113050000D03*
X100845000Y-112250000D03*
X100845000Y-111450000D03*
X100845000Y-110650000D03*
X100845000Y-109850000D03*
X100845000Y-109050000D03*
X100845000Y-108250000D03*
X100845000Y-107450000D03*
X100845000Y-106650000D03*
D42*
X99975000Y-105550000D03*
X99175000Y-105550000D03*
X98365000Y-105550000D03*
X97575000Y-105550000D03*
X96765000Y-105550000D03*
X95975000Y-105550000D03*
X95175000Y-105550000D03*
X94365000Y-105550000D03*
X93575000Y-105550000D03*
X92775000Y-105550000D03*
X91965000Y-105550000D03*
D43*
X91045000Y-106650000D03*
X91045000Y-107450000D03*
X91045000Y-108250000D03*
X91045000Y-109050000D03*
X91045000Y-109850000D03*
X91045000Y-110650000D03*
X91045000Y-111450000D03*
X91045000Y-112250000D03*
X91045000Y-113050000D03*
X91045000Y-113850000D03*
X91045000Y-114650000D03*
X91045000Y-115450000D03*
X91045000Y-116250000D03*
D44*
X94095000Y-113230000D03*
X95895000Y-113230000D03*
X97695000Y-113230000D03*
X94095000Y-111430000D03*
X95895000Y-111430000D03*
X97695000Y-111430000D03*
X94095000Y-109630000D03*
X95895000Y-109630000D03*
X97695000Y-109630000D03*
D45*
X90995000Y-105500000D03*
X100895000Y-105500000D03*
X100895000Y-117400000D03*
X90995000Y-117400000D03*
%TD*%
%LPD*%
M02*
