%TF.GenerationSoftware,KiCad,Pcbnew,8.0.8*%
%TF.CreationDate,2025-03-31T21:39:46-04:00*%
%TF.ProjectId,vindriktrning-esp32-s3,76696e64-7269-46b7-9472-6e696e672d65,rev?*%
%TF.SameCoordinates,Original*%
%TF.FileFunction,Other,Comment*%
%FSLAX46Y46*%
G04 Gerber Fmt 4.6, Leading zero omitted, Abs format (unit mm)*
G04 Created by KiCad (PCBNEW 8.0.8) date 2025-03-31 21:39:46*
%MOMM*%
%LPD*%
G01*
G04 APERTURE LIST*
%ADD10C,0.200000*%
%ADD11C,0.150000*%
%ADD12C,0.250000*%
G04 APERTURE END LIST*
D10*
%TO.C,U4*%
X101430000Y-135850000D02*
G75*
G02*
X101230000Y-135850000I-100000J0D01*
G01*
X101230000Y-135850000D02*
G75*
G02*
X101430000Y-135850000I100000J0D01*
G01*
D11*
%TO.C,H3*%
X97025000Y-145950000D02*
G75*
G02*
X92625000Y-145950000I-2200000J0D01*
G01*
X92625000Y-145950000D02*
G75*
G02*
X97025000Y-145950000I2200000J0D01*
G01*
D10*
%TO.C,Q3*%
X104940000Y-122575000D02*
G75*
G02*
X104740000Y-122575000I-100000J0D01*
G01*
X104740000Y-122575000D02*
G75*
G02*
X104940000Y-122575000I100000J0D01*
G01*
D11*
%TO.C,H1*%
X97725000Y-79750000D02*
G75*
G02*
X93325000Y-79750000I-2200000J0D01*
G01*
X93325000Y-79750000D02*
G75*
G02*
X97725000Y-79750000I2200000J0D01*
G01*
D10*
%TO.C,Q2*%
X96985000Y-85370000D02*
G75*
G02*
X96785000Y-85370000I-100000J0D01*
G01*
X96785000Y-85370000D02*
G75*
G02*
X96985000Y-85370000I100000J0D01*
G01*
D12*
%TO.C,FAN1*%
X118150000Y-102380000D02*
G75*
G02*
X117890000Y-102380000I-130000J0D01*
G01*
X117890000Y-102380000D02*
G75*
G02*
X118150000Y-102380000I130000J0D01*
G01*
%TO.C,USB1*%
X106245000Y-150025000D02*
G75*
G02*
X106005000Y-150025000I-120000J0D01*
G01*
X106005000Y-150025000D02*
G75*
G02*
X106245000Y-150025000I120000J0D01*
G01*
X98745000Y-150025000D02*
G75*
G02*
X98505000Y-150025000I-120000J0D01*
G01*
X98505000Y-150025000D02*
G75*
G02*
X98745000Y-150025000I120000J0D01*
G01*
D11*
%TO.C,H2*%
X112025000Y-145950000D02*
G75*
G02*
X107625000Y-145950000I-2200000J0D01*
G01*
X107625000Y-145950000D02*
G75*
G02*
X112025000Y-145950000I2200000J0D01*
G01*
D10*
%TO.C,Q1*%
X109540000Y-103125000D02*
G75*
G02*
X109340000Y-103125000I-100000J0D01*
G01*
X109340000Y-103125000D02*
G75*
G02*
X109540000Y-103125000I100000J0D01*
G01*
%TD*%
M02*
