%TF.GenerationSoftware,KiCad,Pcbnew,8.0.8*%
%TF.CreationDate,2025-03-31T21:39:46-04:00*%
%TF.ProjectId,vindriktrning-esp32-s3,76696e64-7269-46b7-9472-6e696e672d65,rev?*%
%TF.SameCoordinates,Original*%
%TF.FileFunction,Copper,L2,Inr*%
%TF.FilePolarity,Positive*%
%FSLAX46Y46*%
G04 Gerber Fmt 4.6, Leading zero omitted, Abs format (unit mm)*
G04 Created by KiCad (PCBNEW 8.0.8) date 2025-03-31 21:39:46*
%MOMM*%
%LPD*%
G01*
G04 APERTURE LIST*
%TA.AperFunction,ComponentPad*%
%ADD10C,1.500000*%
%TD*%
%TA.AperFunction,ComponentPad*%
%ADD11C,1.200000*%
%TD*%
%TA.AperFunction,ComponentPad*%
%ADD12C,0.650000*%
%TD*%
%TA.AperFunction,ViaPad*%
%ADD13C,0.600000*%
%TD*%
%TA.AperFunction,ViaPad*%
%ADD14C,0.400000*%
%TD*%
G04 APERTURE END LIST*
D10*
%TO.N,+3V3*%
%TO.C,IC1*%
X85725000Y-92800000D03*
%TO.N,GND*%
X88265000Y-92800000D03*
%TO.N,SCL*%
X90805000Y-92800000D03*
%TO.N,SDA*%
X93345000Y-92800000D03*
%TO.N,unconnected-(IC1-RDY-Pad5)*%
X95885000Y-92800000D03*
%TO.N,unconnected-(IC1-PWM-Pad6)*%
X98425000Y-92800000D03*
%TO.N,unconnected-(IC1-SEL-Pad7)*%
X100965000Y-92800000D03*
%TD*%
D11*
%TO.N,unconnected-(USB1-EH-Pad17)*%
%TO.C,USB1*%
X104775000Y-152175000D03*
X104775000Y-147875000D03*
X99975000Y-152175000D03*
X99975000Y-147875000D03*
D12*
%TO.N,*%
X106125000Y-150025000D03*
X98625000Y-150025000D03*
%TD*%
D13*
%TO.N,IO3*%
X98300000Y-120425000D03*
X96050000Y-118400000D03*
%TO.N,GND*%
X102825000Y-120350000D03*
X92225000Y-103850000D03*
X99425000Y-115750000D03*
X102325000Y-105850000D03*
X109025000Y-107550000D03*
X97925000Y-142550000D03*
X97325000Y-119750000D03*
X104375000Y-115775000D03*
X107575000Y-140575000D03*
X92625000Y-118750000D03*
X90825000Y-119050000D03*
X104525000Y-108550000D03*
X91025000Y-103850000D03*
%TO.N,+3V3*%
X93525000Y-124150000D03*
X98825000Y-124150000D03*
X105925000Y-108650000D03*
X105925000Y-106350000D03*
X104025000Y-129450000D03*
X95425000Y-82950000D03*
X90625000Y-84250000D03*
X109225000Y-131050000D03*
%TO.N,SDA*%
X98325000Y-99750000D03*
X100025000Y-103750000D03*
%TO.N,SCL*%
X99125000Y-106750000D03*
X96425000Y-100350000D03*
%TO.N,+5V*%
X100225000Y-89750000D03*
X112125000Y-114750000D03*
X110225000Y-127350000D03*
X100625000Y-135650000D03*
X102525000Y-81250000D03*
%TO.N,Net-(LED1-DI)*%
X107225000Y-121450000D03*
X104625000Y-119450000D03*
%TO.N,TX2*%
X96125000Y-87150000D03*
X99625000Y-109850000D03*
%TO.N,RX2*%
X99225000Y-108250000D03*
X96425000Y-81950000D03*
%TO.N,LED_DATA*%
X99325000Y-118850000D03*
X103725000Y-125350000D03*
%TO.N,LIGHT*%
X97925000Y-118950000D03*
X110525000Y-81750000D03*
D14*
%TO.N,CC2*%
X104525000Y-145850000D03*
X103125000Y-149950000D03*
D13*
%TO.N,D+*%
X98800000Y-134750000D03*
X102525000Y-111450000D03*
%TO.N,D-*%
X105991325Y-113630312D03*
D14*
X101625000Y-149950000D03*
X102625000Y-147950000D03*
D13*
X99650000Y-134750000D03*
%TO.N,5VIN*%
X102325000Y-144150000D03*
X100225000Y-146250000D03*
%TD*%
%TA.AperFunction,Conductor*%
%TO.N,GND*%
G36*
X115416860Y-77751097D02*
G01*
X115426023Y-77751999D01*
X115496093Y-77758900D01*
X115519924Y-77763639D01*
X115590267Y-77784977D01*
X115612713Y-77794275D01*
X115677544Y-77828927D01*
X115697735Y-77842418D01*
X115759212Y-77892870D01*
X115768219Y-77901034D01*
X121163022Y-83295835D01*
X121163026Y-83295839D01*
X121173892Y-83306706D01*
X121182062Y-83315721D01*
X121232569Y-83377267D01*
X121246074Y-83397480D01*
X121280717Y-83462298D01*
X121290018Y-83484754D01*
X121311348Y-83555075D01*
X121316090Y-83578916D01*
X121323902Y-83658244D01*
X121324499Y-83670396D01*
X121324499Y-83740086D01*
X121324500Y-83740099D01*
X121324500Y-119243054D01*
X121323720Y-119256944D01*
X121313536Y-119347288D01*
X121307356Y-119374357D01*
X121279642Y-119453550D01*
X121267594Y-119478566D01*
X121222947Y-119549617D01*
X121205633Y-119571326D01*
X121146305Y-119630650D01*
X121124599Y-119647960D01*
X121053548Y-119692604D01*
X121028529Y-119704652D01*
X120949331Y-119732363D01*
X120922262Y-119738541D01*
X120858445Y-119745731D01*
X120831921Y-119748720D01*
X120818040Y-119749500D01*
X113343489Y-119749500D01*
X113342331Y-119749495D01*
X113339898Y-119749472D01*
X113339899Y-119749472D01*
X113231900Y-119748463D01*
X113231894Y-119748463D01*
X113017830Y-119777299D01*
X113017825Y-119777300D01*
X112810092Y-119836493D01*
X112612969Y-119924827D01*
X112612962Y-119924831D01*
X112430525Y-120040481D01*
X112430524Y-120040481D01*
X112266532Y-120181062D01*
X112266529Y-120181065D01*
X112124362Y-120343673D01*
X112124359Y-120343677D01*
X112006937Y-120524978D01*
X112006932Y-120524986D01*
X111916685Y-120721229D01*
X111916682Y-120721238D01*
X111855465Y-120928385D01*
X111855464Y-120928387D01*
X111824543Y-121142165D01*
X111824543Y-121142168D01*
X111824529Y-121176108D01*
X111824500Y-121176562D01*
X111824500Y-147825500D01*
X111804815Y-147892539D01*
X111752011Y-147938294D01*
X111700500Y-147949500D01*
X108959108Y-147949500D01*
X108831812Y-147983608D01*
X108717686Y-148049500D01*
X108717683Y-148049502D01*
X108624502Y-148142683D01*
X108624500Y-148142686D01*
X108558608Y-148256812D01*
X108524500Y-148384108D01*
X108524500Y-151125500D01*
X108504815Y-151192539D01*
X108452011Y-151238294D01*
X108400500Y-151249500D01*
X105406036Y-151249500D01*
X105340759Y-151230927D01*
X105267637Y-151185652D01*
X105077456Y-151111976D01*
X104876976Y-151074500D01*
X104673024Y-151074500D01*
X104472544Y-151111976D01*
X104472541Y-151111976D01*
X104472541Y-151111977D01*
X104282365Y-151185651D01*
X104282364Y-151185651D01*
X104271240Y-151192539D01*
X104209240Y-151230927D01*
X104143964Y-151249500D01*
X100606036Y-151249500D01*
X100540759Y-151230927D01*
X100467637Y-151185652D01*
X100277456Y-151111976D01*
X100076976Y-151074500D01*
X99873024Y-151074500D01*
X99672544Y-151111976D01*
X99672541Y-151111976D01*
X99672541Y-151111977D01*
X99482365Y-151185651D01*
X99482364Y-151185651D01*
X99471240Y-151192539D01*
X99409240Y-151230927D01*
X99343964Y-151249500D01*
X96249500Y-151249500D01*
X96182461Y-151229815D01*
X96136706Y-151177011D01*
X96125500Y-151125500D01*
X96125500Y-150024999D01*
X97794953Y-150024999D01*
X97798821Y-150061800D01*
X97799500Y-150074761D01*
X97799500Y-150106309D01*
X97806868Y-150143351D01*
X97808571Y-150154576D01*
X97813091Y-150197572D01*
X97813091Y-150197574D01*
X97813092Y-150197576D01*
X97813185Y-150197862D01*
X97822601Y-150226844D01*
X97826285Y-150240963D01*
X97831224Y-150265791D01*
X97848057Y-150306432D01*
X97851425Y-150315562D01*
X97866711Y-150362605D01*
X97866712Y-150362608D01*
X97866714Y-150362611D01*
X97878975Y-150383849D01*
X97878982Y-150383860D01*
X97886154Y-150398404D01*
X97893450Y-150416018D01*
X97893451Y-150416020D01*
X97893452Y-150416021D01*
X97921344Y-150457764D01*
X97925627Y-150464651D01*
X97953476Y-150512886D01*
X97953480Y-150512891D01*
X97965715Y-150526480D01*
X97976666Y-150540560D01*
X97983793Y-150551227D01*
X97983794Y-150551228D01*
X98023697Y-150591130D01*
X98028168Y-150595841D01*
X98069588Y-150641844D01*
X98079325Y-150648918D01*
X98094123Y-150661557D01*
X98098770Y-150666204D01*
X98098773Y-150666206D01*
X98098775Y-150666208D01*
X98150878Y-150701021D01*
X98154843Y-150703784D01*
X98209976Y-150743842D01*
X98215248Y-150746189D01*
X98215259Y-150746194D01*
X98233714Y-150756371D01*
X98233763Y-150756403D01*
X98233979Y-150756548D01*
X98297630Y-150782912D01*
X98300514Y-150784151D01*
X98368501Y-150814422D01*
X98372813Y-150815823D01*
X98378225Y-150817520D01*
X98378381Y-150817007D01*
X98384208Y-150818774D01*
X98384211Y-150818776D01*
X98457931Y-150833439D01*
X98459390Y-150833740D01*
X98538236Y-150850500D01*
X98711763Y-150850500D01*
X98711764Y-150850500D01*
X98790626Y-150833736D01*
X98792051Y-150833443D01*
X98865789Y-150818776D01*
X98865794Y-150818773D01*
X98865798Y-150818773D01*
X98871627Y-150817005D01*
X98871782Y-150817516D01*
X98877255Y-150815800D01*
X98881495Y-150814423D01*
X98881495Y-150814422D01*
X98881499Y-150814422D01*
X98949494Y-150784147D01*
X98952358Y-150782917D01*
X99016021Y-150756548D01*
X99016274Y-150756378D01*
X99034742Y-150746193D01*
X99040024Y-150743842D01*
X99095163Y-150703779D01*
X99099127Y-150701018D01*
X99133653Y-150677948D01*
X99151225Y-150666208D01*
X99155870Y-150661562D01*
X99170667Y-150648923D01*
X99180410Y-150641845D01*
X99221852Y-150595817D01*
X99226283Y-150591148D01*
X99266208Y-150551225D01*
X99273340Y-150540549D01*
X99284285Y-150526477D01*
X99296522Y-150512889D01*
X99324373Y-150464647D01*
X99328633Y-150457796D01*
X99356548Y-150416021D01*
X99363846Y-150398402D01*
X99371017Y-150383859D01*
X99383286Y-150362611D01*
X99398577Y-150315548D01*
X99401932Y-150306453D01*
X99418776Y-150265789D01*
X99423715Y-150240957D01*
X99427401Y-150226835D01*
X99428938Y-150222103D01*
X99436908Y-150197576D01*
X99441427Y-150154576D01*
X99443125Y-150143373D01*
X99450500Y-150106305D01*
X99450500Y-150074761D01*
X99451179Y-150061800D01*
X99455047Y-150025000D01*
X99451179Y-149988198D01*
X99450500Y-149975237D01*
X99450500Y-149950000D01*
X100919355Y-149950000D01*
X100939859Y-150118869D01*
X100939860Y-150118874D01*
X101000182Y-150277931D01*
X101026165Y-150315573D01*
X101096817Y-150417929D01*
X101149566Y-150464660D01*
X101224150Y-150530736D01*
X101374773Y-150609789D01*
X101374775Y-150609790D01*
X101539944Y-150650500D01*
X101710056Y-150650500D01*
X101875225Y-150609790D01*
X101954692Y-150568081D01*
X102025849Y-150530736D01*
X102025850Y-150530734D01*
X102025852Y-150530734D01*
X102153183Y-150417929D01*
X102249818Y-150277930D01*
X102259058Y-150253564D01*
X102301236Y-150197862D01*
X102366833Y-150173805D01*
X102435023Y-150189032D01*
X102484157Y-150238707D01*
X102490942Y-150253565D01*
X102500182Y-150277931D01*
X102526165Y-150315573D01*
X102596817Y-150417929D01*
X102649566Y-150464660D01*
X102724150Y-150530736D01*
X102874773Y-150609789D01*
X102874775Y-150609790D01*
X103039944Y-150650500D01*
X103210056Y-150650500D01*
X103375225Y-150609790D01*
X103454692Y-150568081D01*
X103525849Y-150530736D01*
X103525850Y-150530734D01*
X103525852Y-150530734D01*
X103653183Y-150417929D01*
X103749818Y-150277930D01*
X103810140Y-150118872D01*
X103821538Y-150024999D01*
X105294953Y-150024999D01*
X105298821Y-150061800D01*
X105299500Y-150074761D01*
X105299500Y-150106309D01*
X105306868Y-150143351D01*
X105308571Y-150154576D01*
X105313091Y-150197572D01*
X105313091Y-150197574D01*
X105313092Y-150197576D01*
X105313185Y-150197862D01*
X105322601Y-150226844D01*
X105326285Y-150240963D01*
X105331224Y-150265791D01*
X105348057Y-150306432D01*
X105351425Y-150315562D01*
X105366711Y-150362605D01*
X105366712Y-150362608D01*
X105366714Y-150362611D01*
X105378975Y-150383849D01*
X105378982Y-150383860D01*
X105386154Y-150398404D01*
X105393450Y-150416018D01*
X105393451Y-150416020D01*
X105393452Y-150416021D01*
X105421344Y-150457764D01*
X105425627Y-150464651D01*
X105453476Y-150512886D01*
X105453480Y-150512891D01*
X105465715Y-150526480D01*
X105476666Y-150540560D01*
X105483793Y-150551227D01*
X105483794Y-150551228D01*
X105523697Y-150591130D01*
X105528168Y-150595841D01*
X105569588Y-150641844D01*
X105579325Y-150648918D01*
X105594123Y-150661557D01*
X105598770Y-150666204D01*
X105598773Y-150666206D01*
X105598775Y-150666208D01*
X105650878Y-150701021D01*
X105654843Y-150703784D01*
X105709976Y-150743842D01*
X105715248Y-150746189D01*
X105715259Y-150746194D01*
X105733714Y-150756371D01*
X105733763Y-150756403D01*
X105733979Y-150756548D01*
X105797630Y-150782912D01*
X105800514Y-150784151D01*
X105868501Y-150814422D01*
X105872813Y-150815823D01*
X105878225Y-150817520D01*
X105878381Y-150817007D01*
X105884208Y-150818774D01*
X105884211Y-150818776D01*
X105957931Y-150833439D01*
X105959390Y-150833740D01*
X106038236Y-150850500D01*
X106211763Y-150850500D01*
X106211764Y-150850500D01*
X106290626Y-150833736D01*
X106292051Y-150833443D01*
X106365789Y-150818776D01*
X106365794Y-150818773D01*
X106365798Y-150818773D01*
X106371627Y-150817005D01*
X106371782Y-150817516D01*
X106377255Y-150815800D01*
X106381495Y-150814423D01*
X106381495Y-150814422D01*
X106381499Y-150814422D01*
X106449494Y-150784147D01*
X106452358Y-150782917D01*
X106516021Y-150756548D01*
X106516274Y-150756378D01*
X106534742Y-150746193D01*
X106540024Y-150743842D01*
X106595163Y-150703779D01*
X106599127Y-150701018D01*
X106633653Y-150677948D01*
X106651225Y-150666208D01*
X106655870Y-150661562D01*
X106670667Y-150648923D01*
X106680410Y-150641845D01*
X106721852Y-150595817D01*
X106726283Y-150591148D01*
X106766208Y-150551225D01*
X106773340Y-150540549D01*
X106784285Y-150526477D01*
X106796522Y-150512889D01*
X106824373Y-150464647D01*
X106828633Y-150457796D01*
X106856548Y-150416021D01*
X106863846Y-150398402D01*
X106871017Y-150383859D01*
X106883286Y-150362611D01*
X106898577Y-150315548D01*
X106901932Y-150306453D01*
X106918776Y-150265789D01*
X106923715Y-150240957D01*
X106927401Y-150226835D01*
X106928938Y-150222103D01*
X106936908Y-150197576D01*
X106941427Y-150154576D01*
X106943125Y-150143373D01*
X106950500Y-150106305D01*
X106950500Y-150074761D01*
X106951179Y-150061800D01*
X106955047Y-150025000D01*
X106951179Y-149988198D01*
X106950500Y-149975237D01*
X106950500Y-149943690D01*
X106943130Y-149906647D01*
X106941425Y-149895409D01*
X106936908Y-149852428D01*
X106936908Y-149852424D01*
X106927396Y-149823151D01*
X106923715Y-149809041D01*
X106918776Y-149784211D01*
X106901933Y-149743549D01*
X106898579Y-149734457D01*
X106883286Y-149687389D01*
X106871018Y-149666140D01*
X106863844Y-149651592D01*
X106856550Y-149633983D01*
X106856549Y-149633982D01*
X106856548Y-149633979D01*
X106828641Y-149592213D01*
X106824367Y-149585340D01*
X106796522Y-149537111D01*
X106784284Y-149523519D01*
X106773337Y-149509445D01*
X106766208Y-149498775D01*
X106726297Y-149458864D01*
X106721831Y-149454158D01*
X106680410Y-149408155D01*
X106670666Y-149401075D01*
X106655875Y-149388441D01*
X106651227Y-149383793D01*
X106599135Y-149348987D01*
X106595140Y-149346203D01*
X106595133Y-149346198D01*
X106540024Y-149306158D01*
X106540023Y-149306157D01*
X106540021Y-149306156D01*
X106534740Y-149303805D01*
X106516282Y-149293626D01*
X106516025Y-149293454D01*
X106516018Y-149293450D01*
X106452426Y-149267110D01*
X106449444Y-149265829D01*
X106381500Y-149235578D01*
X106378170Y-149234496D01*
X106371766Y-149232502D01*
X106371618Y-149232992D01*
X106365788Y-149231223D01*
X106292155Y-149216576D01*
X106290567Y-149216249D01*
X106211768Y-149199500D01*
X106211764Y-149199500D01*
X106038236Y-149199500D01*
X105959372Y-149216262D01*
X105957786Y-149216588D01*
X105884203Y-149231225D01*
X105878380Y-149232992D01*
X105878237Y-149232523D01*
X105871296Y-149234669D01*
X105868504Y-149235576D01*
X105800571Y-149265821D01*
X105797595Y-149267099D01*
X105733982Y-149293450D01*
X105733975Y-149293454D01*
X105733696Y-149293641D01*
X105715269Y-149303801D01*
X105709983Y-149306154D01*
X105709973Y-149306160D01*
X105654864Y-149346198D01*
X105650875Y-149348978D01*
X105598778Y-149383789D01*
X105598768Y-149383797D01*
X105594122Y-149388444D01*
X105579336Y-149401072D01*
X105569595Y-149408149D01*
X105528167Y-149454159D01*
X105523701Y-149458864D01*
X105483795Y-149498771D01*
X105483790Y-149498776D01*
X105476659Y-149509449D01*
X105465715Y-149523519D01*
X105453479Y-149537108D01*
X105425632Y-149585340D01*
X105421349Y-149592226D01*
X105393454Y-149633974D01*
X105393453Y-149633976D01*
X105386153Y-149651598D01*
X105378986Y-149666130D01*
X105366713Y-149687389D01*
X105351428Y-149734433D01*
X105348059Y-149743564D01*
X105331223Y-149784211D01*
X105331222Y-149784213D01*
X105326283Y-149809041D01*
X105322600Y-149823156D01*
X105313092Y-149852422D01*
X105308571Y-149895424D01*
X105306869Y-149906648D01*
X105299500Y-149943696D01*
X105299500Y-149975237D01*
X105298821Y-149988198D01*
X105294953Y-150024999D01*
X103821538Y-150024999D01*
X103830645Y-149950000D01*
X103810140Y-149781128D01*
X103749818Y-149622070D01*
X103653183Y-149482071D01*
X103525852Y-149369266D01*
X103525849Y-149369263D01*
X103375226Y-149290210D01*
X103210056Y-149249500D01*
X103039944Y-149249500D01*
X102874773Y-149290210D01*
X102724150Y-149369263D01*
X102596816Y-149482072D01*
X102500183Y-149622067D01*
X102500183Y-149622068D01*
X102500182Y-149622070D01*
X102495665Y-149633982D01*
X102490942Y-149646435D01*
X102448763Y-149702137D01*
X102383166Y-149726194D01*
X102314975Y-149710967D01*
X102265843Y-149661290D01*
X102259058Y-149646435D01*
X102249818Y-149622070D01*
X102153183Y-149482071D01*
X102025852Y-149369266D01*
X102025849Y-149369263D01*
X101875226Y-149290210D01*
X101710056Y-149249500D01*
X101539944Y-149249500D01*
X101374773Y-149290210D01*
X101224150Y-149369263D01*
X101096816Y-149482072D01*
X101000182Y-149622068D01*
X100939860Y-149781125D01*
X100939859Y-149781130D01*
X100919355Y-149950000D01*
X99450500Y-149950000D01*
X99450500Y-149943690D01*
X99443130Y-149906647D01*
X99441425Y-149895409D01*
X99436908Y-149852428D01*
X99436908Y-149852424D01*
X99427396Y-149823151D01*
X99423715Y-149809041D01*
X99418776Y-149784211D01*
X99401933Y-149743549D01*
X99398579Y-149734457D01*
X99383286Y-149687389D01*
X99371018Y-149666140D01*
X99363844Y-149651592D01*
X99356550Y-149633983D01*
X99356549Y-149633982D01*
X99356548Y-149633979D01*
X99328641Y-149592213D01*
X99324367Y-149585340D01*
X99296522Y-149537111D01*
X99284284Y-149523519D01*
X99273337Y-149509445D01*
X99266208Y-149498775D01*
X99226297Y-149458864D01*
X99221831Y-149454158D01*
X99180410Y-149408155D01*
X99170666Y-149401075D01*
X99155875Y-149388441D01*
X99151227Y-149383793D01*
X99099135Y-149348987D01*
X99095140Y-149346203D01*
X99095133Y-149346198D01*
X99040024Y-149306158D01*
X99040023Y-149306157D01*
X99040021Y-149306156D01*
X99034740Y-149303805D01*
X99016282Y-149293626D01*
X99016025Y-149293454D01*
X99016018Y-149293450D01*
X98952426Y-149267110D01*
X98949444Y-149265829D01*
X98881500Y-149235578D01*
X98878170Y-149234496D01*
X98871766Y-149232502D01*
X98871618Y-149232992D01*
X98865788Y-149231223D01*
X98792155Y-149216576D01*
X98790567Y-149216249D01*
X98711768Y-149199500D01*
X98711764Y-149199500D01*
X98538236Y-149199500D01*
X98459372Y-149216262D01*
X98457786Y-149216588D01*
X98384203Y-149231225D01*
X98378380Y-149232992D01*
X98378237Y-149232523D01*
X98371296Y-149234669D01*
X98368504Y-149235576D01*
X98300571Y-149265821D01*
X98297595Y-149267099D01*
X98233982Y-149293450D01*
X98233975Y-149293454D01*
X98233696Y-149293641D01*
X98215269Y-149303801D01*
X98209983Y-149306154D01*
X98209973Y-149306160D01*
X98154864Y-149346198D01*
X98150875Y-149348978D01*
X98098778Y-149383789D01*
X98098768Y-149383797D01*
X98094122Y-149388444D01*
X98079336Y-149401072D01*
X98069595Y-149408149D01*
X98028167Y-149454159D01*
X98023701Y-149458864D01*
X97983795Y-149498771D01*
X97983790Y-149498776D01*
X97976659Y-149509449D01*
X97965715Y-149523519D01*
X97953479Y-149537108D01*
X97925632Y-149585340D01*
X97921349Y-149592226D01*
X97893454Y-149633974D01*
X97893453Y-149633976D01*
X97886153Y-149651598D01*
X97878986Y-149666130D01*
X97866713Y-149687389D01*
X97851428Y-149734433D01*
X97848059Y-149743564D01*
X97831223Y-149784211D01*
X97831222Y-149784213D01*
X97826283Y-149809041D01*
X97822600Y-149823156D01*
X97813092Y-149852422D01*
X97808571Y-149895424D01*
X97806869Y-149906648D01*
X97799500Y-149943696D01*
X97799500Y-149975237D01*
X97798821Y-149988198D01*
X97794953Y-150024999D01*
X96125500Y-150024999D01*
X96125500Y-148384110D01*
X96125500Y-148384108D01*
X96091392Y-148256814D01*
X96025500Y-148142686D01*
X95932314Y-148049500D01*
X95875250Y-148016554D01*
X95818187Y-147983608D01*
X95754539Y-147966554D01*
X95690892Y-147949500D01*
X95690891Y-147949500D01*
X92949500Y-147949500D01*
X92882461Y-147929815D01*
X92836706Y-147877011D01*
X92836268Y-147874999D01*
X98869785Y-147874999D01*
X98869785Y-147875000D01*
X98888602Y-148078082D01*
X98944417Y-148274247D01*
X98944422Y-148274260D01*
X99035327Y-148456821D01*
X99158237Y-148619581D01*
X99308958Y-148756980D01*
X99308960Y-148756982D01*
X99408141Y-148818392D01*
X99482363Y-148864348D01*
X99672544Y-148938024D01*
X99873024Y-148975500D01*
X99873026Y-148975500D01*
X100076974Y-148975500D01*
X100076976Y-148975500D01*
X100277456Y-148938024D01*
X100467637Y-148864348D01*
X100641041Y-148756981D01*
X100791764Y-148619579D01*
X100914673Y-148456821D01*
X101005582Y-148274250D01*
X101061397Y-148078083D01*
X101073265Y-147950000D01*
X101919355Y-147950000D01*
X101939859Y-148118869D01*
X101939860Y-148118874D01*
X102000182Y-148277931D01*
X102062475Y-148368177D01*
X102096817Y-148417929D01*
X102202505Y-148511560D01*
X102224150Y-148530736D01*
X102374773Y-148609789D01*
X102374775Y-148609790D01*
X102539944Y-148650500D01*
X102710056Y-148650500D01*
X102875225Y-148609790D01*
X102954692Y-148568081D01*
X103025849Y-148530736D01*
X103025850Y-148530734D01*
X103025852Y-148530734D01*
X103153183Y-148417929D01*
X103249818Y-148277930D01*
X103310140Y-148118872D01*
X103330645Y-147950000D01*
X103321538Y-147874999D01*
X103669785Y-147874999D01*
X103669785Y-147875000D01*
X103688602Y-148078082D01*
X103744417Y-148274247D01*
X103744422Y-148274260D01*
X103835327Y-148456821D01*
X103958237Y-148619581D01*
X104108958Y-148756980D01*
X104108960Y-148756982D01*
X104208141Y-148818392D01*
X104282363Y-148864348D01*
X104472544Y-148938024D01*
X104673024Y-148975500D01*
X104673026Y-148975500D01*
X104876974Y-148975500D01*
X104876976Y-148975500D01*
X105077456Y-148938024D01*
X105267637Y-148864348D01*
X105441041Y-148756981D01*
X105591764Y-148619579D01*
X105714673Y-148456821D01*
X105805582Y-148274250D01*
X105861397Y-148078083D01*
X105880215Y-147875000D01*
X105861397Y-147671917D01*
X105805582Y-147475750D01*
X105714673Y-147293179D01*
X105591764Y-147130421D01*
X105591762Y-147130418D01*
X105441041Y-146993019D01*
X105441039Y-146993017D01*
X105267642Y-146885655D01*
X105267639Y-146885653D01*
X105267637Y-146885652D01*
X105267636Y-146885651D01*
X105267635Y-146885651D01*
X105172546Y-146848814D01*
X105077456Y-146811976D01*
X104876976Y-146774500D01*
X104722486Y-146774500D01*
X104655447Y-146754815D01*
X104636990Y-146733515D01*
X104626858Y-146755703D01*
X104568080Y-146793477D01*
X104555938Y-146796386D01*
X104472544Y-146811976D01*
X104472541Y-146811976D01*
X104472541Y-146811977D01*
X104282364Y-146885651D01*
X104282357Y-146885655D01*
X104108960Y-146993017D01*
X104108958Y-146993019D01*
X103958237Y-147130418D01*
X103835327Y-147293178D01*
X103744422Y-147475739D01*
X103744417Y-147475752D01*
X103688602Y-147671917D01*
X103669785Y-147874999D01*
X103321538Y-147874999D01*
X103310140Y-147781128D01*
X103249818Y-147622070D01*
X103153183Y-147482071D01*
X103025852Y-147369266D01*
X103025849Y-147369263D01*
X102875226Y-147290210D01*
X102710056Y-147249500D01*
X102539944Y-147249500D01*
X102374773Y-147290210D01*
X102224150Y-147369263D01*
X102096816Y-147482072D01*
X102000182Y-147622068D01*
X101939860Y-147781125D01*
X101939859Y-147781130D01*
X101919355Y-147950000D01*
X101073265Y-147950000D01*
X101080215Y-147875000D01*
X101061397Y-147671917D01*
X101005582Y-147475750D01*
X100914673Y-147293179D01*
X100791764Y-147130421D01*
X100722472Y-147067253D01*
X100686191Y-147007542D01*
X100687952Y-146937694D01*
X100723269Y-146885671D01*
X100722338Y-146884740D01*
X100777292Y-146829786D01*
X100854816Y-146752262D01*
X100950789Y-146599522D01*
X101010368Y-146429255D01*
X101010369Y-146429249D01*
X101030565Y-146250003D01*
X101030565Y-146249996D01*
X101010369Y-146070750D01*
X101010368Y-146070745D01*
X101005309Y-146056286D01*
X100950789Y-145900478D01*
X100919072Y-145850000D01*
X103819355Y-145850000D01*
X103839859Y-146018869D01*
X103839860Y-146018874D01*
X103900182Y-146177931D01*
X103949926Y-146249996D01*
X103996817Y-146317929D01*
X104102505Y-146411560D01*
X104124150Y-146430736D01*
X104274773Y-146509789D01*
X104274775Y-146509790D01*
X104439944Y-146550500D01*
X104533145Y-146550500D01*
X104600184Y-146570185D01*
X104618640Y-146591484D01*
X104628773Y-146569297D01*
X104687551Y-146531523D01*
X104692811Y-146530103D01*
X104695350Y-146529477D01*
X104775225Y-146509790D01*
X104854692Y-146468081D01*
X104925849Y-146430736D01*
X104925850Y-146430734D01*
X104925852Y-146430734D01*
X105053183Y-146317929D01*
X105149818Y-146177930D01*
X105210140Y-146018872D01*
X105230645Y-145850000D01*
X105229882Y-145843713D01*
X108474500Y-145843713D01*
X108474500Y-146056286D01*
X108505181Y-146250003D01*
X108507754Y-146266243D01*
X108561201Y-146430736D01*
X108573444Y-146468414D01*
X108669951Y-146657820D01*
X108794890Y-146829786D01*
X108945213Y-146980109D01*
X109117179Y-147105048D01*
X109117181Y-147105049D01*
X109117184Y-147105051D01*
X109306588Y-147201557D01*
X109508757Y-147267246D01*
X109718713Y-147300500D01*
X109718714Y-147300500D01*
X109931286Y-147300500D01*
X109931287Y-147300500D01*
X110141243Y-147267246D01*
X110343412Y-147201557D01*
X110532816Y-147105051D01*
X110667027Y-147007542D01*
X110704786Y-146980109D01*
X110704788Y-146980106D01*
X110704792Y-146980104D01*
X110855104Y-146829792D01*
X110855106Y-146829788D01*
X110855109Y-146829786D01*
X110980048Y-146657820D01*
X110980047Y-146657820D01*
X110980051Y-146657816D01*
X111076557Y-146468412D01*
X111142246Y-146266243D01*
X111175500Y-146056287D01*
X111175500Y-145843713D01*
X111142246Y-145633757D01*
X111076557Y-145431588D01*
X110980051Y-145242184D01*
X110980049Y-145242181D01*
X110980048Y-145242179D01*
X110855109Y-145070213D01*
X110704786Y-144919890D01*
X110532820Y-144794951D01*
X110343414Y-144698444D01*
X110343413Y-144698443D01*
X110343412Y-144698443D01*
X110141243Y-144632754D01*
X110141241Y-144632753D01*
X110141240Y-144632753D01*
X109979957Y-144607208D01*
X109931287Y-144599500D01*
X109718713Y-144599500D01*
X109670042Y-144607208D01*
X109508760Y-144632753D01*
X109306585Y-144698444D01*
X109117179Y-144794951D01*
X108945213Y-144919890D01*
X108794890Y-145070213D01*
X108669951Y-145242179D01*
X108573444Y-145431585D01*
X108507753Y-145633760D01*
X108474500Y-145843713D01*
X105229882Y-145843713D01*
X105210140Y-145681128D01*
X105149818Y-145522070D01*
X105053183Y-145382071D01*
X104925852Y-145269266D01*
X104925849Y-145269263D01*
X104775226Y-145190210D01*
X104610056Y-145149500D01*
X104439944Y-145149500D01*
X104274773Y-145190210D01*
X104124150Y-145269263D01*
X103996816Y-145382072D01*
X103900182Y-145522068D01*
X103839860Y-145681125D01*
X103839859Y-145681130D01*
X103819355Y-145850000D01*
X100919072Y-145850000D01*
X100854816Y-145747738D01*
X100727262Y-145620184D01*
X100574523Y-145524211D01*
X100404254Y-145464631D01*
X100404249Y-145464630D01*
X100225004Y-145444435D01*
X100224996Y-145444435D01*
X100045750Y-145464630D01*
X100045745Y-145464631D01*
X99875476Y-145524211D01*
X99722737Y-145620184D01*
X99595184Y-145747737D01*
X99499211Y-145900476D01*
X99439631Y-146070745D01*
X99439630Y-146070750D01*
X99419435Y-146249996D01*
X99419435Y-146250003D01*
X99439630Y-146429249D01*
X99439631Y-146429254D01*
X99499211Y-146599523D01*
X99560520Y-146697096D01*
X99579520Y-146764333D01*
X99559152Y-146831168D01*
X99505884Y-146876382D01*
X99500322Y-146878694D01*
X99482368Y-146885649D01*
X99482359Y-146885653D01*
X99308960Y-146993017D01*
X99308958Y-146993019D01*
X99158237Y-147130418D01*
X99035327Y-147293178D01*
X98944422Y-147475739D01*
X98944417Y-147475752D01*
X98888602Y-147671917D01*
X98869785Y-147874999D01*
X92836268Y-147874999D01*
X92825500Y-147825500D01*
X92825500Y-145843713D01*
X93474500Y-145843713D01*
X93474500Y-146056286D01*
X93505181Y-146250003D01*
X93507754Y-146266243D01*
X93561201Y-146430736D01*
X93573444Y-146468414D01*
X93669951Y-146657820D01*
X93794890Y-146829786D01*
X93945213Y-146980109D01*
X94117179Y-147105048D01*
X94117181Y-147105049D01*
X94117184Y-147105051D01*
X94306588Y-147201557D01*
X94508757Y-147267246D01*
X94718713Y-147300500D01*
X94718714Y-147300500D01*
X94931286Y-147300500D01*
X94931287Y-147300500D01*
X95141243Y-147267246D01*
X95343412Y-147201557D01*
X95532816Y-147105051D01*
X95667027Y-147007542D01*
X95704786Y-146980109D01*
X95704788Y-146980106D01*
X95704792Y-146980104D01*
X95855104Y-146829792D01*
X95855106Y-146829788D01*
X95855109Y-146829786D01*
X95980048Y-146657820D01*
X95980047Y-146657820D01*
X95980051Y-146657816D01*
X96076557Y-146468412D01*
X96142246Y-146266243D01*
X96175500Y-146056287D01*
X96175500Y-145843713D01*
X96142246Y-145633757D01*
X96076557Y-145431588D01*
X95980051Y-145242184D01*
X95980049Y-145242181D01*
X95980048Y-145242179D01*
X95855109Y-145070213D01*
X95704786Y-144919890D01*
X95532820Y-144794951D01*
X95343414Y-144698444D01*
X95343413Y-144698443D01*
X95343412Y-144698443D01*
X95141243Y-144632754D01*
X95141241Y-144632753D01*
X95141240Y-144632753D01*
X94979957Y-144607208D01*
X94931287Y-144599500D01*
X94718713Y-144599500D01*
X94670042Y-144607208D01*
X94508760Y-144632753D01*
X94306585Y-144698444D01*
X94117179Y-144794951D01*
X93945213Y-144919890D01*
X93794890Y-145070213D01*
X93669951Y-145242179D01*
X93573444Y-145431585D01*
X93507753Y-145633760D01*
X93474500Y-145843713D01*
X92825500Y-145843713D01*
X92825500Y-144149996D01*
X101519435Y-144149996D01*
X101519435Y-144150003D01*
X101539630Y-144329249D01*
X101539631Y-144329254D01*
X101599211Y-144499523D01*
X101662031Y-144599500D01*
X101695184Y-144652262D01*
X101822738Y-144779816D01*
X101975478Y-144875789D01*
X102101529Y-144919896D01*
X102145745Y-144935368D01*
X102145750Y-144935369D01*
X102324996Y-144955565D01*
X102325000Y-144955565D01*
X102325004Y-144955565D01*
X102504249Y-144935369D01*
X102504252Y-144935368D01*
X102504255Y-144935368D01*
X102674522Y-144875789D01*
X102827262Y-144779816D01*
X102954816Y-144652262D01*
X103050789Y-144499522D01*
X103110368Y-144329255D01*
X103130565Y-144150000D01*
X103110368Y-143970745D01*
X103050789Y-143800478D01*
X102954816Y-143647738D01*
X102827262Y-143520184D01*
X102674523Y-143424211D01*
X102504254Y-143364631D01*
X102504249Y-143364630D01*
X102325004Y-143344435D01*
X102324996Y-143344435D01*
X102145750Y-143364630D01*
X102145745Y-143364631D01*
X101975476Y-143424211D01*
X101822737Y-143520184D01*
X101695184Y-143647737D01*
X101599211Y-143800476D01*
X101539631Y-143970745D01*
X101539630Y-143970750D01*
X101519435Y-144149996D01*
X92825500Y-144149996D01*
X92825500Y-134749996D01*
X97994435Y-134749996D01*
X97994435Y-134750003D01*
X98014630Y-134929249D01*
X98014631Y-134929254D01*
X98074211Y-135099523D01*
X98104507Y-135147738D01*
X98170184Y-135252262D01*
X98297738Y-135379816D01*
X98388080Y-135436582D01*
X98442450Y-135470745D01*
X98450478Y-135475789D01*
X98617521Y-135534240D01*
X98620745Y-135535368D01*
X98620750Y-135535369D01*
X98799996Y-135555565D01*
X98800000Y-135555565D01*
X98800004Y-135555565D01*
X98979249Y-135535369D01*
X98979251Y-135535368D01*
X98979255Y-135535368D01*
X98979258Y-135535366D01*
X98979262Y-135535366D01*
X99045840Y-135512068D01*
X99149522Y-135475789D01*
X99159028Y-135469815D01*
X99226263Y-135450815D01*
X99290971Y-135469815D01*
X99300478Y-135475789D01*
X99352318Y-135493928D01*
X99470737Y-135535366D01*
X99470743Y-135535367D01*
X99470745Y-135535368D01*
X99470746Y-135535368D01*
X99470750Y-135535369D01*
X99649996Y-135555565D01*
X99650000Y-135555565D01*
X99650001Y-135555565D01*
X99660361Y-135554397D01*
X99683582Y-135551781D01*
X99752404Y-135563835D01*
X99803784Y-135611183D01*
X99820687Y-135661118D01*
X99839630Y-135829249D01*
X99839631Y-135829254D01*
X99899211Y-135999523D01*
X99995184Y-136152262D01*
X100122738Y-136279816D01*
X100275478Y-136375789D01*
X100445745Y-136435368D01*
X100445750Y-136435369D01*
X100624996Y-136455565D01*
X100625000Y-136455565D01*
X100625004Y-136455565D01*
X100804249Y-136435369D01*
X100804252Y-136435368D01*
X100804255Y-136435368D01*
X100974522Y-136375789D01*
X101127262Y-136279816D01*
X101254816Y-136152262D01*
X101350789Y-135999522D01*
X101410368Y-135829255D01*
X101410369Y-135829249D01*
X101430565Y-135650003D01*
X101430565Y-135649996D01*
X101410369Y-135470750D01*
X101410368Y-135470745D01*
X101403394Y-135450815D01*
X101350789Y-135300478D01*
X101254816Y-135147738D01*
X101127262Y-135020184D01*
X100974523Y-134924211D01*
X100804254Y-134864631D01*
X100804249Y-134864630D01*
X100625004Y-134844435D01*
X100625002Y-134844435D01*
X100625000Y-134844435D01*
X100610885Y-134846025D01*
X100591413Y-134848219D01*
X100522592Y-134836163D01*
X100471213Y-134788813D01*
X100454312Y-134738881D01*
X100435369Y-134570750D01*
X100435368Y-134570745D01*
X100375788Y-134400476D01*
X100279815Y-134247737D01*
X100152262Y-134120184D01*
X99999523Y-134024211D01*
X99829254Y-133964631D01*
X99829249Y-133964630D01*
X99650004Y-133944435D01*
X99649996Y-133944435D01*
X99470750Y-133964630D01*
X99470745Y-133964631D01*
X99300474Y-134024212D01*
X99290968Y-134030185D01*
X99223731Y-134049183D01*
X99159032Y-134030185D01*
X99149525Y-134024212D01*
X98979254Y-133964631D01*
X98979249Y-133964630D01*
X98800004Y-133944435D01*
X98799996Y-133944435D01*
X98620750Y-133964630D01*
X98620745Y-133964631D01*
X98450476Y-134024211D01*
X98297737Y-134120184D01*
X98170184Y-134247737D01*
X98074211Y-134400476D01*
X98014631Y-134570745D01*
X98014630Y-134570750D01*
X97994435Y-134749996D01*
X92825500Y-134749996D01*
X92825500Y-131049996D01*
X108419435Y-131049996D01*
X108419435Y-131050003D01*
X108439630Y-131229249D01*
X108439631Y-131229254D01*
X108499211Y-131399523D01*
X108595184Y-131552262D01*
X108722738Y-131679816D01*
X108875478Y-131775789D01*
X109045745Y-131835368D01*
X109045750Y-131835369D01*
X109224996Y-131855565D01*
X109225000Y-131855565D01*
X109225004Y-131855565D01*
X109404249Y-131835369D01*
X109404252Y-131835368D01*
X109404255Y-131835368D01*
X109574522Y-131775789D01*
X109727262Y-131679816D01*
X109854816Y-131552262D01*
X109950789Y-131399522D01*
X110010368Y-131229255D01*
X110030565Y-131050000D01*
X110010368Y-130870745D01*
X109950789Y-130700478D01*
X109854816Y-130547738D01*
X109727262Y-130420184D01*
X109574523Y-130324211D01*
X109404254Y-130264631D01*
X109404249Y-130264630D01*
X109225004Y-130244435D01*
X109224996Y-130244435D01*
X109045750Y-130264630D01*
X109045745Y-130264631D01*
X108875476Y-130324211D01*
X108722737Y-130420184D01*
X108595184Y-130547737D01*
X108499211Y-130700476D01*
X108439631Y-130870745D01*
X108439630Y-130870750D01*
X108419435Y-131049996D01*
X92825500Y-131049996D01*
X92825500Y-129449996D01*
X103219435Y-129449996D01*
X103219435Y-129450003D01*
X103239630Y-129629249D01*
X103239631Y-129629254D01*
X103299211Y-129799523D01*
X103395184Y-129952262D01*
X103522738Y-130079816D01*
X103675478Y-130175789D01*
X103845745Y-130235368D01*
X103845750Y-130235369D01*
X104024996Y-130255565D01*
X104025000Y-130255565D01*
X104025004Y-130255565D01*
X104204249Y-130235369D01*
X104204252Y-130235368D01*
X104204255Y-130235368D01*
X104374522Y-130175789D01*
X104527262Y-130079816D01*
X104654816Y-129952262D01*
X104750789Y-129799522D01*
X104810368Y-129629255D01*
X104830565Y-129450000D01*
X104810368Y-129270745D01*
X104750789Y-129100478D01*
X104654816Y-128947738D01*
X104527262Y-128820184D01*
X104374523Y-128724211D01*
X104204254Y-128664631D01*
X104204249Y-128664630D01*
X104025004Y-128644435D01*
X104024996Y-128644435D01*
X103845750Y-128664630D01*
X103845745Y-128664631D01*
X103675476Y-128724211D01*
X103522737Y-128820184D01*
X103395184Y-128947737D01*
X103299211Y-129100476D01*
X103239631Y-129270745D01*
X103239630Y-129270750D01*
X103219435Y-129449996D01*
X92825500Y-129449996D01*
X92825500Y-127349996D01*
X109419435Y-127349996D01*
X109419435Y-127350003D01*
X109439630Y-127529249D01*
X109439631Y-127529254D01*
X109499211Y-127699523D01*
X109595184Y-127852262D01*
X109722738Y-127979816D01*
X109875478Y-128075789D01*
X110045745Y-128135368D01*
X110045750Y-128135369D01*
X110224996Y-128155565D01*
X110225000Y-128155565D01*
X110225004Y-128155565D01*
X110404249Y-128135369D01*
X110404252Y-128135368D01*
X110404255Y-128135368D01*
X110574522Y-128075789D01*
X110727262Y-127979816D01*
X110854816Y-127852262D01*
X110950789Y-127699522D01*
X111010368Y-127529255D01*
X111030565Y-127350000D01*
X111010368Y-127170745D01*
X110950789Y-127000478D01*
X110854816Y-126847738D01*
X110727262Y-126720184D01*
X110574523Y-126624211D01*
X110404254Y-126564631D01*
X110404249Y-126564630D01*
X110225004Y-126544435D01*
X110224996Y-126544435D01*
X110045750Y-126564630D01*
X110045745Y-126564631D01*
X109875476Y-126624211D01*
X109722737Y-126720184D01*
X109595184Y-126847737D01*
X109499211Y-127000476D01*
X109439631Y-127170745D01*
X109439630Y-127170750D01*
X109419435Y-127349996D01*
X92825500Y-127349996D01*
X92825500Y-125349996D01*
X102919435Y-125349996D01*
X102919435Y-125350003D01*
X102939630Y-125529249D01*
X102939631Y-125529254D01*
X102999211Y-125699523D01*
X103095184Y-125852262D01*
X103222738Y-125979816D01*
X103375478Y-126075789D01*
X103545745Y-126135368D01*
X103545750Y-126135369D01*
X103724996Y-126155565D01*
X103725000Y-126155565D01*
X103725004Y-126155565D01*
X103904249Y-126135369D01*
X103904252Y-126135368D01*
X103904255Y-126135368D01*
X104074522Y-126075789D01*
X104227262Y-125979816D01*
X104354816Y-125852262D01*
X104450789Y-125699522D01*
X104510368Y-125529255D01*
X104530565Y-125350000D01*
X104510368Y-125170745D01*
X104450789Y-125000478D01*
X104354816Y-124847738D01*
X104227262Y-124720184D01*
X104074523Y-124624211D01*
X103904254Y-124564631D01*
X103904249Y-124564630D01*
X103725004Y-124544435D01*
X103724996Y-124544435D01*
X103545750Y-124564630D01*
X103545745Y-124564631D01*
X103375476Y-124624211D01*
X103222737Y-124720184D01*
X103095184Y-124847737D01*
X102999211Y-125000476D01*
X102939631Y-125170745D01*
X102939630Y-125170750D01*
X102919435Y-125349996D01*
X92825500Y-125349996D01*
X92825500Y-124880012D01*
X92845185Y-124812973D01*
X92897989Y-124767218D01*
X92967147Y-124757274D01*
X93015532Y-124778194D01*
X93016842Y-124776111D01*
X93130833Y-124847737D01*
X93175478Y-124875789D01*
X93187547Y-124880012D01*
X93345745Y-124935368D01*
X93345750Y-124935369D01*
X93524996Y-124955565D01*
X93525000Y-124955565D01*
X93525004Y-124955565D01*
X93704249Y-124935369D01*
X93704252Y-124935368D01*
X93704255Y-124935368D01*
X93874522Y-124875789D01*
X94027262Y-124779816D01*
X94154816Y-124652262D01*
X94250789Y-124499522D01*
X94310368Y-124329255D01*
X94330565Y-124150000D01*
X94330565Y-124149996D01*
X98019435Y-124149996D01*
X98019435Y-124150003D01*
X98039630Y-124329249D01*
X98039631Y-124329254D01*
X98099211Y-124499523D01*
X98140122Y-124564632D01*
X98195184Y-124652262D01*
X98322738Y-124779816D01*
X98375507Y-124812973D01*
X98430833Y-124847737D01*
X98475478Y-124875789D01*
X98487547Y-124880012D01*
X98645745Y-124935368D01*
X98645750Y-124935369D01*
X98824996Y-124955565D01*
X98825000Y-124955565D01*
X98825004Y-124955565D01*
X99004249Y-124935369D01*
X99004252Y-124935368D01*
X99004255Y-124935368D01*
X99174522Y-124875789D01*
X99327262Y-124779816D01*
X99454816Y-124652262D01*
X99550789Y-124499522D01*
X99610368Y-124329255D01*
X99630565Y-124150000D01*
X99610368Y-123970745D01*
X99550789Y-123800478D01*
X99454816Y-123647738D01*
X99327262Y-123520184D01*
X99267591Y-123482690D01*
X99174523Y-123424211D01*
X99004254Y-123364631D01*
X99004249Y-123364630D01*
X98825004Y-123344435D01*
X98824996Y-123344435D01*
X98645750Y-123364630D01*
X98645745Y-123364631D01*
X98475476Y-123424211D01*
X98322737Y-123520184D01*
X98195184Y-123647737D01*
X98099211Y-123800476D01*
X98039631Y-123970745D01*
X98039630Y-123970750D01*
X98019435Y-124149996D01*
X94330565Y-124149996D01*
X94310368Y-123970745D01*
X94250789Y-123800478D01*
X94154816Y-123647738D01*
X94027262Y-123520184D01*
X93967591Y-123482690D01*
X93874523Y-123424211D01*
X93704254Y-123364631D01*
X93704249Y-123364630D01*
X93525004Y-123344435D01*
X93524996Y-123344435D01*
X93345750Y-123364630D01*
X93345745Y-123364631D01*
X93175476Y-123424211D01*
X93016842Y-123523889D01*
X93015402Y-123521598D01*
X92962096Y-123543346D01*
X92893404Y-123530573D01*
X92842522Y-123482690D01*
X92825500Y-123419987D01*
X92825500Y-121449996D01*
X106419435Y-121449996D01*
X106419435Y-121450003D01*
X106439630Y-121629249D01*
X106439631Y-121629254D01*
X106499211Y-121799523D01*
X106595184Y-121952262D01*
X106722738Y-122079816D01*
X106875478Y-122175789D01*
X107045745Y-122235368D01*
X107045750Y-122235369D01*
X107224996Y-122255565D01*
X107225000Y-122255565D01*
X107225004Y-122255565D01*
X107404249Y-122235369D01*
X107404252Y-122235368D01*
X107404255Y-122235368D01*
X107574522Y-122175789D01*
X107727262Y-122079816D01*
X107854816Y-121952262D01*
X107950789Y-121799522D01*
X108010368Y-121629255D01*
X108030565Y-121450000D01*
X108010368Y-121270745D01*
X107950789Y-121100478D01*
X107854816Y-120947738D01*
X107727262Y-120820184D01*
X107654593Y-120774523D01*
X107574523Y-120724211D01*
X107404254Y-120664631D01*
X107404249Y-120664630D01*
X107225004Y-120644435D01*
X107224996Y-120644435D01*
X107045750Y-120664630D01*
X107045745Y-120664631D01*
X106875476Y-120724211D01*
X106722737Y-120820184D01*
X106595184Y-120947737D01*
X106499211Y-121100476D01*
X106439631Y-121270745D01*
X106439630Y-121270750D01*
X106419435Y-121449996D01*
X92825500Y-121449996D01*
X92825500Y-121142685D01*
X92825500Y-121142682D01*
X92803228Y-120987777D01*
X92794955Y-120930234D01*
X92794952Y-120930224D01*
X92794413Y-120928386D01*
X92734484Y-120724289D01*
X92734483Y-120724287D01*
X92734482Y-120724283D01*
X92645327Y-120529060D01*
X92645314Y-120529037D01*
X92529284Y-120348491D01*
X92529274Y-120348477D01*
X92388725Y-120186277D01*
X92376621Y-120175789D01*
X92226511Y-120045718D01*
X92226510Y-120045717D01*
X92226504Y-120045713D01*
X92045958Y-119929683D01*
X92045935Y-119929670D01*
X91850710Y-119840515D01*
X91850698Y-119840510D01*
X91644773Y-119780047D01*
X91644757Y-119780043D01*
X91432314Y-119749500D01*
X91390889Y-119749500D01*
X83831967Y-119749500D01*
X83818166Y-119748729D01*
X83798954Y-119746577D01*
X83728387Y-119738673D01*
X83701490Y-119732574D01*
X83622719Y-119705203D01*
X83597836Y-119693310D01*
X83527063Y-119649205D01*
X83505426Y-119632107D01*
X83446148Y-119573446D01*
X83428829Y-119551994D01*
X83383981Y-119481674D01*
X83371832Y-119456920D01*
X83343640Y-119378438D01*
X83337263Y-119351615D01*
X83326421Y-119263165D01*
X83325500Y-119248079D01*
X83325500Y-118399996D01*
X95244435Y-118399996D01*
X95244435Y-118400003D01*
X95264630Y-118579249D01*
X95264631Y-118579254D01*
X95324211Y-118749523D01*
X95387347Y-118850003D01*
X95420184Y-118902262D01*
X95547738Y-119029816D01*
X95638080Y-119086582D01*
X95660192Y-119100476D01*
X95700478Y-119125789D01*
X95867316Y-119184168D01*
X95870745Y-119185368D01*
X95870750Y-119185369D01*
X96049996Y-119205565D01*
X96050000Y-119205565D01*
X96050004Y-119205565D01*
X96229249Y-119185369D01*
X96229252Y-119185368D01*
X96229255Y-119185368D01*
X96399522Y-119125789D01*
X96552262Y-119029816D01*
X96632082Y-118949996D01*
X97119435Y-118949996D01*
X97119435Y-118950003D01*
X97139630Y-119129249D01*
X97139631Y-119129254D01*
X97199211Y-119299523D01*
X97246233Y-119374357D01*
X97295184Y-119452262D01*
X97422738Y-119579816D01*
X97533170Y-119649205D01*
X97575478Y-119675789D01*
X97642300Y-119699171D01*
X97699076Y-119739893D01*
X97724824Y-119804845D01*
X97711368Y-119873407D01*
X97689029Y-119903892D01*
X97670184Y-119922737D01*
X97574211Y-120075476D01*
X97514631Y-120245745D01*
X97514630Y-120245750D01*
X97494435Y-120424996D01*
X97494435Y-120425003D01*
X97514630Y-120604249D01*
X97514631Y-120604254D01*
X97574211Y-120774523D01*
X97670184Y-120927262D01*
X97797738Y-121054816D01*
X97870409Y-121100478D01*
X97937580Y-121142685D01*
X97950478Y-121150789D01*
X98120745Y-121210368D01*
X98120750Y-121210369D01*
X98299996Y-121230565D01*
X98300000Y-121230565D01*
X98300004Y-121230565D01*
X98479249Y-121210369D01*
X98479252Y-121210368D01*
X98479255Y-121210368D01*
X98649522Y-121150789D01*
X98802262Y-121054816D01*
X98929816Y-120927262D01*
X99025789Y-120774522D01*
X99085368Y-120604255D01*
X99085369Y-120604249D01*
X99105565Y-120425003D01*
X99105565Y-120424996D01*
X99085369Y-120245750D01*
X99085368Y-120245745D01*
X99027307Y-120079816D01*
X99025789Y-120075478D01*
X99007086Y-120045713D01*
X98965967Y-119980272D01*
X98929816Y-119922738D01*
X98802262Y-119795184D01*
X98729556Y-119749500D01*
X98649519Y-119699209D01*
X98582698Y-119675827D01*
X98525922Y-119635106D01*
X98500175Y-119570153D01*
X98513631Y-119501591D01*
X98535971Y-119471106D01*
X98554816Y-119452262D01*
X98564841Y-119436306D01*
X98617174Y-119390014D01*
X98686227Y-119379364D01*
X98750076Y-119407738D01*
X98757517Y-119414595D01*
X98822738Y-119479816D01*
X98825700Y-119481677D01*
X98933825Y-119549617D01*
X98975478Y-119575789D01*
X99117741Y-119625569D01*
X99145745Y-119635368D01*
X99145750Y-119635369D01*
X99324996Y-119655565D01*
X99325000Y-119655565D01*
X99325004Y-119655565D01*
X99504249Y-119635369D01*
X99504252Y-119635368D01*
X99504255Y-119635368D01*
X99674522Y-119575789D01*
X99827262Y-119479816D01*
X99857082Y-119449996D01*
X103819435Y-119449996D01*
X103819435Y-119450003D01*
X103839630Y-119629249D01*
X103839631Y-119629254D01*
X103899211Y-119799523D01*
X103945636Y-119873407D01*
X103995184Y-119952262D01*
X104122738Y-120079816D01*
X104213080Y-120136582D01*
X104248543Y-120158865D01*
X104275478Y-120175789D01*
X104445745Y-120235368D01*
X104445750Y-120235369D01*
X104624996Y-120255565D01*
X104625000Y-120255565D01*
X104625004Y-120255565D01*
X104804249Y-120235369D01*
X104804252Y-120235368D01*
X104804255Y-120235368D01*
X104974522Y-120175789D01*
X105127262Y-120079816D01*
X105254816Y-119952262D01*
X105350789Y-119799522D01*
X105410368Y-119629255D01*
X105410369Y-119629249D01*
X105430565Y-119450003D01*
X105430565Y-119449996D01*
X105410369Y-119270750D01*
X105410368Y-119270745D01*
X105402437Y-119248079D01*
X105350789Y-119100478D01*
X105254816Y-118947738D01*
X105127262Y-118820184D01*
X104974523Y-118724211D01*
X104804254Y-118664631D01*
X104804249Y-118664630D01*
X104625004Y-118644435D01*
X104624996Y-118644435D01*
X104445750Y-118664630D01*
X104445745Y-118664631D01*
X104275476Y-118724211D01*
X104122737Y-118820184D01*
X103995184Y-118947737D01*
X103899211Y-119100476D01*
X103839631Y-119270745D01*
X103839630Y-119270750D01*
X103819435Y-119449996D01*
X99857082Y-119449996D01*
X99954816Y-119352262D01*
X100050789Y-119199522D01*
X100110368Y-119029255D01*
X100110369Y-119029249D01*
X100130565Y-118850003D01*
X100130565Y-118849996D01*
X100110369Y-118670750D01*
X100110368Y-118670745D01*
X100101162Y-118644435D01*
X100050789Y-118500478D01*
X99954816Y-118347738D01*
X99827262Y-118220184D01*
X99738852Y-118164632D01*
X99674523Y-118124211D01*
X99504254Y-118064631D01*
X99504249Y-118064630D01*
X99325004Y-118044435D01*
X99324996Y-118044435D01*
X99145750Y-118064630D01*
X99145745Y-118064631D01*
X98975476Y-118124211D01*
X98822737Y-118220184D01*
X98695184Y-118347737D01*
X98695183Y-118347739D01*
X98685155Y-118363698D01*
X98632819Y-118409988D01*
X98563765Y-118420634D01*
X98499918Y-118392257D01*
X98492482Y-118385404D01*
X98427262Y-118320184D01*
X98274523Y-118224211D01*
X98104254Y-118164631D01*
X98104249Y-118164630D01*
X97925004Y-118144435D01*
X97924996Y-118144435D01*
X97745750Y-118164630D01*
X97745745Y-118164631D01*
X97575476Y-118224211D01*
X97422737Y-118320184D01*
X97295184Y-118447737D01*
X97199211Y-118600476D01*
X97139631Y-118770745D01*
X97139630Y-118770750D01*
X97119435Y-118949996D01*
X96632082Y-118949996D01*
X96679816Y-118902262D01*
X96775789Y-118749522D01*
X96835368Y-118579255D01*
X96844244Y-118500478D01*
X96855565Y-118400003D01*
X96855565Y-118399996D01*
X96835369Y-118220750D01*
X96835368Y-118220745D01*
X96815733Y-118164631D01*
X96775789Y-118050478D01*
X96679816Y-117897738D01*
X96552262Y-117770184D01*
X96399523Y-117674211D01*
X96229254Y-117614631D01*
X96229249Y-117614630D01*
X96050004Y-117594435D01*
X96049996Y-117594435D01*
X95870750Y-117614630D01*
X95870745Y-117614631D01*
X95700476Y-117674211D01*
X95547737Y-117770184D01*
X95420184Y-117897737D01*
X95324211Y-118050476D01*
X95264631Y-118220745D01*
X95264630Y-118220750D01*
X95244435Y-118399996D01*
X83325500Y-118399996D01*
X83325500Y-114749996D01*
X111319435Y-114749996D01*
X111319435Y-114750003D01*
X111339630Y-114929249D01*
X111339631Y-114929254D01*
X111399211Y-115099523D01*
X111495184Y-115252262D01*
X111622738Y-115379816D01*
X111775478Y-115475789D01*
X111945745Y-115535368D01*
X111945750Y-115535369D01*
X112124996Y-115555565D01*
X112125000Y-115555565D01*
X112125004Y-115555565D01*
X112304249Y-115535369D01*
X112304252Y-115535368D01*
X112304255Y-115535368D01*
X112474522Y-115475789D01*
X112627262Y-115379816D01*
X112754816Y-115252262D01*
X112850789Y-115099522D01*
X112910368Y-114929255D01*
X112930565Y-114750000D01*
X112910368Y-114570745D01*
X112850789Y-114400478D01*
X112822904Y-114356100D01*
X112762601Y-114260128D01*
X112754816Y-114247738D01*
X112627262Y-114120184D01*
X112474523Y-114024211D01*
X112304254Y-113964631D01*
X112304249Y-113964630D01*
X112125004Y-113944435D01*
X112124996Y-113944435D01*
X111945750Y-113964630D01*
X111945745Y-113964631D01*
X111775476Y-114024211D01*
X111622737Y-114120184D01*
X111495184Y-114247737D01*
X111399211Y-114400476D01*
X111339631Y-114570745D01*
X111339630Y-114570750D01*
X111319435Y-114749996D01*
X83325500Y-114749996D01*
X83325500Y-113630308D01*
X105185760Y-113630308D01*
X105185760Y-113630315D01*
X105205955Y-113809561D01*
X105205956Y-113809566D01*
X105265536Y-113979835D01*
X105353724Y-114120184D01*
X105361509Y-114132574D01*
X105489063Y-114260128D01*
X105641803Y-114356101D01*
X105768625Y-114400478D01*
X105812070Y-114415680D01*
X105812075Y-114415681D01*
X105991321Y-114435877D01*
X105991325Y-114435877D01*
X105991329Y-114435877D01*
X106170574Y-114415681D01*
X106170577Y-114415680D01*
X106170580Y-114415680D01*
X106340847Y-114356101D01*
X106493587Y-114260128D01*
X106621141Y-114132574D01*
X106717114Y-113979834D01*
X106776693Y-113809567D01*
X106796890Y-113630312D01*
X106776693Y-113451057D01*
X106717114Y-113280790D01*
X106621141Y-113128050D01*
X106493587Y-113000496D01*
X106340848Y-112904523D01*
X106170579Y-112844943D01*
X106170574Y-112844942D01*
X105991329Y-112824747D01*
X105991321Y-112824747D01*
X105812075Y-112844942D01*
X105812070Y-112844943D01*
X105641801Y-112904523D01*
X105489062Y-113000496D01*
X105361509Y-113128049D01*
X105265536Y-113280788D01*
X105205956Y-113451057D01*
X105205955Y-113451062D01*
X105185760Y-113630308D01*
X83325500Y-113630308D01*
X83325500Y-111449996D01*
X101719435Y-111449996D01*
X101719435Y-111450003D01*
X101739630Y-111629249D01*
X101739631Y-111629254D01*
X101799211Y-111799523D01*
X101895184Y-111952262D01*
X102022738Y-112079816D01*
X102175478Y-112175789D01*
X102345745Y-112235368D01*
X102345750Y-112235369D01*
X102524996Y-112255565D01*
X102525000Y-112255565D01*
X102525004Y-112255565D01*
X102704249Y-112235369D01*
X102704252Y-112235368D01*
X102704255Y-112235368D01*
X102874522Y-112175789D01*
X103027262Y-112079816D01*
X103154816Y-111952262D01*
X103250789Y-111799522D01*
X103310368Y-111629255D01*
X103330565Y-111450000D01*
X103310368Y-111270745D01*
X103250789Y-111100478D01*
X103154816Y-110947738D01*
X103027262Y-110820184D01*
X102874523Y-110724211D01*
X102704254Y-110664631D01*
X102704249Y-110664630D01*
X102525004Y-110644435D01*
X102524996Y-110644435D01*
X102345750Y-110664630D01*
X102345745Y-110664631D01*
X102175476Y-110724211D01*
X102022737Y-110820184D01*
X101895184Y-110947737D01*
X101799211Y-111100476D01*
X101739631Y-111270745D01*
X101739630Y-111270750D01*
X101719435Y-111449996D01*
X83325500Y-111449996D01*
X83325500Y-106749996D01*
X98319435Y-106749996D01*
X98319435Y-106750003D01*
X98339630Y-106929249D01*
X98339631Y-106929254D01*
X98399211Y-107099523D01*
X98421735Y-107135369D01*
X98495184Y-107252262D01*
X98622738Y-107379816D01*
X98700107Y-107428430D01*
X98746398Y-107480765D01*
X98757046Y-107549818D01*
X98728671Y-107613667D01*
X98721817Y-107621105D01*
X98595183Y-107747739D01*
X98499211Y-107900476D01*
X98439631Y-108070745D01*
X98439630Y-108070750D01*
X98419435Y-108249996D01*
X98419435Y-108250003D01*
X98439630Y-108429249D01*
X98439631Y-108429254D01*
X98499211Y-108599523D01*
X98530926Y-108649996D01*
X98595184Y-108752262D01*
X98722738Y-108879816D01*
X98875478Y-108975789D01*
X98943306Y-108999523D01*
X99052318Y-109037668D01*
X99051373Y-109040367D01*
X99101132Y-109068192D01*
X99133998Y-109129848D01*
X99128313Y-109199486D01*
X99100255Y-109242667D01*
X98995183Y-109347739D01*
X98899211Y-109500476D01*
X98839631Y-109670745D01*
X98839630Y-109670750D01*
X98819435Y-109849996D01*
X98819435Y-109850003D01*
X98839630Y-110029249D01*
X98839631Y-110029254D01*
X98899211Y-110199523D01*
X98995184Y-110352262D01*
X99122738Y-110479816D01*
X99275478Y-110575789D01*
X99445745Y-110635368D01*
X99445750Y-110635369D01*
X99624996Y-110655565D01*
X99625000Y-110655565D01*
X99625004Y-110655565D01*
X99804249Y-110635369D01*
X99804252Y-110635368D01*
X99804255Y-110635368D01*
X99974522Y-110575789D01*
X100127262Y-110479816D01*
X100254816Y-110352262D01*
X100350789Y-110199522D01*
X100410368Y-110029255D01*
X100430565Y-109850000D01*
X100410368Y-109670745D01*
X100350789Y-109500478D01*
X100254816Y-109347738D01*
X100127262Y-109220184D01*
X99974523Y-109124211D01*
X99797682Y-109062332D01*
X99798622Y-109059644D01*
X99748814Y-109031754D01*
X99715985Y-108970077D01*
X99721713Y-108900442D01*
X99749741Y-108857336D01*
X99854816Y-108752262D01*
X99919074Y-108649996D01*
X105119435Y-108649996D01*
X105119435Y-108650003D01*
X105139630Y-108829249D01*
X105139631Y-108829254D01*
X105199211Y-108999523D01*
X105234425Y-109055565D01*
X105295184Y-109152262D01*
X105422738Y-109279816D01*
X105513080Y-109336582D01*
X105530833Y-109347737D01*
X105575478Y-109375789D01*
X105745745Y-109435368D01*
X105745750Y-109435369D01*
X105924996Y-109455565D01*
X105925000Y-109455565D01*
X105925004Y-109455565D01*
X106104249Y-109435369D01*
X106104252Y-109435368D01*
X106104255Y-109435368D01*
X106274522Y-109375789D01*
X106427262Y-109279816D01*
X106554816Y-109152262D01*
X106650789Y-108999522D01*
X106710368Y-108829255D01*
X106719043Y-108752262D01*
X106730565Y-108650003D01*
X106730565Y-108649996D01*
X106710369Y-108470750D01*
X106710368Y-108470745D01*
X106650788Y-108300476D01*
X106554815Y-108147737D01*
X106427262Y-108020184D01*
X106274523Y-107924211D01*
X106104254Y-107864631D01*
X106104249Y-107864630D01*
X105925004Y-107844435D01*
X105924996Y-107844435D01*
X105745750Y-107864630D01*
X105745745Y-107864631D01*
X105575476Y-107924211D01*
X105422737Y-108020184D01*
X105295184Y-108147737D01*
X105199211Y-108300476D01*
X105139631Y-108470745D01*
X105139630Y-108470750D01*
X105119435Y-108649996D01*
X99919074Y-108649996D01*
X99950789Y-108599522D01*
X100010368Y-108429255D01*
X100030565Y-108250000D01*
X100010368Y-108070745D01*
X99950789Y-107900478D01*
X99928265Y-107864632D01*
X99911582Y-107838080D01*
X99854816Y-107747738D01*
X99727262Y-107620184D01*
X99649892Y-107571569D01*
X99603601Y-107519234D01*
X99592953Y-107450180D01*
X99621328Y-107386332D01*
X99628159Y-107378918D01*
X99754816Y-107252262D01*
X99850789Y-107099522D01*
X99910368Y-106929255D01*
X99930565Y-106750000D01*
X99910368Y-106570745D01*
X99850789Y-106400478D01*
X99819069Y-106349996D01*
X105119435Y-106349996D01*
X105119435Y-106350003D01*
X105139630Y-106529249D01*
X105139631Y-106529254D01*
X105199211Y-106699523D01*
X105230926Y-106749996D01*
X105295184Y-106852262D01*
X105422738Y-106979816D01*
X105575478Y-107075789D01*
X105643306Y-107099523D01*
X105745745Y-107135368D01*
X105745750Y-107135369D01*
X105924996Y-107155565D01*
X105925000Y-107155565D01*
X105925004Y-107155565D01*
X106104249Y-107135369D01*
X106104252Y-107135368D01*
X106104255Y-107135368D01*
X106274522Y-107075789D01*
X106427262Y-106979816D01*
X106554816Y-106852262D01*
X106650789Y-106699522D01*
X106710368Y-106529255D01*
X106730565Y-106350000D01*
X106710368Y-106170745D01*
X106650789Y-106000478D01*
X106628265Y-105964632D01*
X106554815Y-105847737D01*
X106427262Y-105720184D01*
X106274523Y-105624211D01*
X106104254Y-105564631D01*
X106104249Y-105564630D01*
X105925004Y-105544435D01*
X105924996Y-105544435D01*
X105745750Y-105564630D01*
X105745745Y-105564631D01*
X105575476Y-105624211D01*
X105422737Y-105720184D01*
X105295184Y-105847737D01*
X105199211Y-106000476D01*
X105139631Y-106170745D01*
X105139630Y-106170750D01*
X105119435Y-106349996D01*
X99819069Y-106349996D01*
X99754816Y-106247738D01*
X99627262Y-106120184D01*
X99474523Y-106024211D01*
X99304254Y-105964631D01*
X99304249Y-105964630D01*
X99125004Y-105944435D01*
X99124996Y-105944435D01*
X98945750Y-105964630D01*
X98945745Y-105964631D01*
X98775476Y-106024211D01*
X98622737Y-106120184D01*
X98495184Y-106247737D01*
X98399211Y-106400476D01*
X98339631Y-106570745D01*
X98339630Y-106570750D01*
X98319435Y-106749996D01*
X83325500Y-106749996D01*
X83325500Y-103749996D01*
X99219435Y-103749996D01*
X99219435Y-103750003D01*
X99239630Y-103929249D01*
X99239631Y-103929254D01*
X99299211Y-104099523D01*
X99395184Y-104252262D01*
X99522738Y-104379816D01*
X99675478Y-104475789D01*
X99845745Y-104535368D01*
X99845750Y-104535369D01*
X100024996Y-104555565D01*
X100025000Y-104555565D01*
X100025004Y-104555565D01*
X100204249Y-104535369D01*
X100204252Y-104535368D01*
X100204255Y-104535368D01*
X100374522Y-104475789D01*
X100527262Y-104379816D01*
X100654816Y-104252262D01*
X100750789Y-104099522D01*
X100810368Y-103929255D01*
X100830565Y-103750000D01*
X100810368Y-103570745D01*
X100750789Y-103400478D01*
X100654816Y-103247738D01*
X100527262Y-103120184D01*
X100374523Y-103024211D01*
X100204254Y-102964631D01*
X100204249Y-102964630D01*
X100025004Y-102944435D01*
X100024996Y-102944435D01*
X99845750Y-102964630D01*
X99845745Y-102964631D01*
X99675476Y-103024211D01*
X99522737Y-103120184D01*
X99395184Y-103247737D01*
X99299211Y-103400476D01*
X99239631Y-103570745D01*
X99239630Y-103570750D01*
X99219435Y-103749996D01*
X83325500Y-103749996D01*
X83325500Y-100349996D01*
X95619435Y-100349996D01*
X95619435Y-100350003D01*
X95639630Y-100529249D01*
X95639631Y-100529254D01*
X95699211Y-100699523D01*
X95795184Y-100852262D01*
X95922738Y-100979816D01*
X96075478Y-101075789D01*
X96245745Y-101135368D01*
X96245750Y-101135369D01*
X96424996Y-101155565D01*
X96425000Y-101155565D01*
X96425004Y-101155565D01*
X96604249Y-101135369D01*
X96604252Y-101135368D01*
X96604255Y-101135368D01*
X96774522Y-101075789D01*
X96927262Y-100979816D01*
X97054816Y-100852262D01*
X97150789Y-100699522D01*
X97210368Y-100529255D01*
X97216392Y-100475789D01*
X97230565Y-100350003D01*
X97230565Y-100349996D01*
X97210369Y-100170750D01*
X97210368Y-100170745D01*
X97150788Y-100000476D01*
X97054815Y-99847737D01*
X96957074Y-99749996D01*
X97519435Y-99749996D01*
X97519435Y-99750003D01*
X97539630Y-99929249D01*
X97539631Y-99929254D01*
X97599211Y-100099523D01*
X97695184Y-100252262D01*
X97822738Y-100379816D01*
X97975478Y-100475789D01*
X98128258Y-100529249D01*
X98145745Y-100535368D01*
X98145750Y-100535369D01*
X98324996Y-100555565D01*
X98325000Y-100555565D01*
X98325004Y-100555565D01*
X98504249Y-100535369D01*
X98504252Y-100535368D01*
X98504255Y-100535368D01*
X98674522Y-100475789D01*
X98827262Y-100379816D01*
X98954816Y-100252262D01*
X99050789Y-100099522D01*
X99110368Y-99929255D01*
X99130565Y-99750000D01*
X99116392Y-99624211D01*
X99110369Y-99570750D01*
X99110368Y-99570745D01*
X99050788Y-99400476D01*
X98954815Y-99247737D01*
X98827262Y-99120184D01*
X98674523Y-99024211D01*
X98504254Y-98964631D01*
X98504249Y-98964630D01*
X98325004Y-98944435D01*
X98324996Y-98944435D01*
X98145750Y-98964630D01*
X98145745Y-98964631D01*
X97975476Y-99024211D01*
X97822737Y-99120184D01*
X97695184Y-99247737D01*
X97599211Y-99400476D01*
X97539631Y-99570745D01*
X97539630Y-99570750D01*
X97519435Y-99749996D01*
X96957074Y-99749996D01*
X96927262Y-99720184D01*
X96774523Y-99624211D01*
X96604254Y-99564631D01*
X96604249Y-99564630D01*
X96425004Y-99544435D01*
X96424996Y-99544435D01*
X96245750Y-99564630D01*
X96245745Y-99564631D01*
X96075476Y-99624211D01*
X95922737Y-99720184D01*
X95795184Y-99847737D01*
X95699211Y-100000476D01*
X95639631Y-100170745D01*
X95639630Y-100170750D01*
X95619435Y-100349996D01*
X83325500Y-100349996D01*
X83325500Y-92799997D01*
X84469723Y-92799997D01*
X84469723Y-92800002D01*
X84488793Y-93017975D01*
X84488793Y-93017979D01*
X84545422Y-93229322D01*
X84545424Y-93229326D01*
X84545425Y-93229330D01*
X84562490Y-93265925D01*
X84637897Y-93427638D01*
X84637898Y-93427639D01*
X84763402Y-93606877D01*
X84918123Y-93761598D01*
X85097361Y-93887102D01*
X85295670Y-93979575D01*
X85507023Y-94036207D01*
X85689926Y-94052208D01*
X85724998Y-94055277D01*
X85725000Y-94055277D01*
X85725002Y-94055277D01*
X85753254Y-94052805D01*
X85942977Y-94036207D01*
X86154330Y-93979575D01*
X86352639Y-93887102D01*
X86531877Y-93761598D01*
X86686598Y-93606877D01*
X86812102Y-93427639D01*
X86882895Y-93275822D01*
X86929066Y-93223385D01*
X86996260Y-93204233D01*
X87063141Y-93224449D01*
X87107658Y-93275824D01*
X87178333Y-93427387D01*
X87221874Y-93489571D01*
X87782037Y-92929408D01*
X87799075Y-92992993D01*
X87864901Y-93107007D01*
X87957993Y-93200099D01*
X88072007Y-93265925D01*
X88135590Y-93282962D01*
X87575427Y-93843124D01*
X87637612Y-93886666D01*
X87835840Y-93979101D01*
X87835849Y-93979105D01*
X88047105Y-94035710D01*
X88047115Y-94035712D01*
X88264999Y-94054775D01*
X88265001Y-94054775D01*
X88482884Y-94035712D01*
X88482894Y-94035710D01*
X88694150Y-93979105D01*
X88694164Y-93979100D01*
X88892383Y-93886669D01*
X88892385Y-93886668D01*
X88954571Y-93843124D01*
X88394410Y-93282962D01*
X88457993Y-93265925D01*
X88572007Y-93200099D01*
X88665099Y-93107007D01*
X88730925Y-92992993D01*
X88747962Y-92929409D01*
X89308124Y-93489570D01*
X89351666Y-93427388D01*
X89422340Y-93275825D01*
X89468512Y-93223386D01*
X89535706Y-93204233D01*
X89602587Y-93224448D01*
X89647105Y-93275824D01*
X89717897Y-93427638D01*
X89717898Y-93427639D01*
X89843402Y-93606877D01*
X89998123Y-93761598D01*
X90177361Y-93887102D01*
X90375670Y-93979575D01*
X90587023Y-94036207D01*
X90769926Y-94052208D01*
X90804998Y-94055277D01*
X90805000Y-94055277D01*
X90805002Y-94055277D01*
X90833254Y-94052805D01*
X91022977Y-94036207D01*
X91234330Y-93979575D01*
X91432639Y-93887102D01*
X91611877Y-93761598D01*
X91766598Y-93606877D01*
X91892102Y-93427639D01*
X91962618Y-93276414D01*
X92008790Y-93223977D01*
X92075984Y-93204825D01*
X92142865Y-93225041D01*
X92187381Y-93276414D01*
X92257898Y-93427639D01*
X92383402Y-93606877D01*
X92538123Y-93761598D01*
X92717361Y-93887102D01*
X92915670Y-93979575D01*
X93127023Y-94036207D01*
X93309926Y-94052208D01*
X93344998Y-94055277D01*
X93345000Y-94055277D01*
X93345002Y-94055277D01*
X93373254Y-94052805D01*
X93562977Y-94036207D01*
X93774330Y-93979575D01*
X93972639Y-93887102D01*
X94151877Y-93761598D01*
X94306598Y-93606877D01*
X94432102Y-93427639D01*
X94502618Y-93276414D01*
X94548790Y-93223977D01*
X94615984Y-93204825D01*
X94682865Y-93225041D01*
X94727381Y-93276414D01*
X94797898Y-93427639D01*
X94923402Y-93606877D01*
X95078123Y-93761598D01*
X95257361Y-93887102D01*
X95455670Y-93979575D01*
X95667023Y-94036207D01*
X95849926Y-94052208D01*
X95884998Y-94055277D01*
X95885000Y-94055277D01*
X95885002Y-94055277D01*
X95913254Y-94052805D01*
X96102977Y-94036207D01*
X96314330Y-93979575D01*
X96512639Y-93887102D01*
X96691877Y-93761598D01*
X96846598Y-93606877D01*
X96972102Y-93427639D01*
X97042618Y-93276414D01*
X97088790Y-93223977D01*
X97155984Y-93204825D01*
X97222865Y-93225041D01*
X97267381Y-93276414D01*
X97337898Y-93427639D01*
X97463402Y-93606877D01*
X97618123Y-93761598D01*
X97797361Y-93887102D01*
X97995670Y-93979575D01*
X98207023Y-94036207D01*
X98389926Y-94052208D01*
X98424998Y-94055277D01*
X98425000Y-94055277D01*
X98425002Y-94055277D01*
X98453254Y-94052805D01*
X98642977Y-94036207D01*
X98854330Y-93979575D01*
X99052639Y-93887102D01*
X99231877Y-93761598D01*
X99386598Y-93606877D01*
X99512102Y-93427639D01*
X99582618Y-93276414D01*
X99628790Y-93223977D01*
X99695984Y-93204825D01*
X99762865Y-93225041D01*
X99807381Y-93276414D01*
X99877898Y-93427639D01*
X100003402Y-93606877D01*
X100158123Y-93761598D01*
X100337361Y-93887102D01*
X100535670Y-93979575D01*
X100747023Y-94036207D01*
X100929926Y-94052208D01*
X100964998Y-94055277D01*
X100965000Y-94055277D01*
X100965002Y-94055277D01*
X100993254Y-94052805D01*
X101182977Y-94036207D01*
X101394330Y-93979575D01*
X101592639Y-93887102D01*
X101771877Y-93761598D01*
X101926598Y-93606877D01*
X102052102Y-93427639D01*
X102144575Y-93229330D01*
X102201207Y-93017977D01*
X102220277Y-92800000D01*
X102219143Y-92787043D01*
X102211586Y-92700664D01*
X102201207Y-92582023D01*
X102164879Y-92446446D01*
X102144577Y-92370677D01*
X102144576Y-92370676D01*
X102144575Y-92370670D01*
X102064103Y-92198098D01*
X110823815Y-92198098D01*
X110824003Y-92215935D01*
X110823980Y-92216016D01*
X110823984Y-92216016D01*
X110824494Y-92266708D01*
X110824500Y-92267955D01*
X110824500Y-92328449D01*
X110825217Y-92338602D01*
X110825556Y-92372227D01*
X110857921Y-92582975D01*
X110919757Y-92787043D01*
X111009815Y-92980311D01*
X111009820Y-92980320D01*
X111126291Y-93158908D01*
X111126297Y-93158915D01*
X111266851Y-93319253D01*
X111428662Y-93458112D01*
X111428663Y-93458113D01*
X111428666Y-93458115D01*
X111608483Y-93572706D01*
X111802694Y-93660726D01*
X112007398Y-93720407D01*
X112218482Y-93750551D01*
X112325095Y-93750500D01*
X112390988Y-93750500D01*
X115259108Y-93750500D01*
X115325000Y-93750500D01*
X115432315Y-93750500D01*
X115644759Y-93719956D01*
X115850695Y-93659490D01*
X116045930Y-93570332D01*
X116226490Y-93454298D01*
X116388699Y-93313750D01*
X116529255Y-93151547D01*
X116645298Y-92970993D01*
X116734465Y-92775763D01*
X116794941Y-92569830D01*
X116825495Y-92357387D01*
X116825495Y-92326795D01*
X116825500Y-92326754D01*
X116825500Y-92250025D01*
X116825500Y-92250022D01*
X116825503Y-92184180D01*
X116825501Y-92184175D01*
X116825502Y-92176605D01*
X116825500Y-92176555D01*
X116825500Y-87142685D01*
X116825500Y-87142682D01*
X116795242Y-86932230D01*
X116794955Y-86930234D01*
X116794952Y-86930224D01*
X116774685Y-86861199D01*
X116734484Y-86724289D01*
X116734483Y-86724287D01*
X116734482Y-86724283D01*
X116645327Y-86529060D01*
X116645314Y-86529037D01*
X116529284Y-86348491D01*
X116529274Y-86348477D01*
X116388725Y-86186277D01*
X116226510Y-86045717D01*
X116226504Y-86045713D01*
X116045958Y-85929683D01*
X116045935Y-85929670D01*
X115850710Y-85840515D01*
X115850698Y-85840510D01*
X115644773Y-85780047D01*
X115644757Y-85780043D01*
X115432314Y-85749500D01*
X115390889Y-85749500D01*
X112388805Y-85749500D01*
X112378009Y-85748846D01*
X112360531Y-85749021D01*
X112360439Y-85748995D01*
X112308201Y-85749494D01*
X112307017Y-85749500D01*
X112246784Y-85749500D01*
X112237228Y-85750170D01*
X112203556Y-85750492D01*
X112203544Y-85750493D01*
X111992725Y-85782762D01*
X111992715Y-85782764D01*
X111788557Y-85844527D01*
X111788547Y-85844531D01*
X111595190Y-85934537D01*
X111595186Y-85934539D01*
X111416499Y-86050982D01*
X111416492Y-86050987D01*
X111256059Y-86191537D01*
X111256056Y-86191540D01*
X111117108Y-86353365D01*
X111117106Y-86353367D01*
X111117106Y-86353368D01*
X111117101Y-86353374D01*
X111002445Y-86533205D01*
X111002437Y-86533219D01*
X110914362Y-86727457D01*
X110914355Y-86727476D01*
X110854629Y-86932230D01*
X110854628Y-86932233D01*
X110829944Y-87104973D01*
X110825000Y-87139581D01*
X110824457Y-87143378D01*
X110824456Y-87143382D01*
X110824500Y-87250022D01*
X110824500Y-87250080D01*
X110824495Y-87324514D01*
X110824500Y-87324585D01*
X110824500Y-92186738D01*
X110823815Y-92198098D01*
X102064103Y-92198098D01*
X102052102Y-92172362D01*
X102052099Y-92172358D01*
X102052099Y-92172357D01*
X101926599Y-91993124D01*
X101926596Y-91993121D01*
X101771877Y-91838402D01*
X101633978Y-91741844D01*
X101592638Y-91712897D01*
X101493484Y-91666661D01*
X101394330Y-91620425D01*
X101394326Y-91620424D01*
X101394322Y-91620422D01*
X101182977Y-91563793D01*
X100965002Y-91544723D01*
X100964998Y-91544723D01*
X100819682Y-91557436D01*
X100747023Y-91563793D01*
X100747020Y-91563793D01*
X100535677Y-91620422D01*
X100535668Y-91620426D01*
X100337361Y-91712898D01*
X100337357Y-91712900D01*
X100158121Y-91838402D01*
X100003402Y-91993121D01*
X99877900Y-92172357D01*
X99877898Y-92172361D01*
X99807382Y-92323583D01*
X99761209Y-92376022D01*
X99694016Y-92395174D01*
X99627135Y-92374958D01*
X99582618Y-92323583D01*
X99548317Y-92250025D01*
X99512102Y-92172362D01*
X99512099Y-92172358D01*
X99512099Y-92172357D01*
X99386599Y-91993124D01*
X99386596Y-91993121D01*
X99231877Y-91838402D01*
X99093978Y-91741844D01*
X99052638Y-91712897D01*
X98953484Y-91666661D01*
X98854330Y-91620425D01*
X98854326Y-91620424D01*
X98854322Y-91620422D01*
X98642977Y-91563793D01*
X98425002Y-91544723D01*
X98424998Y-91544723D01*
X98279682Y-91557436D01*
X98207023Y-91563793D01*
X98207020Y-91563793D01*
X97995677Y-91620422D01*
X97995668Y-91620426D01*
X97797361Y-91712898D01*
X97797357Y-91712900D01*
X97618121Y-91838402D01*
X97463402Y-91993121D01*
X97337900Y-92172357D01*
X97337898Y-92172361D01*
X97267382Y-92323583D01*
X97221209Y-92376022D01*
X97154016Y-92395174D01*
X97087135Y-92374958D01*
X97042618Y-92323583D01*
X97008317Y-92250025D01*
X96972102Y-92172362D01*
X96972099Y-92172358D01*
X96972099Y-92172357D01*
X96846599Y-91993124D01*
X96846596Y-91993121D01*
X96691877Y-91838402D01*
X96553978Y-91741844D01*
X96512638Y-91712897D01*
X96413484Y-91666661D01*
X96314330Y-91620425D01*
X96314326Y-91620424D01*
X96314322Y-91620422D01*
X96102977Y-91563793D01*
X95885002Y-91544723D01*
X95884998Y-91544723D01*
X95739682Y-91557436D01*
X95667023Y-91563793D01*
X95667020Y-91563793D01*
X95455677Y-91620422D01*
X95455668Y-91620426D01*
X95257361Y-91712898D01*
X95257357Y-91712900D01*
X95078121Y-91838402D01*
X94923402Y-91993121D01*
X94797900Y-92172357D01*
X94797898Y-92172361D01*
X94727382Y-92323583D01*
X94681209Y-92376022D01*
X94614016Y-92395174D01*
X94547135Y-92374958D01*
X94502618Y-92323583D01*
X94468317Y-92250025D01*
X94432102Y-92172362D01*
X94432099Y-92172358D01*
X94432099Y-92172357D01*
X94306599Y-91993124D01*
X94306596Y-91993121D01*
X94151877Y-91838402D01*
X94013978Y-91741844D01*
X93972638Y-91712897D01*
X93873484Y-91666661D01*
X93774330Y-91620425D01*
X93774326Y-91620424D01*
X93774322Y-91620422D01*
X93562977Y-91563793D01*
X93345002Y-91544723D01*
X93344998Y-91544723D01*
X93199682Y-91557436D01*
X93127023Y-91563793D01*
X93127020Y-91563793D01*
X92915677Y-91620422D01*
X92915668Y-91620426D01*
X92717361Y-91712898D01*
X92717357Y-91712900D01*
X92538121Y-91838402D01*
X92383402Y-91993121D01*
X92257900Y-92172357D01*
X92257898Y-92172361D01*
X92187382Y-92323583D01*
X92141209Y-92376022D01*
X92074016Y-92395174D01*
X92007135Y-92374958D01*
X91962618Y-92323583D01*
X91928317Y-92250025D01*
X91892102Y-92172362D01*
X91892099Y-92172358D01*
X91892099Y-92172357D01*
X91766599Y-91993124D01*
X91766596Y-91993121D01*
X91611877Y-91838402D01*
X91473978Y-91741844D01*
X91432638Y-91712897D01*
X91333484Y-91666661D01*
X91234330Y-91620425D01*
X91234326Y-91620424D01*
X91234322Y-91620422D01*
X91022977Y-91563793D01*
X90805002Y-91544723D01*
X90804998Y-91544723D01*
X90659682Y-91557436D01*
X90587023Y-91563793D01*
X90587020Y-91563793D01*
X90375677Y-91620422D01*
X90375668Y-91620426D01*
X90177361Y-91712898D01*
X90177357Y-91712900D01*
X89998121Y-91838402D01*
X89843402Y-91993121D01*
X89717900Y-92172357D01*
X89717900Y-92172358D01*
X89717898Y-92172361D01*
X89717898Y-92172362D01*
X89712393Y-92184168D01*
X89647105Y-92324176D01*
X89600932Y-92376615D01*
X89533738Y-92395766D01*
X89466857Y-92375550D01*
X89422341Y-92324174D01*
X89351669Y-92172617D01*
X89308123Y-92110428D01*
X88747962Y-92670589D01*
X88730925Y-92607007D01*
X88665099Y-92492993D01*
X88572007Y-92399901D01*
X88457993Y-92334075D01*
X88394409Y-92317037D01*
X88954571Y-91756874D01*
X88892387Y-91713333D01*
X88694159Y-91620898D01*
X88694150Y-91620894D01*
X88482894Y-91564289D01*
X88482884Y-91564287D01*
X88265001Y-91545225D01*
X88264999Y-91545225D01*
X88047115Y-91564287D01*
X88047105Y-91564289D01*
X87835849Y-91620894D01*
X87835840Y-91620898D01*
X87637614Y-91713332D01*
X87637612Y-91713333D01*
X87575428Y-91756875D01*
X87575427Y-91756875D01*
X88135590Y-92317037D01*
X88072007Y-92334075D01*
X87957993Y-92399901D01*
X87864901Y-92492993D01*
X87799075Y-92607007D01*
X87782037Y-92670590D01*
X87221875Y-92110427D01*
X87221875Y-92110428D01*
X87178333Y-92172612D01*
X87178332Y-92172614D01*
X87107658Y-92324175D01*
X87061485Y-92376614D01*
X86994292Y-92395766D01*
X86927411Y-92375550D01*
X86882894Y-92324175D01*
X86848317Y-92250025D01*
X86812102Y-92172362D01*
X86812099Y-92172358D01*
X86812099Y-92172357D01*
X86686599Y-91993124D01*
X86686596Y-91993121D01*
X86531877Y-91838402D01*
X86393978Y-91741844D01*
X86352638Y-91712897D01*
X86253484Y-91666661D01*
X86154330Y-91620425D01*
X86154326Y-91620424D01*
X86154322Y-91620422D01*
X85942977Y-91563793D01*
X85725002Y-91544723D01*
X85724998Y-91544723D01*
X85579682Y-91557436D01*
X85507023Y-91563793D01*
X85507020Y-91563793D01*
X85295677Y-91620422D01*
X85295668Y-91620426D01*
X85097361Y-91712898D01*
X85097357Y-91712900D01*
X84918121Y-91838402D01*
X84763402Y-91993121D01*
X84637900Y-92172357D01*
X84637898Y-92172361D01*
X84545426Y-92370668D01*
X84545422Y-92370677D01*
X84488793Y-92582020D01*
X84488793Y-92582023D01*
X84486607Y-92607007D01*
X84469723Y-92799997D01*
X83325500Y-92799997D01*
X83325500Y-89749996D01*
X99419435Y-89749996D01*
X99419435Y-89750003D01*
X99439630Y-89929249D01*
X99439631Y-89929254D01*
X99499211Y-90099523D01*
X99595184Y-90252262D01*
X99722738Y-90379816D01*
X99875478Y-90475789D01*
X100045745Y-90535368D01*
X100045750Y-90535369D01*
X100224996Y-90555565D01*
X100225000Y-90555565D01*
X100225004Y-90555565D01*
X100404249Y-90535369D01*
X100404252Y-90535368D01*
X100404255Y-90535368D01*
X100574522Y-90475789D01*
X100727262Y-90379816D01*
X100854816Y-90252262D01*
X100950789Y-90099522D01*
X101010368Y-89929255D01*
X101030565Y-89750000D01*
X101010368Y-89570745D01*
X100950789Y-89400478D01*
X100854816Y-89247738D01*
X100727262Y-89120184D01*
X100574523Y-89024211D01*
X100404254Y-88964631D01*
X100404249Y-88964630D01*
X100225004Y-88944435D01*
X100224996Y-88944435D01*
X100045750Y-88964630D01*
X100045745Y-88964631D01*
X99875476Y-89024211D01*
X99722737Y-89120184D01*
X99595184Y-89247737D01*
X99499211Y-89400476D01*
X99439631Y-89570745D01*
X99439630Y-89570750D01*
X99419435Y-89749996D01*
X83325500Y-89749996D01*
X83325500Y-87149996D01*
X95319435Y-87149996D01*
X95319435Y-87150003D01*
X95339630Y-87329249D01*
X95339631Y-87329254D01*
X95399211Y-87499523D01*
X95495184Y-87652262D01*
X95622738Y-87779816D01*
X95775478Y-87875789D01*
X95945745Y-87935368D01*
X95945750Y-87935369D01*
X96124996Y-87955565D01*
X96125000Y-87955565D01*
X96125004Y-87955565D01*
X96304249Y-87935369D01*
X96304252Y-87935368D01*
X96304255Y-87935368D01*
X96474522Y-87875789D01*
X96627262Y-87779816D01*
X96754816Y-87652262D01*
X96850789Y-87499522D01*
X96910368Y-87329255D01*
X96910369Y-87329249D01*
X96930565Y-87150003D01*
X96930565Y-87149996D01*
X96910369Y-86970750D01*
X96910368Y-86970745D01*
X96871433Y-86859475D01*
X96850789Y-86800478D01*
X96850467Y-86799966D01*
X96754815Y-86647737D01*
X96627262Y-86520184D01*
X96474523Y-86424211D01*
X96304254Y-86364631D01*
X96304249Y-86364630D01*
X96125004Y-86344435D01*
X96124996Y-86344435D01*
X95945750Y-86364630D01*
X95945745Y-86364631D01*
X95775476Y-86424211D01*
X95622737Y-86520184D01*
X95495184Y-86647737D01*
X95399211Y-86800476D01*
X95339631Y-86970745D01*
X95339630Y-86970750D01*
X95319435Y-87149996D01*
X83325500Y-87149996D01*
X83325500Y-84249996D01*
X89819435Y-84249996D01*
X89819435Y-84250003D01*
X89839630Y-84429249D01*
X89839631Y-84429254D01*
X89899211Y-84599523D01*
X89995184Y-84752262D01*
X90122738Y-84879816D01*
X90275478Y-84975789D01*
X90445745Y-85035368D01*
X90445750Y-85035369D01*
X90624996Y-85055565D01*
X90625000Y-85055565D01*
X90625004Y-85055565D01*
X90804249Y-85035369D01*
X90804252Y-85035368D01*
X90804255Y-85035368D01*
X90974522Y-84975789D01*
X91127262Y-84879816D01*
X91254816Y-84752262D01*
X91350789Y-84599522D01*
X91410368Y-84429255D01*
X91430565Y-84250000D01*
X91410368Y-84070745D01*
X91350789Y-83900478D01*
X91254816Y-83747738D01*
X91127262Y-83620184D01*
X91092469Y-83598322D01*
X90974523Y-83524211D01*
X90804254Y-83464631D01*
X90804249Y-83464630D01*
X90625004Y-83444435D01*
X90624996Y-83444435D01*
X90445750Y-83464630D01*
X90445745Y-83464631D01*
X90275476Y-83524211D01*
X90122737Y-83620184D01*
X89995184Y-83747737D01*
X89899211Y-83900476D01*
X89839631Y-84070745D01*
X89839630Y-84070750D01*
X89819435Y-84249996D01*
X83325500Y-84249996D01*
X83325500Y-81670488D01*
X83326111Y-81658193D01*
X83331862Y-81600478D01*
X83334095Y-81578073D01*
X83338933Y-81554015D01*
X83360740Y-81482933D01*
X83370227Y-81460298D01*
X83405609Y-81394914D01*
X83419366Y-81374595D01*
X83471032Y-81312548D01*
X83479337Y-81303525D01*
X83521792Y-81261757D01*
X83521794Y-81261753D01*
X83523930Y-81259652D01*
X83529791Y-81253021D01*
X83881587Y-80901227D01*
X83890603Y-80893057D01*
X83952196Y-80842519D01*
X83972399Y-80829021D01*
X84037280Y-80794346D01*
X84059724Y-80785051D01*
X84130114Y-80763702D01*
X84153946Y-80758962D01*
X84233663Y-80751111D01*
X84245815Y-80750515D01*
X84313201Y-80750515D01*
X84313430Y-80750500D01*
X91432312Y-80750500D01*
X91432315Y-80750500D01*
X91644759Y-80719956D01*
X91850695Y-80659490D01*
X92045930Y-80570332D01*
X92226490Y-80454298D01*
X92388699Y-80313750D01*
X92529255Y-80151547D01*
X92645298Y-79970993D01*
X92734465Y-79775763D01*
X92773244Y-79643713D01*
X94174500Y-79643713D01*
X94174500Y-79856286D01*
X94197222Y-79999751D01*
X94207754Y-80066243D01*
X94235471Y-80151548D01*
X94273444Y-80268414D01*
X94369951Y-80457820D01*
X94494890Y-80629786D01*
X94645213Y-80780109D01*
X94817179Y-80905048D01*
X94817181Y-80905049D01*
X94817184Y-80905051D01*
X95006588Y-81001557D01*
X95208757Y-81067246D01*
X95418713Y-81100500D01*
X95418714Y-81100500D01*
X95631286Y-81100500D01*
X95631287Y-81100500D01*
X95841243Y-81067246D01*
X95892957Y-81050442D01*
X95962794Y-81048447D01*
X96022627Y-81084527D01*
X96053456Y-81147228D01*
X96045492Y-81216642D01*
X96001264Y-81270732D01*
X95997245Y-81273367D01*
X95922740Y-81320182D01*
X95922737Y-81320184D01*
X95795184Y-81447737D01*
X95699211Y-81600476D01*
X95639631Y-81770745D01*
X95639630Y-81770750D01*
X95619435Y-81949996D01*
X95619435Y-81950004D01*
X95626714Y-82014611D01*
X95614659Y-82083433D01*
X95567310Y-82134812D01*
X95499699Y-82152436D01*
X95489611Y-82151714D01*
X95425004Y-82144435D01*
X95424996Y-82144435D01*
X95245750Y-82164630D01*
X95245745Y-82164631D01*
X95075476Y-82224211D01*
X94922737Y-82320184D01*
X94795184Y-82447737D01*
X94699211Y-82600476D01*
X94639631Y-82770745D01*
X94639630Y-82770750D01*
X94619435Y-82949996D01*
X94619435Y-82950003D01*
X94639630Y-83129249D01*
X94639631Y-83129254D01*
X94699211Y-83299523D01*
X94748061Y-83377267D01*
X94795184Y-83452262D01*
X94922738Y-83579816D01*
X95075478Y-83675789D01*
X95230687Y-83730099D01*
X95245745Y-83735368D01*
X95245750Y-83735369D01*
X95424996Y-83755565D01*
X95425000Y-83755565D01*
X95425004Y-83755565D01*
X95604249Y-83735369D01*
X95604252Y-83735368D01*
X95604255Y-83735368D01*
X95774522Y-83675789D01*
X95927262Y-83579816D01*
X96054816Y-83452262D01*
X96150789Y-83299522D01*
X96210368Y-83129255D01*
X96210369Y-83129249D01*
X96230565Y-82950003D01*
X96230565Y-82949997D01*
X96223285Y-82885389D01*
X96235339Y-82816567D01*
X96282688Y-82765188D01*
X96350298Y-82747563D01*
X96360385Y-82748284D01*
X96386857Y-82751267D01*
X96424998Y-82755565D01*
X96425000Y-82755565D01*
X96425004Y-82755565D01*
X96604249Y-82735369D01*
X96604252Y-82735368D01*
X96604255Y-82735368D01*
X96774522Y-82675789D01*
X96927262Y-82579816D01*
X97054816Y-82452262D01*
X97150789Y-82299522D01*
X97210368Y-82129255D01*
X97218671Y-82055565D01*
X97230565Y-81950003D01*
X97230565Y-81949996D01*
X97210369Y-81770750D01*
X97210368Y-81770745D01*
X97150789Y-81600478D01*
X97150188Y-81599522D01*
X97054815Y-81447737D01*
X96927262Y-81320184D01*
X96815559Y-81249996D01*
X101719435Y-81249996D01*
X101719435Y-81250003D01*
X101739630Y-81429249D01*
X101739631Y-81429254D01*
X101799211Y-81599523D01*
X101843802Y-81670488D01*
X101895184Y-81752262D01*
X102022738Y-81879816D01*
X102175478Y-81975789D01*
X102286425Y-82014611D01*
X102345745Y-82035368D01*
X102345750Y-82035369D01*
X102524996Y-82055565D01*
X102525000Y-82055565D01*
X102525004Y-82055565D01*
X102704249Y-82035369D01*
X102704252Y-82035368D01*
X102704255Y-82035368D01*
X102874522Y-81975789D01*
X103027262Y-81879816D01*
X103154816Y-81752262D01*
X103156240Y-81749996D01*
X109719435Y-81749996D01*
X109719435Y-81750003D01*
X109739630Y-81929249D01*
X109739631Y-81929254D01*
X109799211Y-82099523D01*
X109840122Y-82164632D01*
X109895184Y-82252262D01*
X110022738Y-82379816D01*
X110113080Y-82436582D01*
X110130833Y-82447737D01*
X110175478Y-82475789D01*
X110345745Y-82535368D01*
X110345750Y-82535369D01*
X110524996Y-82555565D01*
X110525000Y-82555565D01*
X110525004Y-82555565D01*
X110704249Y-82535369D01*
X110704252Y-82535368D01*
X110704255Y-82535368D01*
X110874522Y-82475789D01*
X111027262Y-82379816D01*
X111154816Y-82252262D01*
X111250789Y-82099522D01*
X111310368Y-81929255D01*
X111310369Y-81929249D01*
X111330565Y-81750003D01*
X111330565Y-81749996D01*
X111310369Y-81570750D01*
X111310368Y-81570745D01*
X111275517Y-81471146D01*
X111250789Y-81400478D01*
X111247297Y-81394921D01*
X111192670Y-81307982D01*
X111154816Y-81247738D01*
X111027262Y-81120184D01*
X110995935Y-81100500D01*
X110874523Y-81024211D01*
X110704254Y-80964631D01*
X110704249Y-80964630D01*
X110525004Y-80944435D01*
X110524996Y-80944435D01*
X110345750Y-80964630D01*
X110345745Y-80964631D01*
X110175476Y-81024211D01*
X110022737Y-81120184D01*
X109895184Y-81247737D01*
X109799211Y-81400476D01*
X109739631Y-81570745D01*
X109739630Y-81570750D01*
X109719435Y-81749996D01*
X103156240Y-81749996D01*
X103250789Y-81599522D01*
X103310368Y-81429255D01*
X103310369Y-81429249D01*
X103330565Y-81250003D01*
X103330565Y-81249996D01*
X103310369Y-81070750D01*
X103310368Y-81070745D01*
X103252388Y-80905048D01*
X103250789Y-80900478D01*
X103248553Y-80896920D01*
X103200872Y-80821036D01*
X103154816Y-80747738D01*
X103027262Y-80620184D01*
X102874523Y-80524211D01*
X102704254Y-80464631D01*
X102704249Y-80464630D01*
X102525004Y-80444435D01*
X102524996Y-80444435D01*
X102345750Y-80464630D01*
X102345745Y-80464631D01*
X102175476Y-80524211D01*
X102022737Y-80620184D01*
X101895184Y-80747737D01*
X101799211Y-80900476D01*
X101739631Y-81070745D01*
X101739630Y-81070750D01*
X101719435Y-81249996D01*
X96815559Y-81249996D01*
X96774523Y-81224211D01*
X96604254Y-81164631D01*
X96604249Y-81164630D01*
X96425004Y-81144435D01*
X96424996Y-81144435D01*
X96254046Y-81163696D01*
X96185224Y-81151641D01*
X96133845Y-81104292D01*
X96116221Y-81036682D01*
X96137948Y-80970276D01*
X96183868Y-80929991D01*
X96232816Y-80905051D01*
X96329545Y-80834774D01*
X96404786Y-80780109D01*
X96404788Y-80780106D01*
X96404792Y-80780104D01*
X96555104Y-80629792D01*
X96555106Y-80629788D01*
X96555109Y-80629786D01*
X96680048Y-80457820D01*
X96680047Y-80457820D01*
X96680051Y-80457816D01*
X96776557Y-80268412D01*
X96842246Y-80066243D01*
X96875500Y-79856287D01*
X96875500Y-79643713D01*
X96842246Y-79433757D01*
X96776557Y-79231588D01*
X96680051Y-79042184D01*
X96680049Y-79042181D01*
X96680048Y-79042179D01*
X96555109Y-78870213D01*
X96404786Y-78719890D01*
X96232820Y-78594951D01*
X96043414Y-78498444D01*
X96043413Y-78498443D01*
X96043412Y-78498443D01*
X95841243Y-78432754D01*
X95841241Y-78432753D01*
X95841240Y-78432753D01*
X95679957Y-78407208D01*
X95631287Y-78399500D01*
X95418713Y-78399500D01*
X95370042Y-78407208D01*
X95208760Y-78432753D01*
X95006585Y-78498444D01*
X94817179Y-78594951D01*
X94645213Y-78719890D01*
X94494890Y-78870213D01*
X94369951Y-79042179D01*
X94273444Y-79231585D01*
X94207753Y-79433760D01*
X94174500Y-79643713D01*
X92773244Y-79643713D01*
X92794941Y-79569830D01*
X92825495Y-79357387D01*
X92825495Y-79326795D01*
X92825500Y-79326754D01*
X92825500Y-79250025D01*
X92825501Y-79231585D01*
X92825503Y-79184180D01*
X92825501Y-79184175D01*
X92825502Y-79176605D01*
X92825500Y-79176555D01*
X92825500Y-77874500D01*
X92845185Y-77807461D01*
X92897989Y-77761706D01*
X92949500Y-77750500D01*
X115344906Y-77750500D01*
X115404708Y-77750500D01*
X115416860Y-77751097D01*
G37*
%TD.AperFunction*%
%TD*%
M02*
