%TF.GenerationSoftware,KiCad,Pcbnew,8.0.8*%
%TF.CreationDate,2025-03-31T21:39:45-04:00*%
%TF.ProjectId,vindriktrning-esp32-s3,76696e64-7269-46b7-9472-6e696e672d65,rev?*%
%TF.SameCoordinates,Original*%
%TF.FileFunction,Copper,L1,Top*%
%TF.FilePolarity,Positive*%
%FSLAX46Y46*%
G04 Gerber Fmt 4.6, Leading zero omitted, Abs format (unit mm)*
G04 Created by KiCad (PCBNEW 8.0.8) date 2025-03-31 21:39:45*
%MOMM*%
%LPD*%
G01*
G04 APERTURE LIST*
G04 Aperture macros list*
%AMRoundRect*
0 Rectangle with rounded corners*
0 $1 Rounding radius*
0 $2 $3 $4 $5 $6 $7 $8 $9 X,Y pos of 4 corners*
0 Add a 4 corners polygon primitive as box body*
4,1,4,$2,$3,$4,$5,$6,$7,$8,$9,$2,$3,0*
0 Add four circle primitives for the rounded corners*
1,1,$1+$1,$2,$3*
1,1,$1+$1,$4,$5*
1,1,$1+$1,$6,$7*
1,1,$1+$1,$8,$9*
0 Add four rect primitives between the rounded corners*
20,1,$1+$1,$2,$3,$4,$5,0*
20,1,$1+$1,$4,$5,$6,$7,0*
20,1,$1+$1,$6,$7,$8,$9,0*
20,1,$1+$1,$8,$9,$2,$3,0*%
G04 Aperture macros list end*
%TA.AperFunction,SMDPad,CuDef*%
%ADD10C,1.000000*%
%TD*%
%TA.AperFunction,SMDPad,CuDef*%
%ADD11R,1.360000X1.230000*%
%TD*%
%TA.AperFunction,ComponentPad*%
%ADD12C,1.500000*%
%TD*%
%TA.AperFunction,SMDPad,CuDef*%
%ADD13RoundRect,0.250000X-0.250000X-0.475000X0.250000X-0.475000X0.250000X0.475000X-0.250000X0.475000X0*%
%TD*%
%TA.AperFunction,SMDPad,CuDef*%
%ADD14R,3.250000X1.000000*%
%TD*%
%TA.AperFunction,SMDPad,CuDef*%
%ADD15R,2.300000X1.500000*%
%TD*%
%TA.AperFunction,SMDPad,CuDef*%
%ADD16RoundRect,0.200000X-0.275000X0.200000X-0.275000X-0.200000X0.275000X-0.200000X0.275000X0.200000X0*%
%TD*%
%TA.AperFunction,SMDPad,CuDef*%
%ADD17R,0.530000X1.050000*%
%TD*%
%TA.AperFunction,SMDPad,CuDef*%
%ADD18RoundRect,0.200000X0.275000X-0.200000X0.275000X0.200000X-0.275000X0.200000X-0.275000X-0.200000X0*%
%TD*%
%TA.AperFunction,SMDPad,CuDef*%
%ADD19RoundRect,0.200000X0.200000X0.275000X-0.200000X0.275000X-0.200000X-0.275000X0.200000X-0.275000X0*%
%TD*%
%TA.AperFunction,SMDPad,CuDef*%
%ADD20R,1.250000X0.700000*%
%TD*%
%TA.AperFunction,SMDPad,CuDef*%
%ADD21RoundRect,0.200000X-0.200000X-0.275000X0.200000X-0.275000X0.200000X0.275000X-0.200000X0.275000X0*%
%TD*%
%TA.AperFunction,SMDPad,CuDef*%
%ADD22R,0.420000X0.600000*%
%TD*%
%TA.AperFunction,SMDPad,CuDef*%
%ADD23R,0.950000X1.200000*%
%TD*%
%TA.AperFunction,SMDPad,CuDef*%
%ADD24RoundRect,0.250000X-0.475000X0.250000X-0.475000X-0.250000X0.475000X-0.250000X0.475000X0.250000X0*%
%TD*%
%TA.AperFunction,SMDPad,CuDef*%
%ADD25R,0.520000X1.600000*%
%TD*%
%TA.AperFunction,SMDPad,CuDef*%
%ADD26R,2.200000X3.100000*%
%TD*%
%TA.AperFunction,SMDPad,CuDef*%
%ADD27R,0.350000X0.900000*%
%TD*%
%TA.AperFunction,SMDPad,CuDef*%
%ADD28R,0.300000X0.900000*%
%TD*%
%TA.AperFunction,ComponentPad*%
%ADD29C,1.200000*%
%TD*%
%TA.AperFunction,ComponentPad*%
%ADD30C,0.650000*%
%TD*%
%TA.AperFunction,SMDPad,CuDef*%
%ADD31R,0.830000X0.630000*%
%TD*%
%TA.AperFunction,SMDPad,CuDef*%
%ADD32R,1.200000X3.500000*%
%TD*%
%TA.AperFunction,SMDPad,CuDef*%
%ADD33R,0.400000X0.800000*%
%TD*%
%TA.AperFunction,SMDPad,CuDef*%
%ADD34R,0.800000X0.400000*%
%TD*%
%TA.AperFunction,SMDPad,CuDef*%
%ADD35R,1.450000X1.450000*%
%TD*%
%TA.AperFunction,SMDPad,CuDef*%
%ADD36R,0.700000X0.700000*%
%TD*%
%TA.AperFunction,ViaPad*%
%ADD37C,0.600000*%
%TD*%
%TA.AperFunction,ViaPad*%
%ADD38C,0.400000*%
%TD*%
%TA.AperFunction,Conductor*%
%ADD39C,0.200000*%
%TD*%
G04 APERTURE END LIST*
D10*
%TO.P,J11,1,Pin_1*%
%TO.N,IO8*%
X102475000Y-108625000D03*
%TD*%
%TO.P,J10,1,Pin_1*%
%TO.N,IO7*%
X102900000Y-114050000D03*
%TD*%
%TO.P,J9,1,Pin_1*%
%TO.N,IO6*%
X102850000Y-116175000D03*
%TD*%
%TO.P,J8,1,Pin_1*%
%TO.N,IO1*%
X102650000Y-118475000D03*
%TD*%
%TO.P,J7,1,Pin_1*%
%TO.N,IO0*%
X101375000Y-120125000D03*
%TD*%
%TO.P,J6,1,Pin_1*%
%TO.N,IO3*%
X99125000Y-121275000D03*
%TD*%
%TO.P,J5,1,Pin_1*%
%TO.N,IO2*%
X94800000Y-119075000D03*
%TD*%
D11*
%TO.P,SW1,1,1*%
%TO.N,GND*%
X94825000Y-141180000D03*
%TO.P,SW1,2,2*%
%TO.N,RESET*%
X94825000Y-136820000D03*
%TD*%
D10*
%TO.P,J2,1,Pin_1*%
%TO.N,TXD0*%
X95725000Y-103350000D03*
%TD*%
D12*
%TO.P,IC1,1,VDD*%
%TO.N,+3V3*%
X85725000Y-92800000D03*
%TO.P,IC1,2,GND*%
%TO.N,GND*%
X88265000Y-92800000D03*
%TO.P,IC1,3,TX/_SCL*%
%TO.N,SCL*%
X90805000Y-92800000D03*
%TO.P,IC1,4,RX/_SDA*%
%TO.N,SDA*%
X93345000Y-92800000D03*
%TO.P,IC1,5,RDY*%
%TO.N,unconnected-(IC1-RDY-Pad5)*%
X95885000Y-92800000D03*
%TO.P,IC1,6,PWM*%
%TO.N,unconnected-(IC1-PWM-Pad6)*%
X98425000Y-92800000D03*
%TO.P,IC1,7,SEL*%
%TO.N,unconnected-(IC1-SEL-Pad7)*%
X100965000Y-92800000D03*
%TD*%
D13*
%TO.P,C4,1*%
%TO.N,+3V3*%
X94950000Y-124150000D03*
%TO.P,C4,2*%
%TO.N,GND*%
X96850000Y-124150000D03*
%TD*%
%TO.P,C3,1*%
%TO.N,+3V3*%
X94950000Y-121450000D03*
%TO.P,C3,2*%
%TO.N,GND*%
X96850000Y-121450000D03*
%TD*%
D14*
%TO.P,J1,1,1*%
%TO.N,P2.5_TX*%
X105510000Y-81925000D03*
%TO.P,J1,2,2*%
%TO.N,P2.5_RX*%
X105510000Y-83425000D03*
%TO.P,J1,3,3*%
%TO.N,+5V*%
X105510000Y-84925000D03*
%TO.P,J1,4,4*%
%TO.N,GND*%
X105510000Y-86425000D03*
D15*
%TO.P,J1,5,5*%
%TO.N,unconnected-(J1-Pad5)*%
X107750000Y-79675000D03*
%TO.P,J1,6,6*%
%TO.N,unconnected-(J1-Pad6)*%
X107750000Y-88675000D03*
%TD*%
D16*
%TO.P,R2,1*%
%TO.N,+3V3*%
X112425000Y-80000000D03*
%TO.P,R2,2*%
%TO.N,LIGHT*%
X112425000Y-81650000D03*
%TD*%
D17*
%TO.P,U4,1,VIN*%
%TO.N,+5V*%
X101400000Y-135350000D03*
%TO.P,U4,2,GND*%
%TO.N,GND*%
X102350000Y-135350000D03*
%TO.P,U4,3,EN*%
%TO.N,Net-(U4-EN)*%
X103300000Y-135350000D03*
%TO.P,U4,4,NC*%
%TO.N,unconnected-(U4-NC-Pad4)*%
X103300000Y-133050000D03*
%TO.P,U4,5,VOUT*%
%TO.N,+3V3*%
X101400000Y-133050000D03*
%TD*%
D18*
%TO.P,R5,1*%
%TO.N,CC2*%
X104600000Y-144575000D03*
%TO.P,R5,2*%
%TO.N,GND*%
X104600000Y-142925000D03*
%TD*%
%TO.P,R1,1*%
%TO.N,CC1*%
X99800000Y-144575000D03*
%TO.P,R1,2*%
%TO.N,GND*%
X99800000Y-142925000D03*
%TD*%
D19*
%TO.P,R11,1*%
%TO.N,+3V3*%
X97100000Y-133100000D03*
%TO.P,R11,2*%
%TO.N,RESET*%
X95450000Y-133100000D03*
%TD*%
%TO.P,R15,1*%
%TO.N,+5V*%
X109025000Y-127275000D03*
%TO.P,R15,2*%
%TO.N,Net-(LED1-DI)*%
X107375000Y-127275000D03*
%TD*%
D16*
%TO.P,R12,1*%
%TO.N,SCL*%
X90450000Y-99650000D03*
%TO.P,R12,2*%
%TO.N,+3V3*%
X90450000Y-101300000D03*
%TD*%
D20*
%TO.P,Q3,1,G*%
%TO.N,+3V3*%
X105300000Y-122725000D03*
%TO.P,Q3,2,S*%
%TO.N,LED_DATA*%
X105300000Y-124625000D03*
%TO.P,Q3,3,D*%
%TO.N,Net-(LED1-DI)*%
X107300000Y-123675000D03*
%TD*%
D19*
%TO.P,R10,1*%
%TO.N,+3V3*%
X105925000Y-111675000D03*
%TO.P,R10,2*%
%TO.N,RX2*%
X104275000Y-111675000D03*
%TD*%
D13*
%TO.P,C5,1*%
%TO.N,RESET*%
X95325000Y-130625000D03*
%TO.P,C5,2*%
%TO.N,GND*%
X97225000Y-130625000D03*
%TD*%
D21*
%TO.P,R9,1*%
%TO.N,P2.5_TX*%
X99275000Y-80800000D03*
%TO.P,R9,2*%
%TO.N,+5V*%
X100925000Y-80800000D03*
%TD*%
D22*
%TO.P,Q2,1,S1*%
%TO.N,TX2*%
X96875000Y-84950000D03*
%TO.P,Q2,2,G1*%
%TO.N,+3V3*%
X97525000Y-84950000D03*
%TO.P,Q2,3,D2*%
%TO.N,P2.5_RX*%
X98175000Y-84950000D03*
%TO.P,Q2,4,S2*%
%TO.N,P2.5_TX*%
X98175000Y-83050000D03*
%TO.P,Q2,5,G2*%
%TO.N,+3V3*%
X97525000Y-83050000D03*
%TO.P,Q2,6,D1*%
%TO.N,RX2*%
X96875000Y-83050000D03*
%TD*%
D21*
%TO.P,R8,1*%
%TO.N,P2.5_RX*%
X97875000Y-86975000D03*
%TO.P,R8,2*%
%TO.N,+5V*%
X99525000Y-86975000D03*
%TD*%
%TO.P,R3,1*%
%TO.N,FAN*%
X106025000Y-103275000D03*
%TO.P,R3,2*%
%TO.N,Net-(Q1-G)*%
X107675000Y-103275000D03*
%TD*%
D23*
%TO.P,U2,1,K*%
%TO.N,+5V*%
X102325000Y-138275000D03*
%TO.P,U2,2,A*%
%TO.N,5VIN*%
X102325000Y-141675000D03*
%TD*%
D19*
%TO.P,R7,1*%
%TO.N,+3V3*%
X105925000Y-109750000D03*
%TO.P,R7,2*%
%TO.N,TX2*%
X104275000Y-109750000D03*
%TD*%
D16*
%TO.P,R13,1*%
%TO.N,SDA*%
X93450000Y-99650000D03*
%TO.P,R13,2*%
%TO.N,+3V3*%
X93450000Y-101300000D03*
%TD*%
%TO.P,R16,1*%
%TO.N,+3V3*%
X109600000Y-132275000D03*
%TO.P,R16,2*%
%TO.N,BOOT*%
X109600000Y-133925000D03*
%TD*%
%TO.P,R4,1*%
%TO.N,Net-(Q1-G)*%
X107650000Y-105075000D03*
%TO.P,R4,2*%
%TO.N,GND*%
X107650000Y-106725000D03*
%TD*%
D21*
%TO.P,R14,1*%
%TO.N,+3V3*%
X103025000Y-127300000D03*
%TO.P,R14,2*%
%TO.N,LED_DATA*%
X104675000Y-127300000D03*
%TD*%
D24*
%TO.P,C2,1*%
%TO.N,+5V*%
X93575000Y-84550000D03*
%TO.P,C2,2*%
%TO.N,GND*%
X93575000Y-86450000D03*
%TD*%
D18*
%TO.P,R6,1*%
%TO.N,+5V*%
X105350000Y-137775000D03*
%TO.P,R6,2*%
%TO.N,Net-(U4-EN)*%
X105350000Y-136125000D03*
%TD*%
D25*
%TO.P,FAN1,1,1*%
%TO.N,+5V*%
X117000000Y-102200000D03*
%TO.P,FAN1,2,2*%
%TO.N,Net-(Q1-D)*%
X115740000Y-102200000D03*
D26*
%TO.P,FAN1,3,3*%
%TO.N,unconnected-(FAN1-Pad3)*%
X113200000Y-99300000D03*
%TO.P,FAN1,4,4*%
%TO.N,unconnected-(FAN1-Pad4)*%
X119550000Y-99300000D03*
%TD*%
D27*
%TO.P,USB1,B12,GND*%
%TO.N,GND*%
X99625000Y-150925000D03*
D28*
%TO.P,USB1,B9,VBUS*%
%TO.N,5VIN*%
X101125000Y-150925000D03*
%TO.P,USB1,B8,SBU2*%
%TO.N,unconnected-(USB1-SBU2-PadB8)*%
X101625000Y-150925000D03*
%TO.P,USB1,B7,D-*%
%TO.N,D-*%
X102125000Y-150925000D03*
%TO.P,USB1,B6,D+*%
%TO.N,D+*%
X102625000Y-150925000D03*
%TO.P,USB1,B5,CC2*%
%TO.N,CC2*%
X103125000Y-150925000D03*
%TO.P,USB1,B4,VBUS*%
%TO.N,5VIN*%
X103625000Y-150925000D03*
D27*
%TO.P,USB1,B1,GND*%
%TO.N,GND*%
X105125000Y-150925000D03*
%TO.P,USB1,A12,GND*%
X105125000Y-149125000D03*
D28*
%TO.P,USB1,A9,VBUS*%
%TO.N,5VIN*%
X103625000Y-149125000D03*
%TO.P,USB1,A8,SBU1*%
%TO.N,unconnected-(USB1-SBU1-PadA8)*%
X103125000Y-149125000D03*
%TO.P,USB1,A7,D-*%
%TO.N,D-*%
X102625000Y-149125000D03*
%TO.P,USB1,A6,D+*%
%TO.N,D+*%
X102125000Y-149125000D03*
%TO.P,USB1,A5,CC1*%
%TO.N,CC1*%
X101625000Y-149125000D03*
%TO.P,USB1,A4,VBUS*%
%TO.N,5VIN*%
X101125000Y-149125000D03*
D27*
%TO.P,USB1,A1,GND*%
%TO.N,GND*%
X99625000Y-149125000D03*
D29*
%TO.P,USB1,17,EH*%
%TO.N,unconnected-(USB1-EH-Pad17)*%
X104775000Y-152175000D03*
X104775000Y-147875000D03*
X99975000Y-152175000D03*
X99975000Y-147875000D03*
D30*
%TO.P,USB1,*%
%TO.N,*%
X106125000Y-150025000D03*
X98625000Y-150025000D03*
%TD*%
D20*
%TO.P,Q1,1,G*%
%TO.N,Net-(Q1-G)*%
X109900000Y-103275000D03*
%TO.P,Q1,2,S*%
%TO.N,GND*%
X109900000Y-105175000D03*
%TO.P,Q1,3,D*%
%TO.N,Net-(Q1-D)*%
X111900000Y-104225000D03*
%TD*%
D10*
%TO.P,J3,1,Pin_1*%
%TO.N,RXD0*%
X97725000Y-103350000D03*
%TD*%
D31*
%TO.P,U3,1,C*%
%TO.N,+5V*%
X117490000Y-105775000D03*
%TO.P,U3,2,A*%
%TO.N,Net-(Q1-D)*%
X115210000Y-105775000D03*
%TD*%
D11*
%TO.P,SW2,1,1*%
%TO.N,GND*%
X109825000Y-141180000D03*
%TO.P,SW2,2,2*%
%TO.N,BOOT*%
X109825000Y-136820000D03*
%TD*%
D10*
%TO.P,J4,1,Pin_1*%
%TO.N,GND*%
X93725000Y-103350000D03*
%TD*%
D32*
%TO.P,C1,1,1*%
%TO.N,+5V*%
X88400000Y-82725000D03*
%TO.P,C1,2,2*%
%TO.N,GND*%
X88400000Y-88065000D03*
%TD*%
D33*
%TO.P,U6,1,GND*%
%TO.N,GND*%
X91965000Y-117350000D03*
%TO.P,U6,2,GND*%
X92775000Y-117350000D03*
%TO.P,U6,3,3V3*%
%TO.N,+3V3*%
X93575000Y-117350000D03*
%TO.P,U6,4,NC*%
%TO.N,unconnected-(U6-NC-Pad4)*%
X94365000Y-117350000D03*
%TO.P,U6,5,IO2*%
%TO.N,IO2*%
X95175000Y-117350000D03*
%TO.P,U6,6,IO3*%
%TO.N,IO3*%
X95965000Y-117350000D03*
%TO.P,U6,7,NC*%
%TO.N,unconnected-(U6-NC-Pad7)*%
X96765000Y-117350000D03*
%TO.P,U6,8,EN*%
%TO.N,RESET*%
X97575000Y-117350000D03*
%TO.P,U6,9,IO4*%
%TO.N,LIGHT*%
X98365000Y-117350000D03*
%TO.P,U6,10,IO5*%
%TO.N,LED_DATA*%
X99175000Y-117350000D03*
%TO.P,U6,11,GND*%
%TO.N,GND*%
X99975000Y-117350000D03*
D34*
%TO.P,U6,12,IO0*%
%TO.N,IO0*%
X100845000Y-116250000D03*
%TO.P,U6,13,IO1*%
%TO.N,IO1*%
X100845000Y-115450000D03*
%TO.P,U6,14,GND*%
%TO.N,GND*%
X100845000Y-114650000D03*
%TO.P,U6,15,IO6*%
%TO.N,IO6*%
X100845000Y-113850000D03*
%TO.P,U6,16,IO7*%
%TO.N,IO7*%
X100845000Y-113050000D03*
%TO.P,U6,17,IO12*%
%TO.N,D-*%
X100845000Y-112250000D03*
%TO.P,U6,18,IO13*%
%TO.N,D+*%
X100845000Y-111450000D03*
%TO.P,U6,19,IO14*%
%TO.N,RX2*%
X100845000Y-110650000D03*
%TO.P,U6,20,IO15*%
%TO.N,TX2*%
X100845000Y-109850000D03*
%TO.P,U6,21,NC*%
%TO.N,unconnected-(U6-NC-Pad21)*%
X100845000Y-109050000D03*
%TO.P,U6,22,IO8*%
%TO.N,IO8*%
X100845000Y-108250000D03*
%TO.P,U6,23,IO9*%
%TO.N,BOOT*%
X100845000Y-107450000D03*
%TO.P,U6,24,IO18*%
%TO.N,SCL*%
X100845000Y-106650000D03*
D33*
%TO.P,U6,25,IO19*%
%TO.N,SDA*%
X99975000Y-105550000D03*
%TO.P,U6,26,IO20*%
%TO.N,FAN*%
X99175000Y-105550000D03*
%TO.P,U6,27,IO21*%
%TO.N,IO21*%
X98365000Y-105550000D03*
%TO.P,U6,28,IO22*%
%TO.N,IO22*%
X97575000Y-105550000D03*
%TO.P,U6,29,IO23*%
%TO.N,IO23*%
X96765000Y-105550000D03*
%TO.P,U6,30,RXD0*%
%TO.N,RXD0*%
X95975000Y-105550000D03*
%TO.P,U6,31,TXD0*%
%TO.N,TXD0*%
X95175000Y-105550000D03*
%TO.P,U6,32,NC*%
%TO.N,unconnected-(U6-NC-Pad32)*%
X94365000Y-105550000D03*
%TO.P,U6,33,NC*%
%TO.N,unconnected-(U6-NC-Pad33)*%
X93575000Y-105550000D03*
%TO.P,U6,34,NC*%
%TO.N,unconnected-(U6-NC-Pad34)*%
X92775000Y-105550000D03*
%TO.P,U6,35,NC*%
%TO.N,unconnected-(U6-NC-Pad35)*%
X91965000Y-105550000D03*
D34*
%TO.P,U6,36,GND*%
%TO.N,GND*%
X91045000Y-106650000D03*
%TO.P,U6,37,GND*%
X91045000Y-107450000D03*
%TO.P,U6,38,GND*%
X91045000Y-108250000D03*
%TO.P,U6,39,GND*%
X91045000Y-109050000D03*
%TO.P,U6,40,GND*%
X91045000Y-109850000D03*
%TO.P,U6,41,GND*%
X91045000Y-110650000D03*
%TO.P,U6,42,GND*%
X91045000Y-111450000D03*
%TO.P,U6,43,GND*%
X91045000Y-112250000D03*
%TO.P,U6,44,GND*%
X91045000Y-113050000D03*
%TO.P,U6,45,GND*%
X91045000Y-113850000D03*
%TO.P,U6,46,GND*%
X91045000Y-114650000D03*
%TO.P,U6,47,GND*%
X91045000Y-115450000D03*
%TO.P,U6,48,GND*%
X91045000Y-116250000D03*
D35*
%TO.P,U6,49,GND*%
X94095000Y-113230000D03*
X95895000Y-113230000D03*
X97695000Y-113230000D03*
X94095000Y-111430000D03*
X95895000Y-111430000D03*
X97695000Y-111430000D03*
X94095000Y-109630000D03*
X95895000Y-109630000D03*
X97695000Y-109630000D03*
D36*
%TO.P,U6,50,GND*%
X90995000Y-105500000D03*
%TO.P,U6,51,GND*%
X100895000Y-105500000D03*
%TO.P,U6,52,GND*%
X100895000Y-117400000D03*
%TO.P,U6,53,GND*%
X90995000Y-117400000D03*
%TD*%
D37*
%TO.N,IO3*%
X98300000Y-120425000D03*
X96050000Y-118400000D03*
%TO.N,GND*%
X102825000Y-120350000D03*
X92225000Y-103850000D03*
X99425000Y-115750000D03*
X102325000Y-105850000D03*
X109025000Y-107550000D03*
X97925000Y-142550000D03*
X97325000Y-119750000D03*
X104375000Y-115775000D03*
X107575000Y-140575000D03*
X92625000Y-118750000D03*
X90825000Y-119050000D03*
X104525000Y-108550000D03*
X91025000Y-103850000D03*
%TO.N,+3V3*%
X93525000Y-124150000D03*
X98825000Y-124150000D03*
X105925000Y-108650000D03*
X105925000Y-106350000D03*
X104025000Y-129450000D03*
X95425000Y-82950000D03*
X90625000Y-84250000D03*
X109225000Y-131050000D03*
%TO.N,SDA*%
X98325000Y-99750000D03*
X100025000Y-103750000D03*
%TO.N,SCL*%
X99125000Y-106750000D03*
X96425000Y-100350000D03*
%TO.N,+5V*%
X100225000Y-89750000D03*
X112125000Y-114750000D03*
X110225000Y-127350000D03*
X100625000Y-135650000D03*
X102525000Y-81250000D03*
%TO.N,Net-(LED1-DI)*%
X107225000Y-121450000D03*
X104625000Y-119450000D03*
%TO.N,TX2*%
X96125000Y-87150000D03*
X99625000Y-109850000D03*
%TO.N,RX2*%
X99225000Y-108250000D03*
X96425000Y-81950000D03*
%TO.N,LED_DATA*%
X99325000Y-118850000D03*
X103725000Y-125350000D03*
%TO.N,LIGHT*%
X97925000Y-118950000D03*
X110525000Y-81750000D03*
D38*
%TO.N,CC2*%
X104525000Y-145850000D03*
X103125000Y-149950000D03*
D37*
%TO.N,D+*%
X98800000Y-134750000D03*
X102525000Y-111450000D03*
%TO.N,D-*%
X105991325Y-113630312D03*
D38*
X101625000Y-149950000D03*
X102625000Y-147950000D03*
D37*
X99650000Y-134750000D03*
%TO.N,5VIN*%
X102325000Y-144150000D03*
X100225000Y-146250000D03*
%TD*%
D39*
%TO.N,IO8*%
X100845000Y-108250000D02*
X102100000Y-108250000D01*
X102100000Y-108250000D02*
X102475000Y-108625000D01*
%TO.N,IO0*%
X101375000Y-119125000D02*
X101375000Y-120125000D01*
X101575000Y-118925000D02*
X101375000Y-119125000D01*
X101800000Y-118025000D02*
X101575000Y-118250000D01*
X101800000Y-117450000D02*
X101800000Y-118025000D01*
X101550000Y-117200000D02*
X101800000Y-117450000D01*
X101550000Y-116600000D02*
X101550000Y-117200000D01*
X101200000Y-116250000D02*
X101550000Y-116600000D01*
X101575000Y-118250000D02*
X101575000Y-118925000D01*
X100845000Y-116250000D02*
X101200000Y-116250000D01*
%TO.N,IO1*%
X102650000Y-117575000D02*
X102650000Y-118475000D01*
X102500000Y-117425000D02*
X102650000Y-117575000D01*
X102375000Y-117425000D02*
X102500000Y-117425000D01*
X102000000Y-116005000D02*
X102000000Y-117050000D01*
X102000000Y-117050000D02*
X102375000Y-117425000D01*
X101445000Y-115450000D02*
X102000000Y-116005000D01*
X100845000Y-115450000D02*
X101445000Y-115450000D01*
%TO.N,IO6*%
X101800000Y-114405000D02*
X101800000Y-115125000D01*
X101245000Y-113850000D02*
X101800000Y-114405000D01*
X100845000Y-113850000D02*
X101245000Y-113850000D01*
X101800000Y-115125000D02*
X102850000Y-116175000D01*
%TO.N,IO3*%
X99125000Y-121250000D02*
X98300000Y-120425000D01*
X99125000Y-121275000D02*
X99125000Y-121250000D01*
X95965000Y-118315000D02*
X96050000Y-118400000D01*
X95965000Y-117350000D02*
X95965000Y-118315000D01*
%TO.N,IO7*%
X101900000Y-113050000D02*
X102900000Y-114050000D01*
X100845000Y-113050000D02*
X101900000Y-113050000D01*
%TO.N,IO2*%
X95175000Y-118700000D02*
X94800000Y-119075000D01*
X95175000Y-117350000D02*
X95175000Y-118700000D01*
%TO.N,GND*%
X99425000Y-114950000D02*
X99425000Y-115750000D01*
X99975000Y-117350000D02*
X100845000Y-117350000D01*
X100845000Y-114650000D02*
X99725000Y-114650000D01*
X100845000Y-117350000D02*
X100895000Y-117400000D01*
X99725000Y-114650000D02*
X99425000Y-114950000D01*
%TO.N,+3V3*%
X111050000Y-78625000D02*
X100150000Y-78625000D01*
X94950000Y-121450000D02*
X93575000Y-120075000D01*
X97525000Y-81250000D02*
X97525000Y-83050000D01*
X97525000Y-84950000D02*
X97525000Y-84050000D01*
X102825000Y-124550000D02*
X104650000Y-122725000D01*
X86225000Y-85750000D02*
X89125000Y-85750000D01*
X99225000Y-124550000D02*
X102150000Y-124550000D01*
X90450000Y-101300000D02*
X93450000Y-101300000D01*
X104650000Y-122725000D02*
X105300000Y-122725000D01*
X90450000Y-101300000D02*
X87875000Y-101300000D01*
X107925000Y-113450000D02*
X107925000Y-112950000D01*
X100150000Y-78625000D02*
X97525000Y-81250000D01*
X94950000Y-124150000D02*
X94950000Y-121450000D01*
X107550000Y-111675000D02*
X105925000Y-111675000D01*
X112425000Y-80000000D02*
X111050000Y-78625000D01*
X109600000Y-132275000D02*
X109600000Y-131425000D01*
X105925000Y-109750000D02*
X105925000Y-111675000D01*
X104025000Y-129450000D02*
X103325000Y-128750000D01*
X109600000Y-131425000D02*
X109225000Y-131050000D01*
X105300000Y-122725000D02*
X105300000Y-122025000D01*
X102150000Y-125575000D02*
X102150000Y-124550000D01*
X101350000Y-133100000D02*
X101400000Y-133050000D01*
X93575000Y-120075000D02*
X93575000Y-117350000D01*
X96525000Y-84050000D02*
X97525000Y-84050000D01*
X103925000Y-117450000D02*
X107925000Y-113450000D01*
X85725000Y-99150000D02*
X87125000Y-100550000D01*
X103025000Y-126450000D02*
X102150000Y-125575000D01*
X87875000Y-101300000D02*
X87125000Y-100550000D01*
X101400000Y-133050000D02*
X101400000Y-130375000D01*
X103025000Y-128750000D02*
X103025000Y-127300000D01*
X103025000Y-127300000D02*
X103025000Y-126450000D01*
X107925000Y-112950000D02*
X107925000Y-112050000D01*
X95425000Y-82950000D02*
X96525000Y-84050000D01*
X85725000Y-86250000D02*
X86225000Y-85750000D01*
X100875000Y-101300000D02*
X105925000Y-106350000D01*
X101400000Y-130375000D02*
X103025000Y-128750000D01*
X93450000Y-101300000D02*
X100875000Y-101300000D01*
X102150000Y-124550000D02*
X102825000Y-124550000D01*
X85725000Y-92800000D02*
X85725000Y-99150000D01*
X105300000Y-122025000D02*
X103925000Y-120650000D01*
X94950000Y-124150000D02*
X93525000Y-124150000D01*
X97525000Y-84050000D02*
X97525000Y-83050000D01*
X103325000Y-128750000D02*
X103025000Y-128750000D01*
X107925000Y-112050000D02*
X107550000Y-111675000D01*
X103925000Y-120650000D02*
X103925000Y-117450000D01*
X89125000Y-85750000D02*
X90625000Y-84250000D01*
X97100000Y-133100000D02*
X101350000Y-133100000D01*
X85725000Y-92800000D02*
X85725000Y-86250000D01*
X105925000Y-108650000D02*
X105925000Y-109750000D01*
X98825000Y-124150000D02*
X99225000Y-124550000D01*
%TO.N,RESET*%
X95824938Y-130125062D02*
X95824938Y-119550062D01*
X94825000Y-136820000D02*
X94825000Y-135250000D01*
X95325000Y-130625000D02*
X95325000Y-132975000D01*
X94825000Y-135250000D02*
X95450000Y-134625000D01*
X95325000Y-132975000D02*
X95450000Y-133100000D01*
X97575000Y-117800000D02*
X97575000Y-117350000D01*
X95325000Y-130625000D02*
X95824938Y-130125062D01*
X95824938Y-119550062D02*
X97575000Y-117800000D01*
X95450000Y-134625000D02*
X95450000Y-133100000D01*
%TO.N,SDA*%
X93450000Y-99650000D02*
X93450000Y-92905000D01*
X93450000Y-92905000D02*
X93345000Y-92800000D01*
X100025000Y-103750000D02*
X100025000Y-105500000D01*
X98225000Y-99650000D02*
X98325000Y-99750000D01*
X93450000Y-99650000D02*
X98225000Y-99650000D01*
X100025000Y-105500000D02*
X99975000Y-105550000D01*
%TO.N,SCL*%
X99125000Y-106750000D02*
X100745000Y-106750000D01*
X90450000Y-99650000D02*
X90450000Y-95125000D01*
X90450000Y-95125000D02*
X90805000Y-94770000D01*
X90450000Y-99650000D02*
X91150000Y-100350000D01*
X90805000Y-94770000D02*
X90805000Y-92800000D01*
X91150000Y-100350000D02*
X96425000Y-100350000D01*
X100745000Y-106750000D02*
X100845000Y-106650000D01*
%TO.N,Net-(Q1-D)*%
X115210000Y-105775000D02*
X115210000Y-105035000D01*
X114400000Y-104225000D02*
X113525000Y-104225000D01*
X115740000Y-102200000D02*
X114675000Y-102200000D01*
X113525000Y-103350000D02*
X113525000Y-104225000D01*
X113525000Y-104225000D02*
X111900000Y-104225000D01*
X115210000Y-105035000D02*
X114400000Y-104225000D01*
X114675000Y-102200000D02*
X113525000Y-103350000D01*
%TO.N,+5V*%
X98725000Y-89750000D02*
X99525000Y-88950000D01*
X105350000Y-137775000D02*
X103500000Y-137775000D01*
X100225000Y-89750000D02*
X100225000Y-88550000D01*
X100925000Y-135350000D02*
X100625000Y-135650000D01*
X93575000Y-83300000D02*
X93575000Y-84550000D01*
X99525000Y-88450000D02*
X99525000Y-86975000D01*
X99525000Y-86975000D02*
X101575000Y-84925000D01*
X99525000Y-88950000D02*
X99525000Y-88450000D01*
X109100000Y-127350000D02*
X109025000Y-127275000D01*
X102075000Y-80800000D02*
X102525000Y-81250000D01*
X117000000Y-104025000D02*
X117000000Y-102200000D01*
X92525000Y-89750000D02*
X98725000Y-89750000D01*
X101400000Y-138025000D02*
X101400000Y-135350000D01*
X103000000Y-138275000D02*
X102325000Y-138275000D01*
X100225000Y-88550000D02*
X100125000Y-88450000D01*
X101400000Y-135350000D02*
X100925000Y-135350000D01*
X101650000Y-138275000D02*
X101400000Y-138025000D01*
X100925000Y-80800000D02*
X102075000Y-80800000D01*
X100125000Y-88450000D02*
X99525000Y-88450000D01*
X93575000Y-84550000D02*
X92125000Y-84550000D01*
X110225000Y-127350000D02*
X109100000Y-127350000D01*
X101575000Y-84925000D02*
X105510000Y-84925000D01*
X117490000Y-105775000D02*
X117490000Y-104515000D01*
X91125000Y-85550000D02*
X91125000Y-88350000D01*
X102325000Y-138275000D02*
X101650000Y-138275000D01*
X88400000Y-82725000D02*
X93000000Y-82725000D01*
X117490000Y-109385000D02*
X112125000Y-114750000D01*
X103500000Y-137775000D02*
X103000000Y-138275000D01*
X117490000Y-105775000D02*
X117490000Y-109385000D01*
X93000000Y-82725000D02*
X93575000Y-83300000D01*
X92125000Y-84550000D02*
X91125000Y-85550000D01*
X91125000Y-88350000D02*
X92525000Y-89750000D01*
X117490000Y-104515000D02*
X117000000Y-104025000D01*
%TO.N,P2.5_TX*%
X98175000Y-83050000D02*
X98175000Y-81900000D01*
X103625000Y-79150000D02*
X100225000Y-79150000D01*
X100225000Y-79150000D02*
X99275000Y-80100000D01*
X98175000Y-81900000D02*
X99275000Y-80800000D01*
X105510000Y-81035000D02*
X103625000Y-79150000D01*
X105510000Y-81925000D02*
X105510000Y-81035000D01*
X99275000Y-80100000D02*
X99275000Y-80800000D01*
%TO.N,P2.5_RX*%
X98175000Y-86675000D02*
X98175000Y-84950000D01*
X99725000Y-84950000D02*
X98175000Y-84950000D01*
X97875000Y-86975000D02*
X98175000Y-86675000D01*
X105510000Y-83425000D02*
X101250000Y-83425000D01*
X101250000Y-83425000D02*
X99725000Y-84950000D01*
%TO.N,Net-(LED1-DI)*%
X107375000Y-127275000D02*
X107375000Y-123750000D01*
X107300000Y-123675000D02*
X107300000Y-121525000D01*
X107300000Y-121525000D02*
X107225000Y-121450000D01*
X105225000Y-119450000D02*
X104625000Y-119450000D01*
X107225000Y-121450000D02*
X105225000Y-119450000D01*
X107375000Y-123750000D02*
X107300000Y-123675000D01*
%TO.N,Net-(Q1-G)*%
X109900000Y-103275000D02*
X107675000Y-103275000D01*
X107650000Y-103300000D02*
X107675000Y-103275000D01*
X107650000Y-105075000D02*
X107650000Y-103300000D01*
%TO.N,TX2*%
X99625000Y-109850000D02*
X100845000Y-109850000D01*
X104275000Y-109750000D02*
X100945000Y-109750000D01*
X96875000Y-86400000D02*
X96125000Y-87150000D01*
X100945000Y-109750000D02*
X100845000Y-109850000D01*
X96875000Y-84950000D02*
X96875000Y-86400000D01*
%TO.N,RX2*%
X103225000Y-110650000D02*
X100845000Y-110650000D01*
X104250000Y-111675000D02*
X103225000Y-110650000D01*
X96875000Y-82400000D02*
X96425000Y-81950000D01*
X104275000Y-111675000D02*
X104250000Y-111675000D01*
X99025000Y-110450000D02*
X99225000Y-110650000D01*
X99225000Y-108250000D02*
X99025000Y-108450000D01*
X99225000Y-110650000D02*
X100845000Y-110650000D01*
X96875000Y-83050000D02*
X96875000Y-82400000D01*
X99025000Y-108450000D02*
X99025000Y-110450000D01*
%TO.N,LED_DATA*%
X104675000Y-126400000D02*
X105300000Y-125775000D01*
X99325000Y-118850000D02*
X99325000Y-118150000D01*
X99325000Y-118150000D02*
X99175000Y-118000000D01*
X99175000Y-118000000D02*
X99175000Y-117350000D01*
X104450000Y-124625000D02*
X103725000Y-125350000D01*
X105300000Y-125775000D02*
X105300000Y-124625000D01*
X105300000Y-124625000D02*
X104450000Y-124625000D01*
X104675000Y-127300000D02*
X104675000Y-126400000D01*
%TO.N,CC1*%
X101625000Y-149125000D02*
X101625000Y-146400000D01*
X101625000Y-146400000D02*
X99800000Y-144575000D01*
%TO.N,LIGHT*%
X98365000Y-117350000D02*
X98365000Y-118510000D01*
X110625000Y-81650000D02*
X110525000Y-81750000D01*
X112425000Y-81650000D02*
X110625000Y-81650000D01*
X98365000Y-118510000D02*
X97925000Y-118950000D01*
%TO.N,FAN*%
X106725000Y-106950000D02*
X106725000Y-104950000D01*
X106425000Y-107250000D02*
X106725000Y-106950000D01*
X99175000Y-102900000D02*
X99425000Y-102650000D01*
X101325000Y-102650000D02*
X105925000Y-107250000D01*
X99425000Y-102650000D02*
X101325000Y-102650000D01*
X106025000Y-104250000D02*
X106025000Y-103275000D01*
X99175000Y-105550000D02*
X99175000Y-102900000D01*
X105925000Y-107250000D02*
X106425000Y-107250000D01*
X106725000Y-104950000D02*
X106025000Y-104250000D01*
%TO.N,CC2*%
X104525000Y-145850000D02*
X104525000Y-144650000D01*
X104525000Y-144650000D02*
X104600000Y-144575000D01*
X103125000Y-150925000D02*
X103125000Y-149950000D01*
%TO.N,Net-(U4-EN)*%
X103300000Y-135350000D02*
X105125000Y-135350000D01*
X105350000Y-135575000D02*
X105350000Y-136125000D01*
X105125000Y-135350000D02*
X105350000Y-135575000D01*
%TO.N,RXD0*%
X95975000Y-104300000D02*
X95975000Y-105550000D01*
X97725000Y-103350000D02*
X96925000Y-103350000D01*
X96925000Y-103350000D02*
X95975000Y-104300000D01*
%TO.N,TXD0*%
X95175000Y-105550000D02*
X95175000Y-103900000D01*
X95175000Y-103900000D02*
X95725000Y-103350000D01*
%TO.N,D+*%
X102125000Y-149125000D02*
X102125000Y-147742893D01*
X102525000Y-111450000D02*
X100845000Y-111450000D01*
X98999999Y-134949999D02*
X98800000Y-134750000D01*
X102625000Y-150275000D02*
X102125000Y-149775000D01*
X102625000Y-150925000D02*
X102625000Y-150275000D01*
X102150000Y-146077054D02*
X101100020Y-145027074D01*
X102150000Y-147717893D02*
X102150000Y-146077054D01*
X102125000Y-147742893D02*
X102150000Y-147717893D01*
X101100020Y-142243220D02*
X98999999Y-140143199D01*
X101100020Y-145027074D02*
X101100020Y-142243220D01*
X102125000Y-149775000D02*
X102125000Y-149125000D01*
X98999999Y-140143199D02*
X98999999Y-134949999D01*
%TO.N,D-*%
X102625000Y-149125000D02*
X102625000Y-148449999D01*
X99450001Y-139956801D02*
X99450001Y-134949999D01*
X102025000Y-112250000D02*
X100845000Y-112250000D01*
X102625000Y-148449999D02*
X102600000Y-148424999D01*
X102325000Y-112550000D02*
X102025000Y-112250000D01*
X101734314Y-149950000D02*
X101625000Y-149950000D01*
X104911013Y-112550000D02*
X102325000Y-112550000D01*
X102600000Y-145890686D02*
X101550000Y-144840686D01*
X102175000Y-150875000D02*
X102175000Y-150390686D01*
X102600000Y-148424999D02*
X102600000Y-145890686D01*
X102625000Y-147950000D02*
X102625000Y-149125000D01*
X101550000Y-142056800D02*
X99450001Y-139956801D01*
X105991325Y-113630312D02*
X104911013Y-112550000D01*
X101550000Y-144840686D02*
X101550000Y-142056800D01*
X102125000Y-150925000D02*
X102175000Y-150875000D01*
X102175000Y-150390686D02*
X101734314Y-149950000D01*
X99450001Y-134949999D02*
X99650000Y-134750000D01*
%TO.N,BOOT*%
X109600000Y-136595000D02*
X109825000Y-136820000D01*
X109600000Y-133925000D02*
X109600000Y-136595000D01*
X103125000Y-107450000D02*
X100845000Y-107450000D01*
X110450000Y-133925000D02*
X111025000Y-133350000D01*
X111025000Y-133350000D02*
X111025000Y-111750000D01*
X111025000Y-111750000D02*
X107225000Y-107950000D01*
X103625000Y-107950000D02*
X103125000Y-107450000D01*
X107225000Y-107950000D02*
X103625000Y-107950000D01*
X109600000Y-133925000D02*
X110450000Y-133925000D01*
%TO.N,5VIN*%
X102325000Y-145050000D02*
X102325000Y-144150000D01*
X103625000Y-146350000D02*
X102325000Y-145050000D01*
X100525000Y-146250000D02*
X100225000Y-146250000D01*
X103625000Y-150925000D02*
X103625000Y-149125000D01*
X101125000Y-146950000D02*
X101125000Y-146850000D01*
X101125000Y-146850000D02*
X100525000Y-146250000D01*
X101125000Y-150925000D02*
X101125000Y-149125000D01*
X103625000Y-149125000D02*
X103625000Y-146350000D01*
X102325000Y-144150000D02*
X102325000Y-141675000D01*
X101125000Y-149125000D02*
X101125000Y-146950000D01*
%TD*%
%TA.AperFunction,Conductor*%
%TO.N,GND*%
G36*
X106567517Y-124519091D02*
G01*
X106627127Y-124525500D01*
X106650497Y-124525499D01*
X106717536Y-124545181D01*
X106763292Y-124597983D01*
X106774500Y-124649499D01*
X106774500Y-126358480D01*
X106754815Y-126425519D01*
X106738181Y-126446161D01*
X106619531Y-126564810D01*
X106619530Y-126564811D01*
X106531522Y-126710393D01*
X106480913Y-126872807D01*
X106474500Y-126943386D01*
X106474500Y-127606613D01*
X106480913Y-127677192D01*
X106531522Y-127839606D01*
X106619530Y-127985188D01*
X106739811Y-128105469D01*
X106739813Y-128105470D01*
X106739815Y-128105472D01*
X106885394Y-128193478D01*
X107047804Y-128244086D01*
X107118384Y-128250500D01*
X107118387Y-128250500D01*
X107631613Y-128250500D01*
X107631616Y-128250500D01*
X107702196Y-128244086D01*
X107864606Y-128193478D01*
X108010185Y-128105472D01*
X108058880Y-128056777D01*
X108112319Y-128003339D01*
X108173642Y-127969854D01*
X108243334Y-127974838D01*
X108287681Y-128003339D01*
X108389811Y-128105469D01*
X108389813Y-128105470D01*
X108389815Y-128105472D01*
X108535394Y-128193478D01*
X108697804Y-128244086D01*
X108768384Y-128250500D01*
X108768387Y-128250500D01*
X109281613Y-128250500D01*
X109281616Y-128250500D01*
X109352196Y-128244086D01*
X109514606Y-128193478D01*
X109660185Y-128105472D01*
X109691567Y-128074088D01*
X109752887Y-128040605D01*
X109822578Y-128045587D01*
X109845218Y-128056775D01*
X109872776Y-128074091D01*
X109875480Y-128075790D01*
X110045737Y-128135366D01*
X110045743Y-128135367D01*
X110045745Y-128135368D01*
X110045746Y-128135368D01*
X110045750Y-128135369D01*
X110224996Y-128155565D01*
X110225000Y-128155565D01*
X110225001Y-128155565D01*
X110233324Y-128154627D01*
X110286617Y-128148622D01*
X110355437Y-128160676D01*
X110406817Y-128208024D01*
X110424500Y-128271842D01*
X110424500Y-131240048D01*
X110404815Y-131307087D01*
X110352011Y-131352842D01*
X110282853Y-131362786D01*
X110219297Y-131333761D01*
X110181523Y-131274983D01*
X110180725Y-131272141D01*
X110159578Y-131193219D01*
X110159577Y-131193216D01*
X110159577Y-131193215D01*
X110122535Y-131129057D01*
X110080520Y-131056284D01*
X110055700Y-131031464D01*
X110022215Y-130970141D01*
X110020163Y-130957684D01*
X110010368Y-130870745D01*
X109950789Y-130700478D01*
X109854816Y-130547738D01*
X109727262Y-130420184D01*
X109684341Y-130393215D01*
X109574523Y-130324211D01*
X109404254Y-130264631D01*
X109404249Y-130264630D01*
X109225004Y-130244435D01*
X109224996Y-130244435D01*
X109045750Y-130264630D01*
X109045745Y-130264631D01*
X108875476Y-130324211D01*
X108722737Y-130420184D01*
X108595184Y-130547737D01*
X108499211Y-130700476D01*
X108439631Y-130870745D01*
X108439630Y-130870750D01*
X108419435Y-131049996D01*
X108419435Y-131050003D01*
X108439630Y-131229249D01*
X108439631Y-131229254D01*
X108499211Y-131399523D01*
X108595184Y-131552262D01*
X108668134Y-131625212D01*
X108701619Y-131686535D01*
X108696635Y-131756227D01*
X108686571Y-131777041D01*
X108681523Y-131785390D01*
X108630913Y-131947807D01*
X108625782Y-132004275D01*
X108624500Y-132018384D01*
X108624500Y-132531616D01*
X108626423Y-132552778D01*
X108630913Y-132602192D01*
X108681522Y-132764606D01*
X108769530Y-132910188D01*
X108871661Y-133012319D01*
X108905146Y-133073642D01*
X108900162Y-133143334D01*
X108871661Y-133187681D01*
X108769531Y-133289810D01*
X108769530Y-133289811D01*
X108681522Y-133435393D01*
X108630913Y-133597807D01*
X108624500Y-133668386D01*
X108624500Y-134181613D01*
X108630913Y-134252192D01*
X108630913Y-134252194D01*
X108630914Y-134252196D01*
X108681522Y-134414606D01*
X108760918Y-134545943D01*
X108769530Y-134560188D01*
X108889811Y-134680469D01*
X108889813Y-134680470D01*
X108889815Y-134680472D01*
X108939650Y-134710598D01*
X108986838Y-134762126D01*
X108999500Y-134816715D01*
X108999500Y-135638993D01*
X108979815Y-135706032D01*
X108927011Y-135751787D01*
X108918836Y-135755174D01*
X108902665Y-135761205D01*
X108787455Y-135847452D01*
X108787452Y-135847455D01*
X108701206Y-135962664D01*
X108701202Y-135962671D01*
X108650908Y-136097517D01*
X108644501Y-136157116D01*
X108644501Y-136157123D01*
X108644500Y-136157135D01*
X108644500Y-137482870D01*
X108644501Y-137482876D01*
X108650908Y-137542483D01*
X108701202Y-137677328D01*
X108701206Y-137677335D01*
X108787452Y-137792544D01*
X108787455Y-137792547D01*
X108902664Y-137878793D01*
X108902671Y-137878797D01*
X109037517Y-137929091D01*
X109037516Y-137929091D01*
X109044444Y-137929835D01*
X109097127Y-137935500D01*
X110552872Y-137935499D01*
X110612483Y-137929091D01*
X110747331Y-137878796D01*
X110862546Y-137792546D01*
X110948796Y-137677331D01*
X110999091Y-137542483D01*
X111005500Y-137482873D01*
X111005499Y-136157128D01*
X110999091Y-136097517D01*
X110990506Y-136074500D01*
X110948797Y-135962671D01*
X110948793Y-135962664D01*
X110862547Y-135847455D01*
X110862544Y-135847452D01*
X110747335Y-135761206D01*
X110747328Y-135761202D01*
X110612482Y-135710908D01*
X110612483Y-135710908D01*
X110552883Y-135704501D01*
X110552881Y-135704500D01*
X110552873Y-135704500D01*
X110552865Y-135704500D01*
X110324500Y-135704500D01*
X110257461Y-135684815D01*
X110211706Y-135632011D01*
X110200500Y-135580500D01*
X110200500Y-134816715D01*
X110220185Y-134749676D01*
X110260349Y-134710598D01*
X110310185Y-134680472D01*
X110428838Y-134561818D01*
X110490159Y-134528335D01*
X110516518Y-134525501D01*
X110529054Y-134525501D01*
X110529057Y-134525501D01*
X110681785Y-134484577D01*
X110731904Y-134455639D01*
X110818716Y-134405520D01*
X110930520Y-134293716D01*
X110930521Y-134293714D01*
X111505520Y-133718716D01*
X111584577Y-133581785D01*
X111584580Y-133581773D01*
X111585936Y-133578502D01*
X111587828Y-133576153D01*
X111588641Y-133574746D01*
X111588860Y-133574872D01*
X111629775Y-133524097D01*
X111696068Y-133502028D01*
X111763768Y-133519304D01*
X111811381Y-133570439D01*
X111824500Y-133625949D01*
X111824500Y-147825500D01*
X111804815Y-147892539D01*
X111752011Y-147938294D01*
X111700500Y-147949500D01*
X108959108Y-147949500D01*
X108831812Y-147983608D01*
X108717686Y-148049500D01*
X108717683Y-148049502D01*
X108624502Y-148142683D01*
X108624500Y-148142686D01*
X108558608Y-148256812D01*
X108524500Y-148384108D01*
X108524500Y-151125500D01*
X108504815Y-151192539D01*
X108452011Y-151238294D01*
X108400500Y-151249500D01*
X105924000Y-151249500D01*
X105856961Y-151229815D01*
X105811206Y-151177011D01*
X105800000Y-151125500D01*
X105800000Y-151100000D01*
X105249000Y-151100000D01*
X105181961Y-151080315D01*
X105136206Y-151027511D01*
X105125000Y-150976000D01*
X105125000Y-150925000D01*
X105074000Y-150925000D01*
X105006961Y-150905315D01*
X104961206Y-150852511D01*
X104950000Y-150801000D01*
X104950000Y-150024999D01*
X105294953Y-150024999D01*
X105298821Y-150061800D01*
X105299500Y-150074761D01*
X105299500Y-150107304D01*
X105300000Y-150117472D01*
X105300000Y-150750000D01*
X105693505Y-150750000D01*
X105740955Y-150759438D01*
X105770734Y-150771772D01*
X105797603Y-150782901D01*
X105800514Y-150784152D01*
X105868501Y-150814422D01*
X105872813Y-150815823D01*
X105878225Y-150817520D01*
X105878381Y-150817007D01*
X105884208Y-150818774D01*
X105884211Y-150818776D01*
X105957931Y-150833439D01*
X105959390Y-150833740D01*
X106038236Y-150850500D01*
X106211763Y-150850500D01*
X106211764Y-150850500D01*
X106290626Y-150833736D01*
X106292051Y-150833443D01*
X106365789Y-150818776D01*
X106365794Y-150818773D01*
X106365798Y-150818773D01*
X106371627Y-150817005D01*
X106371782Y-150817516D01*
X106377255Y-150815800D01*
X106381495Y-150814423D01*
X106381495Y-150814422D01*
X106381499Y-150814422D01*
X106449494Y-150784147D01*
X106452358Y-150782917D01*
X106516021Y-150756548D01*
X106516274Y-150756378D01*
X106534742Y-150746193D01*
X106540024Y-150743842D01*
X106595163Y-150703779D01*
X106599127Y-150701018D01*
X106633653Y-150677948D01*
X106651225Y-150666208D01*
X106655870Y-150661562D01*
X106670667Y-150648923D01*
X106680410Y-150641845D01*
X106721852Y-150595817D01*
X106726283Y-150591148D01*
X106766208Y-150551225D01*
X106773340Y-150540549D01*
X106784285Y-150526477D01*
X106796522Y-150512889D01*
X106824373Y-150464647D01*
X106828633Y-150457796D01*
X106856548Y-150416021D01*
X106863846Y-150398402D01*
X106871017Y-150383859D01*
X106883286Y-150362611D01*
X106898577Y-150315548D01*
X106901932Y-150306453D01*
X106918776Y-150265789D01*
X106923715Y-150240957D01*
X106927401Y-150226835D01*
X106928938Y-150222103D01*
X106936908Y-150197576D01*
X106941427Y-150154576D01*
X106943125Y-150143373D01*
X106950500Y-150106305D01*
X106950500Y-150074761D01*
X106951179Y-150061800D01*
X106955047Y-150025000D01*
X106951179Y-149988198D01*
X106950500Y-149975237D01*
X106950500Y-149943690D01*
X106943130Y-149906647D01*
X106941425Y-149895409D01*
X106936908Y-149852428D01*
X106936908Y-149852424D01*
X106927396Y-149823151D01*
X106923715Y-149809041D01*
X106918776Y-149784211D01*
X106901933Y-149743549D01*
X106898579Y-149734457D01*
X106883286Y-149687389D01*
X106871018Y-149666140D01*
X106863844Y-149651592D01*
X106856550Y-149633983D01*
X106856549Y-149633982D01*
X106856548Y-149633979D01*
X106828641Y-149592213D01*
X106824367Y-149585340D01*
X106796522Y-149537111D01*
X106784284Y-149523519D01*
X106773337Y-149509445D01*
X106766208Y-149498775D01*
X106726297Y-149458864D01*
X106721831Y-149454158D01*
X106680410Y-149408155D01*
X106670666Y-149401075D01*
X106655875Y-149388441D01*
X106651227Y-149383793D01*
X106599135Y-149348987D01*
X106595140Y-149346203D01*
X106595133Y-149346198D01*
X106540024Y-149306158D01*
X106540023Y-149306157D01*
X106540021Y-149306156D01*
X106534740Y-149303805D01*
X106516282Y-149293626D01*
X106516025Y-149293454D01*
X106516018Y-149293450D01*
X106452426Y-149267110D01*
X106449444Y-149265829D01*
X106381500Y-149235578D01*
X106378170Y-149234496D01*
X106371766Y-149232502D01*
X106371618Y-149232992D01*
X106365788Y-149231223D01*
X106292155Y-149216576D01*
X106290567Y-149216249D01*
X106211768Y-149199500D01*
X106211764Y-149199500D01*
X106038236Y-149199500D01*
X105959372Y-149216262D01*
X105957786Y-149216588D01*
X105884203Y-149231225D01*
X105878380Y-149232992D01*
X105878237Y-149232523D01*
X105871296Y-149234669D01*
X105868504Y-149235576D01*
X105800571Y-149265821D01*
X105797595Y-149267099D01*
X105740963Y-149290559D01*
X105693506Y-149300000D01*
X105300000Y-149300000D01*
X105300000Y-149932527D01*
X105299500Y-149942705D01*
X105299500Y-149975237D01*
X105298821Y-149988198D01*
X105294953Y-150024999D01*
X104950000Y-150024999D01*
X104950000Y-149249000D01*
X104969685Y-149181961D01*
X105022489Y-149136206D01*
X105074000Y-149125000D01*
X105125000Y-149125000D01*
X105125000Y-149074000D01*
X105144685Y-149006961D01*
X105197489Y-148961206D01*
X105249000Y-148950000D01*
X105800000Y-148950000D01*
X105800000Y-148627172D01*
X105799999Y-148627155D01*
X105793598Y-148567627D01*
X105793596Y-148567619D01*
X105754977Y-148464079D01*
X105749992Y-148394387D01*
X105760154Y-148365482D01*
X105805582Y-148274250D01*
X105861397Y-148078083D01*
X105880215Y-147875000D01*
X105861397Y-147671917D01*
X105805582Y-147475750D01*
X105714673Y-147293179D01*
X105591764Y-147130421D01*
X105591762Y-147130418D01*
X105441041Y-146993019D01*
X105441039Y-146993017D01*
X105267642Y-146885655D01*
X105267639Y-146885653D01*
X105267637Y-146885652D01*
X105267636Y-146885651D01*
X105267635Y-146885651D01*
X105172546Y-146848814D01*
X105077456Y-146811976D01*
X104876976Y-146774500D01*
X104722486Y-146774500D01*
X104655447Y-146754815D01*
X104609692Y-146702011D01*
X104599748Y-146632853D01*
X104628773Y-146569297D01*
X104687551Y-146531523D01*
X104692811Y-146530103D01*
X104695350Y-146529477D01*
X104775225Y-146509790D01*
X104854692Y-146468081D01*
X104925849Y-146430736D01*
X104925850Y-146430734D01*
X104925852Y-146430734D01*
X105053183Y-146317929D01*
X105149818Y-146177930D01*
X105210140Y-146018872D01*
X105230645Y-145850000D01*
X105229882Y-145843713D01*
X108474500Y-145843713D01*
X108474500Y-146056286D01*
X108505181Y-146250003D01*
X108507754Y-146266243D01*
X108561201Y-146430736D01*
X108573444Y-146468414D01*
X108669951Y-146657820D01*
X108794890Y-146829786D01*
X108945213Y-146980109D01*
X109117179Y-147105048D01*
X109117181Y-147105049D01*
X109117184Y-147105051D01*
X109306588Y-147201557D01*
X109508757Y-147267246D01*
X109718713Y-147300500D01*
X109718714Y-147300500D01*
X109931286Y-147300500D01*
X109931287Y-147300500D01*
X110141243Y-147267246D01*
X110343412Y-147201557D01*
X110532816Y-147105051D01*
X110554789Y-147089086D01*
X110704786Y-146980109D01*
X110704788Y-146980106D01*
X110704792Y-146980104D01*
X110855104Y-146829792D01*
X110855106Y-146829788D01*
X110855109Y-146829786D01*
X110980048Y-146657820D01*
X110980047Y-146657820D01*
X110980051Y-146657816D01*
X111076557Y-146468412D01*
X111142246Y-146266243D01*
X111175500Y-146056287D01*
X111175500Y-145843713D01*
X111142246Y-145633757D01*
X111076557Y-145431588D01*
X110980051Y-145242184D01*
X110980049Y-145242181D01*
X110980048Y-145242179D01*
X110855109Y-145070213D01*
X110704786Y-144919890D01*
X110532820Y-144794951D01*
X110343414Y-144698444D01*
X110343413Y-144698443D01*
X110343412Y-144698443D01*
X110141243Y-144632754D01*
X110141241Y-144632753D01*
X110141240Y-144632753D01*
X109979957Y-144607208D01*
X109931287Y-144599500D01*
X109718713Y-144599500D01*
X109670042Y-144607208D01*
X109508760Y-144632753D01*
X109306585Y-144698444D01*
X109117179Y-144794951D01*
X108945213Y-144919890D01*
X108794890Y-145070213D01*
X108669951Y-145242179D01*
X108573444Y-145431585D01*
X108507753Y-145633760D01*
X108474500Y-145843713D01*
X105229882Y-145843713D01*
X105210140Y-145681128D01*
X105157259Y-145541692D01*
X105151893Y-145472033D01*
X105185040Y-145410527D01*
X105209044Y-145391613D01*
X105310185Y-145330472D01*
X105430472Y-145210185D01*
X105518478Y-145064606D01*
X105569086Y-144902196D01*
X105575500Y-144831616D01*
X105575500Y-144318384D01*
X105569086Y-144247804D01*
X105518478Y-144085394D01*
X105430472Y-143939815D01*
X105430470Y-143939813D01*
X105430469Y-143939811D01*
X105327984Y-143837326D01*
X105294499Y-143776003D01*
X105299483Y-143706311D01*
X105327985Y-143661963D01*
X105430071Y-143559878D01*
X105430072Y-143559877D01*
X105518019Y-143414395D01*
X105568590Y-143252106D01*
X105575000Y-143181572D01*
X105575000Y-143175000D01*
X103625001Y-143175000D01*
X103625001Y-143181582D01*
X103631408Y-143252102D01*
X103631409Y-143252107D01*
X103681981Y-143414396D01*
X103769927Y-143559877D01*
X103872015Y-143661965D01*
X103905500Y-143723288D01*
X103900516Y-143792980D01*
X103872015Y-143837327D01*
X103769531Y-143939810D01*
X103769530Y-143939811D01*
X103681522Y-144085393D01*
X103630913Y-144247807D01*
X103624500Y-144318386D01*
X103624500Y-144831613D01*
X103630913Y-144902192D01*
X103630913Y-144902194D01*
X103630914Y-144902196D01*
X103681522Y-145064606D01*
X103769528Y-145210185D01*
X103888182Y-145328839D01*
X103921666Y-145390160D01*
X103924500Y-145416519D01*
X103924500Y-145448199D01*
X103904815Y-145515238D01*
X103902551Y-145518638D01*
X103900182Y-145522069D01*
X103900179Y-145522075D01*
X103898378Y-145526824D01*
X103856196Y-145582523D01*
X103790596Y-145606574D01*
X103722407Y-145591342D01*
X103694759Y-145570524D01*
X103366419Y-145242184D01*
X102961819Y-144837583D01*
X102928334Y-144776260D01*
X102925500Y-144749902D01*
X102925500Y-144732412D01*
X102945185Y-144665373D01*
X102952555Y-144655097D01*
X102954810Y-144652267D01*
X102954816Y-144652262D01*
X103050789Y-144499522D01*
X103110368Y-144329255D01*
X103119545Y-144247807D01*
X103130565Y-144150003D01*
X103130565Y-144149996D01*
X103110369Y-143970750D01*
X103110368Y-143970745D01*
X103063683Y-143837327D01*
X103050789Y-143800478D01*
X102954816Y-143647738D01*
X102954814Y-143647736D01*
X102954813Y-143647734D01*
X102952550Y-143644896D01*
X102951659Y-143642715D01*
X102951111Y-143641842D01*
X102951264Y-143641745D01*
X102926144Y-143580209D01*
X102925500Y-143567587D01*
X102925500Y-142848466D01*
X102945185Y-142781427D01*
X102997989Y-142735672D01*
X103006156Y-142732288D01*
X103042331Y-142718796D01*
X103109615Y-142668427D01*
X103625000Y-142668427D01*
X103625000Y-142675000D01*
X104350000Y-142675000D01*
X104850000Y-142675000D01*
X105574999Y-142675000D01*
X105574999Y-142668417D01*
X105568591Y-142597897D01*
X105568590Y-142597892D01*
X105518018Y-142435603D01*
X105430072Y-142290122D01*
X105309877Y-142169927D01*
X105164395Y-142081980D01*
X105164396Y-142081980D01*
X105002105Y-142031409D01*
X105002106Y-142031409D01*
X104931572Y-142025000D01*
X104850000Y-142025000D01*
X104850000Y-142675000D01*
X104350000Y-142675000D01*
X104350000Y-142025000D01*
X104349999Y-142024999D01*
X104268417Y-142025000D01*
X104197897Y-142031408D01*
X104197892Y-142031409D01*
X104035603Y-142081981D01*
X103890122Y-142169927D01*
X103769927Y-142290122D01*
X103681980Y-142435604D01*
X103631409Y-142597893D01*
X103625000Y-142668427D01*
X103109615Y-142668427D01*
X103157546Y-142632546D01*
X103243796Y-142517331D01*
X103294091Y-142382483D01*
X103300500Y-142322873D01*
X103300500Y-141842844D01*
X108645000Y-141842844D01*
X108651401Y-141902372D01*
X108651403Y-141902379D01*
X108701645Y-142037086D01*
X108701649Y-142037093D01*
X108787809Y-142152187D01*
X108787812Y-142152190D01*
X108902906Y-142238350D01*
X108902913Y-142238354D01*
X109037620Y-142288596D01*
X109037627Y-142288598D01*
X109097155Y-142294999D01*
X109097172Y-142295000D01*
X109575000Y-142295000D01*
X110075000Y-142295000D01*
X110552828Y-142295000D01*
X110552844Y-142294999D01*
X110612372Y-142288598D01*
X110612379Y-142288596D01*
X110747086Y-142238354D01*
X110747093Y-142238350D01*
X110862187Y-142152190D01*
X110862190Y-142152187D01*
X110948350Y-142037093D01*
X110948354Y-142037086D01*
X110998596Y-141902379D01*
X110998598Y-141902372D01*
X111004999Y-141842844D01*
X111005000Y-141842827D01*
X111005000Y-141430000D01*
X110075000Y-141430000D01*
X110075000Y-142295000D01*
X109575000Y-142295000D01*
X109575000Y-141430000D01*
X108645000Y-141430000D01*
X108645000Y-141842844D01*
X103300500Y-141842844D01*
X103300499Y-141027128D01*
X103294091Y-140967517D01*
X103269289Y-140901020D01*
X103243797Y-140832671D01*
X103243793Y-140832664D01*
X103157547Y-140717455D01*
X103157544Y-140717452D01*
X103042335Y-140631206D01*
X103042328Y-140631202D01*
X102907482Y-140580908D01*
X102907483Y-140580908D01*
X102847883Y-140574501D01*
X102847881Y-140574500D01*
X102847873Y-140574500D01*
X102847864Y-140574500D01*
X101802129Y-140574500D01*
X101802123Y-140574501D01*
X101742516Y-140580908D01*
X101607671Y-140631202D01*
X101607664Y-140631206D01*
X101492455Y-140717452D01*
X101492452Y-140717455D01*
X101406201Y-140832671D01*
X101403960Y-140836775D01*
X101354550Y-140886175D01*
X101286275Y-140901020D01*
X101220813Y-140876597D01*
X101207453Y-140865018D01*
X100859590Y-140517155D01*
X108645000Y-140517155D01*
X108645000Y-140930000D01*
X109575000Y-140930000D01*
X110075000Y-140930000D01*
X111005000Y-140930000D01*
X111005000Y-140517172D01*
X111004999Y-140517155D01*
X110998598Y-140457627D01*
X110998596Y-140457620D01*
X110948354Y-140322913D01*
X110948350Y-140322906D01*
X110862190Y-140207812D01*
X110862187Y-140207809D01*
X110747093Y-140121649D01*
X110747086Y-140121645D01*
X110612379Y-140071403D01*
X110612372Y-140071401D01*
X110552844Y-140065000D01*
X110075000Y-140065000D01*
X110075000Y-140930000D01*
X109575000Y-140930000D01*
X109575000Y-140065000D01*
X109097155Y-140065000D01*
X109037627Y-140071401D01*
X109037620Y-140071403D01*
X108902913Y-140121645D01*
X108902906Y-140121649D01*
X108787812Y-140207809D01*
X108787809Y-140207812D01*
X108701649Y-140322906D01*
X108701645Y-140322913D01*
X108651403Y-140457620D01*
X108651401Y-140457627D01*
X108645000Y-140517155D01*
X100859590Y-140517155D01*
X100086820Y-139744385D01*
X100053335Y-139683062D01*
X100050501Y-139656704D01*
X100050501Y-136458788D01*
X100070186Y-136391749D01*
X100122990Y-136345994D01*
X100192148Y-136336050D01*
X100240473Y-136353794D01*
X100275478Y-136375789D01*
X100436008Y-136431961D01*
X100445745Y-136435368D01*
X100445750Y-136435369D01*
X100624997Y-136455565D01*
X100625000Y-136455565D01*
X100625001Y-136455565D01*
X100633723Y-136454582D01*
X100661616Y-136451439D01*
X100730437Y-136463493D01*
X100781817Y-136510841D01*
X100799500Y-136574659D01*
X100799500Y-137938330D01*
X100799499Y-137938348D01*
X100799499Y-138104054D01*
X100799498Y-138104054D01*
X100840423Y-138256785D01*
X100840424Y-138256788D01*
X100844939Y-138264607D01*
X100844942Y-138264612D01*
X100919477Y-138393712D01*
X100919481Y-138393717D01*
X101038349Y-138512585D01*
X101038355Y-138512590D01*
X101165139Y-138639374D01*
X101165149Y-138639385D01*
X101169479Y-138643715D01*
X101169480Y-138643716D01*
X101281284Y-138755520D01*
X101287499Y-138759108D01*
X101335715Y-138809675D01*
X101349500Y-138866494D01*
X101349500Y-138922869D01*
X101349501Y-138922876D01*
X101355908Y-138982483D01*
X101406202Y-139117328D01*
X101406206Y-139117335D01*
X101492452Y-139232544D01*
X101492455Y-139232547D01*
X101607664Y-139318793D01*
X101607671Y-139318797D01*
X101742517Y-139369091D01*
X101742516Y-139369091D01*
X101749444Y-139369835D01*
X101802127Y-139375500D01*
X102847872Y-139375499D01*
X102907483Y-139369091D01*
X103042331Y-139318796D01*
X103157546Y-139232546D01*
X103243796Y-139117331D01*
X103294091Y-138982483D01*
X103300500Y-138922873D01*
X103300500Y-138866494D01*
X103320182Y-138799458D01*
X103362502Y-138759107D01*
X103368716Y-138755520D01*
X103480520Y-138643716D01*
X103480521Y-138643714D01*
X103712418Y-138411816D01*
X103773740Y-138378334D01*
X103800098Y-138375500D01*
X104433480Y-138375500D01*
X104500519Y-138395185D01*
X104521161Y-138411819D01*
X104639811Y-138530469D01*
X104639813Y-138530470D01*
X104639815Y-138530472D01*
X104785394Y-138618478D01*
X104947804Y-138669086D01*
X105018384Y-138675500D01*
X105018387Y-138675500D01*
X105681613Y-138675500D01*
X105681616Y-138675500D01*
X105752196Y-138669086D01*
X105914606Y-138618478D01*
X106060185Y-138530472D01*
X106180472Y-138410185D01*
X106268478Y-138264606D01*
X106319086Y-138102196D01*
X106325500Y-138031616D01*
X106325500Y-137518384D01*
X106319086Y-137447804D01*
X106268478Y-137285394D01*
X106180472Y-137139815D01*
X106180470Y-137139813D01*
X106180469Y-137139811D01*
X106078339Y-137037681D01*
X106044854Y-136976358D01*
X106049838Y-136906666D01*
X106078339Y-136862319D01*
X106180468Y-136760189D01*
X106180469Y-136760188D01*
X106180472Y-136760185D01*
X106268478Y-136614606D01*
X106319086Y-136452196D01*
X106325500Y-136381616D01*
X106325500Y-135868384D01*
X106319086Y-135797804D01*
X106268478Y-135635394D01*
X106180472Y-135489815D01*
X106180470Y-135489813D01*
X106180469Y-135489811D01*
X106060188Y-135369530D01*
X106060185Y-135369528D01*
X105914606Y-135281522D01*
X105911307Y-135280494D01*
X105909194Y-135279086D01*
X105907765Y-135278443D01*
X105907871Y-135278205D01*
X105853161Y-135241758D01*
X105840810Y-135224107D01*
X105830522Y-135206287D01*
X105830521Y-135206286D01*
X105830520Y-135206284D01*
X105718716Y-135094480D01*
X105718715Y-135094479D01*
X105714385Y-135090149D01*
X105714374Y-135090139D01*
X105612590Y-134988355D01*
X105612588Y-134988352D01*
X105493717Y-134869481D01*
X105493716Y-134869480D01*
X105406430Y-134819086D01*
X105356785Y-134790423D01*
X105204057Y-134749499D01*
X105045943Y-134749499D01*
X105038347Y-134749499D01*
X105038331Y-134749500D01*
X104157115Y-134749500D01*
X104090076Y-134729815D01*
X104044321Y-134677011D01*
X104040933Y-134668833D01*
X104008797Y-134582671D01*
X104008793Y-134582664D01*
X103922547Y-134467455D01*
X103922544Y-134467452D01*
X103807335Y-134381206D01*
X103807328Y-134381202D01*
X103672486Y-134330910D01*
X103672485Y-134330909D01*
X103672483Y-134330909D01*
X103612873Y-134324500D01*
X103612863Y-134324500D01*
X102987129Y-134324500D01*
X102987123Y-134324501D01*
X102927518Y-134330908D01*
X102867616Y-134353250D01*
X102797925Y-134358233D01*
X102780952Y-134353249D01*
X102722380Y-134331403D01*
X102722372Y-134331401D01*
X102662844Y-134325000D01*
X102600000Y-134325000D01*
X102600000Y-134536712D01*
X102592182Y-134580045D01*
X102540910Y-134717513D01*
X102540909Y-134717517D01*
X102534500Y-134777127D01*
X102534500Y-135339059D01*
X102534501Y-135350000D01*
X102534501Y-135922876D01*
X102540908Y-135982483D01*
X102575229Y-136074500D01*
X102583813Y-136097516D01*
X102592182Y-136119952D01*
X102600000Y-136163285D01*
X102600000Y-136375000D01*
X102662828Y-136375000D01*
X102662844Y-136374999D01*
X102722377Y-136368597D01*
X102722379Y-136368597D01*
X102780950Y-136346751D01*
X102850642Y-136341765D01*
X102867612Y-136346748D01*
X102886504Y-136353794D01*
X102926192Y-136368597D01*
X102927517Y-136369091D01*
X102987127Y-136375500D01*
X103612872Y-136375499D01*
X103672483Y-136369091D01*
X103807331Y-136318796D01*
X103922546Y-136232546D01*
X104008796Y-136117331D01*
X104024771Y-136074500D01*
X104040934Y-136031166D01*
X104082806Y-135975233D01*
X104148270Y-135950816D01*
X104157116Y-135950500D01*
X104250500Y-135950500D01*
X104317539Y-135970185D01*
X104363294Y-136022989D01*
X104374500Y-136074500D01*
X104374500Y-136381613D01*
X104380913Y-136452192D01*
X104380913Y-136452194D01*
X104380914Y-136452196D01*
X104399188Y-136510841D01*
X104431522Y-136614606D01*
X104519530Y-136760188D01*
X104621661Y-136862319D01*
X104655146Y-136923642D01*
X104650162Y-136993334D01*
X104621661Y-137037681D01*
X104521161Y-137138181D01*
X104459838Y-137171666D01*
X104433480Y-137174500D01*
X103586670Y-137174500D01*
X103586654Y-137174499D01*
X103579058Y-137174499D01*
X103420943Y-137174499D01*
X103319125Y-137201781D01*
X103268215Y-137215423D01*
X103199617Y-137255028D01*
X103131717Y-137271499D01*
X103065690Y-137248647D01*
X103063306Y-137246906D01*
X103042331Y-137231204D01*
X103042328Y-137231202D01*
X102907482Y-137180908D01*
X102907483Y-137180908D01*
X102847883Y-137174501D01*
X102847881Y-137174500D01*
X102847873Y-137174500D01*
X102847865Y-137174500D01*
X102124500Y-137174500D01*
X102057461Y-137154815D01*
X102011706Y-137102011D01*
X102000500Y-137050500D01*
X102000500Y-136499000D01*
X102020185Y-136431961D01*
X102072989Y-136386206D01*
X102093188Y-136381811D01*
X102100000Y-136375000D01*
X102100000Y-136163285D01*
X102107818Y-136119952D01*
X102116186Y-136097517D01*
X102159091Y-135982483D01*
X102165500Y-135922873D01*
X102165499Y-134777128D01*
X102159091Y-134717517D01*
X102159090Y-134717513D01*
X102107818Y-134580045D01*
X102100000Y-134536712D01*
X102100000Y-134325000D01*
X102037155Y-134325000D01*
X101977626Y-134331401D01*
X101919046Y-134353250D01*
X101849354Y-134358233D01*
X101832381Y-134353249D01*
X101772486Y-134330910D01*
X101772485Y-134330909D01*
X101772483Y-134330909D01*
X101712873Y-134324500D01*
X101712863Y-134324500D01*
X101087129Y-134324500D01*
X101087123Y-134324501D01*
X101027516Y-134330908D01*
X100892671Y-134381202D01*
X100892664Y-134381206D01*
X100777455Y-134467452D01*
X100777452Y-134467455D01*
X100691206Y-134582664D01*
X100691201Y-134582673D01*
X100677065Y-134620574D01*
X100635194Y-134676507D01*
X100569729Y-134700923D01*
X100501456Y-134686071D01*
X100452051Y-134636665D01*
X100437664Y-134591123D01*
X100435368Y-134570745D01*
X100375789Y-134400478D01*
X100363678Y-134381204D01*
X100308706Y-134293716D01*
X100279816Y-134247738D01*
X100152262Y-134120184D01*
X100081148Y-134075500D01*
X99999523Y-134024211D01*
X99829254Y-133964631D01*
X99829249Y-133964630D01*
X99679160Y-133947720D01*
X99652633Y-133936573D01*
X99641892Y-133943477D01*
X99620840Y-133947720D01*
X99470750Y-133964630D01*
X99470745Y-133964631D01*
X99300474Y-134024212D01*
X99290968Y-134030185D01*
X99223731Y-134049183D01*
X99159032Y-134030185D01*
X99149525Y-134024212D01*
X98979254Y-133964631D01*
X98979249Y-133964630D01*
X98829160Y-133947720D01*
X98802633Y-133936573D01*
X98791892Y-133943477D01*
X98770840Y-133947720D01*
X98620750Y-133964630D01*
X98620745Y-133964631D01*
X98450476Y-134024211D01*
X98297737Y-134120184D01*
X98170184Y-134247737D01*
X98074211Y-134400476D01*
X98014631Y-134570745D01*
X98014630Y-134570750D01*
X97994435Y-134749996D01*
X97994435Y-134750003D01*
X98014630Y-134929249D01*
X98014631Y-134929254D01*
X98074211Y-135099523D01*
X98119089Y-135170945D01*
X98170184Y-135252262D01*
X98297738Y-135379816D01*
X98341472Y-135407296D01*
X98387761Y-135459627D01*
X98399499Y-135512288D01*
X98399499Y-140056529D01*
X98399498Y-140056547D01*
X98399498Y-140222253D01*
X98399497Y-140222253D01*
X98440422Y-140374984D01*
X98469357Y-140425099D01*
X98469358Y-140425103D01*
X98469359Y-140425103D01*
X98519478Y-140511913D01*
X98519480Y-140511916D01*
X98638348Y-140630784D01*
X98638354Y-140630789D01*
X100013681Y-142006116D01*
X100047166Y-142067439D01*
X100050000Y-142093797D01*
X100050000Y-142801000D01*
X100030315Y-142868039D01*
X99977511Y-142913794D01*
X99926000Y-142925000D01*
X99800000Y-142925000D01*
X99800000Y-143051000D01*
X99780315Y-143118039D01*
X99727511Y-143163794D01*
X99676000Y-143175000D01*
X98825001Y-143175000D01*
X98825001Y-143181582D01*
X98831408Y-143252102D01*
X98831409Y-143252107D01*
X98881981Y-143414396D01*
X98969927Y-143559877D01*
X99072015Y-143661965D01*
X99105500Y-143723288D01*
X99100516Y-143792980D01*
X99072015Y-143837327D01*
X98969531Y-143939810D01*
X98969530Y-143939811D01*
X98881522Y-144085393D01*
X98830913Y-144247807D01*
X98824500Y-144318386D01*
X98824500Y-144831613D01*
X98830913Y-144902192D01*
X98830913Y-144902194D01*
X98830914Y-144902196D01*
X98881522Y-145064606D01*
X98969530Y-145210188D01*
X99089811Y-145330469D01*
X99089813Y-145330470D01*
X99089815Y-145330472D01*
X99235394Y-145418478D01*
X99397804Y-145469086D01*
X99468384Y-145475500D01*
X99568060Y-145475500D01*
X99635099Y-145495185D01*
X99680854Y-145547989D01*
X99690798Y-145617147D01*
X99661773Y-145680703D01*
X99655741Y-145687181D01*
X99595184Y-145747737D01*
X99499211Y-145900476D01*
X99439631Y-146070745D01*
X99439630Y-146070750D01*
X99419435Y-146249996D01*
X99419435Y-146250003D01*
X99439630Y-146429249D01*
X99439631Y-146429254D01*
X99499211Y-146599523D01*
X99560520Y-146697096D01*
X99579520Y-146764333D01*
X99559152Y-146831168D01*
X99505884Y-146876382D01*
X99500322Y-146878694D01*
X99482368Y-146885649D01*
X99482359Y-146885653D01*
X99308960Y-146993017D01*
X99308958Y-146993019D01*
X99158237Y-147130418D01*
X99035327Y-147293178D01*
X98944422Y-147475739D01*
X98944417Y-147475752D01*
X98888602Y-147671917D01*
X98869785Y-147874999D01*
X98869785Y-147875000D01*
X98888602Y-148078082D01*
X98944418Y-148274250D01*
X98989841Y-148365473D01*
X99002101Y-148434259D01*
X98995022Y-148464077D01*
X98956403Y-148567619D01*
X98956401Y-148567627D01*
X98950000Y-148627155D01*
X98950000Y-148950000D01*
X99501000Y-148950000D01*
X99568039Y-148969685D01*
X99613794Y-149022489D01*
X99625000Y-149074000D01*
X99625000Y-149125000D01*
X99676000Y-149125000D01*
X99743039Y-149144685D01*
X99788794Y-149197489D01*
X99800000Y-149249000D01*
X99800000Y-150801000D01*
X99780315Y-150868039D01*
X99727511Y-150913794D01*
X99676000Y-150925000D01*
X99625000Y-150925000D01*
X99625000Y-150976000D01*
X99605315Y-151043039D01*
X99552511Y-151088794D01*
X99501000Y-151100000D01*
X98950000Y-151100000D01*
X98950000Y-151125500D01*
X98930315Y-151192539D01*
X98877511Y-151238294D01*
X98826000Y-151249500D01*
X96249500Y-151249500D01*
X96182461Y-151229815D01*
X96136706Y-151177011D01*
X96125500Y-151125500D01*
X96125500Y-150024999D01*
X97794953Y-150024999D01*
X97798821Y-150061800D01*
X97799500Y-150074761D01*
X97799500Y-150106309D01*
X97806868Y-150143351D01*
X97808571Y-150154576D01*
X97813091Y-150197572D01*
X97813091Y-150197574D01*
X97813092Y-150197576D01*
X97818262Y-150213490D01*
X97822601Y-150226844D01*
X97826285Y-150240963D01*
X97831224Y-150265791D01*
X97848057Y-150306432D01*
X97851425Y-150315562D01*
X97866711Y-150362605D01*
X97866712Y-150362608D01*
X97866714Y-150362611D01*
X97878975Y-150383849D01*
X97878982Y-150383860D01*
X97886154Y-150398404D01*
X97893450Y-150416018D01*
X97893451Y-150416020D01*
X97893452Y-150416021D01*
X97921344Y-150457764D01*
X97925627Y-150464651D01*
X97953476Y-150512886D01*
X97953480Y-150512891D01*
X97965715Y-150526480D01*
X97976666Y-150540560D01*
X97983793Y-150551227D01*
X97983794Y-150551228D01*
X98023697Y-150591130D01*
X98028168Y-150595841D01*
X98069588Y-150641844D01*
X98079325Y-150648918D01*
X98094123Y-150661557D01*
X98098770Y-150666204D01*
X98098773Y-150666206D01*
X98098775Y-150666208D01*
X98150878Y-150701021D01*
X98154843Y-150703784D01*
X98209976Y-150743842D01*
X98215248Y-150746189D01*
X98215259Y-150746194D01*
X98233714Y-150756371D01*
X98233763Y-150756403D01*
X98233979Y-150756548D01*
X98297630Y-150782912D01*
X98300514Y-150784151D01*
X98368501Y-150814422D01*
X98372813Y-150815823D01*
X98378225Y-150817520D01*
X98378381Y-150817007D01*
X98384208Y-150818774D01*
X98384211Y-150818776D01*
X98457931Y-150833439D01*
X98459390Y-150833740D01*
X98538236Y-150850500D01*
X98711763Y-150850500D01*
X98711764Y-150850500D01*
X98790626Y-150833736D01*
X98792051Y-150833443D01*
X98865789Y-150818776D01*
X98865794Y-150818773D01*
X98865798Y-150818773D01*
X98871627Y-150817005D01*
X98871782Y-150817516D01*
X98877255Y-150815800D01*
X98881495Y-150814423D01*
X98881495Y-150814422D01*
X98881499Y-150814422D01*
X98949494Y-150784147D01*
X98952358Y-150782917D01*
X99009045Y-150759437D01*
X99056493Y-150750000D01*
X99450000Y-150750000D01*
X99450000Y-150117472D01*
X99450500Y-150107304D01*
X99450500Y-150074761D01*
X99451179Y-150061800D01*
X99455047Y-150025000D01*
X99451179Y-149988198D01*
X99450500Y-149975237D01*
X99450500Y-149942705D01*
X99450000Y-149932527D01*
X99450000Y-149300000D01*
X99056495Y-149300000D01*
X99009042Y-149290561D01*
X98952426Y-149267110D01*
X98949444Y-149265829D01*
X98881500Y-149235578D01*
X98878170Y-149234496D01*
X98871766Y-149232502D01*
X98871618Y-149232992D01*
X98865788Y-149231223D01*
X98792155Y-149216576D01*
X98790567Y-149216249D01*
X98711768Y-149199500D01*
X98711764Y-149199500D01*
X98538236Y-149199500D01*
X98459372Y-149216262D01*
X98457786Y-149216588D01*
X98384203Y-149231225D01*
X98378380Y-149232992D01*
X98378237Y-149232523D01*
X98371296Y-149234669D01*
X98368504Y-149235576D01*
X98300571Y-149265821D01*
X98297595Y-149267099D01*
X98233982Y-149293450D01*
X98233975Y-149293454D01*
X98233696Y-149293641D01*
X98215269Y-149303801D01*
X98209983Y-149306154D01*
X98209973Y-149306160D01*
X98154864Y-149346198D01*
X98150875Y-149348978D01*
X98098778Y-149383789D01*
X98098768Y-149383797D01*
X98094122Y-149388444D01*
X98079336Y-149401072D01*
X98069595Y-149408149D01*
X98028167Y-149454159D01*
X98023701Y-149458864D01*
X97983795Y-149498771D01*
X97983790Y-149498776D01*
X97976659Y-149509449D01*
X97965715Y-149523519D01*
X97953479Y-149537108D01*
X97925632Y-149585340D01*
X97921349Y-149592226D01*
X97893454Y-149633974D01*
X97893453Y-149633976D01*
X97886153Y-149651598D01*
X97878986Y-149666130D01*
X97866713Y-149687389D01*
X97851428Y-149734433D01*
X97848059Y-149743564D01*
X97831223Y-149784211D01*
X97831222Y-149784213D01*
X97826283Y-149809041D01*
X97822600Y-149823156D01*
X97813092Y-149852422D01*
X97808571Y-149895424D01*
X97806869Y-149906647D01*
X97801722Y-149932527D01*
X97799500Y-149943696D01*
X97799500Y-149975237D01*
X97798821Y-149988198D01*
X97794953Y-150024999D01*
X96125500Y-150024999D01*
X96125500Y-148384110D01*
X96125500Y-148384108D01*
X96091392Y-148256814D01*
X96025500Y-148142686D01*
X95932314Y-148049500D01*
X95875250Y-148016554D01*
X95818187Y-147983608D01*
X95754539Y-147966554D01*
X95690892Y-147949500D01*
X95690891Y-147949500D01*
X92949500Y-147949500D01*
X92882461Y-147929815D01*
X92836706Y-147877011D01*
X92825500Y-147825500D01*
X92825500Y-145843713D01*
X93474500Y-145843713D01*
X93474500Y-146056286D01*
X93505181Y-146250003D01*
X93507754Y-146266243D01*
X93561201Y-146430736D01*
X93573444Y-146468414D01*
X93669951Y-146657820D01*
X93794890Y-146829786D01*
X93945213Y-146980109D01*
X94117179Y-147105048D01*
X94117181Y-147105049D01*
X94117184Y-147105051D01*
X94306588Y-147201557D01*
X94508757Y-147267246D01*
X94718713Y-147300500D01*
X94718714Y-147300500D01*
X94931286Y-147300500D01*
X94931287Y-147300500D01*
X95141243Y-147267246D01*
X95343412Y-147201557D01*
X95532816Y-147105051D01*
X95554789Y-147089086D01*
X95704786Y-146980109D01*
X95704788Y-146980106D01*
X95704792Y-146980104D01*
X95855104Y-146829792D01*
X95855106Y-146829788D01*
X95855109Y-146829786D01*
X95980048Y-146657820D01*
X95980047Y-146657820D01*
X95980051Y-146657816D01*
X96076557Y-146468412D01*
X96142246Y-146266243D01*
X96175500Y-146056287D01*
X96175500Y-145843713D01*
X96142246Y-145633757D01*
X96076557Y-145431588D01*
X95980051Y-145242184D01*
X95980049Y-145242181D01*
X95980048Y-145242179D01*
X95855109Y-145070213D01*
X95704786Y-144919890D01*
X95532820Y-144794951D01*
X95343414Y-144698444D01*
X95343413Y-144698443D01*
X95343412Y-144698443D01*
X95141243Y-144632754D01*
X95141241Y-144632753D01*
X95141240Y-144632753D01*
X94979957Y-144607208D01*
X94931287Y-144599500D01*
X94718713Y-144599500D01*
X94670042Y-144607208D01*
X94508760Y-144632753D01*
X94306585Y-144698444D01*
X94117179Y-144794951D01*
X93945213Y-144919890D01*
X93794890Y-145070213D01*
X93669951Y-145242179D01*
X93573444Y-145431585D01*
X93507753Y-145633760D01*
X93474500Y-145843713D01*
X92825500Y-145843713D01*
X92825500Y-142668427D01*
X98825000Y-142668427D01*
X98825000Y-142675000D01*
X99550000Y-142675000D01*
X99550000Y-142025000D01*
X99549999Y-142024999D01*
X99468417Y-142025000D01*
X99397897Y-142031408D01*
X99397892Y-142031409D01*
X99235603Y-142081981D01*
X99090122Y-142169927D01*
X98969927Y-142290122D01*
X98881980Y-142435604D01*
X98831409Y-142597893D01*
X98825000Y-142668427D01*
X92825500Y-142668427D01*
X92825500Y-141842844D01*
X93645000Y-141842844D01*
X93651401Y-141902372D01*
X93651403Y-141902379D01*
X93701645Y-142037086D01*
X93701649Y-142037093D01*
X93787809Y-142152187D01*
X93787812Y-142152190D01*
X93902906Y-142238350D01*
X93902913Y-142238354D01*
X94037620Y-142288596D01*
X94037627Y-142288598D01*
X94097155Y-142294999D01*
X94097172Y-142295000D01*
X94575000Y-142295000D01*
X95075000Y-142295000D01*
X95552828Y-142295000D01*
X95552844Y-142294999D01*
X95612372Y-142288598D01*
X95612379Y-142288596D01*
X95747086Y-142238354D01*
X95747093Y-142238350D01*
X95862187Y-142152190D01*
X95862190Y-142152187D01*
X95948350Y-142037093D01*
X95948354Y-142037086D01*
X95998596Y-141902379D01*
X95998598Y-141902372D01*
X96004999Y-141842844D01*
X96005000Y-141842827D01*
X96005000Y-141430000D01*
X95075000Y-141430000D01*
X95075000Y-142295000D01*
X94575000Y-142295000D01*
X94575000Y-141430000D01*
X93645000Y-141430000D01*
X93645000Y-141842844D01*
X92825500Y-141842844D01*
X92825500Y-140517155D01*
X93645000Y-140517155D01*
X93645000Y-140930000D01*
X94575000Y-140930000D01*
X95075000Y-140930000D01*
X96005000Y-140930000D01*
X96005000Y-140517172D01*
X96004999Y-140517155D01*
X95998598Y-140457627D01*
X95998596Y-140457620D01*
X95948354Y-140322913D01*
X95948350Y-140322906D01*
X95862190Y-140207812D01*
X95862187Y-140207809D01*
X95747093Y-140121649D01*
X95747086Y-140121645D01*
X95612379Y-140071403D01*
X95612372Y-140071401D01*
X95552844Y-140065000D01*
X95075000Y-140065000D01*
X95075000Y-140930000D01*
X94575000Y-140930000D01*
X94575000Y-140065000D01*
X94097155Y-140065000D01*
X94037627Y-140071401D01*
X94037620Y-140071403D01*
X93902913Y-140121645D01*
X93902906Y-140121649D01*
X93787812Y-140207809D01*
X93787809Y-140207812D01*
X93701649Y-140322906D01*
X93701645Y-140322913D01*
X93651403Y-140457620D01*
X93651401Y-140457627D01*
X93645000Y-140517155D01*
X92825500Y-140517155D01*
X92825500Y-124880012D01*
X92845185Y-124812973D01*
X92897989Y-124767218D01*
X92967147Y-124757274D01*
X93015532Y-124778194D01*
X93016842Y-124776111D01*
X93022737Y-124779815D01*
X93022738Y-124779816D01*
X93175478Y-124875789D01*
X93345742Y-124935367D01*
X93345745Y-124935368D01*
X93345750Y-124935369D01*
X93524996Y-124955565D01*
X93525000Y-124955565D01*
X93525004Y-124955565D01*
X93704249Y-124935369D01*
X93704252Y-124935368D01*
X93704255Y-124935368D01*
X93704256Y-124935367D01*
X93704259Y-124935367D01*
X93740464Y-124922697D01*
X93862062Y-124880148D01*
X93931837Y-124876586D01*
X93992465Y-124911315D01*
X94011030Y-124938411D01*
X94011395Y-124938187D01*
X94015185Y-124944332D01*
X94015186Y-124944334D01*
X94107288Y-125093656D01*
X94231344Y-125217712D01*
X94380666Y-125309814D01*
X94547203Y-125364999D01*
X94649991Y-125375500D01*
X95100438Y-125375499D01*
X95167477Y-125395183D01*
X95213232Y-125447987D01*
X95224438Y-125499499D01*
X95224438Y-129275500D01*
X95204753Y-129342539D01*
X95151949Y-129388294D01*
X95100440Y-129399500D01*
X95024999Y-129399500D01*
X95024980Y-129399501D01*
X94922203Y-129410000D01*
X94922200Y-129410001D01*
X94755668Y-129465185D01*
X94755663Y-129465187D01*
X94606342Y-129557289D01*
X94482289Y-129681342D01*
X94390187Y-129830663D01*
X94390185Y-129830668D01*
X94390115Y-129830880D01*
X94335001Y-129997203D01*
X94335001Y-129997204D01*
X94335000Y-129997204D01*
X94324500Y-130099983D01*
X94324500Y-131150001D01*
X94324501Y-131150019D01*
X94335000Y-131252796D01*
X94335001Y-131252799D01*
X94371448Y-131362786D01*
X94390186Y-131419334D01*
X94482288Y-131568656D01*
X94606344Y-131692712D01*
X94665596Y-131729258D01*
X94712321Y-131781204D01*
X94724500Y-131834797D01*
X94724500Y-132308768D01*
X94704815Y-132375807D01*
X94698115Y-132385235D01*
X94694533Y-132389807D01*
X94606522Y-132535393D01*
X94555913Y-132697807D01*
X94550782Y-132754275D01*
X94549500Y-132768384D01*
X94549500Y-133431616D01*
X94551423Y-133452778D01*
X94555913Y-133502192D01*
X94555913Y-133502194D01*
X94555914Y-133502196D01*
X94606522Y-133664606D01*
X94694528Y-133810185D01*
X94813182Y-133928839D01*
X94846666Y-133990160D01*
X94849500Y-134016519D01*
X94849500Y-134324902D01*
X94829815Y-134391941D01*
X94813181Y-134412583D01*
X94344481Y-134881282D01*
X94344479Y-134881285D01*
X94294361Y-134968094D01*
X94294359Y-134968096D01*
X94265425Y-135018209D01*
X94265424Y-135018210D01*
X94265423Y-135018215D01*
X94224499Y-135170943D01*
X94224499Y-135170945D01*
X94224499Y-135339046D01*
X94224500Y-135339059D01*
X94224500Y-135580500D01*
X94204815Y-135647539D01*
X94152011Y-135693294D01*
X94100519Y-135704500D01*
X94097139Y-135704500D01*
X94097123Y-135704501D01*
X94037516Y-135710908D01*
X93902671Y-135761202D01*
X93902664Y-135761206D01*
X93787455Y-135847452D01*
X93787452Y-135847455D01*
X93701206Y-135962664D01*
X93701202Y-135962671D01*
X93650908Y-136097517D01*
X93644501Y-136157116D01*
X93644501Y-136157123D01*
X93644500Y-136157135D01*
X93644500Y-137482870D01*
X93644501Y-137482876D01*
X93650908Y-137542483D01*
X93701202Y-137677328D01*
X93701206Y-137677335D01*
X93787452Y-137792544D01*
X93787455Y-137792547D01*
X93902664Y-137878793D01*
X93902671Y-137878797D01*
X94037517Y-137929091D01*
X94037516Y-137929091D01*
X94044444Y-137929835D01*
X94097127Y-137935500D01*
X95552872Y-137935499D01*
X95612483Y-137929091D01*
X95747331Y-137878796D01*
X95862546Y-137792546D01*
X95948796Y-137677331D01*
X95999091Y-137542483D01*
X96005500Y-137482873D01*
X96005499Y-136157128D01*
X95999091Y-136097517D01*
X95990506Y-136074500D01*
X95948797Y-135962671D01*
X95948793Y-135962664D01*
X95862547Y-135847455D01*
X95862544Y-135847452D01*
X95747335Y-135761206D01*
X95747328Y-135761202D01*
X95612482Y-135710908D01*
X95612483Y-135710908D01*
X95552883Y-135704501D01*
X95552881Y-135704500D01*
X95552873Y-135704500D01*
X95552865Y-135704500D01*
X95549500Y-135704500D01*
X95482461Y-135684815D01*
X95436706Y-135632011D01*
X95425500Y-135580500D01*
X95425500Y-135550096D01*
X95445185Y-135483057D01*
X95461815Y-135462419D01*
X95808506Y-135115727D01*
X95808511Y-135115724D01*
X95818714Y-135105520D01*
X95818716Y-135105520D01*
X95930520Y-134993716D01*
X96009577Y-134856784D01*
X96039534Y-134744981D01*
X96050500Y-134704058D01*
X96050500Y-134545943D01*
X96050500Y-134016519D01*
X96070185Y-133949480D01*
X96086813Y-133928843D01*
X96187321Y-133828335D01*
X96248640Y-133794853D01*
X96318332Y-133799837D01*
X96362680Y-133828338D01*
X96464811Y-133930469D01*
X96464813Y-133930470D01*
X96464815Y-133930472D01*
X96610394Y-134018478D01*
X96772804Y-134069086D01*
X96843384Y-134075500D01*
X96843387Y-134075500D01*
X97356613Y-134075500D01*
X97356616Y-134075500D01*
X97427196Y-134069086D01*
X97589606Y-134018478D01*
X97735185Y-133930472D01*
X97855472Y-133810185D01*
X97885598Y-133760349D01*
X97937126Y-133713162D01*
X97991715Y-133700500D01*
X98756957Y-133700500D01*
X98799898Y-133713109D01*
X98821649Y-133702360D01*
X98843043Y-133700500D01*
X99606957Y-133700500D01*
X99649898Y-133713109D01*
X99671649Y-133702360D01*
X99693043Y-133700500D01*
X100561533Y-133700500D01*
X100628572Y-133720185D01*
X100674327Y-133772989D01*
X100677715Y-133781166D01*
X100691203Y-133817330D01*
X100691206Y-133817335D01*
X100777452Y-133932544D01*
X100777455Y-133932547D01*
X100892664Y-134018793D01*
X100892671Y-134018797D01*
X100937618Y-134035561D01*
X101027517Y-134069091D01*
X101087127Y-134075500D01*
X101712872Y-134075499D01*
X101772483Y-134069091D01*
X101907331Y-134018796D01*
X102022546Y-133932546D01*
X102108796Y-133817331D01*
X102159091Y-133682483D01*
X102165500Y-133622873D01*
X102165499Y-132477135D01*
X102534500Y-132477135D01*
X102534500Y-133622870D01*
X102534501Y-133622876D01*
X102540908Y-133682483D01*
X102591202Y-133817328D01*
X102591206Y-133817335D01*
X102677452Y-133932544D01*
X102677455Y-133932547D01*
X102792664Y-134018793D01*
X102792671Y-134018797D01*
X102837618Y-134035561D01*
X102927517Y-134069091D01*
X102987127Y-134075500D01*
X103612872Y-134075499D01*
X103672483Y-134069091D01*
X103807331Y-134018796D01*
X103922546Y-133932546D01*
X104008796Y-133817331D01*
X104059091Y-133682483D01*
X104065500Y-133622873D01*
X104065499Y-132477128D01*
X104060299Y-132428757D01*
X104059091Y-132417516D01*
X104008797Y-132282671D01*
X104008793Y-132282664D01*
X103922547Y-132167455D01*
X103922544Y-132167452D01*
X103807335Y-132081206D01*
X103807328Y-132081202D01*
X103672486Y-132030910D01*
X103672485Y-132030909D01*
X103672483Y-132030909D01*
X103612873Y-132024500D01*
X103612863Y-132024500D01*
X102987129Y-132024500D01*
X102987123Y-132024501D01*
X102927516Y-132030908D01*
X102792671Y-132081202D01*
X102792664Y-132081206D01*
X102677455Y-132167452D01*
X102677452Y-132167455D01*
X102591206Y-132282664D01*
X102591202Y-132282671D01*
X102540908Y-132417517D01*
X102538529Y-132439650D01*
X102534501Y-132477123D01*
X102534500Y-132477135D01*
X102165499Y-132477135D01*
X102165499Y-132477128D01*
X102160299Y-132428757D01*
X102159091Y-132417516D01*
X102108797Y-132282671D01*
X102108793Y-132282664D01*
X102025234Y-132171044D01*
X102000816Y-132105580D01*
X102000500Y-132096733D01*
X102000500Y-130675097D01*
X102020185Y-130608058D01*
X102036819Y-130587416D01*
X102524252Y-130099983D01*
X103036673Y-129587561D01*
X103097994Y-129554078D01*
X103167686Y-129559062D01*
X103223619Y-129600934D01*
X103241394Y-129634290D01*
X103299210Y-129799521D01*
X103358876Y-129894478D01*
X103395184Y-129952262D01*
X103522738Y-130079816D01*
X103675478Y-130175789D01*
X103845745Y-130235368D01*
X103845750Y-130235369D01*
X104024996Y-130255565D01*
X104025000Y-130255565D01*
X104025004Y-130255565D01*
X104204249Y-130235369D01*
X104204252Y-130235368D01*
X104204255Y-130235368D01*
X104374522Y-130175789D01*
X104527262Y-130079816D01*
X104654816Y-129952262D01*
X104750789Y-129799522D01*
X104810368Y-129629255D01*
X104818477Y-129557288D01*
X104830565Y-129450003D01*
X104830565Y-129449996D01*
X104810369Y-129270750D01*
X104810368Y-129270745D01*
X104750788Y-129100476D01*
X104654815Y-128947737D01*
X104527262Y-128820184D01*
X104374521Y-128724210D01*
X104204249Y-128664630D01*
X104117330Y-128654837D01*
X104052916Y-128627770D01*
X104043533Y-128619298D01*
X103812590Y-128388355D01*
X103812588Y-128388352D01*
X103695127Y-128270891D01*
X103661642Y-128209568D01*
X103666626Y-128139876D01*
X103695125Y-128095531D01*
X103762320Y-128028336D01*
X103823641Y-127994853D01*
X103893333Y-127999837D01*
X103937680Y-128028338D01*
X104039811Y-128130469D01*
X104039813Y-128130470D01*
X104039815Y-128130472D01*
X104185394Y-128218478D01*
X104347804Y-128269086D01*
X104418384Y-128275500D01*
X104418387Y-128275500D01*
X104931613Y-128275500D01*
X104931616Y-128275500D01*
X105002196Y-128269086D01*
X105164606Y-128218478D01*
X105310185Y-128130472D01*
X105430472Y-128010185D01*
X105518478Y-127864606D01*
X105569086Y-127702196D01*
X105575500Y-127631616D01*
X105575500Y-126968384D01*
X105569086Y-126897804D01*
X105518478Y-126735394D01*
X105444538Y-126613084D01*
X105426704Y-126545534D01*
X105448221Y-126479060D01*
X105462967Y-126461267D01*
X105658506Y-126265727D01*
X105658511Y-126265724D01*
X105668714Y-126255520D01*
X105668716Y-126255520D01*
X105780520Y-126143716D01*
X105859577Y-126006784D01*
X105900500Y-125854057D01*
X105900500Y-125594663D01*
X105920185Y-125527624D01*
X105972989Y-125481869D01*
X106011248Y-125471373D01*
X106032483Y-125469091D01*
X106167331Y-125418796D01*
X106282546Y-125332546D01*
X106368796Y-125217331D01*
X106419091Y-125082483D01*
X106425500Y-125022873D01*
X106425499Y-124641866D01*
X106445183Y-124574829D01*
X106497987Y-124529074D01*
X106562754Y-124518579D01*
X106567517Y-124519091D01*
G37*
%TD.AperFunction*%
%TA.AperFunction,Conductor*%
G36*
X100967520Y-117419685D02*
G01*
X101007869Y-117462003D01*
X101009844Y-117465423D01*
X101009847Y-117465429D01*
X101069477Y-117568712D01*
X101069481Y-117568717D01*
X101108681Y-117607917D01*
X101142166Y-117669240D01*
X101145000Y-117695598D01*
X101145000Y-117779402D01*
X101125315Y-117846441D01*
X101108681Y-117867083D01*
X101094481Y-117881282D01*
X101094479Y-117881285D01*
X101056954Y-117946282D01*
X101056953Y-117946284D01*
X101015423Y-118018214D01*
X101015423Y-118018215D01*
X100974499Y-118170943D01*
X100974499Y-118170945D01*
X100974499Y-118339046D01*
X100974500Y-118339059D01*
X100974500Y-118624902D01*
X100954815Y-118691941D01*
X100938181Y-118712583D01*
X100894481Y-118756282D01*
X100894479Y-118756285D01*
X100863713Y-118809575D01*
X100863712Y-118809577D01*
X100815423Y-118893214D01*
X100810925Y-118910000D01*
X100774499Y-119045943D01*
X100774499Y-119045945D01*
X100774499Y-119214046D01*
X100774500Y-119214059D01*
X100774500Y-119264880D01*
X100754815Y-119331919D01*
X100729169Y-119360729D01*
X100664117Y-119414117D01*
X100664114Y-119414119D01*
X100664112Y-119414122D01*
X100539090Y-119566460D01*
X100539086Y-119566467D01*
X100446188Y-119740266D01*
X100388975Y-119928870D01*
X100369659Y-120125000D01*
X100388975Y-120321129D01*
X100396576Y-120346186D01*
X100431849Y-120462466D01*
X100446188Y-120509733D01*
X100539086Y-120683532D01*
X100539090Y-120683539D01*
X100664116Y-120835883D01*
X100816460Y-120960909D01*
X100816467Y-120960913D01*
X100990266Y-121053811D01*
X100990269Y-121053811D01*
X100990273Y-121053814D01*
X101178868Y-121111024D01*
X101375000Y-121130341D01*
X101571132Y-121111024D01*
X101759727Y-121053814D01*
X101933538Y-120960910D01*
X102085883Y-120835883D01*
X102210910Y-120683538D01*
X102271093Y-120570943D01*
X102303811Y-120509733D01*
X102303811Y-120509732D01*
X102303814Y-120509727D01*
X102361024Y-120321132D01*
X102380341Y-120125000D01*
X102361024Y-119928868D01*
X102303814Y-119740273D01*
X102302888Y-119738541D01*
X102237747Y-119616670D01*
X102223505Y-119548268D01*
X102248505Y-119483024D01*
X102304810Y-119441653D01*
X102374543Y-119437291D01*
X102383102Y-119439557D01*
X102453868Y-119461024D01*
X102650000Y-119480341D01*
X102846132Y-119461024D01*
X103034727Y-119403814D01*
X103142048Y-119346449D01*
X103210449Y-119332208D01*
X103275693Y-119357208D01*
X103317064Y-119413512D01*
X103324500Y-119455808D01*
X103324500Y-120563330D01*
X103324499Y-120563348D01*
X103324499Y-120729054D01*
X103324498Y-120729054D01*
X103330255Y-120750540D01*
X103356750Y-120849419D01*
X103365424Y-120881787D01*
X103382126Y-120910715D01*
X103382127Y-120910717D01*
X103444477Y-121018712D01*
X103444481Y-121018717D01*
X103563349Y-121137585D01*
X103563355Y-121137590D01*
X104295318Y-121869554D01*
X104328803Y-121930877D01*
X104323819Y-122000569D01*
X104306904Y-122031546D01*
X104231204Y-122132668D01*
X104231202Y-122132671D01*
X104180908Y-122267516D01*
X104176268Y-122310678D01*
X104149530Y-122375229D01*
X104140660Y-122385103D01*
X102612584Y-123913181D01*
X102551261Y-123946666D01*
X102524903Y-123949500D01*
X99690917Y-123949500D01*
X99623878Y-123929815D01*
X99578123Y-123877011D01*
X99573875Y-123866454D01*
X99550789Y-123800478D01*
X99538493Y-123780909D01*
X99454816Y-123647738D01*
X99327262Y-123520184D01*
X99325053Y-123518796D01*
X99174523Y-123424211D01*
X99004254Y-123364631D01*
X99004249Y-123364630D01*
X98825004Y-123344435D01*
X98824996Y-123344435D01*
X98645750Y-123364630D01*
X98645745Y-123364631D01*
X98475476Y-123424211D01*
X98322737Y-123520184D01*
X98195184Y-123647737D01*
X98099209Y-123800480D01*
X98091040Y-123823826D01*
X98050318Y-123880602D01*
X97985365Y-123906349D01*
X97916804Y-123892892D01*
X97866401Y-123844505D01*
X97849999Y-123782871D01*
X97849999Y-123625028D01*
X97849998Y-123625012D01*
X97839505Y-123522302D01*
X97784358Y-123355880D01*
X97784356Y-123355875D01*
X97692315Y-123206654D01*
X97568345Y-123082684D01*
X97419124Y-122990643D01*
X97419119Y-122990641D01*
X97252697Y-122935494D01*
X97252690Y-122935493D01*
X97149986Y-122925000D01*
X97100000Y-122925000D01*
X97100000Y-125374999D01*
X97149972Y-125374999D01*
X97149986Y-125374998D01*
X97252697Y-125364505D01*
X97419119Y-125309358D01*
X97419124Y-125309356D01*
X97568345Y-125217315D01*
X97692315Y-125093345D01*
X97784356Y-124944124D01*
X97784358Y-124944119D01*
X97839505Y-124777697D01*
X97839506Y-124777690D01*
X97849999Y-124674986D01*
X97849999Y-124517131D01*
X97869683Y-124450091D01*
X97922487Y-124404336D01*
X97991645Y-124394392D01*
X98055201Y-124423417D01*
X98091040Y-124476174D01*
X98099209Y-124499520D01*
X98161078Y-124597983D01*
X98195184Y-124652262D01*
X98322738Y-124779816D01*
X98475478Y-124875789D01*
X98645745Y-124935368D01*
X98732668Y-124945161D01*
X98797079Y-124972226D01*
X98806464Y-124980700D01*
X98856284Y-125030520D01*
X98856286Y-125030521D01*
X98856290Y-125030524D01*
X98965101Y-125093345D01*
X98993216Y-125109577D01*
X99105019Y-125139534D01*
X99145942Y-125150500D01*
X99145943Y-125150500D01*
X101425500Y-125150500D01*
X101492539Y-125170185D01*
X101538294Y-125222989D01*
X101549500Y-125274500D01*
X101549500Y-125488330D01*
X101549499Y-125488348D01*
X101549499Y-125654054D01*
X101549498Y-125654054D01*
X101590423Y-125806785D01*
X101604126Y-125830519D01*
X101669477Y-125943712D01*
X101669481Y-125943717D01*
X101788349Y-126062585D01*
X101788355Y-126062590D01*
X102218184Y-126492419D01*
X102251669Y-126553742D01*
X102246685Y-126623434D01*
X102236620Y-126644249D01*
X102181523Y-126735391D01*
X102130913Y-126897807D01*
X102124500Y-126968386D01*
X102124500Y-127631613D01*
X102130913Y-127702192D01*
X102130913Y-127702194D01*
X102130914Y-127702196D01*
X102181522Y-127864606D01*
X102269528Y-128010185D01*
X102388182Y-128128839D01*
X102421666Y-128190160D01*
X102424500Y-128216519D01*
X102424500Y-128449902D01*
X102404815Y-128516941D01*
X102388181Y-128537583D01*
X100919481Y-130006282D01*
X100919475Y-130006290D01*
X100877027Y-130079814D01*
X100877027Y-130079816D01*
X100840423Y-130143214D01*
X100840423Y-130143215D01*
X100799499Y-130295943D01*
X100799499Y-130295945D01*
X100799499Y-130464046D01*
X100799500Y-130464059D01*
X100799500Y-132096733D01*
X100779815Y-132163772D01*
X100774766Y-132171044D01*
X100691206Y-132282664D01*
X100691202Y-132282671D01*
X100640418Y-132418833D01*
X100598547Y-132474767D01*
X100533083Y-132499184D01*
X100524236Y-132499500D01*
X97991715Y-132499500D01*
X97924676Y-132479815D01*
X97885598Y-132439650D01*
X97872218Y-132417517D01*
X97855472Y-132389815D01*
X97855470Y-132389813D01*
X97855469Y-132389811D01*
X97735188Y-132269530D01*
X97589606Y-132181522D01*
X97555980Y-132171044D01*
X97427196Y-132130914D01*
X97427194Y-132130913D01*
X97427192Y-132130913D01*
X97377778Y-132126423D01*
X97356616Y-132124500D01*
X96843384Y-132124500D01*
X96824145Y-132126248D01*
X96772807Y-132130913D01*
X96610393Y-132181522D01*
X96464811Y-132269530D01*
X96464810Y-132269531D01*
X96362681Y-132371661D01*
X96301358Y-132405146D01*
X96231666Y-132400162D01*
X96187319Y-132371661D01*
X96085189Y-132269531D01*
X96085185Y-132269528D01*
X95985349Y-132209174D01*
X95938162Y-132157646D01*
X95925500Y-132103058D01*
X95925500Y-131834797D01*
X95945185Y-131767758D01*
X95984403Y-131729258D01*
X96043656Y-131692712D01*
X96167712Y-131568656D01*
X96169752Y-131565347D01*
X96171745Y-131563555D01*
X96172193Y-131562989D01*
X96172289Y-131563065D01*
X96221694Y-131518623D01*
X96290656Y-131507395D01*
X96354740Y-131535234D01*
X96380829Y-131565339D01*
X96382681Y-131568341D01*
X96382683Y-131568344D01*
X96506654Y-131692315D01*
X96655875Y-131784356D01*
X96655880Y-131784358D01*
X96822302Y-131839505D01*
X96822309Y-131839506D01*
X96925019Y-131849999D01*
X97475000Y-131849999D01*
X97524972Y-131849999D01*
X97524986Y-131849998D01*
X97627697Y-131839505D01*
X97794119Y-131784358D01*
X97794124Y-131784356D01*
X97943345Y-131692315D01*
X98067315Y-131568345D01*
X98159356Y-131419124D01*
X98159358Y-131419119D01*
X98214505Y-131252697D01*
X98214506Y-131252690D01*
X98224999Y-131149986D01*
X98225000Y-131149973D01*
X98225000Y-130875000D01*
X97475000Y-130875000D01*
X97475000Y-131849999D01*
X96925019Y-131849999D01*
X96974999Y-131849998D01*
X96975000Y-131849998D01*
X96975000Y-130375000D01*
X97475000Y-130375000D01*
X98224999Y-130375000D01*
X98224999Y-130100028D01*
X98224998Y-130100013D01*
X98214505Y-129997302D01*
X98159358Y-129830880D01*
X98159356Y-129830875D01*
X98067315Y-129681654D01*
X97943345Y-129557684D01*
X97794124Y-129465643D01*
X97794119Y-129465641D01*
X97627697Y-129410494D01*
X97627690Y-129410493D01*
X97524986Y-129400000D01*
X97475000Y-129400000D01*
X97475000Y-130375000D01*
X96975000Y-130375000D01*
X96975000Y-129400000D01*
X96974999Y-129399999D01*
X96925029Y-129400000D01*
X96925011Y-129400001D01*
X96822302Y-129410494D01*
X96655880Y-129465641D01*
X96655875Y-129465643D01*
X96614535Y-129491143D01*
X96547142Y-129509583D01*
X96480479Y-129488660D01*
X96435709Y-129435018D01*
X96425438Y-129385604D01*
X96425438Y-125498999D01*
X96445123Y-125431960D01*
X96497927Y-125386205D01*
X96549437Y-125374999D01*
X96599999Y-125374998D01*
X96600000Y-125374998D01*
X96600000Y-122925000D01*
X96599999Y-122924999D01*
X96549439Y-122925000D01*
X96482400Y-122905316D01*
X96436644Y-122852513D01*
X96425438Y-122801000D01*
X96425438Y-122798999D01*
X96445123Y-122731960D01*
X96497927Y-122686205D01*
X96549437Y-122674999D01*
X97100000Y-122674999D01*
X97149972Y-122674999D01*
X97149986Y-122674998D01*
X97252697Y-122664505D01*
X97419119Y-122609358D01*
X97419124Y-122609356D01*
X97568345Y-122517315D01*
X97692315Y-122393345D01*
X97784356Y-122244124D01*
X97784358Y-122244119D01*
X97839505Y-122077697D01*
X97839506Y-122077690D01*
X97849999Y-121974986D01*
X97850000Y-121974973D01*
X97850000Y-121700000D01*
X97100000Y-121700000D01*
X97100000Y-122674999D01*
X96549437Y-122674999D01*
X96599999Y-122674998D01*
X96600000Y-122674998D01*
X96600000Y-120225000D01*
X96599999Y-120224999D01*
X96549439Y-120225000D01*
X96482400Y-120205316D01*
X96436644Y-120152513D01*
X96425438Y-120101000D01*
X96425438Y-119850158D01*
X96445123Y-119783119D01*
X96461753Y-119762481D01*
X96988515Y-119235718D01*
X97049836Y-119202235D01*
X97119527Y-119207219D01*
X97175461Y-119249090D01*
X97193236Y-119282447D01*
X97199210Y-119299521D01*
X97235570Y-119357387D01*
X97295184Y-119452262D01*
X97422738Y-119579816D01*
X97533170Y-119649205D01*
X97575478Y-119675789D01*
X97642300Y-119699171D01*
X97699076Y-119739893D01*
X97724824Y-119804845D01*
X97711368Y-119873407D01*
X97689029Y-119903892D01*
X97670184Y-119922737D01*
X97574211Y-120075477D01*
X97530910Y-120199225D01*
X97490188Y-120256001D01*
X97425235Y-120281748D01*
X97374865Y-120275976D01*
X97252700Y-120235495D01*
X97252690Y-120235493D01*
X97149986Y-120225000D01*
X97100000Y-120225000D01*
X97100000Y-121200000D01*
X97849998Y-121200000D01*
X97857404Y-121192594D01*
X97918727Y-121159108D01*
X97986040Y-121163232D01*
X98023151Y-121176218D01*
X98038336Y-121181532D01*
X98095111Y-121222254D01*
X98120783Y-121286419D01*
X98138975Y-121471129D01*
X98138976Y-121471132D01*
X98195143Y-121656290D01*
X98196188Y-121659733D01*
X98289086Y-121833532D01*
X98289090Y-121833539D01*
X98414116Y-121985883D01*
X98566460Y-122110909D01*
X98566467Y-122110913D01*
X98740266Y-122203811D01*
X98740269Y-122203811D01*
X98740273Y-122203814D01*
X98928868Y-122261024D01*
X99125000Y-122280341D01*
X99321132Y-122261024D01*
X99509727Y-122203814D01*
X99683538Y-122110910D01*
X99835883Y-121985883D01*
X99960910Y-121833538D01*
X100053814Y-121659727D01*
X100111024Y-121471132D01*
X100130341Y-121275000D01*
X100111024Y-121078868D01*
X100053814Y-120890273D01*
X100053811Y-120890269D01*
X100053811Y-120890266D01*
X99960913Y-120716467D01*
X99960909Y-120716460D01*
X99835883Y-120564116D01*
X99683539Y-120439090D01*
X99683532Y-120439086D01*
X99509733Y-120346188D01*
X99509727Y-120346186D01*
X99321132Y-120288976D01*
X99321129Y-120288975D01*
X99171371Y-120274226D01*
X99106584Y-120248065D01*
X99066484Y-120191779D01*
X99025789Y-120075478D01*
X98929816Y-119922738D01*
X98802262Y-119795184D01*
X98729556Y-119749500D01*
X98649519Y-119699209D01*
X98582698Y-119675827D01*
X98525922Y-119635106D01*
X98500175Y-119570153D01*
X98513631Y-119501591D01*
X98535971Y-119471106D01*
X98554816Y-119452262D01*
X98564841Y-119436306D01*
X98617174Y-119390014D01*
X98686227Y-119379364D01*
X98750076Y-119407738D01*
X98757517Y-119414595D01*
X98822738Y-119479816D01*
X98857393Y-119501591D01*
X98933825Y-119549617D01*
X98975478Y-119575789D01*
X99092309Y-119616670D01*
X99145745Y-119635368D01*
X99145750Y-119635369D01*
X99324996Y-119655565D01*
X99325000Y-119655565D01*
X99325004Y-119655565D01*
X99504249Y-119635369D01*
X99504252Y-119635368D01*
X99504255Y-119635368D01*
X99674522Y-119575789D01*
X99827262Y-119479816D01*
X99954816Y-119352262D01*
X100050789Y-119199522D01*
X100110368Y-119029255D01*
X100125696Y-118893214D01*
X100130565Y-118850003D01*
X100130565Y-118849996D01*
X100110369Y-118670750D01*
X100110368Y-118670745D01*
X100050788Y-118500476D01*
X100012771Y-118439972D01*
X99993771Y-118372735D01*
X100014139Y-118305900D01*
X100067407Y-118260686D01*
X100117765Y-118250000D01*
X100222828Y-118250000D01*
X100222844Y-118249999D01*
X100282372Y-118243598D01*
X100282375Y-118243597D01*
X100316665Y-118230808D01*
X100386356Y-118225822D01*
X100403335Y-118230808D01*
X100437624Y-118243597D01*
X100437627Y-118243598D01*
X100497155Y-118249999D01*
X100497172Y-118250000D01*
X100645000Y-118250000D01*
X100645000Y-117524000D01*
X100664685Y-117456961D01*
X100717489Y-117411206D01*
X100769000Y-117400000D01*
X100900481Y-117400000D01*
X100967520Y-117419685D01*
G37*
%TD.AperFunction*%
%TA.AperFunction,Conductor*%
G36*
X87247483Y-80770185D02*
G01*
X87293238Y-80822989D01*
X87303733Y-80887756D01*
X87299500Y-80927118D01*
X87299500Y-84522870D01*
X87299501Y-84522876D01*
X87305908Y-84582483D01*
X87356202Y-84717328D01*
X87356206Y-84717335D01*
X87442452Y-84832544D01*
X87442455Y-84832547D01*
X87564769Y-84924112D01*
X87563247Y-84926144D01*
X87603177Y-84966075D01*
X87618028Y-85034348D01*
X87593610Y-85099812D01*
X87537676Y-85141682D01*
X87494344Y-85149500D01*
X86311670Y-85149500D01*
X86311654Y-85149499D01*
X86304058Y-85149499D01*
X86145943Y-85149499D01*
X86069579Y-85169961D01*
X85993214Y-85190423D01*
X85993209Y-85190426D01*
X85856290Y-85269475D01*
X85856282Y-85269481D01*
X85349217Y-85776546D01*
X85349214Y-85776548D01*
X85349215Y-85776549D01*
X85244478Y-85881286D01*
X85194361Y-85968094D01*
X85194359Y-85968096D01*
X85165425Y-86018209D01*
X85165424Y-86018210D01*
X85149544Y-86077472D01*
X85124499Y-86170943D01*
X85124499Y-86170945D01*
X85124499Y-86339046D01*
X85124500Y-86339059D01*
X85124500Y-91629345D01*
X85104815Y-91696384D01*
X85071623Y-91730920D01*
X84918121Y-91838402D01*
X84763402Y-91993121D01*
X84637900Y-92172357D01*
X84637898Y-92172361D01*
X84545426Y-92370668D01*
X84545422Y-92370677D01*
X84488793Y-92582020D01*
X84488793Y-92582023D01*
X84486607Y-92607007D01*
X84469723Y-92799997D01*
X84469723Y-92800002D01*
X84488793Y-93017975D01*
X84488793Y-93017979D01*
X84545422Y-93229322D01*
X84545424Y-93229326D01*
X84545425Y-93229330D01*
X84562490Y-93265925D01*
X84637897Y-93427638D01*
X84637898Y-93427639D01*
X84763402Y-93606877D01*
X84918123Y-93761598D01*
X85071625Y-93869081D01*
X85115249Y-93923657D01*
X85124500Y-93970655D01*
X85124500Y-99063330D01*
X85124499Y-99063348D01*
X85124499Y-99229054D01*
X85124498Y-99229054D01*
X85124499Y-99229057D01*
X85165423Y-99381785D01*
X85165424Y-99381787D01*
X85165423Y-99381787D01*
X85172120Y-99393385D01*
X85172121Y-99393386D01*
X85244477Y-99518712D01*
X85244481Y-99518717D01*
X85363349Y-99637585D01*
X85363355Y-99637590D01*
X87390139Y-101664374D01*
X87390149Y-101664385D01*
X87394479Y-101668715D01*
X87394480Y-101668716D01*
X87506284Y-101780520D01*
X87593095Y-101830639D01*
X87593097Y-101830641D01*
X87631151Y-101852611D01*
X87643215Y-101859577D01*
X87795943Y-101900500D01*
X87954057Y-101900500D01*
X89533480Y-101900500D01*
X89600519Y-101920185D01*
X89621161Y-101936819D01*
X89739811Y-102055469D01*
X89739813Y-102055470D01*
X89739815Y-102055472D01*
X89885394Y-102143478D01*
X90047804Y-102194086D01*
X90118384Y-102200500D01*
X90118387Y-102200500D01*
X90781613Y-102200500D01*
X90781616Y-102200500D01*
X90852196Y-102194086D01*
X91014606Y-102143478D01*
X91160185Y-102055472D01*
X91173510Y-102042147D01*
X91278839Y-101936819D01*
X91340162Y-101903334D01*
X91366520Y-101900500D01*
X92533480Y-101900500D01*
X92600519Y-101920185D01*
X92621161Y-101936819D01*
X92739811Y-102055469D01*
X92739813Y-102055470D01*
X92739815Y-102055472D01*
X92885394Y-102143478D01*
X93047804Y-102194086D01*
X93118384Y-102200500D01*
X93118387Y-102200500D01*
X93259172Y-102200500D01*
X93326211Y-102220185D01*
X93371966Y-102272989D01*
X93381910Y-102342147D01*
X93352885Y-102405703D01*
X93317625Y-102433859D01*
X93216476Y-102487923D01*
X93725000Y-102996446D01*
X93725001Y-102996446D01*
X94233523Y-102487923D01*
X94233523Y-102487922D01*
X94109536Y-102421650D01*
X93995008Y-102386908D01*
X93936570Y-102348611D01*
X93908113Y-102284799D01*
X93918674Y-102215732D01*
X93964899Y-102163338D01*
X93994110Y-102149864D01*
X94014606Y-102143478D01*
X94160185Y-102055472D01*
X94173510Y-102042147D01*
X94278839Y-101936819D01*
X94340162Y-101903334D01*
X94366520Y-101900500D01*
X99059397Y-101900500D01*
X99126436Y-101920185D01*
X99172191Y-101972989D01*
X99182135Y-102042147D01*
X99153110Y-102105703D01*
X99121397Y-102131887D01*
X99056287Y-102169477D01*
X99056282Y-102169481D01*
X98694481Y-102531282D01*
X98694479Y-102531285D01*
X98644361Y-102618094D01*
X98644353Y-102618107D01*
X98640713Y-102624410D01*
X98590140Y-102672620D01*
X98521532Y-102685835D01*
X98456670Y-102659860D01*
X98437475Y-102641057D01*
X98435881Y-102639115D01*
X98283539Y-102514090D01*
X98283532Y-102514086D01*
X98109733Y-102421188D01*
X98109727Y-102421186D01*
X97921132Y-102363976D01*
X97921129Y-102363975D01*
X97725000Y-102344659D01*
X97528870Y-102363975D01*
X97340266Y-102421188D01*
X97166467Y-102514086D01*
X97166460Y-102514090D01*
X97014116Y-102639116D01*
X96960734Y-102704164D01*
X96902989Y-102743498D01*
X96864881Y-102749499D01*
X96845943Y-102749499D01*
X96738587Y-102778265D01*
X96693210Y-102790424D01*
X96685701Y-102793535D01*
X96685119Y-102792131D01*
X96626070Y-102806454D01*
X96560045Y-102783599D01*
X96536124Y-102761260D01*
X96435883Y-102639116D01*
X96283539Y-102514090D01*
X96283532Y-102514086D01*
X96109733Y-102421188D01*
X96109727Y-102421186D01*
X95921132Y-102363976D01*
X95921129Y-102363975D01*
X95725000Y-102344659D01*
X95528870Y-102363975D01*
X95340266Y-102421188D01*
X95166467Y-102514086D01*
X95166460Y-102514090D01*
X95014116Y-102639116D01*
X94889090Y-102791460D01*
X94889088Y-102791463D01*
X94834074Y-102894388D01*
X94785111Y-102944232D01*
X94716974Y-102959692D01*
X94651294Y-102935860D01*
X94615358Y-102894387D01*
X94587076Y-102841475D01*
X94078553Y-103349999D01*
X94078553Y-103350000D01*
X94538180Y-103809626D01*
X94571665Y-103870949D01*
X94574499Y-103897307D01*
X94574499Y-103989046D01*
X94574500Y-103989059D01*
X94574500Y-104525500D01*
X94554815Y-104592539D01*
X94502011Y-104638294D01*
X94450500Y-104649500D01*
X94117130Y-104649500D01*
X94117123Y-104649501D01*
X94057516Y-104655908D01*
X94013332Y-104672388D01*
X93943640Y-104677372D01*
X93926668Y-104672388D01*
X93882488Y-104655910D01*
X93882484Y-104655909D01*
X93882483Y-104655909D01*
X93822873Y-104649500D01*
X93822863Y-104649500D01*
X93327129Y-104649500D01*
X93327123Y-104649501D01*
X93267516Y-104655908D01*
X93218332Y-104674253D01*
X93148640Y-104679237D01*
X93131667Y-104674253D01*
X93082486Y-104655910D01*
X93082485Y-104655909D01*
X93082483Y-104655909D01*
X93022873Y-104649500D01*
X93022863Y-104649500D01*
X92527129Y-104649500D01*
X92527123Y-104649501D01*
X92467516Y-104655908D01*
X92413332Y-104676118D01*
X92343641Y-104681102D01*
X92326667Y-104676118D01*
X92272486Y-104655910D01*
X92272485Y-104655909D01*
X92272483Y-104655909D01*
X92212873Y-104649500D01*
X92212863Y-104649500D01*
X91717129Y-104649500D01*
X91717123Y-104649501D01*
X91657518Y-104655908D01*
X91597616Y-104678250D01*
X91527925Y-104683233D01*
X91510952Y-104678249D01*
X91452380Y-104656403D01*
X91452372Y-104656401D01*
X91392844Y-104650000D01*
X91245000Y-104650000D01*
X91245000Y-106450000D01*
X91705833Y-106450000D01*
X91713811Y-106450427D01*
X91713817Y-106450322D01*
X91717102Y-106450497D01*
X91717127Y-106450500D01*
X92212872Y-106450499D01*
X92272483Y-106444091D01*
X92326665Y-106423881D01*
X92396357Y-106418897D01*
X92413328Y-106423879D01*
X92467517Y-106444091D01*
X92527127Y-106450500D01*
X93022872Y-106450499D01*
X93082483Y-106444091D01*
X93131665Y-106425746D01*
X93201355Y-106420761D01*
X93218333Y-106425747D01*
X93267508Y-106444088D01*
X93267511Y-106444089D01*
X93267517Y-106444091D01*
X93327127Y-106450500D01*
X93822872Y-106450499D01*
X93882483Y-106444091D01*
X93926665Y-106427611D01*
X93996356Y-106422626D01*
X94013333Y-106427612D01*
X94057508Y-106444088D01*
X94057511Y-106444089D01*
X94057517Y-106444091D01*
X94117127Y-106450500D01*
X94612872Y-106450499D01*
X94672483Y-106444091D01*
X94726665Y-106423881D01*
X94796357Y-106418897D01*
X94813328Y-106423879D01*
X94867517Y-106444091D01*
X94927127Y-106450500D01*
X95422872Y-106450499D01*
X95482483Y-106444091D01*
X95531665Y-106425746D01*
X95601355Y-106420761D01*
X95618333Y-106425747D01*
X95667508Y-106444088D01*
X95667511Y-106444089D01*
X95667517Y-106444091D01*
X95727127Y-106450500D01*
X96222872Y-106450499D01*
X96282483Y-106444091D01*
X96326665Y-106427611D01*
X96396356Y-106422626D01*
X96413333Y-106427612D01*
X96457508Y-106444088D01*
X96457511Y-106444089D01*
X96457517Y-106444091D01*
X96517127Y-106450500D01*
X97012872Y-106450499D01*
X97072483Y-106444091D01*
X97126665Y-106423881D01*
X97196357Y-106418897D01*
X97213328Y-106423879D01*
X97267517Y-106444091D01*
X97327127Y-106450500D01*
X97822872Y-106450499D01*
X97882483Y-106444091D01*
X97926665Y-106427611D01*
X97996356Y-106422626D01*
X98013333Y-106427612D01*
X98057508Y-106444088D01*
X98057511Y-106444089D01*
X98057517Y-106444091D01*
X98117127Y-106450500D01*
X98214425Y-106450499D01*
X98281462Y-106470183D01*
X98327218Y-106522986D01*
X98337644Y-106588382D01*
X98319435Y-106749996D01*
X98319435Y-106750003D01*
X98339630Y-106929249D01*
X98339631Y-106929254D01*
X98399211Y-107099523D01*
X98473791Y-107218215D01*
X98495184Y-107252262D01*
X98622738Y-107379816D01*
X98639619Y-107390423D01*
X98700107Y-107428430D01*
X98746398Y-107480765D01*
X98757046Y-107549818D01*
X98728671Y-107613667D01*
X98721817Y-107621105D01*
X98595183Y-107747739D01*
X98499211Y-107900476D01*
X98439631Y-108070745D01*
X98439630Y-108070750D01*
X98419435Y-108249996D01*
X98419435Y-108250004D01*
X98421363Y-108267117D01*
X98409308Y-108335939D01*
X98361959Y-108387318D01*
X98298143Y-108405000D01*
X97945000Y-108405000D01*
X97945000Y-111180000D01*
X98908761Y-111180000D01*
X98970759Y-111196611D01*
X98993216Y-111209577D01*
X99145943Y-111250501D01*
X99145945Y-111250501D01*
X99311654Y-111250501D01*
X99311670Y-111250500D01*
X99820500Y-111250500D01*
X99887539Y-111270185D01*
X99933294Y-111322989D01*
X99944500Y-111374500D01*
X99944500Y-111697869D01*
X99944501Y-111697876D01*
X99950908Y-111757482D01*
X99964004Y-111792593D01*
X99969252Y-111806665D01*
X99969253Y-111806666D01*
X99974237Y-111876358D01*
X99969253Y-111893331D01*
X99950910Y-111942511D01*
X99950909Y-111942515D01*
X99950909Y-111942517D01*
X99944500Y-112002127D01*
X99944500Y-112002134D01*
X99944500Y-112002135D01*
X99944500Y-112497870D01*
X99944501Y-112497876D01*
X99950908Y-112557482D01*
X99964004Y-112592593D01*
X99969252Y-112606665D01*
X99969253Y-112606666D01*
X99974237Y-112676358D01*
X99969253Y-112693331D01*
X99950910Y-112742511D01*
X99950909Y-112742515D01*
X99950909Y-112742517D01*
X99944500Y-112802127D01*
X99944500Y-112802134D01*
X99944500Y-112802135D01*
X99944500Y-113297870D01*
X99944501Y-113297876D01*
X99950908Y-113357482D01*
X99955929Y-113370943D01*
X99969252Y-113406665D01*
X99969253Y-113406666D01*
X99974237Y-113476358D01*
X99969253Y-113493331D01*
X99950910Y-113542511D01*
X99950909Y-113542515D01*
X99950909Y-113542517D01*
X99944500Y-113602127D01*
X99944500Y-113602134D01*
X99944500Y-113602135D01*
X99944500Y-114097870D01*
X99944501Y-114097876D01*
X99950909Y-114157484D01*
X99969519Y-114207382D01*
X99974503Y-114277074D01*
X99969520Y-114294046D01*
X99951402Y-114342623D01*
X99951401Y-114342627D01*
X99945000Y-114402155D01*
X99945000Y-114450000D01*
X100102893Y-114450000D01*
X100169932Y-114469685D01*
X100177204Y-114474733D01*
X100202668Y-114493795D01*
X100202671Y-114493797D01*
X100309972Y-114533818D01*
X100365906Y-114575689D01*
X100390323Y-114641154D01*
X100375471Y-114709427D01*
X100326066Y-114758832D01*
X100309972Y-114766182D01*
X100202671Y-114806202D01*
X100202668Y-114806204D01*
X100177204Y-114825267D01*
X100111739Y-114849684D01*
X100102893Y-114850000D01*
X99945000Y-114850000D01*
X99945000Y-114897844D01*
X99951401Y-114957372D01*
X99951403Y-114957383D01*
X99969519Y-115005953D01*
X99974503Y-115075644D01*
X99969520Y-115092616D01*
X99953104Y-115136631D01*
X99950909Y-115142517D01*
X99944500Y-115202127D01*
X99944500Y-115202134D01*
X99944500Y-115202135D01*
X99944500Y-115697870D01*
X99944501Y-115697876D01*
X99950908Y-115757482D01*
X99963136Y-115790266D01*
X99969252Y-115806665D01*
X99969253Y-115806666D01*
X99974237Y-115876358D01*
X99969253Y-115893331D01*
X99950910Y-115942511D01*
X99950909Y-115942515D01*
X99950909Y-115942517D01*
X99944500Y-116002127D01*
X99944500Y-116175000D01*
X99944501Y-116326000D01*
X99924817Y-116393039D01*
X99872013Y-116438794D01*
X99820501Y-116450000D01*
X99727155Y-116450000D01*
X99667627Y-116456401D01*
X99667623Y-116456402D01*
X99619046Y-116474520D01*
X99549354Y-116479503D01*
X99532382Y-116474519D01*
X99482488Y-116455910D01*
X99482484Y-116455909D01*
X99482483Y-116455909D01*
X99422873Y-116449500D01*
X99422863Y-116449500D01*
X98927129Y-116449500D01*
X98927123Y-116449501D01*
X98867516Y-116455908D01*
X98813332Y-116476118D01*
X98743641Y-116481102D01*
X98726667Y-116476118D01*
X98672486Y-116455910D01*
X98672485Y-116455909D01*
X98672483Y-116455909D01*
X98612873Y-116449500D01*
X98612863Y-116449500D01*
X98117129Y-116449500D01*
X98117123Y-116449501D01*
X98057516Y-116455908D01*
X98013332Y-116472388D01*
X97943640Y-116477372D01*
X97926668Y-116472388D01*
X97882488Y-116455910D01*
X97882484Y-116455909D01*
X97882483Y-116455909D01*
X97822873Y-116449500D01*
X97822863Y-116449500D01*
X97327129Y-116449500D01*
X97327123Y-116449501D01*
X97267516Y-116455908D01*
X97213332Y-116476118D01*
X97143641Y-116481102D01*
X97126667Y-116476118D01*
X97072486Y-116455910D01*
X97072485Y-116455909D01*
X97072483Y-116455909D01*
X97012873Y-116449500D01*
X97012863Y-116449500D01*
X96517129Y-116449500D01*
X96517123Y-116449501D01*
X96457516Y-116455908D01*
X96408332Y-116474253D01*
X96338640Y-116479237D01*
X96321667Y-116474253D01*
X96272486Y-116455910D01*
X96272485Y-116455909D01*
X96272483Y-116455909D01*
X96212873Y-116449500D01*
X96212863Y-116449500D01*
X95717129Y-116449500D01*
X95717123Y-116449501D01*
X95657516Y-116455908D01*
X95613332Y-116472388D01*
X95543640Y-116477372D01*
X95526668Y-116472388D01*
X95482488Y-116455910D01*
X95482484Y-116455909D01*
X95482483Y-116455909D01*
X95422873Y-116449500D01*
X95422863Y-116449500D01*
X94927129Y-116449500D01*
X94927123Y-116449501D01*
X94867516Y-116455908D01*
X94813332Y-116476118D01*
X94743641Y-116481102D01*
X94726667Y-116476118D01*
X94672486Y-116455910D01*
X94672485Y-116455909D01*
X94672483Y-116455909D01*
X94612873Y-116449500D01*
X94612863Y-116449500D01*
X94117129Y-116449500D01*
X94117123Y-116449501D01*
X94057516Y-116455908D01*
X94013332Y-116472388D01*
X93943640Y-116477372D01*
X93926668Y-116472388D01*
X93882488Y-116455910D01*
X93882484Y-116455909D01*
X93882483Y-116455909D01*
X93822873Y-116449500D01*
X93822863Y-116449500D01*
X93327129Y-116449500D01*
X93327123Y-116449501D01*
X93267517Y-116455908D01*
X93217616Y-116474520D01*
X93147925Y-116479503D01*
X93130953Y-116474519D01*
X93082383Y-116456403D01*
X93082372Y-116456401D01*
X93022844Y-116450000D01*
X92975000Y-116450000D01*
X92975000Y-116607893D01*
X92955315Y-116674932D01*
X92950267Y-116682204D01*
X92931204Y-116707668D01*
X92931202Y-116707671D01*
X92893952Y-116807546D01*
X92880909Y-116842517D01*
X92874500Y-116902127D01*
X92874500Y-117343215D01*
X92874501Y-117350000D01*
X92874501Y-117797876D01*
X92880908Y-117857483D01*
X92931203Y-117992329D01*
X92949766Y-118017126D01*
X92974184Y-118082590D01*
X92974500Y-118091438D01*
X92974500Y-119988330D01*
X92974499Y-119988348D01*
X92974499Y-120154054D01*
X92974498Y-120154054D01*
X93010650Y-120288975D01*
X93015423Y-120306785D01*
X93039499Y-120348485D01*
X93091807Y-120439086D01*
X93094479Y-120443714D01*
X93094481Y-120443717D01*
X93213349Y-120562585D01*
X93213355Y-120562590D01*
X93913181Y-121262416D01*
X93946666Y-121323739D01*
X93949500Y-121350097D01*
X93949500Y-121975001D01*
X93949501Y-121975019D01*
X93960000Y-122077796D01*
X93960001Y-122077799D01*
X94015185Y-122244331D01*
X94015187Y-122244336D01*
X94037395Y-122280341D01*
X94107288Y-122393656D01*
X94231344Y-122517712D01*
X94290596Y-122554258D01*
X94337321Y-122606204D01*
X94349500Y-122659797D01*
X94349500Y-122940201D01*
X94329815Y-123007240D01*
X94290598Y-123045739D01*
X94231344Y-123082287D01*
X94107289Y-123206342D01*
X94107288Y-123206344D01*
X94022114Y-123344435D01*
X94011395Y-123361813D01*
X94010223Y-123361090D01*
X93969221Y-123407654D01*
X93902027Y-123426804D01*
X93862061Y-123419850D01*
X93704257Y-123364632D01*
X93704249Y-123364630D01*
X93525004Y-123344435D01*
X93524996Y-123344435D01*
X93345750Y-123364630D01*
X93345745Y-123364631D01*
X93175476Y-123424211D01*
X93016842Y-123523889D01*
X93015402Y-123521598D01*
X92962096Y-123543346D01*
X92893404Y-123530573D01*
X92842522Y-123482690D01*
X92825500Y-123419987D01*
X92825500Y-121142685D01*
X92825500Y-121142682D01*
X92799365Y-120960909D01*
X92794955Y-120930234D01*
X92794952Y-120930224D01*
X92794413Y-120928386D01*
X92734484Y-120724289D01*
X92734483Y-120724287D01*
X92734482Y-120724283D01*
X92645327Y-120529060D01*
X92645314Y-120529037D01*
X92529284Y-120348491D01*
X92529282Y-120348488D01*
X92529280Y-120348485D01*
X92529278Y-120348483D01*
X92529274Y-120348477D01*
X92388725Y-120186277D01*
X92376621Y-120175789D01*
X92226511Y-120045718D01*
X92226510Y-120045717D01*
X92226504Y-120045713D01*
X92045958Y-119929683D01*
X92045935Y-119929670D01*
X91850710Y-119840515D01*
X91850698Y-119840510D01*
X91644773Y-119780047D01*
X91644757Y-119780043D01*
X91432314Y-119749500D01*
X91390889Y-119749500D01*
X83831967Y-119749500D01*
X83818166Y-119748729D01*
X83798954Y-119746577D01*
X83728387Y-119738673D01*
X83701490Y-119732574D01*
X83622719Y-119705203D01*
X83597836Y-119693310D01*
X83527063Y-119649205D01*
X83505426Y-119632107D01*
X83446148Y-119573446D01*
X83428829Y-119551994D01*
X83383981Y-119481674D01*
X83371832Y-119456920D01*
X83371433Y-119455808D01*
X83343640Y-119378438D01*
X83337263Y-119351615D01*
X83326421Y-119263165D01*
X83325500Y-119248079D01*
X83325500Y-119034000D01*
X83345185Y-118966961D01*
X83397989Y-118921206D01*
X83449500Y-118910000D01*
X89980000Y-118910000D01*
X89985525Y-118075119D01*
X90005652Y-118008212D01*
X90058758Y-117962807D01*
X90127981Y-117953322D01*
X90191343Y-117982766D01*
X90208788Y-118001629D01*
X90287809Y-118107187D01*
X90287812Y-118107190D01*
X90402906Y-118193350D01*
X90402913Y-118193354D01*
X90537620Y-118243596D01*
X90537627Y-118243598D01*
X90597155Y-118249999D01*
X90597172Y-118250000D01*
X90745000Y-118250000D01*
X91245000Y-118250000D01*
X91392828Y-118250000D01*
X91392844Y-118249999D01*
X91452377Y-118243597D01*
X91452378Y-118243597D01*
X91511665Y-118221484D01*
X91581356Y-118216498D01*
X91598335Y-118221484D01*
X91657621Y-118243597D01*
X91717155Y-118249999D01*
X91717172Y-118250000D01*
X91765000Y-118250000D01*
X92165000Y-118250000D01*
X92212828Y-118250000D01*
X92212844Y-118249999D01*
X92272377Y-118243597D01*
X92272378Y-118243597D01*
X92326665Y-118223349D01*
X92396356Y-118218363D01*
X92413335Y-118223349D01*
X92467621Y-118243597D01*
X92527155Y-118249999D01*
X92527172Y-118250000D01*
X92575000Y-118250000D01*
X92575000Y-117550000D01*
X92165000Y-117550000D01*
X92165000Y-118250000D01*
X91765000Y-118250000D01*
X91765000Y-117650000D01*
X91245000Y-117650000D01*
X91245000Y-118250000D01*
X90745000Y-118250000D01*
X90745000Y-117150000D01*
X91245000Y-117150000D01*
X91765000Y-117150000D01*
X92165000Y-117150000D01*
X92575000Y-117150000D01*
X92575000Y-116450000D01*
X92527155Y-116450000D01*
X92467627Y-116456401D01*
X92467621Y-116456403D01*
X92413331Y-116476651D01*
X92343640Y-116481634D01*
X92326669Y-116476651D01*
X92272378Y-116456403D01*
X92272372Y-116456401D01*
X92212844Y-116450000D01*
X92165000Y-116450000D01*
X92165000Y-117150000D01*
X91765000Y-117150000D01*
X91765000Y-116450000D01*
X91245000Y-116450000D01*
X91245000Y-117150000D01*
X90745000Y-117150000D01*
X90745000Y-116544000D01*
X90764685Y-116476961D01*
X90817489Y-116431206D01*
X90838327Y-116426672D01*
X90845000Y-116420000D01*
X90845000Y-116050000D01*
X91245000Y-116050000D01*
X91945000Y-116050000D01*
X91945000Y-116002172D01*
X91944999Y-116002155D01*
X91938597Y-115942622D01*
X91938597Y-115942621D01*
X91920214Y-115893335D01*
X91915228Y-115823644D01*
X91920214Y-115806665D01*
X91938597Y-115757378D01*
X91938597Y-115757377D01*
X91944999Y-115697844D01*
X91945000Y-115697827D01*
X91945000Y-115650000D01*
X91245000Y-115650000D01*
X91245000Y-116050000D01*
X90845000Y-116050000D01*
X90845000Y-115250000D01*
X91245000Y-115250000D01*
X91945000Y-115250000D01*
X91945000Y-115202172D01*
X91944999Y-115202155D01*
X91938597Y-115142622D01*
X91938597Y-115142621D01*
X91920214Y-115093335D01*
X91915228Y-115023644D01*
X91920214Y-115006665D01*
X91938597Y-114957378D01*
X91938597Y-114957377D01*
X91944999Y-114897844D01*
X91945000Y-114897827D01*
X91945000Y-114850000D01*
X91245000Y-114850000D01*
X91245000Y-115250000D01*
X90845000Y-115250000D01*
X90845000Y-114450000D01*
X91245000Y-114450000D01*
X91945000Y-114450000D01*
X91945000Y-114402172D01*
X91944999Y-114402155D01*
X91938597Y-114342622D01*
X91938597Y-114342621D01*
X91920214Y-114293335D01*
X91915228Y-114223644D01*
X91920214Y-114206665D01*
X91938597Y-114157378D01*
X91938597Y-114157377D01*
X91944999Y-114097844D01*
X91945000Y-114097827D01*
X91945000Y-114050000D01*
X91245000Y-114050000D01*
X91245000Y-114450000D01*
X90845000Y-114450000D01*
X90845000Y-114002844D01*
X92870000Y-114002844D01*
X92876401Y-114062372D01*
X92876403Y-114062379D01*
X92926645Y-114197086D01*
X92926649Y-114197093D01*
X93012809Y-114312187D01*
X93012812Y-114312190D01*
X93127906Y-114398350D01*
X93127913Y-114398354D01*
X93262620Y-114448596D01*
X93262627Y-114448598D01*
X93322155Y-114454999D01*
X93322172Y-114455000D01*
X93845000Y-114455000D01*
X94345000Y-114455000D01*
X94867828Y-114455000D01*
X94867844Y-114454999D01*
X94927372Y-114448598D01*
X94927375Y-114448597D01*
X94951665Y-114439538D01*
X95021356Y-114434552D01*
X95038335Y-114439538D01*
X95062624Y-114448597D01*
X95062627Y-114448598D01*
X95122155Y-114454999D01*
X95122172Y-114455000D01*
X95645000Y-114455000D01*
X96145000Y-114455000D01*
X96667828Y-114455000D01*
X96667844Y-114454999D01*
X96727372Y-114448598D01*
X96727375Y-114448597D01*
X96751665Y-114439538D01*
X96821356Y-114434552D01*
X96838335Y-114439538D01*
X96862624Y-114448597D01*
X96862627Y-114448598D01*
X96922155Y-114454999D01*
X96922172Y-114455000D01*
X97445000Y-114455000D01*
X97945000Y-114455000D01*
X98467828Y-114455000D01*
X98467844Y-114454999D01*
X98527372Y-114448598D01*
X98527379Y-114448596D01*
X98662086Y-114398354D01*
X98662093Y-114398350D01*
X98777187Y-114312190D01*
X98777190Y-114312187D01*
X98863350Y-114197093D01*
X98863354Y-114197086D01*
X98913596Y-114062379D01*
X98913598Y-114062372D01*
X98919999Y-114002844D01*
X98920000Y-114002827D01*
X98920000Y-113480000D01*
X97945000Y-113480000D01*
X97945000Y-114455000D01*
X97445000Y-114455000D01*
X97445000Y-113480000D01*
X96145000Y-113480000D01*
X96145000Y-114455000D01*
X95645000Y-114455000D01*
X95645000Y-113480000D01*
X94345000Y-113480000D01*
X94345000Y-114455000D01*
X93845000Y-114455000D01*
X93845000Y-113480000D01*
X92870000Y-113480000D01*
X92870000Y-114002844D01*
X90845000Y-114002844D01*
X90845000Y-113650000D01*
X91245000Y-113650000D01*
X91945000Y-113650000D01*
X91945000Y-113602172D01*
X91944999Y-113602155D01*
X91938597Y-113542622D01*
X91938597Y-113542621D01*
X91920214Y-113493335D01*
X91915228Y-113423644D01*
X91920214Y-113406665D01*
X91938597Y-113357378D01*
X91938597Y-113357377D01*
X91944999Y-113297844D01*
X91945000Y-113297827D01*
X91945000Y-113250000D01*
X91245000Y-113250000D01*
X91245000Y-113650000D01*
X90845000Y-113650000D01*
X90845000Y-112850000D01*
X91245000Y-112850000D01*
X91945000Y-112850000D01*
X91945000Y-112802172D01*
X91944999Y-112802155D01*
X91938597Y-112742622D01*
X91938597Y-112742621D01*
X91920214Y-112693335D01*
X91915228Y-112623644D01*
X91920214Y-112606665D01*
X91938597Y-112557378D01*
X91938597Y-112557377D01*
X91944999Y-112497844D01*
X91945000Y-112497827D01*
X91945000Y-112450000D01*
X91245000Y-112450000D01*
X91245000Y-112850000D01*
X90845000Y-112850000D01*
X90845000Y-112202844D01*
X92870000Y-112202844D01*
X92876401Y-112262372D01*
X92876403Y-112262379D01*
X92885462Y-112286669D01*
X92890445Y-112356361D01*
X92885462Y-112373331D01*
X92876403Y-112397620D01*
X92876401Y-112397627D01*
X92870000Y-112457155D01*
X92870000Y-112980000D01*
X93845000Y-112980000D01*
X94345000Y-112980000D01*
X95645000Y-112980000D01*
X96145000Y-112980000D01*
X97445000Y-112980000D01*
X97945000Y-112980000D01*
X98920000Y-112980000D01*
X98920000Y-112457172D01*
X98919999Y-112457155D01*
X98913598Y-112397627D01*
X98913597Y-112397624D01*
X98904538Y-112373335D01*
X98899552Y-112303644D01*
X98904538Y-112286665D01*
X98913597Y-112262375D01*
X98913598Y-112262372D01*
X98919999Y-112202844D01*
X98920000Y-112202827D01*
X98920000Y-111680000D01*
X97945000Y-111680000D01*
X97945000Y-112980000D01*
X97445000Y-112980000D01*
X97445000Y-111680000D01*
X96145000Y-111680000D01*
X96145000Y-112980000D01*
X95645000Y-112980000D01*
X95645000Y-111680000D01*
X94345000Y-111680000D01*
X94345000Y-112980000D01*
X93845000Y-112980000D01*
X93845000Y-111680000D01*
X92870000Y-111680000D01*
X92870000Y-112202844D01*
X90845000Y-112202844D01*
X90845000Y-112050000D01*
X91245000Y-112050000D01*
X91945000Y-112050000D01*
X91945000Y-112002172D01*
X91944999Y-112002155D01*
X91938597Y-111942622D01*
X91938597Y-111942621D01*
X91920214Y-111893335D01*
X91915228Y-111823644D01*
X91920214Y-111806665D01*
X91938597Y-111757378D01*
X91938597Y-111757377D01*
X91944999Y-111697844D01*
X91945000Y-111697827D01*
X91945000Y-111650000D01*
X91245000Y-111650000D01*
X91245000Y-112050000D01*
X90845000Y-112050000D01*
X90845000Y-111250000D01*
X91245000Y-111250000D01*
X91945000Y-111250000D01*
X91945000Y-111202172D01*
X91944999Y-111202155D01*
X91938597Y-111142622D01*
X91938597Y-111142621D01*
X91920214Y-111093335D01*
X91915228Y-111023644D01*
X91920214Y-111006665D01*
X91938597Y-110957378D01*
X91938597Y-110957377D01*
X91944999Y-110897844D01*
X91945000Y-110897827D01*
X91945000Y-110850000D01*
X91245000Y-110850000D01*
X91245000Y-111250000D01*
X90845000Y-111250000D01*
X90845000Y-110450000D01*
X91245000Y-110450000D01*
X91945000Y-110450000D01*
X91945000Y-110402844D01*
X92870000Y-110402844D01*
X92876401Y-110462372D01*
X92876403Y-110462379D01*
X92885462Y-110486669D01*
X92890445Y-110556361D01*
X92885462Y-110573331D01*
X92876403Y-110597620D01*
X92876401Y-110597627D01*
X92870000Y-110657155D01*
X92870000Y-111180000D01*
X93845000Y-111180000D01*
X94345000Y-111180000D01*
X95645000Y-111180000D01*
X96145000Y-111180000D01*
X97445000Y-111180000D01*
X97445000Y-109880000D01*
X96145000Y-109880000D01*
X96145000Y-111180000D01*
X95645000Y-111180000D01*
X95645000Y-109880000D01*
X94345000Y-109880000D01*
X94345000Y-111180000D01*
X93845000Y-111180000D01*
X93845000Y-109880000D01*
X92870000Y-109880000D01*
X92870000Y-110402844D01*
X91945000Y-110402844D01*
X91945000Y-110402172D01*
X91944999Y-110402155D01*
X91938597Y-110342622D01*
X91938597Y-110342621D01*
X91920214Y-110293335D01*
X91915228Y-110223644D01*
X91920214Y-110206665D01*
X91938597Y-110157378D01*
X91938597Y-110157377D01*
X91944999Y-110097844D01*
X91945000Y-110097827D01*
X91945000Y-110050000D01*
X91245000Y-110050000D01*
X91245000Y-110450000D01*
X90845000Y-110450000D01*
X90845000Y-109650000D01*
X91245000Y-109650000D01*
X91945000Y-109650000D01*
X91945000Y-109602172D01*
X91944999Y-109602155D01*
X91938597Y-109542622D01*
X91938597Y-109542621D01*
X91920214Y-109493335D01*
X91915228Y-109423644D01*
X91920214Y-109406665D01*
X91938597Y-109357378D01*
X91938597Y-109357377D01*
X91944999Y-109297844D01*
X91945000Y-109297827D01*
X91945000Y-109250000D01*
X91245000Y-109250000D01*
X91245000Y-109650000D01*
X90845000Y-109650000D01*
X90845000Y-108857155D01*
X92870000Y-108857155D01*
X92870000Y-109380000D01*
X93845000Y-109380000D01*
X94345000Y-109380000D01*
X95645000Y-109380000D01*
X96145000Y-109380000D01*
X97445000Y-109380000D01*
X97445000Y-108405000D01*
X96922155Y-108405000D01*
X96862627Y-108411401D01*
X96862620Y-108411403D01*
X96838331Y-108420462D01*
X96768639Y-108425445D01*
X96751669Y-108420462D01*
X96727379Y-108411403D01*
X96727372Y-108411401D01*
X96667844Y-108405000D01*
X96145000Y-108405000D01*
X96145000Y-109380000D01*
X95645000Y-109380000D01*
X95645000Y-108405000D01*
X95122155Y-108405000D01*
X95062627Y-108411401D01*
X95062620Y-108411403D01*
X95038331Y-108420462D01*
X94968639Y-108425445D01*
X94951669Y-108420462D01*
X94927379Y-108411403D01*
X94927372Y-108411401D01*
X94867844Y-108405000D01*
X94345000Y-108405000D01*
X94345000Y-109380000D01*
X93845000Y-109380000D01*
X93845000Y-108405000D01*
X93322155Y-108405000D01*
X93262627Y-108411401D01*
X93262620Y-108411403D01*
X93127913Y-108461645D01*
X93127906Y-108461649D01*
X93012812Y-108547809D01*
X93012809Y-108547812D01*
X92926649Y-108662906D01*
X92926645Y-108662913D01*
X92876403Y-108797620D01*
X92876401Y-108797627D01*
X92870000Y-108857155D01*
X90845000Y-108857155D01*
X90845000Y-108850000D01*
X91245000Y-108850000D01*
X91945000Y-108850000D01*
X91945000Y-108802172D01*
X91944999Y-108802155D01*
X91938597Y-108742622D01*
X91938597Y-108742621D01*
X91920214Y-108693335D01*
X91915228Y-108623644D01*
X91920214Y-108606665D01*
X91938597Y-108557378D01*
X91938597Y-108557377D01*
X91944999Y-108497844D01*
X91945000Y-108497827D01*
X91945000Y-108450000D01*
X91245000Y-108450000D01*
X91245000Y-108850000D01*
X90845000Y-108850000D01*
X90845000Y-108050000D01*
X91245000Y-108050000D01*
X91945000Y-108050000D01*
X91945000Y-108002172D01*
X91944999Y-108002155D01*
X91938597Y-107942622D01*
X91938597Y-107942621D01*
X91920214Y-107893335D01*
X91915228Y-107823644D01*
X91920214Y-107806665D01*
X91938597Y-107757378D01*
X91938597Y-107757377D01*
X91944999Y-107697844D01*
X91945000Y-107697827D01*
X91945000Y-107650000D01*
X91245000Y-107650000D01*
X91245000Y-108050000D01*
X90845000Y-108050000D01*
X90845000Y-107250000D01*
X91245000Y-107250000D01*
X91945000Y-107250000D01*
X91945000Y-107202172D01*
X91944999Y-107202155D01*
X91938597Y-107142622D01*
X91938597Y-107142621D01*
X91920214Y-107093335D01*
X91915228Y-107023644D01*
X91920214Y-107006665D01*
X91938597Y-106957378D01*
X91938597Y-106957377D01*
X91944999Y-106897844D01*
X91945000Y-106897827D01*
X91945000Y-106850000D01*
X91245000Y-106850000D01*
X91245000Y-107250000D01*
X90845000Y-107250000D01*
X90845000Y-106480000D01*
X90835023Y-106470023D01*
X90801961Y-106460315D01*
X90756206Y-106407511D01*
X90745000Y-106356000D01*
X90745000Y-104650000D01*
X90597155Y-104650000D01*
X90537627Y-104656401D01*
X90537620Y-104656403D01*
X90402913Y-104706645D01*
X90402906Y-104706649D01*
X90287809Y-104792811D01*
X90285666Y-104794955D01*
X90283007Y-104796406D01*
X90280712Y-104798125D01*
X90280464Y-104797794D01*
X90224341Y-104828437D01*
X90154650Y-104823448D01*
X90098718Y-104781574D01*
X90074305Y-104716108D01*
X90073993Y-104706448D01*
X90074112Y-104688550D01*
X90077265Y-104212075D01*
X93216476Y-104212075D01*
X93340462Y-104278348D01*
X93528969Y-104335531D01*
X93528965Y-104335531D01*
X93725000Y-104354838D01*
X93921032Y-104335531D01*
X94109537Y-104278348D01*
X94233523Y-104212076D01*
X94233523Y-104212075D01*
X93725001Y-103703553D01*
X93725000Y-103703553D01*
X93216476Y-104212075D01*
X90077265Y-104212075D01*
X90079993Y-103799819D01*
X83449500Y-103799819D01*
X83382461Y-103780134D01*
X83336706Y-103727330D01*
X83325500Y-103675819D01*
X83325500Y-103350000D01*
X92720161Y-103350000D01*
X92739468Y-103546032D01*
X92796651Y-103734539D01*
X92862922Y-103858523D01*
X92862923Y-103858523D01*
X93371446Y-103350000D01*
X93371446Y-103349999D01*
X92862923Y-102841476D01*
X92796649Y-102965466D01*
X92739468Y-103153967D01*
X92720161Y-103350000D01*
X83325500Y-103350000D01*
X83325500Y-81670488D01*
X83326111Y-81658193D01*
X83328874Y-81630468D01*
X83334095Y-81578073D01*
X83338933Y-81554015D01*
X83360740Y-81482933D01*
X83370227Y-81460298D01*
X83405609Y-81394914D01*
X83419366Y-81374595D01*
X83471032Y-81312548D01*
X83479337Y-81303525D01*
X83521792Y-81261757D01*
X83521794Y-81261753D01*
X83523930Y-81259652D01*
X83529791Y-81253021D01*
X83881587Y-80901227D01*
X83890603Y-80893057D01*
X83952196Y-80842519D01*
X83972399Y-80829021D01*
X84037280Y-80794346D01*
X84059724Y-80785051D01*
X84130114Y-80763702D01*
X84153946Y-80758962D01*
X84233663Y-80751111D01*
X84245815Y-80750515D01*
X84313201Y-80750515D01*
X84313430Y-80750500D01*
X87180444Y-80750500D01*
X87247483Y-80770185D01*
G37*
%TD.AperFunction*%
%TA.AperFunction,Conductor*%
G36*
X115416860Y-77751097D02*
G01*
X115426023Y-77751999D01*
X115496093Y-77758900D01*
X115519924Y-77763639D01*
X115590267Y-77784977D01*
X115612713Y-77794275D01*
X115677544Y-77828927D01*
X115697735Y-77842418D01*
X115759212Y-77892870D01*
X115768219Y-77901034D01*
X121163022Y-83295835D01*
X121163026Y-83295839D01*
X121173892Y-83306706D01*
X121182062Y-83315721D01*
X121232569Y-83377267D01*
X121246074Y-83397480D01*
X121280717Y-83462298D01*
X121290018Y-83484754D01*
X121311348Y-83555075D01*
X121316090Y-83578916D01*
X121323902Y-83658244D01*
X121324499Y-83670396D01*
X121324499Y-83740086D01*
X121324500Y-83740099D01*
X121324500Y-97444344D01*
X121304815Y-97511383D01*
X121252011Y-97557138D01*
X121182853Y-97567082D01*
X121119297Y-97538057D01*
X121099996Y-97514106D01*
X121099112Y-97514769D01*
X121007547Y-97392455D01*
X121007544Y-97392452D01*
X120892335Y-97306206D01*
X120892328Y-97306202D01*
X120757482Y-97255908D01*
X120757483Y-97255908D01*
X120697883Y-97249501D01*
X120697881Y-97249500D01*
X120697873Y-97249500D01*
X120697864Y-97249500D01*
X118402129Y-97249500D01*
X118402123Y-97249501D01*
X118342516Y-97255908D01*
X118207671Y-97306202D01*
X118207664Y-97306206D01*
X118092455Y-97392452D01*
X118092452Y-97392455D01*
X118006206Y-97507664D01*
X118006202Y-97507671D01*
X117955908Y-97642517D01*
X117949501Y-97702116D01*
X117949501Y-97702123D01*
X117949500Y-97702135D01*
X117949500Y-100897870D01*
X117949501Y-100897876D01*
X117955908Y-100957483D01*
X118006202Y-101092328D01*
X118006206Y-101092335D01*
X118092452Y-101207544D01*
X118092455Y-101207547D01*
X118207664Y-101293793D01*
X118207671Y-101293797D01*
X118342517Y-101344091D01*
X118342516Y-101344091D01*
X118349444Y-101344835D01*
X118402127Y-101350500D01*
X120697872Y-101350499D01*
X120757483Y-101344091D01*
X120892331Y-101293796D01*
X121007546Y-101207546D01*
X121039293Y-101165136D01*
X121099112Y-101085231D01*
X121101145Y-101086753D01*
X121141063Y-101046828D01*
X121209335Y-101031970D01*
X121274801Y-101056381D01*
X121316678Y-101112311D01*
X121324500Y-101155655D01*
X121324500Y-119243054D01*
X121323720Y-119256944D01*
X121313536Y-119347288D01*
X121307356Y-119374357D01*
X121279642Y-119453550D01*
X121267594Y-119478566D01*
X121222947Y-119549617D01*
X121205633Y-119571326D01*
X121146305Y-119630650D01*
X121124599Y-119647960D01*
X121053548Y-119692604D01*
X121028529Y-119704652D01*
X120949331Y-119732363D01*
X120922262Y-119738541D01*
X120858445Y-119745731D01*
X120831921Y-119748720D01*
X120818040Y-119749500D01*
X113343489Y-119749500D01*
X113342331Y-119749495D01*
X113339898Y-119749472D01*
X113339899Y-119749472D01*
X113231900Y-119748463D01*
X113231894Y-119748463D01*
X113017830Y-119777299D01*
X113017825Y-119777300D01*
X112810092Y-119836493D01*
X112612969Y-119924827D01*
X112612962Y-119924831D01*
X112430525Y-120040481D01*
X112430524Y-120040481D01*
X112266532Y-120181062D01*
X112266529Y-120181065D01*
X112124362Y-120343673D01*
X112124359Y-120343677D01*
X112006937Y-120524978D01*
X112006932Y-120524986D01*
X111916685Y-120721229D01*
X111916682Y-120721238D01*
X111868416Y-120884562D01*
X111830539Y-120943274D01*
X111766933Y-120972188D01*
X111697792Y-120962123D01*
X111645068Y-120916276D01*
X111625500Y-120849419D01*
X111625500Y-115598071D01*
X111645185Y-115531032D01*
X111697989Y-115485277D01*
X111767147Y-115475333D01*
X111790455Y-115481030D01*
X111945737Y-115535366D01*
X111945743Y-115535367D01*
X111945745Y-115535368D01*
X111945746Y-115535368D01*
X111945750Y-115535369D01*
X112124996Y-115555565D01*
X112125000Y-115555565D01*
X112125004Y-115555565D01*
X112304249Y-115535369D01*
X112304252Y-115535368D01*
X112304255Y-115535368D01*
X112474522Y-115475789D01*
X112627262Y-115379816D01*
X112754816Y-115252262D01*
X112850789Y-115099522D01*
X112910368Y-114929255D01*
X112920161Y-114842329D01*
X112947226Y-114777918D01*
X112955690Y-114768543D01*
X117970520Y-109753716D01*
X118049577Y-109616784D01*
X118090501Y-109464057D01*
X118090501Y-109305942D01*
X118090501Y-109298347D01*
X118090500Y-109298329D01*
X118090500Y-106638400D01*
X118110185Y-106571361D01*
X118142343Y-106541934D01*
X118140231Y-106539112D01*
X118232307Y-106470183D01*
X118262546Y-106447546D01*
X118348796Y-106332331D01*
X118399091Y-106197483D01*
X118405500Y-106137873D01*
X118405499Y-105412128D01*
X118399091Y-105352517D01*
X118391295Y-105331616D01*
X118348797Y-105217671D01*
X118348793Y-105217664D01*
X118262547Y-105102455D01*
X118262544Y-105102452D01*
X118140231Y-105010888D01*
X118142486Y-105007874D01*
X118105596Y-104970894D01*
X118090500Y-104911599D01*
X118090500Y-104604060D01*
X118090501Y-104604047D01*
X118090501Y-104435944D01*
X118079186Y-104393716D01*
X118049577Y-104283216D01*
X118047034Y-104278811D01*
X117970524Y-104146290D01*
X117970518Y-104146282D01*
X117636819Y-103812583D01*
X117603334Y-103751260D01*
X117600500Y-103724902D01*
X117600500Y-103421588D01*
X117620185Y-103354549D01*
X117625233Y-103347277D01*
X117630000Y-103340909D01*
X117703796Y-103242331D01*
X117754091Y-103107483D01*
X117760500Y-103047873D01*
X117760499Y-101352128D01*
X117754229Y-101293797D01*
X117754091Y-101292516D01*
X117703797Y-101157671D01*
X117703793Y-101157664D01*
X117617547Y-101042455D01*
X117617544Y-101042452D01*
X117502335Y-100956206D01*
X117502328Y-100956202D01*
X117367486Y-100905910D01*
X117367485Y-100905909D01*
X117367483Y-100905909D01*
X117307873Y-100899500D01*
X117307863Y-100899500D01*
X116692129Y-100899500D01*
X116692123Y-100899501D01*
X116632516Y-100905908D01*
X116497671Y-100956202D01*
X116497669Y-100956203D01*
X116444311Y-100996148D01*
X116378847Y-101020565D01*
X116310574Y-101005714D01*
X116295689Y-100996148D01*
X116242330Y-100956203D01*
X116242328Y-100956202D01*
X116107486Y-100905910D01*
X116107485Y-100905909D01*
X116107483Y-100905909D01*
X116047873Y-100899500D01*
X116047863Y-100899500D01*
X115432129Y-100899500D01*
X115432123Y-100899501D01*
X115372516Y-100905908D01*
X115237671Y-100956202D01*
X115237664Y-100956206D01*
X115122455Y-101042452D01*
X115122452Y-101042455D01*
X115036206Y-101157664D01*
X115036202Y-101157671D01*
X114985908Y-101292517D01*
X114980364Y-101344091D01*
X114979501Y-101352123D01*
X114979500Y-101352135D01*
X114979500Y-101475500D01*
X114959815Y-101542539D01*
X114907011Y-101588294D01*
X114855500Y-101599500D01*
X114761670Y-101599500D01*
X114761654Y-101599499D01*
X114754058Y-101599499D01*
X114595943Y-101599499D01*
X114519579Y-101619961D01*
X114443214Y-101640423D01*
X114443209Y-101640426D01*
X114306290Y-101719475D01*
X114306282Y-101719481D01*
X113044479Y-102981284D01*
X113035726Y-102996446D01*
X113008724Y-103043216D01*
X112965423Y-103118215D01*
X112924499Y-103270943D01*
X112924499Y-103270945D01*
X112924499Y-103311230D01*
X112904814Y-103378269D01*
X112852010Y-103424024D01*
X112782852Y-103433968D01*
X112757166Y-103427412D01*
X112632482Y-103380908D01*
X112632483Y-103380908D01*
X112572883Y-103374501D01*
X112572881Y-103374500D01*
X112572873Y-103374500D01*
X112572864Y-103374500D01*
X111227129Y-103374500D01*
X111227123Y-103374501D01*
X111162752Y-103381421D01*
X111093993Y-103369014D01*
X111042856Y-103321403D01*
X111025499Y-103258131D01*
X111025499Y-102877129D01*
X111025498Y-102877123D01*
X111025034Y-102872807D01*
X111019091Y-102817517D01*
X111010146Y-102793535D01*
X110968797Y-102682671D01*
X110968793Y-102682664D01*
X110882547Y-102567455D01*
X110882544Y-102567452D01*
X110767335Y-102481206D01*
X110767328Y-102481202D01*
X110632482Y-102430908D01*
X110632483Y-102430908D01*
X110572883Y-102424501D01*
X110572881Y-102424500D01*
X110572873Y-102424500D01*
X110572864Y-102424500D01*
X109227129Y-102424500D01*
X109227123Y-102424501D01*
X109167516Y-102430908D01*
X109032671Y-102481202D01*
X109032664Y-102481206D01*
X108917457Y-102567451D01*
X108917451Y-102567457D01*
X108874515Y-102624812D01*
X108818581Y-102666682D01*
X108775249Y-102674500D01*
X108566715Y-102674500D01*
X108499676Y-102654815D01*
X108460598Y-102614650D01*
X108430472Y-102564815D01*
X108430470Y-102564813D01*
X108430469Y-102564811D01*
X108310188Y-102444530D01*
X108287656Y-102430909D01*
X108164606Y-102356522D01*
X108002196Y-102305914D01*
X108002194Y-102305913D01*
X108002192Y-102305913D01*
X107952778Y-102301423D01*
X107931616Y-102299500D01*
X107418384Y-102299500D01*
X107399145Y-102301248D01*
X107347807Y-102305913D01*
X107185393Y-102356522D01*
X107039811Y-102444530D01*
X107039810Y-102444531D01*
X106937681Y-102546661D01*
X106876358Y-102580146D01*
X106806666Y-102575162D01*
X106762319Y-102546661D01*
X106660188Y-102444530D01*
X106637656Y-102430909D01*
X106514606Y-102356522D01*
X106352196Y-102305914D01*
X106352194Y-102305913D01*
X106352192Y-102305913D01*
X106302778Y-102301423D01*
X106281616Y-102299500D01*
X105768384Y-102299500D01*
X105749145Y-102301248D01*
X105697807Y-102305913D01*
X105535393Y-102356522D01*
X105389811Y-102444530D01*
X105269530Y-102564811D01*
X105181522Y-102710393D01*
X105130913Y-102872807D01*
X105124500Y-102943386D01*
X105124500Y-103606613D01*
X105130913Y-103677192D01*
X105130913Y-103677194D01*
X105130914Y-103677196D01*
X105181522Y-103839606D01*
X105269528Y-103985185D01*
X105388181Y-104103838D01*
X105421665Y-104165159D01*
X105424499Y-104191518D01*
X105424499Y-104329054D01*
X105424498Y-104329054D01*
X105465423Y-104481786D01*
X105476227Y-104500497D01*
X105476228Y-104500502D01*
X105476229Y-104500502D01*
X105544475Y-104618709D01*
X105544481Y-104618717D01*
X105663349Y-104737585D01*
X105663355Y-104737590D01*
X106088181Y-105162416D01*
X106121666Y-105223739D01*
X106124500Y-105250097D01*
X106124500Y-105400903D01*
X106104815Y-105467942D01*
X106052011Y-105513697D01*
X105982853Y-105523641D01*
X105919297Y-105494616D01*
X105912819Y-105488584D01*
X101362590Y-100938355D01*
X101362588Y-100938352D01*
X101243717Y-100819481D01*
X101243716Y-100819480D01*
X101156904Y-100769360D01*
X101156904Y-100769359D01*
X101156900Y-100769358D01*
X101106785Y-100740423D01*
X100954057Y-100699499D01*
X100795943Y-100699499D01*
X100788347Y-100699499D01*
X100788331Y-100699500D01*
X98748902Y-100699500D01*
X98681863Y-100679815D01*
X98636108Y-100627011D01*
X98626164Y-100557853D01*
X98655189Y-100494297D01*
X98682930Y-100470506D01*
X98717726Y-100448642D01*
X98827262Y-100379816D01*
X98954816Y-100252262D01*
X99050789Y-100099522D01*
X99110368Y-99929255D01*
X99130565Y-99750000D01*
X99129246Y-99738294D01*
X99110369Y-99570750D01*
X99110368Y-99570745D01*
X99050788Y-99400476D01*
X98954815Y-99247737D01*
X98827262Y-99120184D01*
X98674523Y-99024211D01*
X98504254Y-98964631D01*
X98504249Y-98964630D01*
X98325004Y-98944435D01*
X98324996Y-98944435D01*
X98145750Y-98964630D01*
X98145745Y-98964631D01*
X97975474Y-99024212D01*
X97965477Y-99030494D01*
X97899506Y-99049500D01*
X94366520Y-99049500D01*
X94299481Y-99029815D01*
X94278839Y-99013181D01*
X94160188Y-98894530D01*
X94110348Y-98864400D01*
X94063162Y-98812871D01*
X94050500Y-98758284D01*
X94050500Y-97702135D01*
X111599500Y-97702135D01*
X111599500Y-100897870D01*
X111599501Y-100897876D01*
X111605908Y-100957483D01*
X111656202Y-101092328D01*
X111656206Y-101092335D01*
X111742452Y-101207544D01*
X111742455Y-101207547D01*
X111857664Y-101293793D01*
X111857671Y-101293797D01*
X111992517Y-101344091D01*
X111992516Y-101344091D01*
X111999444Y-101344835D01*
X112052127Y-101350500D01*
X114347872Y-101350499D01*
X114407483Y-101344091D01*
X114542331Y-101293796D01*
X114657546Y-101207546D01*
X114743796Y-101092331D01*
X114794091Y-100957483D01*
X114800500Y-100897873D01*
X114800499Y-97702128D01*
X114794091Y-97642517D01*
X114743796Y-97507669D01*
X114743795Y-97507668D01*
X114743793Y-97507664D01*
X114657547Y-97392455D01*
X114657544Y-97392452D01*
X114542335Y-97306206D01*
X114542328Y-97306202D01*
X114407482Y-97255908D01*
X114407483Y-97255908D01*
X114347883Y-97249501D01*
X114347881Y-97249500D01*
X114347873Y-97249500D01*
X114347864Y-97249500D01*
X112052129Y-97249500D01*
X112052123Y-97249501D01*
X111992516Y-97255908D01*
X111857671Y-97306202D01*
X111857664Y-97306206D01*
X111742455Y-97392452D01*
X111742452Y-97392455D01*
X111656206Y-97507664D01*
X111656202Y-97507671D01*
X111605908Y-97642517D01*
X111599501Y-97702116D01*
X111599501Y-97702123D01*
X111599500Y-97702135D01*
X94050500Y-97702135D01*
X94050500Y-93897133D01*
X94070185Y-93830094D01*
X94103377Y-93795558D01*
X94151877Y-93761598D01*
X94306598Y-93606877D01*
X94432102Y-93427639D01*
X94502618Y-93276414D01*
X94548790Y-93223977D01*
X94615984Y-93204825D01*
X94682865Y-93225041D01*
X94727381Y-93276414D01*
X94797898Y-93427639D01*
X94923402Y-93606877D01*
X95078123Y-93761598D01*
X95257361Y-93887102D01*
X95455670Y-93979575D01*
X95667023Y-94036207D01*
X95849926Y-94052208D01*
X95884998Y-94055277D01*
X95885000Y-94055277D01*
X95885002Y-94055277D01*
X95913254Y-94052805D01*
X96102977Y-94036207D01*
X96314330Y-93979575D01*
X96512639Y-93887102D01*
X96691877Y-93761598D01*
X96846598Y-93606877D01*
X96972102Y-93427639D01*
X97042618Y-93276414D01*
X97088790Y-93223977D01*
X97155984Y-93204825D01*
X97222865Y-93225041D01*
X97267381Y-93276414D01*
X97337898Y-93427639D01*
X97463402Y-93606877D01*
X97618123Y-93761598D01*
X97797361Y-93887102D01*
X97995670Y-93979575D01*
X98207023Y-94036207D01*
X98389926Y-94052208D01*
X98424998Y-94055277D01*
X98425000Y-94055277D01*
X98425002Y-94055277D01*
X98453254Y-94052805D01*
X98642977Y-94036207D01*
X98854330Y-93979575D01*
X99052639Y-93887102D01*
X99231877Y-93761598D01*
X99386598Y-93606877D01*
X99512102Y-93427639D01*
X99582618Y-93276414D01*
X99628790Y-93223977D01*
X99695984Y-93204825D01*
X99762865Y-93225041D01*
X99807381Y-93276414D01*
X99877898Y-93427639D01*
X100003402Y-93606877D01*
X100158123Y-93761598D01*
X100337361Y-93887102D01*
X100535670Y-93979575D01*
X100747023Y-94036207D01*
X100929926Y-94052208D01*
X100964998Y-94055277D01*
X100965000Y-94055277D01*
X100965002Y-94055277D01*
X100993254Y-94052805D01*
X101182977Y-94036207D01*
X101394330Y-93979575D01*
X101592639Y-93887102D01*
X101771877Y-93761598D01*
X101926598Y-93606877D01*
X102052102Y-93427639D01*
X102144575Y-93229330D01*
X102201207Y-93017977D01*
X102220277Y-92800000D01*
X102219143Y-92787043D01*
X102211586Y-92700664D01*
X102201207Y-92582023D01*
X102164879Y-92446446D01*
X102144577Y-92370677D01*
X102144576Y-92370676D01*
X102144575Y-92370670D01*
X102064103Y-92198098D01*
X110823815Y-92198098D01*
X110824003Y-92215935D01*
X110823980Y-92216016D01*
X110823984Y-92216016D01*
X110824494Y-92266708D01*
X110824500Y-92267955D01*
X110824500Y-92328449D01*
X110825217Y-92338602D01*
X110825556Y-92372227D01*
X110857921Y-92582975D01*
X110919757Y-92787043D01*
X111009815Y-92980311D01*
X111009820Y-92980320D01*
X111126291Y-93158908D01*
X111126297Y-93158915D01*
X111266851Y-93319253D01*
X111428662Y-93458112D01*
X111428663Y-93458113D01*
X111428666Y-93458115D01*
X111608483Y-93572706D01*
X111802694Y-93660726D01*
X112007398Y-93720407D01*
X112218482Y-93750551D01*
X112325095Y-93750500D01*
X112390988Y-93750500D01*
X115259108Y-93750500D01*
X115325000Y-93750500D01*
X115432315Y-93750500D01*
X115644759Y-93719956D01*
X115850695Y-93659490D01*
X116045930Y-93570332D01*
X116226490Y-93454298D01*
X116388699Y-93313750D01*
X116529255Y-93151547D01*
X116645298Y-92970993D01*
X116734465Y-92775763D01*
X116794941Y-92569830D01*
X116825495Y-92357387D01*
X116825495Y-92326795D01*
X116825500Y-92326754D01*
X116825500Y-92240424D01*
X116825501Y-92215935D01*
X116825503Y-92184180D01*
X116825501Y-92184175D01*
X116825502Y-92176606D01*
X116825500Y-92176556D01*
X116825500Y-87142685D01*
X116825500Y-87142682D01*
X116795242Y-86932230D01*
X116794955Y-86930234D01*
X116794952Y-86930224D01*
X116788444Y-86908058D01*
X116734484Y-86724289D01*
X116734483Y-86724287D01*
X116734482Y-86724283D01*
X116645327Y-86529060D01*
X116645314Y-86529037D01*
X116529284Y-86348491D01*
X116529274Y-86348477D01*
X116388725Y-86186277D01*
X116346891Y-86150028D01*
X116226511Y-86045718D01*
X116226510Y-86045717D01*
X116226504Y-86045713D01*
X116045958Y-85929683D01*
X116045935Y-85929670D01*
X115850710Y-85840515D01*
X115850698Y-85840510D01*
X115644773Y-85780047D01*
X115644757Y-85780043D01*
X115432314Y-85749500D01*
X115390889Y-85749500D01*
X112388805Y-85749500D01*
X112378009Y-85748846D01*
X112360531Y-85749021D01*
X112360439Y-85748995D01*
X112308201Y-85749494D01*
X112307017Y-85749500D01*
X112246784Y-85749500D01*
X112237228Y-85750170D01*
X112203556Y-85750492D01*
X112203544Y-85750493D01*
X111992725Y-85782762D01*
X111992715Y-85782764D01*
X111788557Y-85844527D01*
X111788547Y-85844531D01*
X111595190Y-85934537D01*
X111595186Y-85934539D01*
X111416499Y-86050982D01*
X111416492Y-86050987D01*
X111256059Y-86191537D01*
X111256056Y-86191540D01*
X111117108Y-86353365D01*
X111117106Y-86353367D01*
X111117106Y-86353368D01*
X111117101Y-86353374D01*
X111002445Y-86533205D01*
X111002437Y-86533219D01*
X110914362Y-86727457D01*
X110914355Y-86727476D01*
X110854629Y-86932230D01*
X110854628Y-86932233D01*
X110829944Y-87104973D01*
X110825000Y-87139581D01*
X110824457Y-87143378D01*
X110824456Y-87143382D01*
X110824500Y-87250022D01*
X110824500Y-87250080D01*
X110824495Y-87324514D01*
X110824500Y-87324585D01*
X110824500Y-92186738D01*
X110823815Y-92198098D01*
X102064103Y-92198098D01*
X102052102Y-92172362D01*
X102052099Y-92172358D01*
X102052099Y-92172357D01*
X101926599Y-91993124D01*
X101926596Y-91993121D01*
X101771877Y-91838402D01*
X101618374Y-91730918D01*
X101592638Y-91712897D01*
X101493484Y-91666661D01*
X101394330Y-91620425D01*
X101394326Y-91620424D01*
X101394322Y-91620422D01*
X101182977Y-91563793D01*
X100965002Y-91544723D01*
X100964998Y-91544723D01*
X100819682Y-91557436D01*
X100747023Y-91563793D01*
X100747020Y-91563793D01*
X100535677Y-91620422D01*
X100535668Y-91620426D01*
X100337361Y-91712898D01*
X100337357Y-91712900D01*
X100158121Y-91838402D01*
X100003402Y-91993121D01*
X99877900Y-92172357D01*
X99877898Y-92172361D01*
X99807382Y-92323583D01*
X99761209Y-92376022D01*
X99694016Y-92395174D01*
X99627135Y-92374958D01*
X99582618Y-92323583D01*
X99550941Y-92255653D01*
X99512102Y-92172362D01*
X99512099Y-92172358D01*
X99512099Y-92172357D01*
X99386599Y-91993124D01*
X99386596Y-91993121D01*
X99231877Y-91838402D01*
X99078374Y-91730918D01*
X99052638Y-91712897D01*
X98953484Y-91666661D01*
X98854330Y-91620425D01*
X98854326Y-91620424D01*
X98854322Y-91620422D01*
X98642977Y-91563793D01*
X98425002Y-91544723D01*
X98424998Y-91544723D01*
X98279682Y-91557436D01*
X98207023Y-91563793D01*
X98207020Y-91563793D01*
X97995677Y-91620422D01*
X97995668Y-91620426D01*
X97797361Y-91712898D01*
X97797357Y-91712900D01*
X97618121Y-91838402D01*
X97463402Y-91993121D01*
X97337900Y-92172357D01*
X97337898Y-92172361D01*
X97267382Y-92323583D01*
X97221209Y-92376022D01*
X97154016Y-92395174D01*
X97087135Y-92374958D01*
X97042618Y-92323583D01*
X97010941Y-92255653D01*
X96972102Y-92172362D01*
X96972099Y-92172358D01*
X96972099Y-92172357D01*
X96846599Y-91993124D01*
X96846596Y-91993121D01*
X96691877Y-91838402D01*
X96538374Y-91730918D01*
X96512638Y-91712897D01*
X96413484Y-91666661D01*
X96314330Y-91620425D01*
X96314326Y-91620424D01*
X96314322Y-91620422D01*
X96102977Y-91563793D01*
X95885002Y-91544723D01*
X95884998Y-91544723D01*
X95739682Y-91557436D01*
X95667023Y-91563793D01*
X95667020Y-91563793D01*
X95455677Y-91620422D01*
X95455668Y-91620426D01*
X95257361Y-91712898D01*
X95257357Y-91712900D01*
X95078121Y-91838402D01*
X94923402Y-91993121D01*
X94797900Y-92172357D01*
X94797898Y-92172361D01*
X94727382Y-92323583D01*
X94681209Y-92376022D01*
X94614016Y-92395174D01*
X94547135Y-92374958D01*
X94502618Y-92323583D01*
X94470941Y-92255653D01*
X94432102Y-92172362D01*
X94432099Y-92172358D01*
X94432099Y-92172357D01*
X94306599Y-91993124D01*
X94306596Y-91993121D01*
X94151877Y-91838402D01*
X93998374Y-91730918D01*
X93972638Y-91712897D01*
X93873484Y-91666661D01*
X93774330Y-91620425D01*
X93774326Y-91620424D01*
X93774322Y-91620422D01*
X93562977Y-91563793D01*
X93345002Y-91544723D01*
X93344998Y-91544723D01*
X93199682Y-91557436D01*
X93127023Y-91563793D01*
X93127020Y-91563793D01*
X92915677Y-91620422D01*
X92915668Y-91620426D01*
X92717361Y-91712898D01*
X92717357Y-91712900D01*
X92538121Y-91838402D01*
X92383402Y-91993121D01*
X92257900Y-92172357D01*
X92257898Y-92172361D01*
X92187382Y-92323583D01*
X92141209Y-92376022D01*
X92074016Y-92395174D01*
X92007135Y-92374958D01*
X91962618Y-92323583D01*
X91930941Y-92255653D01*
X91892102Y-92172362D01*
X91892099Y-92172358D01*
X91892099Y-92172357D01*
X91766599Y-91993124D01*
X91766596Y-91993121D01*
X91611877Y-91838402D01*
X91458374Y-91730918D01*
X91432638Y-91712897D01*
X91333484Y-91666661D01*
X91234330Y-91620425D01*
X91234326Y-91620424D01*
X91234322Y-91620422D01*
X91022977Y-91563793D01*
X90805002Y-91544723D01*
X90804998Y-91544723D01*
X90659682Y-91557436D01*
X90587023Y-91563793D01*
X90587020Y-91563793D01*
X90375677Y-91620422D01*
X90375668Y-91620426D01*
X90177361Y-91712898D01*
X90177357Y-91712900D01*
X89998121Y-91838402D01*
X89843402Y-91993121D01*
X89717900Y-92172357D01*
X89717900Y-92172358D01*
X89717898Y-92172361D01*
X89717898Y-92172362D01*
X89717779Y-92172617D01*
X89647105Y-92324176D01*
X89600932Y-92376615D01*
X89533738Y-92395766D01*
X89466857Y-92375550D01*
X89422341Y-92324174D01*
X89351669Y-92172617D01*
X89308123Y-92110428D01*
X88747962Y-92670589D01*
X88730925Y-92607007D01*
X88665099Y-92492993D01*
X88572007Y-92399901D01*
X88457993Y-92334075D01*
X88394409Y-92317037D01*
X88954571Y-91756874D01*
X88892387Y-91713333D01*
X88694159Y-91620898D01*
X88694150Y-91620894D01*
X88482894Y-91564289D01*
X88482884Y-91564287D01*
X88265001Y-91545225D01*
X88264999Y-91545225D01*
X88047115Y-91564287D01*
X88047105Y-91564289D01*
X87835849Y-91620894D01*
X87835840Y-91620898D01*
X87637614Y-91713332D01*
X87637612Y-91713333D01*
X87575428Y-91756875D01*
X87575427Y-91756875D01*
X88135590Y-92317037D01*
X88072007Y-92334075D01*
X87957993Y-92399901D01*
X87864901Y-92492993D01*
X87799075Y-92607007D01*
X87782037Y-92670590D01*
X87221875Y-92110427D01*
X87221875Y-92110428D01*
X87178333Y-92172612D01*
X87178332Y-92172614D01*
X87107658Y-92324175D01*
X87061485Y-92376614D01*
X86994292Y-92395766D01*
X86927411Y-92375550D01*
X86882894Y-92324175D01*
X86850941Y-92255653D01*
X86812102Y-92172362D01*
X86812099Y-92172358D01*
X86812099Y-92172357D01*
X86686599Y-91993124D01*
X86686596Y-91993121D01*
X86531877Y-91838402D01*
X86520607Y-91830510D01*
X86378376Y-91730918D01*
X86334751Y-91676341D01*
X86325500Y-91629344D01*
X86325500Y-89862844D01*
X87300000Y-89862844D01*
X87306401Y-89922372D01*
X87306403Y-89922379D01*
X87356645Y-90057086D01*
X87356649Y-90057093D01*
X87442809Y-90172187D01*
X87442812Y-90172190D01*
X87557906Y-90258350D01*
X87557913Y-90258354D01*
X87692620Y-90308596D01*
X87692627Y-90308598D01*
X87752155Y-90314999D01*
X87752172Y-90315000D01*
X88150000Y-90315000D01*
X88650000Y-90315000D01*
X89047828Y-90315000D01*
X89047844Y-90314999D01*
X89107372Y-90308598D01*
X89107379Y-90308596D01*
X89242086Y-90258354D01*
X89242093Y-90258350D01*
X89357187Y-90172190D01*
X89357190Y-90172187D01*
X89443350Y-90057093D01*
X89443354Y-90057086D01*
X89493596Y-89922379D01*
X89493598Y-89922372D01*
X89499999Y-89862844D01*
X89500000Y-89862827D01*
X89500000Y-88315000D01*
X88650000Y-88315000D01*
X88650000Y-90315000D01*
X88150000Y-90315000D01*
X88150000Y-88315000D01*
X87300000Y-88315000D01*
X87300000Y-89862844D01*
X86325500Y-89862844D01*
X86325500Y-86550098D01*
X86345185Y-86483059D01*
X86361819Y-86462416D01*
X86437418Y-86386818D01*
X86498742Y-86353334D01*
X86525099Y-86350500D01*
X87176000Y-86350500D01*
X87243039Y-86370185D01*
X87288794Y-86422989D01*
X87300000Y-86474500D01*
X87300000Y-87815000D01*
X89500000Y-87815000D01*
X89500000Y-86275598D01*
X89519685Y-86208559D01*
X89536314Y-86187921D01*
X89605520Y-86118716D01*
X89605520Y-86118714D01*
X89615725Y-86108510D01*
X89615729Y-86108505D01*
X90312818Y-85411416D01*
X90374141Y-85377931D01*
X90443833Y-85382915D01*
X90499766Y-85424787D01*
X90524183Y-85490251D01*
X90524499Y-85499097D01*
X90524499Y-85639046D01*
X90524500Y-85639059D01*
X90524500Y-88263330D01*
X90524499Y-88263348D01*
X90524499Y-88429054D01*
X90524498Y-88429054D01*
X90535330Y-88469481D01*
X90565423Y-88581785D01*
X90592716Y-88629057D01*
X90634405Y-88701265D01*
X90644479Y-88718714D01*
X90644481Y-88718717D01*
X90763349Y-88837585D01*
X90763355Y-88837590D01*
X92040139Y-90114374D01*
X92040149Y-90114385D01*
X92044479Y-90118715D01*
X92044480Y-90118716D01*
X92156284Y-90230520D01*
X92243095Y-90280639D01*
X92243097Y-90280641D01*
X92281151Y-90302611D01*
X92293215Y-90309577D01*
X92445943Y-90350501D01*
X92445946Y-90350501D01*
X92611653Y-90350501D01*
X92611669Y-90350500D01*
X98638331Y-90350500D01*
X98638347Y-90350501D01*
X98645943Y-90350501D01*
X98804054Y-90350501D01*
X98804057Y-90350501D01*
X98956785Y-90309577D01*
X99006904Y-90280639D01*
X99093716Y-90230520D01*
X99205520Y-90118716D01*
X99205520Y-90118714D01*
X99215728Y-90108507D01*
X99215730Y-90108504D01*
X99288515Y-90035718D01*
X99349836Y-90002235D01*
X99419528Y-90007219D01*
X99475461Y-90049091D01*
X99493236Y-90082447D01*
X99499210Y-90099521D01*
X99511271Y-90118716D01*
X99595184Y-90252262D01*
X99722738Y-90379816D01*
X99875478Y-90475789D01*
X100045745Y-90535368D01*
X100045750Y-90535369D01*
X100224996Y-90555565D01*
X100225000Y-90555565D01*
X100225004Y-90555565D01*
X100404249Y-90535369D01*
X100404252Y-90535368D01*
X100404255Y-90535368D01*
X100574522Y-90475789D01*
X100727262Y-90379816D01*
X100854816Y-90252262D01*
X100950789Y-90099522D01*
X101010368Y-89929255D01*
X101010791Y-89925500D01*
X101030565Y-89750003D01*
X101030565Y-89749996D01*
X101010369Y-89570750D01*
X101010368Y-89570745D01*
X100950789Y-89400478D01*
X100854816Y-89247738D01*
X100854814Y-89247736D01*
X100854813Y-89247734D01*
X100852550Y-89244896D01*
X100851659Y-89242715D01*
X100851111Y-89241842D01*
X100851264Y-89241745D01*
X100826144Y-89180209D01*
X100825500Y-89167587D01*
X100825500Y-88470942D01*
X100825108Y-88469480D01*
X100825103Y-88469462D01*
X100792959Y-88349500D01*
X100792959Y-88349498D01*
X100784578Y-88318217D01*
X100784576Y-88318213D01*
X100705524Y-88181290D01*
X100705518Y-88181282D01*
X100493717Y-87969481D01*
X100493716Y-87969480D01*
X100406904Y-87919360D01*
X100406904Y-87919359D01*
X100406900Y-87919358D01*
X100356785Y-87890423D01*
X100356784Y-87890422D01*
X100356783Y-87890422D01*
X100342038Y-87886471D01*
X100282379Y-87850105D01*
X100251851Y-87787258D01*
X100260147Y-87717882D01*
X100276526Y-87690220D01*
X100280461Y-87685195D01*
X100280472Y-87685185D01*
X100368478Y-87539606D01*
X100419086Y-87377196D01*
X100425500Y-87306616D01*
X100425500Y-86975097D01*
X100426162Y-86972844D01*
X103385000Y-86972844D01*
X103391401Y-87032372D01*
X103391403Y-87032379D01*
X103441645Y-87167086D01*
X103441649Y-87167093D01*
X103527809Y-87282187D01*
X103527812Y-87282190D01*
X103642906Y-87368350D01*
X103642913Y-87368354D01*
X103777620Y-87418596D01*
X103777627Y-87418598D01*
X103837155Y-87424999D01*
X103837172Y-87425000D01*
X105260000Y-87425000D01*
X105760000Y-87425000D01*
X106101373Y-87425000D01*
X106168412Y-87444685D01*
X106214167Y-87497489D01*
X106224111Y-87566647D01*
X106200639Y-87623312D01*
X106156204Y-87682668D01*
X106156202Y-87682671D01*
X106105908Y-87817517D01*
X106099644Y-87875788D01*
X106099501Y-87877123D01*
X106099500Y-87877135D01*
X106099500Y-89472870D01*
X106099501Y-89472876D01*
X106105908Y-89532483D01*
X106156202Y-89667328D01*
X106156206Y-89667335D01*
X106242452Y-89782544D01*
X106242455Y-89782547D01*
X106357664Y-89868793D01*
X106357671Y-89868797D01*
X106492517Y-89919091D01*
X106492516Y-89919091D01*
X106499444Y-89919835D01*
X106552127Y-89925500D01*
X108947872Y-89925499D01*
X109007483Y-89919091D01*
X109142331Y-89868796D01*
X109257546Y-89782546D01*
X109343796Y-89667331D01*
X109394091Y-89532483D01*
X109400500Y-89472873D01*
X109400499Y-87877128D01*
X109394091Y-87817517D01*
X109393152Y-87815000D01*
X109343797Y-87682671D01*
X109343793Y-87682664D01*
X109257547Y-87567455D01*
X109257544Y-87567452D01*
X109142335Y-87481206D01*
X109142328Y-87481202D01*
X109007482Y-87430908D01*
X109007483Y-87430908D01*
X108947883Y-87424501D01*
X108947881Y-87424500D01*
X108947873Y-87424500D01*
X108947865Y-87424500D01*
X107633377Y-87424500D01*
X107566338Y-87404815D01*
X107520583Y-87352011D01*
X107510639Y-87282853D01*
X107534111Y-87226188D01*
X107578352Y-87167089D01*
X107578354Y-87167086D01*
X107628596Y-87032379D01*
X107628598Y-87032372D01*
X107634999Y-86972844D01*
X107635000Y-86972827D01*
X107635000Y-86675000D01*
X105760000Y-86675000D01*
X105760000Y-87425000D01*
X105260000Y-87425000D01*
X105260000Y-86675000D01*
X103385000Y-86675000D01*
X103385000Y-86972844D01*
X100426162Y-86972844D01*
X100445185Y-86908058D01*
X100461819Y-86887416D01*
X101787417Y-85561819D01*
X101848740Y-85528334D01*
X101875098Y-85525500D01*
X103302210Y-85525500D01*
X103369249Y-85545185D01*
X103415004Y-85597989D01*
X103418385Y-85606152D01*
X103418957Y-85607683D01*
X103428170Y-85632386D01*
X103433151Y-85702077D01*
X103428168Y-85719046D01*
X103391403Y-85817617D01*
X103391401Y-85817627D01*
X103385000Y-85877155D01*
X103385000Y-86175000D01*
X107635000Y-86175000D01*
X107635000Y-85877172D01*
X107634999Y-85877155D01*
X107628598Y-85817627D01*
X107628596Y-85817620D01*
X107591831Y-85719047D01*
X107586847Y-85649356D01*
X107591827Y-85632390D01*
X107629091Y-85532483D01*
X107635500Y-85472873D01*
X107635499Y-84377128D01*
X107629091Y-84317517D01*
X107592096Y-84218330D01*
X107587113Y-84148642D01*
X107592092Y-84131680D01*
X107629091Y-84032483D01*
X107635500Y-83972873D01*
X107635499Y-82877128D01*
X107629091Y-82817517D01*
X107592096Y-82718330D01*
X107587113Y-82648642D01*
X107592092Y-82631680D01*
X107629091Y-82532483D01*
X107635500Y-82472873D01*
X107635499Y-81377128D01*
X107629378Y-81320184D01*
X107629091Y-81317516D01*
X107578797Y-81182671D01*
X107578796Y-81182669D01*
X107534734Y-81123810D01*
X107510317Y-81058346D01*
X107525168Y-80990073D01*
X107574573Y-80940667D01*
X107634001Y-80925499D01*
X108947871Y-80925499D01*
X108947872Y-80925499D01*
X109007483Y-80919091D01*
X109142331Y-80868796D01*
X109257546Y-80782546D01*
X109343796Y-80667331D01*
X109394091Y-80532483D01*
X109400500Y-80472873D01*
X109400499Y-79349499D01*
X109420184Y-79282461D01*
X109472987Y-79236706D01*
X109524499Y-79225500D01*
X110749903Y-79225500D01*
X110816942Y-79245185D01*
X110837584Y-79261819D01*
X111413181Y-79837416D01*
X111446666Y-79898739D01*
X111449500Y-79925097D01*
X111449500Y-80256613D01*
X111455913Y-80327192D01*
X111455913Y-80327194D01*
X111455914Y-80327196D01*
X111506522Y-80489606D01*
X111571890Y-80597738D01*
X111594530Y-80635188D01*
X111696661Y-80737319D01*
X111730146Y-80798642D01*
X111725162Y-80868334D01*
X111696661Y-80912681D01*
X111596161Y-81013181D01*
X111534838Y-81046666D01*
X111508480Y-81049500D01*
X110950494Y-81049500D01*
X110884523Y-81030494D01*
X110874525Y-81024212D01*
X110704254Y-80964631D01*
X110704249Y-80964630D01*
X110525004Y-80944435D01*
X110524996Y-80944435D01*
X110345750Y-80964630D01*
X110345745Y-80964631D01*
X110175476Y-81024211D01*
X110022737Y-81120184D01*
X109895184Y-81247737D01*
X109799211Y-81400476D01*
X109739631Y-81570745D01*
X109739630Y-81570750D01*
X109719435Y-81749996D01*
X109719435Y-81750003D01*
X109739630Y-81929249D01*
X109739631Y-81929254D01*
X109799211Y-82099523D01*
X109877558Y-82224211D01*
X109895184Y-82252262D01*
X110022738Y-82379816D01*
X110112909Y-82436474D01*
X110170835Y-82472872D01*
X110175478Y-82475789D01*
X110266572Y-82507664D01*
X110345745Y-82535368D01*
X110345750Y-82535369D01*
X110524996Y-82555565D01*
X110525000Y-82555565D01*
X110525004Y-82555565D01*
X110704249Y-82535369D01*
X110704252Y-82535368D01*
X110704255Y-82535368D01*
X110874522Y-82475789D01*
X111027262Y-82379816D01*
X111120260Y-82286818D01*
X111181584Y-82253334D01*
X111207941Y-82250500D01*
X111508480Y-82250500D01*
X111575519Y-82270185D01*
X111596161Y-82286819D01*
X111714811Y-82405469D01*
X111714813Y-82405470D01*
X111714815Y-82405472D01*
X111860394Y-82493478D01*
X112022804Y-82544086D01*
X112093384Y-82550500D01*
X112093387Y-82550500D01*
X112756613Y-82550500D01*
X112756616Y-82550500D01*
X112827196Y-82544086D01*
X112989606Y-82493478D01*
X113135185Y-82405472D01*
X113255472Y-82285185D01*
X113343478Y-82139606D01*
X113394086Y-81977196D01*
X113400500Y-81906616D01*
X113400500Y-81393384D01*
X113394086Y-81322804D01*
X113343478Y-81160394D01*
X113255472Y-81014815D01*
X113255470Y-81014813D01*
X113255469Y-81014811D01*
X113153339Y-80912681D01*
X113119854Y-80851358D01*
X113124838Y-80781666D01*
X113153339Y-80737319D01*
X113255468Y-80635189D01*
X113255469Y-80635188D01*
X113255472Y-80635185D01*
X113343478Y-80489606D01*
X113394086Y-80327196D01*
X113400500Y-80256616D01*
X113400500Y-79743384D01*
X113394086Y-79672804D01*
X113343478Y-79510394D01*
X113255472Y-79364815D01*
X113255470Y-79364813D01*
X113255469Y-79364811D01*
X113135189Y-79244531D01*
X113135186Y-79244529D01*
X113135185Y-79244528D01*
X112989606Y-79156522D01*
X112827196Y-79105914D01*
X112827194Y-79105913D01*
X112827192Y-79105913D01*
X112777778Y-79101423D01*
X112756616Y-79099500D01*
X112756613Y-79099500D01*
X112425098Y-79099500D01*
X112358059Y-79079815D01*
X112337417Y-79063181D01*
X111537590Y-78263355D01*
X111537588Y-78263352D01*
X111418717Y-78144481D01*
X111418716Y-78144480D01*
X111331904Y-78094360D01*
X111331904Y-78094359D01*
X111331900Y-78094358D01*
X111281785Y-78065423D01*
X111129057Y-78024499D01*
X110970943Y-78024499D01*
X110963347Y-78024499D01*
X110963331Y-78024500D01*
X100236670Y-78024500D01*
X100236654Y-78024499D01*
X100229058Y-78024499D01*
X100070943Y-78024499D01*
X99994579Y-78044961D01*
X99918214Y-78065423D01*
X99918209Y-78065426D01*
X99781290Y-78144475D01*
X99781282Y-78144481D01*
X97044481Y-80881282D01*
X97044479Y-80881285D01*
X97033398Y-80900478D01*
X97001376Y-80955943D01*
X96993101Y-80970276D01*
X96965423Y-81018213D01*
X96952285Y-81067246D01*
X96937129Y-81123810D01*
X96933182Y-81138539D01*
X96896816Y-81198200D01*
X96833969Y-81228728D01*
X96772452Y-81223486D01*
X96604262Y-81164633D01*
X96604249Y-81164630D01*
X96425004Y-81144435D01*
X96424996Y-81144435D01*
X96254046Y-81163696D01*
X96185224Y-81151641D01*
X96133845Y-81104292D01*
X96116221Y-81036682D01*
X96137948Y-80970276D01*
X96183868Y-80929991D01*
X96189489Y-80927127D01*
X96232816Y-80905051D01*
X96265529Y-80881284D01*
X96404786Y-80780109D01*
X96404788Y-80780106D01*
X96404792Y-80780104D01*
X96555104Y-80629792D01*
X96555106Y-80629788D01*
X96555109Y-80629786D01*
X96669104Y-80472883D01*
X96680051Y-80457816D01*
X96776557Y-80268412D01*
X96842246Y-80066243D01*
X96875500Y-79856287D01*
X96875500Y-79643713D01*
X96842246Y-79433757D01*
X96776557Y-79231588D01*
X96680051Y-79042184D01*
X96680049Y-79042181D01*
X96680048Y-79042179D01*
X96555109Y-78870213D01*
X96404786Y-78719890D01*
X96232820Y-78594951D01*
X96043414Y-78498444D01*
X96043413Y-78498443D01*
X96043412Y-78498443D01*
X95841243Y-78432754D01*
X95841241Y-78432753D01*
X95841240Y-78432753D01*
X95679957Y-78407208D01*
X95631287Y-78399500D01*
X95418713Y-78399500D01*
X95370042Y-78407208D01*
X95208760Y-78432753D01*
X95006585Y-78498444D01*
X94817179Y-78594951D01*
X94645213Y-78719890D01*
X94494890Y-78870213D01*
X94369951Y-79042179D01*
X94273444Y-79231585D01*
X94207753Y-79433760D01*
X94174500Y-79643713D01*
X94174500Y-79856286D01*
X94197222Y-79999751D01*
X94207754Y-80066243D01*
X94269610Y-80256616D01*
X94273444Y-80268414D01*
X94369951Y-80457820D01*
X94494890Y-80629786D01*
X94645213Y-80780109D01*
X94817179Y-80905048D01*
X94817181Y-80905049D01*
X94817184Y-80905051D01*
X95006588Y-81001557D01*
X95208757Y-81067246D01*
X95418713Y-81100500D01*
X95418714Y-81100500D01*
X95631286Y-81100500D01*
X95631287Y-81100500D01*
X95841243Y-81067246D01*
X95892957Y-81050442D01*
X95962794Y-81048447D01*
X96022627Y-81084527D01*
X96053456Y-81147228D01*
X96045492Y-81216642D01*
X96001264Y-81270732D01*
X95997245Y-81273367D01*
X95922740Y-81320182D01*
X95922737Y-81320184D01*
X95795184Y-81447737D01*
X95699211Y-81600476D01*
X95639631Y-81770745D01*
X95639630Y-81770750D01*
X95619435Y-81949996D01*
X95619435Y-81950004D01*
X95626714Y-82014611D01*
X95614659Y-82083433D01*
X95567310Y-82134812D01*
X95499699Y-82152436D01*
X95489611Y-82151714D01*
X95425004Y-82144435D01*
X95424996Y-82144435D01*
X95245750Y-82164630D01*
X95245745Y-82164631D01*
X95075476Y-82224211D01*
X94922737Y-82320184D01*
X94795184Y-82447737D01*
X94699211Y-82600476D01*
X94639631Y-82770745D01*
X94639630Y-82770750D01*
X94619435Y-82949996D01*
X94619435Y-82950003D01*
X94639630Y-83129249D01*
X94639631Y-83129254D01*
X94699211Y-83299523D01*
X94760762Y-83397480D01*
X94795184Y-83452262D01*
X94922738Y-83579816D01*
X95075478Y-83675789D01*
X95245745Y-83735368D01*
X95332669Y-83745161D01*
X95397080Y-83772226D01*
X95406465Y-83780700D01*
X96040139Y-84414374D01*
X96040160Y-84414397D01*
X96128703Y-84502940D01*
X96162188Y-84564263D01*
X96164049Y-84598787D01*
X96164399Y-84598806D01*
X96164500Y-84598806D01*
X96164500Y-84598811D01*
X96164678Y-84598821D01*
X96164500Y-84602136D01*
X96164500Y-85297870D01*
X96164501Y-85297876D01*
X96170908Y-85357483D01*
X96221202Y-85492328D01*
X96221203Y-85492330D01*
X96249767Y-85530486D01*
X96274184Y-85595950D01*
X96274500Y-85604797D01*
X96274500Y-86099902D01*
X96254815Y-86166941D01*
X96238181Y-86187584D01*
X96106465Y-86319299D01*
X96045142Y-86352783D01*
X96032668Y-86354837D01*
X95945750Y-86364630D01*
X95775478Y-86424210D01*
X95622737Y-86520184D01*
X95495184Y-86647737D01*
X95399211Y-86800476D01*
X95339631Y-86970745D01*
X95339630Y-86970750D01*
X95319435Y-87149996D01*
X95319435Y-87150003D01*
X95339630Y-87329249D01*
X95339631Y-87329254D01*
X95399211Y-87499523D01*
X95441896Y-87567455D01*
X95495184Y-87652262D01*
X95622738Y-87779816D01*
X95678733Y-87815000D01*
X95758563Y-87865161D01*
X95775478Y-87875789D01*
X95899991Y-87919358D01*
X95945745Y-87935368D01*
X95945750Y-87935369D01*
X96124996Y-87955565D01*
X96125000Y-87955565D01*
X96125004Y-87955565D01*
X96304249Y-87935369D01*
X96304252Y-87935368D01*
X96304255Y-87935368D01*
X96474522Y-87875789D01*
X96627262Y-87779816D01*
X96754816Y-87652262D01*
X96823518Y-87542922D01*
X96875853Y-87496632D01*
X96944906Y-87485984D01*
X97008755Y-87514359D01*
X97034627Y-87544743D01*
X97118007Y-87682669D01*
X97119530Y-87685188D01*
X97239811Y-87805469D01*
X97239813Y-87805470D01*
X97239815Y-87805472D01*
X97385394Y-87893478D01*
X97547804Y-87944086D01*
X97618384Y-87950500D01*
X97618387Y-87950500D01*
X98131613Y-87950500D01*
X98131616Y-87950500D01*
X98202196Y-87944086D01*
X98364606Y-87893478D01*
X98510185Y-87805472D01*
X98612320Y-87703336D01*
X98673641Y-87669853D01*
X98743333Y-87674837D01*
X98787681Y-87703338D01*
X98888181Y-87803838D01*
X98921666Y-87865161D01*
X98924500Y-87891519D01*
X98924500Y-88649903D01*
X98904815Y-88716942D01*
X98888181Y-88737584D01*
X98512584Y-89113181D01*
X98451261Y-89146666D01*
X98424903Y-89149500D01*
X92825097Y-89149500D01*
X92758058Y-89129815D01*
X92737416Y-89113181D01*
X91761819Y-88137584D01*
X91728334Y-88076261D01*
X91725500Y-88049903D01*
X91725500Y-86749986D01*
X92350001Y-86749986D01*
X92360494Y-86852697D01*
X92415641Y-87019119D01*
X92415643Y-87019124D01*
X92507684Y-87168345D01*
X92631654Y-87292315D01*
X92780875Y-87384356D01*
X92780880Y-87384358D01*
X92947302Y-87439505D01*
X92947309Y-87439506D01*
X93050019Y-87449999D01*
X93324999Y-87449999D01*
X93825000Y-87449999D01*
X94099972Y-87449999D01*
X94099986Y-87449998D01*
X94202697Y-87439505D01*
X94369119Y-87384358D01*
X94369124Y-87384356D01*
X94518345Y-87292315D01*
X94642315Y-87168345D01*
X94734356Y-87019124D01*
X94734358Y-87019119D01*
X94789505Y-86852697D01*
X94789506Y-86852690D01*
X94799999Y-86749986D01*
X94800000Y-86749973D01*
X94800000Y-86700000D01*
X93825000Y-86700000D01*
X93825000Y-87449999D01*
X93324999Y-87449999D01*
X93325000Y-87449998D01*
X93325000Y-86700000D01*
X92350001Y-86700000D01*
X92350001Y-86749986D01*
X91725500Y-86749986D01*
X91725500Y-85850097D01*
X91745185Y-85783058D01*
X91761819Y-85762416D01*
X92025138Y-85499097D01*
X92300374Y-85223861D01*
X92361693Y-85190379D01*
X92431384Y-85195363D01*
X92487318Y-85237234D01*
X92493589Y-85246447D01*
X92507288Y-85268656D01*
X92631344Y-85392712D01*
X92634628Y-85394737D01*
X92634653Y-85394753D01*
X92636445Y-85396746D01*
X92637011Y-85397193D01*
X92636934Y-85397289D01*
X92681379Y-85446699D01*
X92692603Y-85515661D01*
X92664761Y-85579744D01*
X92634665Y-85605826D01*
X92631660Y-85607679D01*
X92631655Y-85607683D01*
X92507684Y-85731654D01*
X92415643Y-85880875D01*
X92415641Y-85880880D01*
X92360494Y-86047302D01*
X92360493Y-86047309D01*
X92350000Y-86150013D01*
X92350000Y-86200000D01*
X94799999Y-86200000D01*
X94799999Y-86150028D01*
X94799998Y-86150013D01*
X94789505Y-86047302D01*
X94734358Y-85880880D01*
X94734356Y-85880875D01*
X94642315Y-85731654D01*
X94518344Y-85607683D01*
X94518341Y-85607681D01*
X94515339Y-85605829D01*
X94513713Y-85604021D01*
X94512677Y-85603202D01*
X94512817Y-85603024D01*
X94468617Y-85553880D01*
X94457397Y-85484917D01*
X94485243Y-85420836D01*
X94515344Y-85394754D01*
X94518656Y-85392712D01*
X94642712Y-85268656D01*
X94734814Y-85119334D01*
X94789999Y-84952797D01*
X94800500Y-84850009D01*
X94800499Y-84249992D01*
X94798606Y-84231465D01*
X94789999Y-84147203D01*
X94789998Y-84147200D01*
X94734814Y-83980666D01*
X94642712Y-83831344D01*
X94518656Y-83707288D01*
X94369334Y-83615186D01*
X94308301Y-83594961D01*
X94260495Y-83579120D01*
X94203050Y-83539347D01*
X94176228Y-83474831D01*
X94175500Y-83461414D01*
X94175500Y-83389060D01*
X94175501Y-83389047D01*
X94175501Y-83220945D01*
X94175501Y-83220943D01*
X94134577Y-83068215D01*
X94055520Y-82931284D01*
X93480521Y-82356285D01*
X93480520Y-82356284D01*
X93368716Y-82244480D01*
X93368714Y-82244479D01*
X93368709Y-82244475D01*
X93264880Y-82184530D01*
X93264877Y-82184529D01*
X93231787Y-82165424D01*
X93231786Y-82165423D01*
X93231785Y-82165423D01*
X93079057Y-82124499D01*
X92920943Y-82124499D01*
X92913347Y-82124499D01*
X92913331Y-82124500D01*
X89624499Y-82124500D01*
X89557460Y-82104815D01*
X89511705Y-82052011D01*
X89500499Y-82000500D01*
X89500499Y-80927129D01*
X89500499Y-80927128D01*
X89496266Y-80887753D01*
X89508672Y-80818995D01*
X89556283Y-80767858D01*
X89619556Y-80750500D01*
X91432312Y-80750500D01*
X91432315Y-80750500D01*
X91644759Y-80719956D01*
X91850695Y-80659490D01*
X92045930Y-80570332D01*
X92226490Y-80454298D01*
X92373181Y-80327196D01*
X92388697Y-80313752D01*
X92388699Y-80313750D01*
X92529255Y-80151547D01*
X92645298Y-79970993D01*
X92734465Y-79775763D01*
X92794941Y-79569830D01*
X92825495Y-79357387D01*
X92825495Y-79326795D01*
X92825500Y-79326754D01*
X92825500Y-79244529D01*
X92825500Y-79236706D01*
X92825503Y-79184180D01*
X92825501Y-79184175D01*
X92825502Y-79176606D01*
X92825500Y-79176556D01*
X92825500Y-77874500D01*
X92845185Y-77807461D01*
X92897989Y-77761706D01*
X92949500Y-77750500D01*
X115344906Y-77750500D01*
X115404708Y-77750500D01*
X115416860Y-77751097D01*
G37*
%TD.AperFunction*%
%TA.AperFunction,Conductor*%
G36*
X104677955Y-113170185D02*
G01*
X104698597Y-113186819D01*
X105160623Y-113648845D01*
X105194108Y-113710168D01*
X105196162Y-113722642D01*
X105205955Y-113809561D01*
X105265535Y-113979833D01*
X105339676Y-114097827D01*
X105361509Y-114132574D01*
X105489063Y-114260128D01*
X105540314Y-114292331D01*
X105620349Y-114342621D01*
X105641803Y-114356101D01*
X105812070Y-114415680D01*
X105824033Y-114417027D01*
X105888446Y-114444091D01*
X105928004Y-114501684D01*
X105930145Y-114571520D01*
X105897834Y-114627929D01*
X104045958Y-116479805D01*
X103984635Y-116513290D01*
X103914943Y-116508306D01*
X103859010Y-116466434D01*
X103834593Y-116400970D01*
X103836079Y-116377258D01*
X103835427Y-116377194D01*
X103840469Y-116326000D01*
X103855341Y-116175000D01*
X103836024Y-115978868D01*
X103778814Y-115790273D01*
X103778811Y-115790269D01*
X103778811Y-115790266D01*
X103685913Y-115616467D01*
X103685909Y-115616460D01*
X103560883Y-115464116D01*
X103408539Y-115339090D01*
X103408532Y-115339086D01*
X103234730Y-115246187D01*
X103210192Y-115238743D01*
X103151754Y-115200444D01*
X103123299Y-115136631D01*
X103133861Y-115067564D01*
X103180087Y-115015172D01*
X103210187Y-115001425D01*
X103284727Y-114978814D01*
X103458538Y-114885910D01*
X103610883Y-114760883D01*
X103735910Y-114608538D01*
X103797241Y-114493796D01*
X103828811Y-114434733D01*
X103828811Y-114434732D01*
X103828814Y-114434727D01*
X103886024Y-114246132D01*
X103905341Y-114050000D01*
X103886024Y-113853868D01*
X103828814Y-113665273D01*
X103828811Y-113665269D01*
X103828811Y-113665266D01*
X103735913Y-113491467D01*
X103735909Y-113491460D01*
X103622413Y-113353165D01*
X103595100Y-113288855D01*
X103606891Y-113219987D01*
X103654043Y-113168427D01*
X103718266Y-113150500D01*
X104610916Y-113150500D01*
X104677955Y-113170185D01*
G37*
%TD.AperFunction*%
%TA.AperFunction,Conductor*%
G36*
X114898835Y-102927914D02*
G01*
X114954768Y-102969786D01*
X114979185Y-103035250D01*
X114979501Y-103044096D01*
X114979501Y-103047876D01*
X114985908Y-103107483D01*
X115036202Y-103242328D01*
X115036206Y-103242335D01*
X115122452Y-103357544D01*
X115122455Y-103357547D01*
X115237664Y-103443793D01*
X115237671Y-103443797D01*
X115247833Y-103447587D01*
X115372517Y-103494091D01*
X115432127Y-103500500D01*
X116047872Y-103500499D01*
X116107483Y-103494091D01*
X116232167Y-103447587D01*
X116301859Y-103442603D01*
X116363182Y-103476088D01*
X116396666Y-103537411D01*
X116399500Y-103563769D01*
X116399500Y-103938330D01*
X116399499Y-103938348D01*
X116399499Y-104104054D01*
X116399498Y-104104054D01*
X116421432Y-104185910D01*
X116440423Y-104256785D01*
X116453142Y-104278814D01*
X116519480Y-104393716D01*
X116631284Y-104505520D01*
X116631285Y-104505521D01*
X116755579Y-104629815D01*
X116853181Y-104727416D01*
X116886666Y-104788739D01*
X116889500Y-104815097D01*
X116889500Y-104911599D01*
X116869815Y-104978638D01*
X116837898Y-105008389D01*
X116839769Y-105010888D01*
X116717455Y-105102452D01*
X116717452Y-105102455D01*
X116631206Y-105217664D01*
X116631202Y-105217671D01*
X116580910Y-105352513D01*
X116580909Y-105352517D01*
X116574500Y-105412127D01*
X116574500Y-105412134D01*
X116574500Y-105412135D01*
X116574500Y-106137870D01*
X116574501Y-106137876D01*
X116580908Y-106197483D01*
X116631202Y-106332328D01*
X116631206Y-106332335D01*
X116717452Y-106447544D01*
X116717455Y-106447547D01*
X116839769Y-106539112D01*
X116837332Y-106542366D01*
X116873289Y-106577101D01*
X116889500Y-106638400D01*
X116889500Y-109084902D01*
X116869815Y-109151941D01*
X116853181Y-109172583D01*
X112106465Y-113919298D01*
X112045142Y-113952783D01*
X112032668Y-113954837D01*
X111945750Y-113964630D01*
X111790454Y-114018970D01*
X111720675Y-114022531D01*
X111660048Y-113987802D01*
X111627821Y-113925808D01*
X111625500Y-113901928D01*
X111625500Y-111839060D01*
X111625501Y-111839047D01*
X111625501Y-111670944D01*
X111584576Y-111518214D01*
X111584573Y-111518209D01*
X111505524Y-111381290D01*
X111505518Y-111381282D01*
X109741020Y-109616784D01*
X107955800Y-107831565D01*
X107922316Y-107770243D01*
X107927300Y-107700551D01*
X107969172Y-107644618D01*
X108032264Y-107620393D01*
X108052109Y-107618590D01*
X108214396Y-107568018D01*
X108359877Y-107480072D01*
X108480072Y-107359877D01*
X108568019Y-107214395D01*
X108618590Y-107052106D01*
X108625000Y-106981572D01*
X108625000Y-106975000D01*
X107774000Y-106975000D01*
X107706961Y-106955315D01*
X107661206Y-106902511D01*
X107650000Y-106851000D01*
X107650000Y-106599000D01*
X107669685Y-106531961D01*
X107722489Y-106486206D01*
X107774000Y-106475000D01*
X108624999Y-106475000D01*
X108624999Y-106468417D01*
X108618591Y-106397897D01*
X108618590Y-106397892D01*
X108568018Y-106235603D01*
X108480072Y-106090122D01*
X108377984Y-105988034D01*
X108344499Y-105926711D01*
X108349483Y-105857019D01*
X108377983Y-105812673D01*
X108480472Y-105710185D01*
X108553049Y-105590127D01*
X108604573Y-105542944D01*
X108673433Y-105531105D01*
X108737762Y-105558373D01*
X108777136Y-105616092D01*
X108779840Y-105625765D01*
X108781402Y-105632378D01*
X108831645Y-105767086D01*
X108831649Y-105767093D01*
X108917809Y-105882187D01*
X108917812Y-105882190D01*
X109032906Y-105968350D01*
X109032913Y-105968354D01*
X109167620Y-106018596D01*
X109167627Y-106018598D01*
X109227155Y-106024999D01*
X109227172Y-106025000D01*
X109650000Y-106025000D01*
X110150000Y-106025000D01*
X110572828Y-106025000D01*
X110572844Y-106024999D01*
X110632372Y-106018598D01*
X110632379Y-106018596D01*
X110767086Y-105968354D01*
X110767093Y-105968350D01*
X110882187Y-105882190D01*
X110882190Y-105882187D01*
X110968350Y-105767093D01*
X110968354Y-105767086D01*
X111018596Y-105632379D01*
X111018598Y-105632372D01*
X111024999Y-105572844D01*
X111025000Y-105572827D01*
X111025000Y-105425000D01*
X110150000Y-105425000D01*
X110150000Y-106025000D01*
X109650000Y-106025000D01*
X109650000Y-105299000D01*
X109669685Y-105231961D01*
X109722489Y-105186206D01*
X109774000Y-105175000D01*
X109900000Y-105175000D01*
X109900000Y-105049000D01*
X109919685Y-104981961D01*
X109972489Y-104936206D01*
X110024000Y-104925000D01*
X110866103Y-104925000D01*
X110933142Y-104944685D01*
X110940403Y-104949726D01*
X111029207Y-105016204D01*
X111032668Y-105018795D01*
X111032671Y-105018797D01*
X111167517Y-105069091D01*
X111167516Y-105069091D01*
X111174444Y-105069835D01*
X111227127Y-105075500D01*
X112572872Y-105075499D01*
X112632483Y-105069091D01*
X112767331Y-105018796D01*
X112882546Y-104932546D01*
X112909227Y-104896903D01*
X112925485Y-104875188D01*
X112981419Y-104833318D01*
X113024751Y-104825500D01*
X113445943Y-104825500D01*
X113604057Y-104825500D01*
X114099903Y-104825500D01*
X114166942Y-104845185D01*
X114187584Y-104861819D01*
X114357523Y-105031758D01*
X114391008Y-105093081D01*
X114386024Y-105162773D01*
X114369110Y-105193748D01*
X114351205Y-105217665D01*
X114351202Y-105217671D01*
X114300910Y-105352513D01*
X114300909Y-105352517D01*
X114294500Y-105412127D01*
X114294500Y-105412134D01*
X114294500Y-105412135D01*
X114294500Y-106137870D01*
X114294501Y-106137876D01*
X114300908Y-106197483D01*
X114351202Y-106332328D01*
X114351206Y-106332335D01*
X114437452Y-106447544D01*
X114437455Y-106447547D01*
X114552664Y-106533793D01*
X114552671Y-106533797D01*
X114687517Y-106584091D01*
X114687516Y-106584091D01*
X114694444Y-106584835D01*
X114747127Y-106590500D01*
X115672872Y-106590499D01*
X115732483Y-106584091D01*
X115867331Y-106533796D01*
X115982546Y-106447546D01*
X116068796Y-106332331D01*
X116119091Y-106197483D01*
X116125500Y-106137873D01*
X116125499Y-105412128D01*
X116119091Y-105352517D01*
X116111295Y-105331616D01*
X116068797Y-105217671D01*
X116068793Y-105217664D01*
X115982547Y-105102456D01*
X115982548Y-105102456D01*
X115982546Y-105102454D01*
X115867331Y-105016204D01*
X115867327Y-105016202D01*
X115866277Y-105015629D01*
X115865429Y-105014781D01*
X115860231Y-105010890D01*
X115860790Y-105010142D01*
X115816873Y-104966223D01*
X115805933Y-104938897D01*
X115769577Y-104803215D01*
X115727606Y-104730520D01*
X115727606Y-104730518D01*
X115690524Y-104666290D01*
X115690521Y-104666286D01*
X115690520Y-104666284D01*
X115578716Y-104554480D01*
X115578715Y-104554479D01*
X115574385Y-104550149D01*
X115574374Y-104550139D01*
X114887590Y-103863355D01*
X114887588Y-103863352D01*
X114768717Y-103744481D01*
X114768709Y-103744475D01*
X114652177Y-103677196D01*
X114652176Y-103677195D01*
X114636621Y-103668215D01*
X114631785Y-103665423D01*
X114479057Y-103624499D01*
X114399098Y-103624499D01*
X114332059Y-103604814D01*
X114286304Y-103552010D01*
X114276360Y-103482852D01*
X114305385Y-103419296D01*
X114311417Y-103412818D01*
X114481907Y-103242328D01*
X114767821Y-102956414D01*
X114829143Y-102922930D01*
X114898835Y-102927914D01*
G37*
%TD.AperFunction*%
%TA.AperFunction,Conductor*%
G36*
X105064450Y-108570185D02*
G01*
X105110205Y-108622989D01*
X105120631Y-108660617D01*
X105140411Y-108836175D01*
X105137641Y-108836487D01*
X105134134Y-108893656D01*
X105092831Y-108950010D01*
X105027617Y-108975088D01*
X104959197Y-108960928D01*
X104929839Y-108939181D01*
X104910188Y-108919530D01*
X104898787Y-108912638D01*
X104764606Y-108831522D01*
X104640612Y-108792884D01*
X104582466Y-108754148D01*
X104554492Y-108690123D01*
X104565573Y-108621138D01*
X104612192Y-108569095D01*
X104677504Y-108550500D01*
X104997411Y-108550500D01*
X105064450Y-108570185D01*
G37*
%TD.AperFunction*%
%TA.AperFunction,Conductor*%
G36*
X101091942Y-103270185D02*
G01*
X101112584Y-103286819D01*
X104963584Y-107137819D01*
X104997069Y-107199142D01*
X104992085Y-107268834D01*
X104950213Y-107324767D01*
X104884749Y-107349184D01*
X104875903Y-107349500D01*
X103925098Y-107349500D01*
X103858059Y-107329815D01*
X103837417Y-107313181D01*
X103493717Y-106969481D01*
X103493716Y-106969480D01*
X103406904Y-106919360D01*
X103406904Y-106919359D01*
X103406900Y-106919358D01*
X103356785Y-106890423D01*
X103204057Y-106849499D01*
X103045943Y-106849499D01*
X103038347Y-106849499D01*
X103038331Y-106849500D01*
X101869500Y-106849500D01*
X101802461Y-106829815D01*
X101756706Y-106777011D01*
X101745500Y-106725500D01*
X101745499Y-106402130D01*
X101745498Y-106402123D01*
X101745043Y-106397892D01*
X101739091Y-106342517D01*
X101739091Y-106342516D01*
X101685697Y-106199359D01*
X101687266Y-106198773D01*
X101674616Y-106140630D01*
X101686314Y-106100793D01*
X101685253Y-106100398D01*
X101738597Y-105957376D01*
X101738598Y-105957372D01*
X101744999Y-105897844D01*
X101745000Y-105897827D01*
X101745000Y-105750000D01*
X101019000Y-105750000D01*
X100951961Y-105730315D01*
X100906206Y-105677511D01*
X100895000Y-105626000D01*
X100895000Y-105500000D01*
X100799499Y-105500000D01*
X100732460Y-105480315D01*
X100686705Y-105427511D01*
X100675499Y-105376000D01*
X100675499Y-105250000D01*
X101145000Y-105250000D01*
X101745000Y-105250000D01*
X101745000Y-105102172D01*
X101744999Y-105102155D01*
X101738598Y-105042627D01*
X101738596Y-105042620D01*
X101688354Y-104907913D01*
X101688350Y-104907906D01*
X101602190Y-104792812D01*
X101602187Y-104792809D01*
X101487093Y-104706649D01*
X101487086Y-104706645D01*
X101352379Y-104656403D01*
X101352372Y-104656401D01*
X101292844Y-104650000D01*
X101145000Y-104650000D01*
X101145000Y-105250000D01*
X100675499Y-105250000D01*
X100675499Y-105102129D01*
X100675498Y-105102123D01*
X100672636Y-105075500D01*
X100669091Y-105042517D01*
X100665078Y-105031758D01*
X100652818Y-104998886D01*
X100645000Y-104955553D01*
X100645000Y-104636017D01*
X100628334Y-104605496D01*
X100625500Y-104579138D01*
X100625500Y-104332412D01*
X100645185Y-104265373D01*
X100652555Y-104255097D01*
X100654810Y-104252267D01*
X100654816Y-104252262D01*
X100750789Y-104099522D01*
X100810368Y-103929255D01*
X100810369Y-103929249D01*
X100830565Y-103750003D01*
X100830565Y-103749996D01*
X100810369Y-103570750D01*
X100810367Y-103570742D01*
X100756030Y-103415454D01*
X100752469Y-103345676D01*
X100787198Y-103285048D01*
X100849191Y-103252821D01*
X100873072Y-103250500D01*
X101024903Y-103250500D01*
X101091942Y-103270185D01*
G37*
%TD.AperFunction*%
%TA.AperFunction,Conductor*%
G36*
X87799075Y-92992993D02*
G01*
X87864901Y-93107007D01*
X87957993Y-93200099D01*
X88072007Y-93265925D01*
X88135590Y-93282962D01*
X87575427Y-93843124D01*
X87637612Y-93886666D01*
X87835840Y-93979101D01*
X87835849Y-93979105D01*
X88047105Y-94035710D01*
X88047115Y-94035712D01*
X88264999Y-94054775D01*
X88265001Y-94054775D01*
X88482884Y-94035712D01*
X88482894Y-94035710D01*
X88694150Y-93979105D01*
X88694164Y-93979100D01*
X88892383Y-93886669D01*
X88892385Y-93886668D01*
X88954571Y-93843124D01*
X88394410Y-93282962D01*
X88457993Y-93265925D01*
X88572007Y-93200099D01*
X88665099Y-93107007D01*
X88730925Y-92992993D01*
X88747962Y-92929409D01*
X89308124Y-93489570D01*
X89351666Y-93427388D01*
X89422340Y-93275825D01*
X89468512Y-93223386D01*
X89535706Y-93204233D01*
X89602587Y-93224448D01*
X89647105Y-93275824D01*
X89717897Y-93427638D01*
X89717898Y-93427639D01*
X89843402Y-93606877D01*
X89998123Y-93761598D01*
X90151625Y-93869081D01*
X90195249Y-93923657D01*
X90204500Y-93970655D01*
X90204500Y-94469902D01*
X90184815Y-94536941D01*
X90168181Y-94557583D01*
X89969481Y-94756282D01*
X89969479Y-94756285D01*
X89919361Y-94843094D01*
X89919359Y-94843096D01*
X89890425Y-94893209D01*
X89890424Y-94893210D01*
X89890423Y-94893215D01*
X89849499Y-95045943D01*
X89849499Y-95045945D01*
X89849499Y-95214046D01*
X89849500Y-95214059D01*
X89849500Y-98758284D01*
X89829815Y-98825323D01*
X89789652Y-98864400D01*
X89739811Y-98894530D01*
X89619530Y-99014811D01*
X89531522Y-99160393D01*
X89480913Y-99322807D01*
X89474500Y-99393385D01*
X89474500Y-99906613D01*
X89480913Y-99977192D01*
X89531522Y-100139606D01*
X89619530Y-100285188D01*
X89721661Y-100387319D01*
X89755146Y-100448642D01*
X89750162Y-100518334D01*
X89721661Y-100562681D01*
X89621161Y-100663181D01*
X89559838Y-100696666D01*
X89533480Y-100699500D01*
X88175097Y-100699500D01*
X88108058Y-100679815D01*
X88087416Y-100663181D01*
X86361819Y-98937584D01*
X86328334Y-98876261D01*
X86325500Y-98849903D01*
X86325500Y-93970655D01*
X86345185Y-93903616D01*
X86378373Y-93869082D01*
X86531877Y-93761598D01*
X86686598Y-93606877D01*
X86812102Y-93427639D01*
X86882895Y-93275822D01*
X86929066Y-93223385D01*
X86996260Y-93204233D01*
X87063141Y-93224449D01*
X87107658Y-93275824D01*
X87178333Y-93427387D01*
X87221874Y-93489571D01*
X87782037Y-92929408D01*
X87799075Y-92992993D01*
G37*
%TD.AperFunction*%
%TD*%
M02*
