M48
; DRILL file {KiCad 8.0.8} date 2025-03-31T21:39:46-0400
; FORMAT={-:-/ absolute / inch / decimal}
; #@! TF.CreationDate,2025-03-31T21:39:46-04:00
; #@! TF.GenerationSoftware,Kicad,Pcbnew,8.0.8
; #@! TF.FileFunction,Plated,1,4,PTH
FMAT,2
INCH
; #@! TA.AperFunction,Plated,PTH,ViaDrill
T1C0.0079
; #@! TA.AperFunction,Plated,PTH,ViaDrill
T2C0.0118
; #@! TA.AperFunction,Plated,PTH,ComponentDrill
T3C0.0256
; #@! TA.AperFunction,Plated,PTH,ComponentDrill
T4C0.0276
; #@! TA.AperFunction,Plated,PTH,ComponentDrill
T5C0.0394
%
G90
G05
T1
X4.001Y-5.9035
X4.0404Y-5.8248
X4.06Y-5.9035
X4.1152Y-5.7421
T2
X3.5679Y-3.3169
X3.5758Y-4.687
X3.5837Y-4.0886
X3.6309Y-4.0886
X3.6467Y-4.6752
X3.6821Y-4.8878
X3.7569Y-3.2657
X3.7815Y-4.6614
X3.7844Y-3.4311
X3.7963Y-3.2264
X3.7963Y-3.9508
X3.8317Y-4.7146
X3.8553Y-4.6831
X3.8553Y-5.6122
X3.8701Y-4.7411
X3.8711Y-3.9272
X3.8898Y-5.3051
X3.8907Y-4.8878
X3.9026Y-4.2028
X3.9065Y-4.2618
X3.9104Y-4.6791
X3.9144Y-4.5571
X3.9222Y-4.3248
X3.9232Y-5.3051
X3.938Y-4.0846
X3.9459Y-3.5335
X3.9459Y-5.7579
X3.9616Y-5.3406
X4.0285Y-4.1673
X4.0285Y-5.6752
X4.0364Y-3.1988
X4.0364Y-4.3878
X4.0482Y-4.7382
X4.0837Y-4.935
X4.0955Y-5.0965
X4.1093Y-4.5581
X4.1152Y-4.2736
X4.1191Y-4.7028
X4.1703Y-4.187
X4.1703Y-4.2776
X4.1729Y-4.4736
X4.2215Y-4.7815
X4.2352Y-5.5344
X4.2923Y-4.2343
X4.3002Y-5.1594
X4.3396Y-5.0138
X4.3514Y-3.2185
X4.4144Y-4.5177
T3
X3.8829Y-5.9065
X4.1781Y-5.9065
T4
X3.936Y-5.8219
X3.936Y-5.9911
X4.125Y-5.8219
X4.125Y-5.9911
T5
X3.375Y-3.6535
X3.475Y-3.6535
X3.575Y-3.6535
X3.675Y-3.6535
X3.775Y-3.6535
X3.875Y-3.6535
X3.975Y-3.6535
M30
